<?xml version="1.0" standalone="no"?>
<!DOCTYPE svg PUBLIC "-//W3C//DTD SVG 20010904//EN"
 "http://www.w3.org/TR/2001/REC-SVG-20010904/DTD/svg10.dtd">
<svg version="1.0" xmlns="http://www.w3.org/2000/svg"
 width="1600.000000pt" height="1700.000000pt" viewBox="0 0 1600.000000 1700.000000"
 preserveAspectRatio="xMidYMid meet">

<g transform="translate(0.000000,1700.000000) scale(0.100000,-0.100000)"
fill="#000000" stroke="none">
<path d="M7515 14274 c-38 -8 -128 -19 -200 -24 -71 -5 -161 -16 -200 -25 -38
-8 -102 -15 -142 -15 -84 0 -266 -34 -296 -55 -12 -8 -28 -15 -36 -15 -25 0
-150 -91 -198 -144 -66 -74 -133 -182 -133 -216 0 -8 -9 -39 -20 -68 -25 -65
-27 -198 -4 -322 8 -47 19 -144 24 -217 4 -73 11 -137 15 -142 3 -6 10 -70 15
-143 5 -73 16 -162 24 -198 9 -36 16 -81 16 -100 0 -19 9 -55 20 -79 11 -24
20 -51 20 -61 0 -9 9 -29 20 -43 11 -14 20 -33 20 -41 0 -9 8 -29 18 -44 11
-15 32 -47 48 -71 56 -86 238 -261 271 -261 6 0 18 -9 28 -20 10 -11 23 -20
29 -20 6 0 22 -9 36 -20 14 -11 32 -20 40 -20 8 0 32 -9 53 -20 20 -11 44 -20
53 -20 9 0 35 -9 58 -19 49 -23 280 -54 333 -46 111 18 259 57 293 76 8 5 26
14 40 20 14 6 34 16 45 22 11 6 32 17 46 24 15 7 32 20 39 28 7 8 18 15 24 15
14 0 121 95 166 147 28 32 95 117 116 148 43 63 127 260 139 325 3 19 12 51
20 70 8 19 19 85 25 145 7 61 16 144 20 185 5 41 9 105 9 141 1 40 6 71 14 77
18 15 87 31 174 41 75 8 181 25 348 56 44 8 96 15 116 15 20 0 57 7 84 14 26
8 72 18 102 22 60 7 91 30 113 84 12 28 11 36 -8 76 -30 61 -52 68 -187 55
-60 -5 -130 -15 -155 -21 -25 -6 -80 -15 -122 -20 -42 -4 -81 -11 -86 -14 -5
-3 -52 -10 -103 -16 -52 -6 -108 -15 -125 -21 -49 -15 -188 -29 -195 -18 -3 5
-6 49 -7 97 -2 48 -9 110 -16 137 -8 28 -17 71 -20 96 -7 47 -57 155 -101 217
-29 40 -147 150 -181 167 -22 10 -51 27 -66 37 -14 10 -36 18 -47 18 -12 0
-39 9 -61 20 -34 17 -58 20 -167 19 -70 -1 -159 -8 -198 -15z"/>
<path d="M9310 12088 c-42 -12 -88 -50 -117 -97 l-22 -36 -1 -839 0 -838 38
-49 c20 -26 62 -80 92 -120 30 -40 76 -100 102 -133 26 -34 55 -71 65 -84 65
-85 97 -99 253 -111 72 -6 135 -13 139 -15 4 -3 104 -10 222 -16 118 -6 235
-15 260 -20 26 -5 129 -14 230 -20 164 -9 230 -15 451 -37 81 -8 98 -1 155 69
49 60 84 101 136 158 56 63 165 96 390 120 48 5 92 12 98 16 5 3 32 0 60 -7
38 -10 60 -24 90 -57 39 -41 41 -46 36 -95 -2 -29 -10 -66 -17 -84 -8 -18 -11
-35 -7 -39 4 -4 40 -10 79 -14 120 -10 185 -56 232 -164 22 -49 26 -75 27
-152 0 -85 -2 -96 -30 -145 -38 -67 -53 -83 -116 -135 -59 -48 -209 -124 -245
-124 -14 0 -46 -8 -72 -17 -43 -15 -59 -16 -150 -4 -248 31 -750 34 -1809 11
-390 -9 -456 -8 -520 5 -40 9 -80 21 -89 28 -31 25 -80 48 -90 42 -6 -4 -10
-64 -10 -146 0 -157 8 -185 75 -249 l36 -35 1577 -5 c1201 -4 1589 -2 1626 7
53 13 86 38 122 95 l24 38 0 1575 c0 1564 0 1576 -20 1616 -27 52 -72 91 -123
106 -53 16 -3121 17 -3177 1z m2684 -1310 c16 -26 -26 -68 -52 -52 -19 12 -27
37 -18 60 8 20 56 14 70 -8z m-1250 -96 c42 -25 66 -70 75 -144 5 -35 9 -53
10 -41 3 50 99 95 164 76 28 -8 32 -13 32 -43 0 -26 -4 -34 -15 -31 -66 17
-110 6 -110 -29 0 -26 12 -32 78 -32 l57 -1 0 81 c0 52 -5 86 -13 94 -6 6 -47
14 -90 18 l-77 5 0 30 0 30 92 0 c88 0 93 -1 122 -29 41 -39 47 -70 41 -196
l-5 -105 -92 -3 c-113 -3 -166 17 -182 71 -7 23 -9 -12 -10 -130 l-1 -163 -40
0 -40 0 0 225 c0 212 -1 226 -20 245 -14 14 -33 20 -68 20 -67 0 -96 -30 -96
-99 0 -56 14 -78 62 -98 27 -11 37 -11 68 2 20 8 38 15 40 15 2 0 4 -18 4 -39
0 -35 -3 -40 -31 -50 -45 -16 -75 -14 -117 8 -45 23 -77 56 -91 94 -24 62 -7
150 37 198 47 49 150 59 216 21z m-644 5 c13 -7 35 -28 47 -47 22 -31 23 -43
21 -154 -3 -118 -4 -121 -26 -124 -45 -7 -52 12 -52 129 0 123 -8 139 -68 139
l-37 0 3 -121 c3 -130 -2 -149 -44 -149 l-24 0 0 135 0 135 -55 0 -54 0 -3
-132 -3 -133 -30 0 -30 0 -3 168 -2 167 167 0 c114 0 176 -4 193 -13z m287 2
c15 -5 39 -22 53 -37 24 -25 25 -32 25 -157 l0 -130 -90 -3 c-68 -2 -99 1
-128 14 -40 18 -67 57 -67 94 0 71 94 126 178 104 17 -5 22 -14 22 -40 l0 -34
-45 7 c-49 6 -75 -7 -75 -38 0 -24 37 -39 97 -39 l45 0 -3 85 c-3 51 -9 89
-17 97 -8 8 -45 14 -92 17 l-80 3 0 34 0 34 74 0 c41 0 87 -5 103 -11z m974
-12 c53 -36 59 -57 57 -192 l-3 -120 -90 -3 c-136 -4 -190 29 -188 114 2 66
79 115 157 100 33 -6 36 -10 36 -42 0 -34 0 -34 -39 -28 -46 7 -81 -9 -81 -37
0 -24 36 -39 97 -39 l45 0 -3 85 c-3 49 -9 89 -17 97 -6 6 -47 14 -89 18 -65
4 -78 8 -81 23 -8 41 4 47 86 47 66 0 85 -4 113 -23z m442 14 c14 -5 35 -24
48 -42 20 -29 24 -47 27 -149 5 -126 -2 -145 -50 -138 -22 3 -23 6 -26 118 -3
130 -13 150 -78 150 l-33 0 -3 -132 -3 -133 -30 0 -30 0 -3 133 -3 132 -54 0
-55 0 0 -136 0 -135 -32 3 -33 3 -3 155 c-1 85 0 160 2 167 6 16 319 19 359 4z
m195 -158 l-3 -168 -35 0 -35 0 0 133 c0 127 -1 132 -21 132 -31 0 -35 9 -18
41 13 26 20 29 64 29 l50 0 -2 -167z m185 47 c34 -27 41 -53 23 -88 -27 -52
-72 -56 -110 -11 -31 36 -28 62 10 97 31 27 44 28 77 2z"/>
<path d="M7550 11789 c-99 -29 -173 -33 -283 -15 -103 17 -173 10 -198 -20 -6
-8 -17 -14 -24 -14 -7 0 -24 -9 -38 -20 -14 -11 -31 -20 -38 -20 -6 0 -21 -9
-33 -20 -108 -104 -168 -169 -173 -187 -3 -13 -9 -23 -14 -23 -5 0 -9 -5 -9
-10 0 -6 -9 -29 -19 -53 -34 -72 -43 -182 -31 -372 6 -93 16 -187 21 -207 5
-21 16 -95 24 -165 30 -262 36 -309 46 -358 5 -27 14 -95 20 -150 5 -55 16
-131 25 -170 8 -38 18 -116 23 -171 5 -56 13 -110 19 -120 5 -11 13 -55 16
-99 9 -107 26 -192 41 -205 8 -7 124 -12 306 -14 162 -2 317 -8 344 -13 65
-13 139 -52 198 -103 45 -40 117 -144 117 -171 1 -8 9 -32 20 -54 24 -50 26
-172 4 -230 -9 -22 -18 -51 -21 -64 -10 -41 -80 -136 -130 -177 -113 -92 -172
-106 -455 -111 -251 -4 -255 -5 -238 -64 6 -18 10 -61 10 -95 0 -34 7 -81 16
-105 8 -24 18 -78 20 -119 5 -75 20 -147 36 -165 4 -5 8 -19 8 -32 0 -13 4
-31 9 -41 5 -9 26 -51 46 -92 21 -41 50 -93 64 -115 15 -22 31 -47 36 -57 6
-9 31 -44 58 -77 26 -34 47 -63 47 -65 0 -14 223 -243 315 -325 77 -67 280
-221 292 -221 6 0 18 -9 28 -20 10 -11 26 -20 35 -20 10 0 29 -9 43 -20 14
-11 31 -20 37 -20 7 0 29 -9 49 -20 20 -10 65 -31 101 -45 36 -14 74 -30 85
-35 28 -12 113 -39 160 -52 22 -6 58 -19 81 -29 22 -11 54 -19 70 -19 16 0 37
-7 48 -15 10 -8 39 -17 65 -21 25 -4 57 -12 71 -19 14 -7 48 -16 75 -20 28 -4
62 -14 77 -21 15 -8 41 -14 57 -14 17 0 53 -9 81 -20 28 -11 67 -20 86 -20 19
0 49 -7 66 -16 16 -9 56 -18 87 -21 31 -2 77 -13 103 -24 26 -10 65 -19 88
-19 22 0 66 -9 97 -20 32 -11 64 -20 73 -20 8 -1 28 -11 43 -24 31 -25 47 -79
71 -236 7 -47 18 -96 23 -110 6 -14 14 -56 18 -95 4 -38 12 -80 17 -95 6 -14
16 -63 24 -110 20 -129 33 -198 49 -270 8 -36 19 -97 24 -136 5 -39 14 -80 20
-92 6 -11 14 -53 17 -94 4 -40 13 -85 20 -100 8 -14 17 -59 20 -100 4 -40 13
-88 20 -106 8 -19 16 -64 20 -100 3 -37 15 -97 25 -133 10 -36 19 -81 19 -100
0 -19 7 -56 15 -83 8 -27 15 -68 15 -90 0 -23 9 -67 20 -99 11 -31 20 -77 20
-101 0 -25 7 -66 15 -91 9 -25 20 -80 25 -123 5 -42 16 -94 24 -114 9 -21 16
-57 16 -82 0 -24 9 -73 20 -108 11 -34 20 -81 20 -104 0 -22 6 -63 14 -90 8
-27 17 -80 21 -118 18 -179 75 -256 189 -256 30 0 66 4 80 10 14 5 65 14 112
20 48 6 95 15 104 20 9 5 59 14 111 19 52 6 112 17 134 25 22 8 65 16 95 16
30 0 73 7 95 15 22 8 82 20 133 25 51 5 109 17 128 25 20 8 57 15 83 15 25 0
79 9 119 20 39 11 85 20 101 20 45 0 53 19 46 102 -20 213 -100 342 -236 379
-47 13 -105 14 -206 4 l-63 -7 0 36 c0 19 -7 56 -15 80 -9 25 -19 85 -24 133
-4 49 -13 98 -20 110 -6 12 -14 57 -18 100 -3 43 -12 96 -20 118 -8 22 -19 76
-23 120 -5 44 -14 100 -20 125 -7 25 -15 77 -19 116 -4 38 -10 75 -14 81 -4 6
-11 52 -17 103 -6 51 -15 100 -20 110 -6 10 -15 61 -20 112 -5 51 -17 111 -25
133 -8 22 -15 67 -15 100 0 33 -8 78 -16 100 -8 22 -19 78 -23 125 -5 47 -16
105 -25 130 -9 25 -16 68 -16 97 0 28 -5 64 -11 79 -5 16 -15 64 -20 107 -5
43 -16 104 -24 135 -7 31 -17 89 -20 127 -4 39 -11 78 -17 88 -5 9 -13 57 -19
105 -5 48 -16 107 -23 132 -8 25 -17 78 -20 118 -4 40 -13 89 -21 109 -8 19
-15 49 -15 67 0 38 -60 159 -100 204 -16 17 -31 32 -34 32 -2 0 -21 16 -42 36
-22 19 -52 42 -69 50 -16 8 -77 39 -135 70 -58 31 -122 65 -142 75 -20 10 -40
23 -43 29 -3 5 -15 10 -25 10 -10 0 -25 6 -32 13 -7 7 -31 22 -53 33 -125 64
-171 88 -175 95 -3 4 -18 11 -33 14 -15 4 -30 11 -33 16 -3 5 -20 16 -37 24
-18 8 -39 19 -47 25 -8 5 -26 15 -40 21 -14 5 -43 21 -65 34 -22 14 -68 38
-102 55 -35 17 -65 35 -68 40 -3 5 -19 11 -35 15 -17 4 -30 10 -30 15 0 4 -17
15 -37 25 -21 9 -60 29 -88 45 -27 15 -77 42 -110 59 -57 29 -71 37 -112 61
-10 6 -36 19 -58 30 -22 11 -58 31 -80 44 -22 13 -65 37 -96 53 l-56 28 -7
135 c-4 74 -12 173 -17 220 -5 47 -13 174 -18 282 -5 108 -12 201 -15 206 -3
5 -10 113 -16 241 -6 129 -15 243 -21 254 -12 24 -46 57 -153 152 -38 33 -78
69 -91 80 -12 11 -48 43 -80 70 -32 28 -106 92 -164 144 -58 52 -116 100 -128
109 -29 18 -31 62 -3 62 10 0 24 -9 30 -20 6 -11 16 -20 23 -20 7 0 37 -25 67
-55 30 -30 78 -72 105 -94 28 -21 64 -51 81 -67 17 -16 61 -56 99 -89 37 -33
73 -65 79 -70 6 -6 56 -50 111 -99 55 -48 134 -119 175 -156 41 -37 91 -80
110 -96 19 -16 53 -46 75 -66 22 -21 67 -52 100 -69 l60 -32 425 2 c234 1 596
7 805 14 490 15 646 15 775 -1 58 -6 200 -13 315 -14 179 -2 215 0 245 14 19
9 52 24 73 32 65 26 160 97 203 150 57 72 72 137 55 250 -12 79 -16 88 -59
136 -45 50 -50 52 -117 61 -38 5 -109 12 -157 16 -49 3 -88 9 -88 14 0 4 17
16 37 26 49 24 72 58 79 118 6 49 5 52 -35 88 -48 43 -82 47 -222 22 -46 -8
-115 -17 -154 -21 -117 -11 -159 -37 -275 -177 -55 -66 -108 -126 -118 -133
-14 -10 -59 -11 -203 -4 -101 5 -206 13 -234 19 -27 6 -144 15 -260 21 -115 5
-259 17 -320 25 -60 8 -146 15 -191 15 -110 0 -288 18 -350 36 -29 8 -67 30
-92 52 -45 40 -356 440 -371 476 -2 6 -33 45 -68 87 -34 42 -63 80 -63 84 0 7
-67 91 -97 123 -7 7 -13 18 -13 23 0 5 -8 17 -17 27 -10 11 -29 33 -43 51 -14
18 -33 40 -42 49 -10 9 -18 21 -18 26 0 5 -33 50 -73 100 -40 50 -80 102 -89
116 -8 14 -26 36 -39 50 -13 14 -33 39 -43 55 -11 17 -47 64 -80 106 -34 42
-70 89 -81 104 -22 31 -61 80 -85 106 -8 8 -22 26 -30 38 -36 54 -88 106 -169
164 -47 35 -93 67 -101 71 -8 4 -33 18 -55 31 -40 25 -58 34 -130 65 -132 59
-135 59 -235 29z"/>
<path d="M3971 10596 c-7 -8 -26 -18 -42 -21 -31 -7 -139 -105 -139 -128 -1
-6 -9 -30 -20 -52 -25 -52 -25 -115 0 -162 11 -21 20 -43 20 -50 0 -7 26 -39
58 -70 101 -100 0 -93 1242 -93 1246 0 1142 -8 1245 96 48 49 63 71 74 115 23
88 17 144 -26 219 -8 14 -16 32 -19 40 -3 9 -21 26 -40 39 -19 13 -34 27 -34
32 0 5 -6 9 -13 9 -7 0 -29 9 -50 20 -36 20 -56 20 -1141 20 -947 0 -1105 -2
-1115 -14z"/>
<path d="M5053 9175 c-111 -54 -167 -141 -167 -260 0 -86 32 -155 104 -222 19
-18 42 -33 50 -33 8 0 29 -9 45 -20 30 -20 49 -20 1233 -20 l1203 0 52 25 c56
26 131 92 148 128 5 12 17 33 25 47 21 35 15 182 -9 208 -9 10 -17 24 -17 30
0 20 -113 122 -135 122 -11 0 -29 7 -39 15 -17 13 -180 15 -1220 15 l-1201 0
-72 -35z"/>
<path d="M2673 7803 c-16 -6 -41 -14 -56 -18 -32 -6 -147 -118 -147 -143 0 -8
-6 -23 -14 -31 -7 -9 -16 -43 -20 -76 -5 -49 -3 -67 14 -97 11 -21 20 -44 20
-51 0 -22 98 -114 148 -139 l47 -23 1315 0 1315 0 49 24 c45 22 126 91 126
108 0 4 9 17 21 29 18 20 21 35 21 127 l1 105 -36 50 c-55 74 -113 118 -177
131 -80 17 -2588 21 -2627 4z"/>
<path d="M7132 7708 c-7 -7 -12 -34 -12 -60 0 -29 -8 -63 -20 -85 -11 -21 -20
-56 -20 -78 0 -22 -9 -57 -20 -78 -11 -20 -20 -50 -20 -67 0 -16 -8 -51 -19
-77 -10 -26 -21 -69 -25 -95 -4 -26 -11 -50 -17 -53 -5 -4 -9 -24 -9 -45 0
-21 -9 -59 -20 -85 -11 -26 -20 -58 -20 -71 0 -14 -9 -46 -19 -72 -11 -26 -22
-69 -25 -95 -3 -27 -13 -58 -21 -70 -18 -26 -20 -81 -2 -95 6 -5 71 -12 142
-14 l130 -4 79 -42 c70 -38 111 -71 141 -114 71 -104 105 -196 105 -286 0 -60
-26 -156 -62 -232 -21 -43 -131 -160 -150 -160 -6 0 -21 -9 -35 -20 -14 -11
-36 -20 -48 -20 -13 0 -42 -9 -66 -20 -40 -18 -67 -20 -307 -20 l-263 0 -145
-115 c-79 -63 -147 -115 -150 -115 -4 0 -12 -6 -18 -13 -14 -18 -163 -137
-170 -137 -3 0 -16 -9 -28 -20 -59 -53 -129 -110 -136 -110 -7 0 -67 -50 -108
-90 -12 -11 -24 -20 -28 -20 -3 0 -40 -26 -80 -59 -102 -81 -105 -83 -131
-108 -12 -13 -25 -23 -29 -23 -5 0 -156 -117 -218 -170 -7 -5 -40 -31 -73 -58
-34 -26 -67 -53 -75 -59 -19 -16 -258 -204 -334 -263 -89 -69 -130 -99 -145
-107 -8 -3 -22 -13 -30 -20 -34 -30 -99 -77 -159 -115 -42 -27 -69 -53 -82
-79 -25 -47 -27 -137 -5 -145 8 -4 15 -12 15 -19 0 -7 20 -38 45 -68 25 -31
45 -59 45 -62 0 -3 30 -48 68 -98 37 -51 75 -103 85 -117 9 -14 37 -52 61 -85
25 -33 66 -91 92 -130 26 -38 52 -75 58 -80 15 -14 56 -73 56 -80 0 -3 19 -30
42 -60 24 -29 59 -77 78 -106 19 -28 42 -59 50 -69 8 -9 20 -24 25 -32 39 -59
51 -75 69 -90 33 -28 34 -27 143 62 7 6 15 10 19 10 23 0 113 96 142 149 28
55 32 72 32 139 -1 67 -5 84 -30 127 -16 28 -34 60 -40 73 -5 12 -17 25 -25
28 -33 13 -13 44 75 113 49 39 91 71 94 71 2 0 17 12 33 28 42 40 84 75 124
103 58 41 433 340 451 360 9 11 21 19 27 19 6 0 16 9 23 20 7 11 17 20 22 20
12 0 173 130 214 173 9 9 22 17 30 17 7 0 15 7 18 15 3 8 13 17 23 20 9 2 34
23 56 45 22 21 44 39 49 40 5 0 16 7 25 15 9 8 54 45 101 82 47 37 91 72 97
78 7 5 24 19 39 30 14 11 36 30 47 43 11 12 25 22 31 22 6 0 17 9 24 20 7 11
18 20 25 20 7 0 18 9 25 20 7 11 17 20 23 20 6 0 16 6 23 13 7 6 25 21 41 32
16 11 38 29 49 41 12 11 98 81 192 156 163 129 234 198 234 225 0 12 39 98 61
133 5 8 14 26 21 40 38 84 92 197 99 210 24 41 59 118 59 129 0 7 9 24 20 38
11 14 20 32 20 40 0 8 9 26 20 40 11 14 20 34 20 43 0 10 7 23 15 30 8 6 17
22 21 33 3 12 22 56 41 97 68 147 125 265 134 280 5 8 14 26 19 40 6 14 15 32
20 40 6 8 15 26 20 40 6 14 24 50 40 81 17 31 30 63 30 71 0 8 9 24 20 36 11
11 21 35 22 53 3 32 2 32 -114 83 -65 28 -123 57 -130 64 -6 6 -17 12 -23 12
-20 0 -89 47 -234 161 -195 153 -405 365 -501 505 -8 12 -39 57 -67 99 -29 42
-53 83 -53 91 0 18 -36 54 -53 54 -7 0 -18 -5 -25 -12z"/>
<path d="M5565 6410 c-662 -3 -1211 -10 -1225 -14 -115 -42 -207 -177 -197
-288 7 -82 27 -126 86 -185 99 -102 -52 -93 1484 -93 l1348 0 52 24 c61 28
116 82 152 149 33 64 36 175 5 214 -11 14 -20 34 -20 43 0 17 -65 84 -111 113
-37 23 -122 36 -254 39 -66 2 -660 1 -1320 -2z"/>
</g>
</svg>
