<?xml version="1.0" encoding="UTF-8"?>
<svg width="37px" height="42px" viewBox="0 0 37 42" version="1.1" xmlns="http://www.w3.org/2000/svg" xmlns:xlink="http://www.w3.org/1999/xlink">
    <!-- Generator: sketchtool 53.2 (72643) - https://sketchapp.com -->
    <title>81B67977-6CAC-4076-9BAD-432A98F9BA7D</title>
    <desc>Created with sketchtool.</desc>
    <defs>
        <path d="M18.5065789,29 L14.5,34.3421053 L10.4934211,29 L4,29 C1.790861,29 2.705415e-16,27.209139 0,25 L0,4 C-2.705415e-16,1.790861 1.790861,4.05812251e-16 4,0 L25,0 C27.209139,-4.05812251e-16 29,1.790861 29,4 L29,25 C29,27.209139 27.209139,29 25,29 L18.5065789,29 Z" id="path-1"></path>
        <filter x="-24.1%" y="-14.6%" width="148.3%" height="140.8%" filterUnits="objectBoundingBox" id="filter-2">
            <feOffset dx="0" dy="2" in="SourceAlpha" result="shadowOffsetOuter1"></feOffset>
            <feGaussianBlur stdDeviation="2" in="shadowOffsetOuter1" result="shadowBlurOuter1"></feGaussianBlur>
            <feColorMatrix values="0 0 0 0 0   0 0 0 0 0   0 0 0 0 0  0 0 0 0.139237998 0" type="matrix" in="shadowBlurOuter1"></feColorMatrix>
        </filter>
    </defs>
    <g id="1440px---noon-Locker" stroke="none" stroke-width="1" fill="none" fill-rule="evenodd">
        <g id="1440px---noon-Locker---Checkout---Add-New-Address-via-Map_Locker-selected" transform="translate(-852.000000, -269.000000)">
            <g id="Order-Details" transform="translate(238.000000, 145.000000)">
                <g id="Group-7-Copy-4" transform="translate(618.000000, 126.000000)">
                    <g id="Combined-Shape" opacity="0.9">
                        <use fill="black" fill-opacity="1" filter="url(#filter-2)" xlink:href="#path-1"></use>
                        <use fill="#404553" fill-rule="evenodd" xlink:href="#path-1"></use>
                    </g>
                    <g id="Group" transform="translate(7.000000, 7.000000)" fill="#FEEE00">
                        <path d="M0,7.77229412 C0,11.7502941 3.35761427,14.8408235 7.2623304,14.8408235 C11.349297,14.8408235 14.6613486,11.5207059 14.6613486,7.46629412 C14.6613486,5.09488235 13.5217575,3.01411765 11.835415,1.62176471 L10.6046987,3.76376471 C11.6224974,4.63588235 12.3215331,5.98217647 12.3215331,7.49682353 C12.3215331,10.2508235 10.0577721,12.5151176 7.2623304,12.5151176 C4.48195942,12.5151176 2.2181984,10.2508235 2.2181984,7.42041176 C2.2181984,7.08370588 2.24851506,6.74717647 2.30932363,6.42582353 L0,7.77229412 Z" id="Fill-14"></path>
                        <path d="M9.54119717,0.367235294 C8.84233675,0.107117647 8.21953085,0 7.5965497,0 C7.12550236,0 6.71526358,0.0612352941 6.41139598,0.122470588 L4.83142468,2.87647059 C5.40866796,2.53976471 6.15326624,2.35623529 6.95832261,2.35623529 C7.42936995,2.35623529 7.85467944,2.41729412 8.29541013,2.53976471 L9.54119717,0.367235294 Z" id="Fill-15"></path>
                    </g>
                </g>
            </g>
        </g>
    </g>
</svg>