<?xml version="1.0" encoding="utf-8"?>
<!-- Generator: Adobe Illustrator 24.0.0, SVG Export Plug-In . SVG Version: 6.00 Build 0)  -->
<svg version="1.1" id="Layer_1" xmlns="http://www.w3.org/2000/svg" xmlns:xlink="http://www.w3.org/1999/xlink" x="0px" y="0px"
	 viewBox="0 0 82 22" style="enable-background:new 0 0 82 22;" xml:space="preserve">
<style type="text/css">
	.st0{fill:#3F6CB3;}
	.st1{enable-background:new    ;}
	.st2{fill:#FFFFFF;}
</style>
<g>
	<g>
		<path class="st0" d="M81.2,2.1L81.2,2.1c-1-1.2-2.5-1.9-4-1.9h-67C4.6,0.1,0,5,0,11.1S4.6,22,10.2,22h60.4c1.5,0,2.9-0.7,3.8-1.8
			l6.6-8.3c0.6-0.7,0.9-1.7,0.9-2.6v-5C82,3.5,81.7,2.7,81.2,2.1z M77.5,5.8c-0.9,0-1.6-0.7-1.6-1.6s0.7-1.6,1.6-1.6
			s1.6,0.7,1.6,1.6S78.4,5.8,77.5,5.8z"/>
	</g>
</g>
<g class="st1">
	<path class="st2" d="M16.8,11.1H10c0.1,1.2,0.8,1.8,2.3,1.8c0.4,0,0.9-0.1,1.3-0.2c0.4-0.1,0.8-0.3,1.1-0.6l1.1,1.7
		c-0.5,0.4-1.1,0.7-1.7,0.9s-1.3,0.3-2,0.3c-0.9,0-1.7-0.2-2.4-0.5c-0.7-0.3-1.2-0.8-1.6-1.4c-0.4-0.6-0.6-1.3-0.6-2.1
		c0-1,0.2-1.9,0.7-2.6C8.6,7.5,9.2,6.9,10,6.5c0.8-0.4,1.7-0.7,2.7-0.7c0.9,0,1.6,0.2,2.2,0.5s1.1,0.8,1.5,1.4
		c0.3,0.6,0.5,1.3,0.5,2.1C16.9,10.1,16.9,10.6,16.8,11.1z M11.1,8.2c-0.4,0.3-0.7,0.8-0.9,1.3h4.4c0-0.6-0.2-1-0.5-1.3
		c-0.4-0.3-0.8-0.5-1.4-0.5C12,7.7,11.5,7.9,11.1,8.2z"/>
	<path class="st2" d="M23.4,10.4l2.5,4.4h-2.7l-1.4-2.7l-2.5,2.7h-2.9l4.4-4.5l-2.3-4.3h2.7l1.4,2.6l2.5-2.6h2.8L23.4,10.4z"/>
	<path class="st2" d="M35.8,6.3c0.6,0.3,1.1,0.8,1.4,1.4c0.3,0.6,0.5,1.3,0.5,2.1c0,1-0.2,1.9-0.6,2.6c-0.4,0.8-1,1.4-1.8,1.8
		s-1.6,0.7-2.5,0.7c-1.3,0-2.3-0.4-2.9-1.3L29.1,18h-2.6l2.4-12h2.4l-0.2,0.9c0.7-0.7,1.6-1,2.7-1C34.6,5.8,35.2,6,35.8,6.3z
		 M33.9,12.4c0.4-0.2,0.7-0.6,0.9-1c0.2-0.4,0.3-0.9,0.3-1.5c0-0.6-0.2-1.1-0.5-1.4c-0.4-0.3-0.9-0.5-1.5-0.5
		c-0.5,0-0.9,0.1-1.3,0.4c-0.4,0.2-0.7,0.6-0.9,1c-0.2,0.4-0.3,0.9-0.3,1.5c0,0.6,0.2,1.1,0.5,1.4s0.8,0.5,1.5,0.5
		C33,12.8,33.5,12.7,33.9,12.4z"/>
	<path class="st2" d="M43.9,6.1c0.5-0.2,1.2-0.3,1.9-0.3l-0.5,2.4c-0.3,0-0.5,0-0.6,0c-0.8,0-1.4,0.2-1.9,0.6
		c-0.5,0.4-0.8,1-0.9,1.8l-0.9,4.3h-2.6l1.8-8.8h2.4L42.5,7C42.9,6.6,43.3,6.3,43.9,6.1z"/>
	<path class="st2" d="M54.9,11.1h-6.8c0.1,1.2,0.8,1.8,2.3,1.8c0.4,0,0.9-0.1,1.3-0.2c0.4-0.1,0.8-0.3,1.1-0.6l1.1,1.7
		c-0.5,0.4-1.1,0.7-1.7,0.9s-1.3,0.3-2,0.3c-0.9,0-1.7-0.2-2.4-0.5c-0.7-0.3-1.2-0.8-1.6-1.4c-0.4-0.6-0.6-1.3-0.6-2.1
		c0-1,0.2-1.9,0.7-2.6c0.4-0.8,1.1-1.4,1.8-1.8c0.8-0.4,1.7-0.7,2.7-0.7c0.9,0,1.6,0.2,2.2,0.5c0.6,0.3,1.1,0.8,1.5,1.4
		C54.8,8.2,55,8.9,55,9.7C55,10.1,55,10.6,54.9,11.1z M49.2,8.2c-0.4,0.3-0.7,0.8-0.9,1.3h4.4c0-0.6-0.2-1-0.5-1.3
		c-0.4-0.3-0.8-0.5-1.4-0.5S49.6,7.9,49.2,8.2z"/>
	<path class="st2" d="M56.8,14.7c-0.7-0.2-1.2-0.4-1.6-0.7l1-1.9c0.4,0.3,0.9,0.5,1.4,0.6s1.1,0.2,1.7,0.2c0.6,0,1-0.1,1.3-0.2
		c0.3-0.1,0.4-0.4,0.4-0.6c0-0.2-0.1-0.4-0.4-0.5s-0.7-0.2-1.2-0.3c-0.6-0.1-1.2-0.3-1.6-0.4c-0.4-0.1-0.8-0.4-1.1-0.7
		c-0.3-0.3-0.5-0.8-0.5-1.3c0-1,0.4-1.7,1.2-2.3c0.8-0.5,1.9-0.8,3.2-0.8c0.6,0,1.2,0.1,1.8,0.2c0.6,0.1,1.1,0.3,1.5,0.5l-0.9,1.9
		c-0.7-0.4-1.6-0.7-2.6-0.7c-0.6,0-1,0.1-1.3,0.2c-0.3,0.2-0.4,0.4-0.4,0.6c0,0.2,0.1,0.4,0.4,0.5c0.3,0.1,0.7,0.2,1.3,0.3
		c0.6,0.1,1.1,0.3,1.5,0.4c0.4,0.1,0.7,0.4,1,0.7c0.3,0.3,0.4,0.8,0.4,1.3c0,1-0.4,1.7-1.2,2.3c-0.8,0.5-1.9,0.8-3.2,0.8
		C58.2,14.9,57.5,14.8,56.8,14.7z"/>
	<path class="st2" d="M65.5,14.7c-0.7-0.2-1.2-0.4-1.6-0.7l1-1.9c0.4,0.3,0.9,0.5,1.4,0.6c0.6,0.2,1.1,0.2,1.7,0.2
		c0.6,0,1-0.1,1.3-0.2c0.3-0.1,0.4-0.4,0.4-0.6c0-0.2-0.1-0.4-0.4-0.5s-0.7-0.2-1.2-0.3c-0.6-0.1-1.2-0.3-1.6-0.4
		c-0.4-0.1-0.8-0.4-1.1-0.7C65.2,9.9,65,9.5,65,8.9c0-1,0.4-1.7,1.2-2.3c0.8-0.5,1.9-0.8,3.2-0.8c0.6,0,1.2,0.1,1.8,0.2
		c0.6,0.1,1.1,0.3,1.5,0.5l-0.9,1.9c-0.7-0.4-1.6-0.7-2.6-0.7c-0.6,0-1,0.1-1.3,0.2c-0.3,0.2-0.4,0.4-0.4,0.6c0,0.2,0.1,0.4,0.4,0.5
		c0.3,0.1,0.7,0.2,1.3,0.3c0.6,0.1,1.1,0.3,1.5,0.4c0.4,0.1,0.7,0.4,1,0.7c0.3,0.3,0.4,0.8,0.4,1.3c0,1-0.4,1.7-1.2,2.3
		c-0.8,0.5-1.9,0.8-3.2,0.8C66.9,14.9,66.2,14.8,65.5,14.7z"/>
</g>
</svg>
