<svg width="338" height="186" viewBox="0 0 338 186" fill="none" xmlns="http://www.w3.org/2000/svg">
<path d="M294.031 158H318.031H294.031Z" fill="#8E99A4"/>
<path d="M294.031 158H318.031" stroke="#C6CBDB" stroke-width="3.2" stroke-linecap="round" stroke-linejoin="round"/>
<path d="M19.0312 158H286.031H19.0312Z" fill="#8E99A4"/>
<path d="M19.0312 158H286.031" stroke="#C6CBDB" stroke-width="3.2" stroke-linecap="round" stroke-linejoin="round"/>
<path d="M144.031 109.129C127.802 112.852 91.4928 118.52 72.7827 100.428C51.034 79.3902 63.4948 34.2398 77.8777 26" stroke="#E8EAF1" stroke-width="2.88" stroke-linecap="round" stroke-dasharray="8.47"/>
<path d="M276.235 60.9373C286.063 67.5535 300.959 81.2637 287.932 97.664C273.391 115.996 238.828 115.544 225.031 114.552" stroke="#E8EAF1" stroke-width="2.88" stroke-linecap="round" stroke-dasharray="8.46"/>
<path d="M21.0312 155.937H306.031C306.031 138.226 287.647 129.365 269.257 138.226C269.257 111.654 250.872 102.798 232.482 102.798L158.932 93.9373L131.35 102.777H112.965C103.789 93.9373 85.383 102.777 85.383 120.489C70.4366 112.543 57.4821 125.023 57.8006 138.2C39.4159 129.365 30.2236 138.221 21.0312 155.937Z" fill="#F4F6F8"/>
<path d="M120.03 79.8162H202.698V139.957H120.03V79.8162Z" fill="#E8EAF1"/>
<path d="M195.206 83.3245H209.239V135.781H195.206V83.3245Z" fill="#D1D4D1"/>
<path d="M127.046 134.847H113.013V85.1606H127.046V134.847Z" fill="#EEF0F4"/>
<path d="M121.031 134.847H113.013V85.1606H121.031V134.847Z" fill="#E8EAF1"/>
<path d="M209.239 134.847H195.206V85.1606H209.239V134.847Z" fill="#EEF0F4"/>
<path d="M203.225 134.847H195.206V85.1606H203.225V134.847Z" fill="#E8EAF1"/>
<path d="M191.198 78.8141H213.25V83.8255C213.25 86.0398 211.455 87.8348 209.241 87.8348H195.208C192.993 87.8348 191.198 86.0398 191.198 83.8255V78.8141Z" fill="#EEF0F4"/>
<path d="M195.208 131.938H209.241C211.455 131.938 213.25 133.733 213.25 135.947V140.959H191.198V135.947C191.198 133.733 192.993 131.938 195.208 131.938Z" fill="#EEF0F4"/>
<path d="M127.049 87.8348H113.016C110.802 87.8348 109.007 86.0398 109.007 83.8255V78.8141H131.058V83.8255C131.058 86.0398 129.263 87.8348 127.049 87.8348Z" fill="#EEF0F4"/>
<path d="M131.058 140.959H109.007V135.947C109.007 133.733 110.802 131.938 113.016 131.938H127.049C129.263 131.938 131.058 133.733 131.058 135.947V140.959Z" fill="#EEF0F4"/>
<path d="M107 69.1914H217.257V77.8111C217.257 78.9187 216.36 79.8162 215.252 79.8162H109.004C107.897 79.8162 107 78.9187 107 77.8111V69.1914Z" fill="#EEF0F4"/>
<path d="M107 69.1914H211.243V77.8111C211.243 78.9187 210.345 79.8162 209.239 79.8162H109.004C107.897 79.8162 107 78.9187 107 77.8111V69.1914Z" fill="#E8EAF1"/>
<path d="M109.004 139.957H215.252C216.36 139.957 217.257 140.854 217.257 141.962V151.984H107V141.962C107 140.854 107.897 139.957 109.004 139.957Z" fill="#EEF0F4"/>
<path d="M109.004 139.957H209.239C210.345 139.957 211.243 140.854 211.243 141.962V151.984H107V141.962C107 140.854 107.897 139.957 109.004 139.957Z" fill="#E8EAF1"/>
<path d="M219.264 59.2484V69.7924C219.264 70.9 218.366 71.7975 217.26 71.7975H104.997C103.891 71.7975 102.993 70.9 102.993 69.7924V59.2484C102.995 58.3701 103.561 57.5938 104.396 57.324L157.119 40.9656L159.345 40.2838C160.506 39.9231 161.751 39.9231 162.912 40.2838L217.861 57.324C218.696 57.5938 219.262 58.3701 219.264 59.2484Z" fill="#EEF0F4"/>
<path d="M211.245 59.2484V69.7925C211.245 70.9001 210.348 71.7976 209.241 71.7976H104.997C103.891 71.7976 102.993 70.9001 102.993 69.7925V59.2484C102.995 58.3702 103.561 57.5939 104.396 57.3241L157.119 40.9657L209.842 57.3241C210.677 57.5939 211.243 58.3702 211.245 59.2484Z" fill="#E8EAF1"/>
<path d="M111.009 63.779V63.6725L160.524 48.3025C160.911 48.1832 161.325 48.1832 161.711 48.3025L211.242 63.6725V63.779H111.009Z" fill="#E8EAF1"/>
<path d="M104.997 147.975H217.26C218.366 147.975 219.264 148.873 219.264 149.98V153.99C219.264 155.096 218.366 155.994 217.26 155.994H104.997C103.891 155.994 102.993 155.096 102.993 153.99V149.98C102.993 148.873 103.891 147.975 104.997 147.975Z" fill="#EEF0F4"/>
<path d="M104.997 147.975H211.245C212.353 147.975 213.25 148.873 213.25 149.98V153.99C213.25 155.096 212.353 155.994 211.245 155.994H104.997C103.891 155.994 102.993 155.096 102.993 153.99V149.98C102.993 148.873 103.891 147.975 104.997 147.975Z" fill="#E8EAF1"/>
<path d="M104.997 155.994H111.012C109.904 155.994 109.007 155.096 109.007 153.99V149.98C109.007 148.873 109.904 147.975 111.012 147.975H113.016V141.962C113.016 140.854 113.913 139.957 115.021 139.957V135.947C115.021 133.733 116.816 131.938 119.03 131.938V87.8347C116.816 87.8347 115.021 86.0397 115.021 83.8254V79.8161C113.913 79.8161 113.016 78.9186 113.016 77.811V71.7975H111.012C109.904 71.7975 109.007 70.9 109.007 69.7924V59.2484C109.009 58.3701 109.576 57.5938 110.41 57.324L163.134 40.9656L164.136 40.661L162.912 40.2838C161.751 39.9231 160.506 39.9231 159.345 40.2838L157.119 40.9656L104.396 57.324C103.561 57.5938 102.995 58.3701 102.993 59.2484V69.7924C102.993 70.9 103.891 71.7975 104.997 71.7975H107.002V77.811C107.002 78.9186 107.9 79.8161 109.007 79.8161V83.8254C109.007 86.0397 110.802 87.8347 113.016 87.8347V131.938C110.802 131.938 109.007 133.733 109.007 135.947V139.957C107.9 139.957 107.002 140.854 107.002 141.962V147.975H104.997C103.891 147.975 102.993 148.873 102.993 149.98V153.99C102.993 155.096 103.891 155.994 104.997 155.994Z" fill="white"/>
<path d="M111.009 131.938V87.8347H115.018V131.938H111.009Z" fill="white"/>
<path d="M218.448 55.4135L163.503 38.3613C161.954 37.8796 160.295 37.8796 158.746 38.3613L103.804 55.4135C102.123 55.9292 100.979 57.4837 100.985 59.242V69.7924C100.985 72.0068 102.78 73.8018 104.995 73.8018V77.8111C104.996 79.4307 105.969 80.8908 107.464 81.512C106.826 83.0335 106.846 84.7505 107.516 86.2573C108.187 87.7641 109.452 88.9268 111.009 89.471V107.881C111.009 108.989 111.907 109.886 113.013 109.886C114.121 109.886 115.018 108.989 115.018 107.881V89.8399H125.041V129.933H115.018V123.919C115.018 122.812 114.121 121.914 113.013 121.914C111.907 121.914 111.009 122.812 111.009 123.919V130.302C108.615 131.149 107.01 133.408 107 135.947V138.509C105.763 139.22 104.999 140.536 104.995 141.962V145.971C102.78 145.971 100.985 147.766 100.985 149.98V155.994C100.985 157.101 101.883 157.999 102.99 157.999H219.261C220.369 157.999 221.266 157.101 221.266 155.994V149.98C221.262 148.554 220.498 147.238 219.261 146.528V141.962C219.261 139.747 217.466 137.951 215.252 137.951V135.947C215.242 133.408 213.637 131.149 211.243 130.302V89.471C212.754 88.958 213.994 87.8559 214.679 86.4151C215.365 84.9735 215.438 83.3171 214.883 81.8213H215.252C217.466 81.8213 219.261 80.0254 219.261 77.8111V73.2447C220.498 72.5345 221.262 71.2185 221.266 69.7924V59.242C221.273 57.4837 220.128 55.9292 218.448 55.4135ZM104.995 59.242L159.935 42.1899C160.71 41.9494 161.54 41.9494 162.314 42.1899L217.257 59.242V69.7924H104.995V59.242ZM113.013 85.8306C111.907 85.8306 111.009 84.9331 111.009 83.8255C111.009 82.7188 111.907 81.8213 113.013 81.8213H129.05V83.8255C129.05 84.9331 128.153 85.8306 127.046 85.8306H113.013ZM189.191 81.8213V83.8255C189.202 86.3647 190.806 88.624 193.201 89.471V130.302C190.806 131.149 189.202 133.408 189.191 135.947V137.951H133.061V135.947C133.05 133.408 131.446 131.149 129.05 130.302V89.471C131.446 88.624 133.05 86.3647 133.061 83.8255V81.8213H189.191ZM207.233 129.933H197.21V89.8399H207.233V129.933ZM111.009 135.947C111.009 134.84 111.907 133.942 113.013 133.942H127.046C128.153 133.942 129.05 134.84 129.05 135.947V137.951H111.009V135.947ZM109.004 141.962H215.252V145.971H109.004V141.962ZM217.257 153.99H104.995V149.98H217.257V153.99ZM193.201 137.951V135.947C193.201 134.84 194.099 133.942 195.205 133.942H209.238C210.345 133.942 211.243 134.84 211.243 135.947V137.951H193.201ZM211.243 83.8255C211.243 84.9331 210.345 85.8306 209.238 85.8306H195.205C194.099 85.8306 193.201 84.9331 193.201 83.8255V81.8213H209.238C210.345 81.8213 211.243 82.7188 211.243 83.8255ZM215.252 77.8111H109.004V73.8018H215.252V77.8111Z" fill="#C6CBDB"/>
<path d="M111.011 65.7832H211.244C212.372 65.7336 213.258 64.8013 213.25 63.6725C213.25 62.7962 212.682 62.0207 211.846 61.7583L162.312 46.3864C161.539 46.1459 160.71 46.1459 159.937 46.3864L110.409 61.7583C109.573 62.0207 109.005 62.7962 109.006 63.6725V63.779C109.006 64.8857 109.903 65.7832 111.011 65.7832ZM161.128 50.2167L198.367 61.7739H123.89L161.128 50.2167Z" fill="#C6CBDB"/>
<path d="M112.252 117.744C112.366 117.802 112.487 117.843 112.613 117.865C112.746 117.888 112.88 117.9 113.014 117.905C113.545 117.898 114.053 117.689 114.437 117.324C114.619 117.132 114.761 116.907 114.859 116.662C115.161 115.915 114.996 115.059 114.437 114.477C114.246 114.296 114.022 114.153 113.776 114.056C113.535 113.953 113.277 113.899 113.014 113.896C112.2 113.891 111.463 114.379 111.151 115.132C110.839 115.884 111.013 116.751 111.591 117.324L111.892 117.565C112.004 117.64 112.125 117.701 112.252 117.744Z" fill="#C6CBDB"/>
<path d="M323.033 107.472C327.029 113.391 328.031 128.247 328.031 128.247L324.315 130.691C318.811 134.31 309.31 129.777 303.095 120.596C296.879 111.414 296.308 100.995 301.813 97.3814L305.529 94.9373C305.529 94.9373 319.15 101.696 323.033 107.472Z" fill="#EBF1F7"/>
<path d="M327.841 127.668C333.357 123.994 332.99 113.75 327.021 104.786C321.051 95.8221 311.741 91.5332 306.224 95.2065C300.708 98.8798 301.075 109.124 307.044 118.088C313.014 127.052 322.324 131.341 327.841 127.668Z" fill="#F4F6F8"/>
<path d="M9.36537 119.741C6.70145 123.416 6.03125 132.648 6.03125 132.648L8.50931 134.164C12.1814 136.41 18.5173 133.595 22.6624 127.877C26.8076 122.158 27.168 115.7 23.5185 113.454L21.0404 111.937C21.0404 111.937 11.9617 116.165 9.36537 119.741Z" fill="#EBF1F7"/>
<path d="M18.8582 125.817C22.8376 119.841 23.4551 113.26 20.2372 111.117C17.0194 108.974 11.1849 112.082 7.20543 118.057C3.22598 124.033 2.60856 130.615 5.82639 132.758C9.04421 134.901 14.8788 131.793 18.8582 125.817Z" fill="#F4F6F8"/>
<path d="M267.628 171.002C273.837 171.106 285.031 175.999 285.031 175.999L284.99 178.795C284.926 182.932 277.049 186.171 267.394 185.993C257.738 185.815 249.967 182.336 250.032 178.193L250.073 175.397C250.073 175.397 261.595 170.897 267.628 171.002Z" fill="#EBF1F7"/>
<path d="M286.029 174.787C286.097 170.646 278.319 167.16 268.655 167.001C258.991 166.842 251.102 170.071 251.034 174.213C250.966 178.355 258.745 181.84 268.409 181.999C278.072 182.158 285.962 178.929 286.029 174.787Z" fill="#F4F6F8"/>
<path d="M75.8032 165.013C70.8486 165.264 62.0312 169.461 62.0312 169.461L62.1358 171.689C62.2926 174.988 68.6646 177.347 76.3667 176.958C84.0688 176.569 90.1851 173.581 90.0283 170.282L89.9237 168.054C89.9237 168.054 80.6185 164.773 75.8032 165.013Z" fill="#EBF1F7"/>
<path d="M76.3234 174.993C84.0462 174.616 90.176 171.628 90.0147 168.318C89.8534 165.009 83.4621 162.631 75.7393 163.007C68.0164 163.383 61.8866 166.372 62.0479 169.681C62.2092 172.991 68.6005 175.369 76.3234 174.993Z" fill="#F4F6F8"/>
<path d="M305.866 164.008C302.336 164.172 296.031 166.974 296.031 166.974L296.108 168.457C296.219 170.659 300.772 172.232 306.271 171.972C311.771 171.711 316.141 169.708 316.029 167.523L315.953 166.04C315.953 166.04 309.306 163.85 305.866 164.008Z" fill="#EBF1F7"/>
<path d="M306.226 170.995C311.742 170.726 316.127 168.72 316.02 166.513C315.912 164.307 311.353 162.736 305.837 163.005C300.32 163.274 295.936 165.28 296.043 167.487C296.151 169.693 300.71 171.264 306.226 170.995Z" fill="#F4F6F8"/>
<path d="M62.0312 64C77.4952 64 90.0312 51.464 90.0312 36C90.0312 20.536 77.4952 8 62.0312 8C46.5673 8 34.0312 20.536 34.0312 36C34.0312 51.464 46.5673 64 62.0312 64Z" fill="#FDD760" stroke="#FFC729" stroke-width="5.6"/>
<path d="M63.0312 18V42V18Z" fill="#FDD760"/>
<path d="M63.0312 18V42" stroke="#FFC729" stroke-width="5.6" stroke-linecap="round"/>
<path d="M63.0312 54V52V54Z" fill="#FDD760"/>
<path d="M63.0312 54V52" stroke="#FFC729" stroke-width="5.6" stroke-linecap="round"/>
<g style="mix-blend-mode:screen" opacity="0.38">
<path d="M45.1834 35.0571C45.1871 22.6285 53.409 11.6885 65.3767 8.18836C54.0605 6.8763 43.0693 12.5031 37.5496 22.4341C32.0299 32.3651 33.0743 44.6344 40.1938 53.497C47.3133 62.3597 59.0985 66.0613 70.0312 62.8686C55.8674 61.2224 45.1858 49.2668 45.1834 35.0571Z" fill="#FDD760"/>
</g>
<path fill-rule="evenodd" clip-rule="evenodd" d="M62.0312 64C77.4952 64 90.0312 51.464 90.0312 36C90.0312 20.536 77.4952 8 62.0312 8C46.5673 8 34.0312 20.536 34.0312 36C34.0312 51.464 46.5673 64 62.0312 64Z" stroke="#FFC729" stroke-width="5.6"/>
<path d="M258.739 5.12451L312.743 49.6621L287.929 79.7499L233.925 35.2123L258.739 5.12451Z" fill="#E6ECF4"/>
<g style="mix-blend-mode:multiply" opacity="0.27">
<path d="M250.025 30.0425C250.906 28.9752 252.484 28.8235 253.552 29.7038L258.383 33.6882C259.45 34.5685 259.602 36.1473 258.722 37.2146C257.842 38.2819 256.263 38.4336 255.195 37.5533L250.364 33.5689C249.297 32.6886 249.145 31.1098 250.025 30.0425Z" fill="#DAE2EC"/>
</g>
<g style="mix-blend-mode:multiply" opacity="0.27">
<path d="M283.113 58.0101C283.993 56.9427 285.572 56.7911 286.64 57.6713L291.471 61.6558C292.538 62.536 292.69 64.1148 291.81 65.1821C290.929 66.2494 289.351 66.4011 288.283 65.5209L283.452 61.5364C282.385 60.6562 282.233 59.0774 283.113 58.0101Z" fill="#DAE2EC"/>
</g>
<g style="mix-blend-mode:multiply" opacity="0.27">
<path d="M256.461 21.8213C257.341 20.754 258.92 20.6024 259.987 21.4826L264.819 25.4671C265.886 26.3473 266.038 27.9261 265.157 28.9934C264.277 30.0607 262.698 30.2124 261.631 29.3321L256.8 25.3477C255.732 24.4674 255.581 22.8886 256.461 21.8213Z" fill="#DAE2EC"/>
</g>
<g style="mix-blend-mode:multiply" opacity="0.27">
<path d="M289.549 49.7889C290.429 48.7216 292.008 48.5699 293.075 49.4501L297.906 53.4346C298.974 54.3148 299.125 55.8936 298.245 56.9609C297.365 58.0282 295.786 58.1799 294.719 57.2997L289.888 53.3152C288.82 52.435 288.669 50.8562 289.549 49.7889Z" fill="#DAE2EC"/>
</g>
<circle cx="273.128" cy="42.9609" r="10" transform="rotate(21.3528 273.128 42.9609)" fill="#DDE5EF"/>
</svg>
