<svg width="17" height="17" viewBox="0 0 17 17" fill="none" xmlns="http://www.w3.org/2000/svg">
<path d="M8.13183 16.0276C12.2658 16.0276 15.6299 12.6635 15.6299 8.52955C15.6299 4.37051 12.2634 0.990479 8.13183 0.990479C4.00025 0.990479 0.633778 4.37051 0.633778 8.52955C0.633778 12.6635 3.99785 16.0276 8.13183 16.0276Z" fill="#FEEE00" stroke="#404554"/>
<path d="M10.4769 8.77907L10.4769 8.77901L10.4716 8.78333C10.3051 8.91944 10.1706 9.17541 10.2573 9.44775L10.7494 11.3753C10.76 11.4326 10.7439 11.4735 10.7203 11.5016C10.6932 11.534 10.6527 11.5532 10.6108 11.5532C10.6041 11.5532 10.5914 11.552 10.575 11.5472C10.559 11.5425 10.5436 11.5355 10.5306 11.5273L10.5307 11.5271L10.5215 11.5217L8.72256 10.4592C8.72236 10.4591 8.72215 10.459 8.72194 10.4589C8.51204 10.3341 8.25031 10.334 8.04035 10.4587C8.04003 10.4588 8.03971 10.459 8.03939 10.4592L6.25449 11.5085L6.25439 11.5084L6.24482 11.5144C6.2318 11.5227 6.21638 11.5297 6.20035 11.5344C6.18403 11.5392 6.17129 11.5404 6.16455 11.5404C6.11889 11.5404 6.0705 11.518 6.04104 11.4842C6.02768 11.4688 6.02044 11.4537 6.0172 11.4401C6.01419 11.4274 6.01285 11.4089 6.02076 11.382L6.02096 11.3821L6.02384 11.3708L6.52085 9.42393L6.52092 9.42395L6.52247 9.41728C6.57641 9.18584 6.49803 8.92929 6.30378 8.77052L6.30381 8.77048L6.29925 8.76689L4.67512 7.48703C4.64585 7.46335 4.63437 7.44038 4.62948 7.42171C4.62402 7.40082 4.62446 7.37538 4.63379 7.34869C4.65219 7.29607 4.69882 7.25247 4.7735 7.24802L4.7735 7.24802L4.77584 7.24787L6.8848 7.10697L6.88482 7.10722L6.89742 7.10589C7.1304 7.0812 7.3314 6.93654 7.43399 6.74089L7.43975 6.72991L7.44465 6.71852L8.25063 4.84848L8.25064 4.84849L8.25187 4.84556C8.2748 4.79091 8.3325 4.75094 8.40784 4.75094C8.48319 4.75094 8.54089 4.79091 8.56382 4.84556L8.5638 4.84557L8.56506 4.84848L9.37103 6.71852L9.3709 6.71858L9.37493 6.72722C9.47233 6.93618 9.67962 7.10227 9.93979 7.10757L12.0398 7.24787L12.0409 7.24794C12.0951 7.25138 12.1438 7.28789 12.1651 7.34869C12.1752 7.37746 12.1756 7.40393 12.1704 7.42455C12.1658 7.44248 12.1553 7.46412 12.1274 7.48679L10.4769 8.77907Z" fill="#FEEE00" stroke="#333848" stroke-width="0.652272"/>
</svg>
