<svg width="100" height="100" viewBox="0 0 100 100" fill="none" xmlns="http://www.w3.org/2000/svg">
<rect width="100" height="100" rx="6" fill="#FEEE00"/>
<mask id="mask0" mask-type="alpha" maskUnits="userSpaceOnUse" x="0" y="0" width="100" height="100">
<rect width="100" height="100" rx="6" fill="#FEEE00"/>
</mask>
<g mask="url(#mask0)">
<path d="M6.43335 87.2002V100.76H0V77.3054H6.13131V81.4435H6.40314C6.9166 80.0794 7.7774 79.0003 8.98554 78.2063C10.1937 77.4021 11.6586 77 13.3802 77C14.991 77 16.3955 77.3563 17.5936 78.0688C18.7916 78.7814 19.7229 79.7994 20.3874 81.1228C21.0519 82.436 21.3841 84.0037 21.3841 85.826V100.76H14.9507V86.9865C14.9608 85.5511 14.5983 84.4313 13.8634 83.6271C13.1285 82.8127 12.1167 82.4055 10.828 82.4055C9.96212 82.4055 9.19697 82.5938 8.53249 82.9705C7.87808 83.3471 7.36462 83.8969 6.99211 84.6196C6.62967 85.3322 6.44342 86.1924 6.43335 87.2002ZM36.9351 101.218C34.5893 101.218 32.5606 100.714 30.8491 99.7063C29.1476 98.6883 27.8338 97.2733 26.9076 95.4612C25.9813 93.639 25.5181 91.5267 25.5181 89.1242C25.5181 86.7014 25.9813 84.584 26.9076 82.772C27.8338 80.9498 29.1476 79.5348 30.8491 78.5269C32.5606 77.509 34.5893 77 36.9351 77C39.2809 77 41.3046 77.509 43.006 78.5269C44.7176 79.5348 46.0364 80.9498 46.9627 82.772C47.8889 84.584 48.352 86.7014 48.352 89.1242C48.352 91.5267 47.8889 93.639 46.9627 95.4612C46.0364 97.2733 44.7176 98.6883 43.006 99.7063C41.3046 100.714 39.2809 101.218 36.9351 101.218ZM36.9653 96.1789C38.0325 96.1789 38.9235 95.8735 39.6383 95.2627C40.3532 94.6418 40.8918 93.7968 41.2542 92.7279C41.6267 91.659 41.8129 90.4425 41.8129 89.0784C41.8129 87.7143 41.6267 86.4978 41.2542 85.4289C40.8918 84.36 40.3532 83.5151 39.6383 82.8941C38.9235 82.2732 38.0325 81.9627 36.9653 81.9627C35.8881 81.9627 34.982 82.2732 34.247 82.8941C33.5221 83.5151 32.9734 84.36 32.6009 85.4289C32.2384 86.4978 32.0572 87.7143 32.0572 89.0784C32.0572 90.4425 32.2384 91.659 32.6009 92.7279C32.9734 93.7968 33.5221 94.6418 34.247 95.2627C34.982 95.8735 35.8881 96.1789 36.9653 96.1789ZM63.0159 101.218C60.67 101.218 58.6414 100.714 56.9298 99.7063C55.2284 98.6883 53.9145 97.2733 52.9883 95.4612C52.062 93.639 51.5989 91.5267 51.5989 89.1242C51.5989 86.7014 52.062 84.584 52.9883 82.772C53.9145 80.9498 55.2284 79.5348 56.9298 78.5269C58.6414 77.509 60.67 77 63.0159 77C65.3616 77 67.3853 77.509 69.0868 78.5269C70.7982 79.5348 72.1171 80.9498 73.0434 82.772C73.9696 84.584 74.4328 86.7014 74.4328 89.1242C74.4328 91.5267 73.9696 93.639 73.0434 95.4612C72.1171 97.2733 70.7982 98.6883 69.0868 99.7063C67.3853 100.714 65.3616 101.218 63.0159 101.218ZM63.046 96.1789C64.1132 96.1789 65.0042 95.8735 65.7191 95.2627C66.4338 94.6418 66.9725 93.7968 67.335 92.7279C67.7074 91.659 67.8937 90.4425 67.8937 89.0784C67.8937 87.7143 67.7074 86.4978 67.335 85.4289C66.9725 84.36 66.4338 83.5151 65.7191 82.8941C65.0042 82.2732 64.1132 81.9627 63.046 81.9627C61.9688 81.9627 61.0627 82.2732 60.3277 82.8941C59.6029 83.5151 59.0542 84.36 58.6816 85.4289C58.3192 86.4978 58.138 87.7143 58.138 89.0784C58.138 90.4425 58.3192 91.659 58.6816 92.7279C59.0542 93.7968 59.6029 94.6418 60.3277 95.2627C61.0627 95.8735 61.9688 96.1789 63.046 96.1789ZM85.0493 87.2002V100.76H78.616V77.3054H84.7472V81.4435H85.0191C85.5326 80.0794 86.3933 79.0003 87.6014 78.2063C88.8096 77.4021 90.2745 77 91.9961 77C93.607 77 95.0114 77.3563 96.2095 78.0688C97.4076 78.7814 98.3388 79.7994 99.0033 81.1228C99.6677 82.436 100 84.0037 100 85.826V100.76H93.5666V86.9865C93.5767 85.5511 93.2142 84.4313 92.4793 83.6271C91.7444 82.8127 90.7326 82.4055 89.4439 82.4055C88.5781 82.4055 87.8129 82.5938 87.1484 82.9705C86.494 83.3471 85.9806 83.8969 85.608 84.6196C85.2456 85.3322 85.0593 86.1924 85.0493 87.2002Z" fill="black"/>
</g>
<path d="M9.50568 16V10.1818H11.8011C12.2424 10.1818 12.6184 10.2661 12.929 10.4347C13.2396 10.6013 13.4763 10.8333 13.6392 11.1307C13.804 11.4261 13.8864 11.767 13.8864 12.1534C13.8864 12.5398 13.803 12.8807 13.6364 13.1761C13.4697 13.4716 13.2282 13.7017 12.9119 13.8665C12.5975 14.0312 12.2169 14.1136 11.7699 14.1136H10.3068V13.1278H11.571C11.8078 13.1278 12.0028 13.0871 12.1562 13.0057C12.3116 12.9223 12.4271 12.8078 12.5028 12.6619C12.5805 12.5142 12.6193 12.3447 12.6193 12.1534C12.6193 11.9602 12.5805 11.7917 12.5028 11.6477C12.4271 11.5019 12.3116 11.3892 12.1562 11.3097C12.0009 11.2282 11.804 11.1875 11.5653 11.1875H10.7358V16H9.50568ZM16.5639 16.0852C16.1226 16.0852 15.741 15.9915 15.419 15.804C15.099 15.6146 14.8518 15.3513 14.6776 15.0142C14.5033 14.6752 14.4162 14.2822 14.4162 13.8352C14.4162 13.3845 14.5033 12.9905 14.6776 12.6534C14.8518 12.3144 15.099 12.0511 15.419 11.8636C15.741 11.6742 16.1226 11.5795 16.5639 11.5795C17.0052 11.5795 17.3859 11.6742 17.706 11.8636C18.0279 12.0511 18.276 12.3144 18.4503 12.6534C18.6245 12.9905 18.7116 13.3845 18.7116 13.8352C18.7116 14.2822 18.6245 14.6752 18.4503 15.0142C18.276 15.3513 18.0279 15.6146 17.706 15.804C17.3859 15.9915 17.0052 16.0852 16.5639 16.0852ZM16.5696 15.1477C16.7704 15.1477 16.938 15.0909 17.0724 14.9773C17.2069 14.8617 17.3082 14.7045 17.3764 14.5057C17.4465 14.3068 17.4815 14.0805 17.4815 13.8267C17.4815 13.5729 17.4465 13.3466 17.3764 13.1477C17.3082 12.9489 17.2069 12.7917 17.0724 12.6761C16.938 12.5606 16.7704 12.5028 16.5696 12.5028C16.367 12.5028 16.1965 12.5606 16.0582 12.6761C15.9219 12.7917 15.8187 12.9489 15.7486 13.1477C15.6804 13.3466 15.6463 13.5729 15.6463 13.8267C15.6463 14.0805 15.6804 14.3068 15.7486 14.5057C15.8187 14.7045 15.9219 14.8617 16.0582 14.9773C16.1965 15.0909 16.367 15.1477 16.5696 15.1477ZM20.25 16L19.0625 11.6364H20.2869L20.9631 14.5682H21.0028L21.7074 11.6364H22.9091L23.625 14.5511H23.6619L24.3267 11.6364H25.5483L24.3636 16H23.0824L22.3324 13.2557H22.2784L21.5284 16H20.25ZM28.0732 16.0852C27.6243 16.0852 27.2379 15.9943 26.9141 15.8125C26.5921 15.6288 26.344 15.3693 26.1697 15.0341C25.9955 14.697 25.9084 14.2983 25.9084 13.8381C25.9084 13.3892 25.9955 12.9953 26.1697 12.6562C26.344 12.3172 26.5893 12.053 26.9055 11.8636C27.2237 11.6742 27.5968 11.5795 28.0249 11.5795C28.3127 11.5795 28.5807 11.6259 28.8288 11.7188C29.0788 11.8097 29.2966 11.947 29.4822 12.1307C29.6697 12.3144 29.8156 12.5455 29.9197 12.8239C30.0239 13.1004 30.076 13.4242 30.076 13.7955V14.1278H26.3913V13.3778H28.9368C28.9368 13.2036 28.8989 13.0492 28.8232 12.9148C28.7474 12.7803 28.6423 12.6752 28.5078 12.5994C28.3752 12.5218 28.2209 12.483 28.0447 12.483C27.861 12.483 27.6982 12.5256 27.5561 12.6108C27.416 12.6941 27.3061 12.8068 27.2266 12.9489C27.147 13.089 27.1063 13.2453 27.1044 13.4176V14.1307C27.1044 14.3466 27.1442 14.5331 27.2237 14.6903C27.3052 14.8475 27.4197 14.9688 27.5675 15.054C27.7152 15.1392 27.8904 15.1818 28.093 15.1818C28.2275 15.1818 28.3506 15.1629 28.4624 15.125C28.5741 15.0871 28.6697 15.0303 28.7493 14.9545C28.8288 14.8788 28.8894 14.786 28.9311 14.6761L30.0504 14.75C29.9936 15.0189 29.8771 15.2538 29.701 15.4545C29.5268 15.6534 29.3014 15.8087 29.0249 15.9205C28.7502 16.0303 28.433 16.0852 28.0732 16.0852ZM30.8658 16V11.6364H32.0391V12.3977H32.0845C32.1641 12.1269 32.2976 11.9223 32.4851 11.7841C32.6726 11.6439 32.8885 11.5739 33.1328 11.5739C33.1934 11.5739 33.2588 11.5777 33.3288 11.5852C33.3989 11.5928 33.4605 11.6032 33.5135 11.6165V12.6903C33.4567 12.6733 33.3781 12.6581 33.2777 12.6449C33.1773 12.6316 33.0855 12.625 33.0021 12.625C32.8241 12.625 32.665 12.6638 32.5249 12.7415C32.3866 12.8172 32.2768 12.9233 32.1953 13.0597C32.1158 13.196 32.076 13.3532 32.076 13.5312V16H30.8658ZM35.9247 16.0852C35.4759 16.0852 35.0895 15.9943 34.7656 15.8125C34.4437 15.6288 34.1955 15.3693 34.0213 15.0341C33.8471 14.697 33.7599 14.2983 33.7599 13.8381C33.7599 13.3892 33.8471 12.9953 34.0213 12.6562C34.1955 12.3172 34.4408 12.053 34.7571 11.8636C35.0753 11.6742 35.4484 11.5795 35.8764 11.5795C36.1643 11.5795 36.4323 11.6259 36.6804 11.7188C36.9304 11.8097 37.1482 11.947 37.3338 12.1307C37.5213 12.3144 37.6671 12.5455 37.7713 12.8239C37.8755 13.1004 37.9276 13.4242 37.9276 13.7955V14.1278H34.2429V13.3778H36.7884C36.7884 13.2036 36.7505 13.0492 36.6747 12.9148C36.599 12.7803 36.4938 12.6752 36.3594 12.5994C36.2268 12.5218 36.0724 12.483 35.8963 12.483C35.7126 12.483 35.5497 12.5256 35.4077 12.6108C35.2675 12.6941 35.1577 12.8068 35.0781 12.9489C34.9986 13.089 34.9579 13.2453 34.956 13.4176V14.1307C34.956 14.3466 34.9957 14.5331 35.0753 14.6903C35.1567 14.8475 35.2713 14.9688 35.419 15.054C35.5668 15.1392 35.742 15.1818 35.9446 15.1818C36.0791 15.1818 36.2022 15.1629 36.3139 15.125C36.4257 15.0871 36.5213 15.0303 36.6009 14.9545C36.6804 14.8788 36.741 14.786 36.7827 14.6761L37.902 14.75C37.8452 15.0189 37.7287 15.2538 37.5526 15.4545C37.3783 15.6534 37.1529 15.8087 36.8764 15.9205C36.6018 16.0303 36.2846 16.0852 35.9247 16.0852ZM40.3253 16.071C39.9938 16.071 39.6937 15.9858 39.4247 15.8153C39.1577 15.643 38.9455 15.3902 38.7884 15.0568C38.633 14.7216 38.5554 14.3106 38.5554 13.8239C38.5554 13.3239 38.6359 12.9081 38.7969 12.5767C38.9579 12.2434 39.1719 11.9943 39.4389 11.8295C39.7079 11.6629 40.0024 11.5795 40.3224 11.5795C40.5668 11.5795 40.7704 11.6212 40.9332 11.7045C41.098 11.786 41.2306 11.8883 41.331 12.0114C41.4332 12.1326 41.5109 12.2519 41.5639 12.3693H41.6009V10.1818H42.8082V16H41.6151V15.3011H41.5639C41.5071 15.4223 41.4266 15.5426 41.3224 15.6619C41.2202 15.7794 41.0866 15.8769 40.9219 15.9545C40.759 16.0322 40.5601 16.071 40.3253 16.071ZM40.7088 15.108C40.9039 15.108 41.0687 15.0549 41.2031 14.9489C41.3395 14.8409 41.4437 14.6903 41.5156 14.4972C41.5895 14.304 41.6264 14.0777 41.6264 13.8182C41.6264 13.5587 41.5904 13.3333 41.5185 13.142C41.4465 12.9508 41.3423 12.803 41.206 12.6989C41.0696 12.5947 40.9039 12.5426 40.7088 12.5426C40.5099 12.5426 40.3423 12.5966 40.206 12.7045C40.0696 12.8125 39.9664 12.9621 39.8963 13.1534C39.8262 13.3447 39.7912 13.5663 39.7912 13.8182C39.7912 14.072 39.8262 14.2964 39.8963 14.4915C39.9683 14.6847 40.0715 14.8362 40.206 14.946C40.3423 15.054 40.5099 15.108 40.7088 15.108ZM45.6776 16V10.1818H46.8878V12.3693H46.9247C46.9777 12.2519 47.0545 12.1326 47.1548 12.0114C47.2571 11.8883 47.3897 11.786 47.5526 11.7045C47.7173 11.6212 47.9219 11.5795 48.1662 11.5795C48.4844 11.5795 48.7779 11.6629 49.0469 11.8295C49.3158 11.9943 49.5308 12.2434 49.6918 12.5767C49.8527 12.9081 49.9332 13.3239 49.9332 13.8239C49.9332 14.3106 49.8546 14.7216 49.6974 15.0568C49.5421 15.3902 49.33 15.643 49.0611 15.8153C48.794 15.9858 48.4948 16.071 48.1634 16.071C47.9285 16.071 47.7287 16.0322 47.5639 15.9545C47.401 15.8769 47.2675 15.7794 47.1634 15.6619C47.0592 15.5426 46.9796 15.4223 46.9247 15.3011H46.8707V16H45.6776ZM46.8622 13.8182C46.8622 14.0777 46.8982 14.304 46.9702 14.4972C47.0421 14.6903 47.1463 14.8409 47.2827 14.9489C47.419 15.0549 47.5848 15.108 47.7798 15.108C47.9768 15.108 48.1435 15.054 48.2798 14.946C48.4162 14.8362 48.5194 14.6847 48.5895 14.4915C48.6615 14.2964 48.6974 14.072 48.6974 13.8182C48.6974 13.5663 48.6624 13.3447 48.5923 13.1534C48.5223 12.9621 48.419 12.8125 48.2827 12.7045C48.1463 12.5966 47.9787 12.5426 47.7798 12.5426C47.5829 12.5426 47.4162 12.5947 47.2798 12.6989C47.1454 12.803 47.0421 12.9508 46.9702 13.142C46.8982 13.3333 46.8622 13.5587 46.8622 13.8182ZM51.3395 17.6278C51.1861 17.6278 51.0421 17.6155 50.9077 17.5909C50.7751 17.5682 50.6652 17.5398 50.5781 17.5057L50.8509 16.5994C51.0649 16.6657 51.2448 16.6828 51.3906 16.6506C51.5384 16.6203 51.6548 16.5066 51.7401 16.3097L51.8111 16.125L50.2457 11.6364H51.5185L52.4219 14.8409H52.4673L53.3793 11.6364L54.6605 11.642L52.9645 16.4716C52.883 16.7045 52.7723 16.9072 52.6321 17.0795C52.4938 17.2538 52.3187 17.3883 52.1065 17.483C51.8944 17.5795 51.6387 17.6278 51.3395 17.6278ZM10.6932 21.4773V24H9.48295V19.6364H10.6364V20.4062H10.6875C10.7841 20.1525 10.946 19.9517 11.1733 19.804C11.4006 19.6544 11.6761 19.5795 12 19.5795C12.303 19.5795 12.5672 19.6458 12.7926 19.7784C13.018 19.911 13.1932 20.1004 13.3182 20.3466C13.4432 20.5909 13.5057 20.8826 13.5057 21.2216V24H12.2955V21.4375C12.2973 21.1705 12.2292 20.9621 12.0909 20.8125C11.9527 20.661 11.7623 20.5852 11.5199 20.5852C11.357 20.5852 11.2131 20.6203 11.0881 20.6903C10.965 20.7604 10.8684 20.8627 10.7983 20.9972C10.7301 21.1297 10.6951 21.2898 10.6932 21.4773ZM16.4311 24.0852C15.9898 24.0852 15.6082 23.9915 15.2862 23.804C14.9661 23.6146 14.719 23.3513 14.5447 23.0142C14.3705 22.6752 14.2834 22.2822 14.2834 21.8352C14.2834 21.3845 14.3705 20.9905 14.5447 20.6534C14.719 20.3144 14.9661 20.0511 15.2862 19.8636C15.6082 19.6742 15.9898 19.5795 16.4311 19.5795C16.8724 19.5795 17.2531 19.6742 17.5732 19.8636C17.8951 20.0511 18.1432 20.3144 18.3175 20.6534C18.4917 20.9905 18.5788 21.3845 18.5788 21.8352C18.5788 22.2822 18.4917 22.6752 18.3175 23.0142C18.1432 23.3513 17.8951 23.6146 17.5732 23.804C17.2531 23.9915 16.8724 24.0852 16.4311 24.0852ZM16.4368 23.1477C16.6375 23.1477 16.8052 23.0909 16.9396 22.9773C17.0741 22.8617 17.1754 22.7045 17.2436 22.5057C17.3137 22.3068 17.3487 22.0805 17.3487 21.8267C17.3487 21.5729 17.3137 21.3466 17.2436 21.1477C17.1754 20.9489 17.0741 20.7917 16.9396 20.6761C16.8052 20.5606 16.6375 20.5028 16.4368 20.5028C16.2341 20.5028 16.0637 20.5606 15.9254 20.6761C15.7891 20.7917 15.6858 20.9489 15.6158 21.1477C15.5476 21.3466 15.5135 21.5729 15.5135 21.8267C15.5135 22.0805 15.5476 22.3068 15.6158 22.5057C15.6858 22.7045 15.7891 22.8617 15.9254 22.9773C16.0637 23.0909 16.2341 23.1477 16.4368 23.1477ZM21.3374 24.0852C20.8961 24.0852 20.5144 23.9915 20.1925 23.804C19.8724 23.6146 19.6252 23.3513 19.451 23.0142C19.2768 22.6752 19.1896 22.2822 19.1896 21.8352C19.1896 21.3845 19.2768 20.9905 19.451 20.6534C19.6252 20.3144 19.8724 20.0511 20.1925 19.8636C20.5144 19.6742 20.8961 19.5795 21.3374 19.5795C21.7786 19.5795 22.1593 19.6742 22.4794 19.8636C22.8014 20.0511 23.0495 20.3144 23.2237 20.6534C23.398 20.9905 23.4851 21.3845 23.4851 21.8352C23.4851 22.2822 23.398 22.6752 23.2237 23.0142C23.0495 23.3513 22.8014 23.6146 22.4794 23.804C22.1593 23.9915 21.7786 24.0852 21.3374 24.0852ZM21.343 23.1477C21.5438 23.1477 21.7114 23.0909 21.8459 22.9773C21.9804 22.8617 22.0817 22.7045 22.1499 22.5057C22.2199 22.3068 22.255 22.0805 22.255 21.8267C22.255 21.5729 22.2199 21.3466 22.1499 21.1477C22.0817 20.9489 21.9804 20.7917 21.8459 20.6761C21.7114 20.5606 21.5438 20.5028 21.343 20.5028C21.1404 20.5028 20.9699 20.5606 20.8317 20.6761C20.6953 20.7917 20.5921 20.9489 20.522 21.1477C20.4538 21.3466 20.4197 21.5729 20.4197 21.8267C20.4197 22.0805 20.4538 22.3068 20.522 22.5057C20.5921 22.7045 20.6953 22.8617 20.8317 22.9773C20.9699 23.0909 21.1404 23.1477 21.343 23.1477ZM25.4822 21.4773V24H24.272V19.6364H25.4254V20.4062H25.4766C25.5732 20.1525 25.7351 19.9517 25.9624 19.804C26.1896 19.6544 26.4652 19.5795 26.7891 19.5795C27.0921 19.5795 27.3563 19.6458 27.5817 19.7784C27.8071 19.911 27.9822 20.1004 28.1072 20.3466C28.2322 20.5909 28.2947 20.8826 28.2947 21.2216V24H27.0845V21.4375C27.0864 21.1705 27.0182 20.9621 26.88 20.8125C26.7417 20.661 26.5514 20.5852 26.3089 20.5852C26.1461 20.5852 26.0021 20.6203 25.8771 20.6903C25.754 20.7604 25.6574 20.8627 25.5874 20.9972C25.5192 21.1297 25.4841 21.2898 25.4822 21.4773ZM31.1001 25.6364V19.6364H32.2933V20.3693H32.3473C32.4003 20.2519 32.477 20.1326 32.5774 20.0114C32.6797 19.8883 32.8123 19.786 32.9751 19.7045C33.1399 19.6212 33.3445 19.5795 33.5888 19.5795C33.907 19.5795 34.2005 19.6629 34.4695 19.8295C34.7384 19.9943 34.9534 20.2434 35.1143 20.5767C35.2753 20.9081 35.3558 21.3239 35.3558 21.8239C35.3558 22.3106 35.2772 22.7216 35.12 23.0568C34.9647 23.3902 34.7526 23.643 34.4837 23.8153C34.2166 23.9858 33.9174 24.071 33.5859 24.071C33.3511 24.071 33.1513 24.0322 32.9865 23.9545C32.8236 23.8769 32.6901 23.7794 32.5859 23.6619C32.4818 23.5426 32.4022 23.4223 32.3473 23.3011H32.3104V25.6364H31.1001ZM32.2848 21.8182C32.2848 22.0777 32.3208 22.304 32.3928 22.4972C32.4647 22.6903 32.5689 22.8409 32.7053 22.9489C32.8416 23.0549 33.0073 23.108 33.2024 23.108C33.3994 23.108 33.5661 23.054 33.7024 22.946C33.8388 22.8362 33.942 22.6847 34.0121 22.4915C34.084 22.2964 34.12 22.072 34.12 21.8182C34.12 21.5663 34.085 21.3447 34.0149 21.1534C33.9448 20.9621 33.8416 20.8125 33.7053 20.7045C33.5689 20.5966 33.4013 20.5426 33.2024 20.5426C33.0054 20.5426 32.8388 20.5947 32.7024 20.6989C32.5679 20.803 32.4647 20.9508 32.3928 21.142C32.3208 21.3333 32.2848 21.5587 32.2848 21.8182ZM37.407 24.0824C37.1286 24.0824 36.8804 24.0341 36.6626 23.9375C36.4448 23.839 36.2725 23.6941 36.1456 23.5028C36.0206 23.3097 35.9581 23.0691 35.9581 22.7812C35.9581 22.5388 36.0026 22.3352 36.0916 22.1705C36.1806 22.0057 36.3018 21.8731 36.4553 21.7727C36.6087 21.6723 36.7829 21.5966 36.978 21.5455C37.175 21.4943 37.3814 21.4583 37.5973 21.4375C37.8511 21.411 38.0556 21.3864 38.2109 21.3636C38.3662 21.339 38.4789 21.303 38.549 21.2557C38.6191 21.2083 38.6541 21.1383 38.6541 21.0455V21.0284C38.6541 20.8485 38.5973 20.7093 38.4837 20.6108C38.3719 20.5123 38.2128 20.4631 38.0064 20.4631C37.7886 20.4631 37.6153 20.5114 37.4865 20.608C37.3577 20.7027 37.2725 20.822 37.2308 20.9659L36.1115 20.875C36.1683 20.6098 36.2801 20.3807 36.4467 20.1875C36.6134 19.9924 36.8284 19.8428 37.0916 19.7386C37.3568 19.6326 37.6636 19.5795 38.0121 19.5795C38.2545 19.5795 38.4865 19.608 38.7081 19.6648C38.9316 19.7216 39.1295 19.8097 39.3018 19.929C39.4761 20.0483 39.6134 20.2017 39.7138 20.3892C39.8142 20.5748 39.8643 20.7973 39.8643 21.0568V24H38.7166V23.3949H38.6825C38.6125 23.5312 38.5187 23.6515 38.4013 23.7557C38.2839 23.858 38.1428 23.9384 37.978 23.9972C37.8132 24.054 37.6229 24.0824 37.407 24.0824ZM37.7536 23.2472C37.9316 23.2472 38.0888 23.2121 38.2251 23.142C38.3615 23.0701 38.4685 22.9735 38.5462 22.8523C38.6238 22.7311 38.6626 22.5937 38.6626 22.4403V21.9773C38.6248 22.0019 38.5727 22.0246 38.5064 22.0455C38.442 22.0644 38.3691 22.0824 38.2876 22.0994C38.2062 22.1146 38.1248 22.1288 38.0433 22.142C37.9619 22.1534 37.888 22.1638 37.8217 22.1733C37.6797 22.1941 37.5556 22.2273 37.4496 22.2727C37.3435 22.3182 37.2611 22.3797 37.2024 22.4574C37.1437 22.5331 37.1143 22.6278 37.1143 22.7415C37.1143 22.9062 37.174 23.0322 37.2933 23.1193C37.4145 23.2045 37.5679 23.2472 37.7536 23.2472ZM41.3942 25.6278C41.2408 25.6278 41.0968 25.6155 40.9624 25.5909C40.8298 25.5682 40.7199 25.5398 40.6328 25.5057L40.9055 24.5994C41.1196 24.6657 41.2995 24.6828 41.4453 24.6506C41.593 24.6203 41.7095 24.5066 41.7947 24.3097L41.8658 24.125L40.3004 19.6364H41.5732L42.4766 22.8409H42.522L43.4339 19.6364L44.7152 19.642L43.0192 24.4716C42.9377 24.7045 42.8269 24.9072 42.6868 25.0795C42.5485 25.2538 42.3733 25.3883 42.1612 25.483C41.9491 25.5795 41.6934 25.6278 41.3942 25.6278Z" fill="black"/>
<path d="M27.4478 56.0938C27.3881 55.8864 27.3043 55.7031 27.1964 55.544C27.0884 55.3821 26.9563 55.2457 26.8001 55.1349C26.6467 55.0213 26.4705 54.9347 26.2717 54.875C26.0756 54.8153 25.8583 54.7855 25.6197 54.7855C25.1737 54.7855 24.7816 54.8963 24.4435 55.1179C24.1083 55.3395 23.8469 55.6619 23.6594 56.0852C23.4719 56.5057 23.3782 57.0199 23.3782 57.6278C23.3782 58.2358 23.4705 58.7528 23.6552 59.179C23.8398 59.6051 24.1012 59.9304 24.4393 60.1548C24.7773 60.3764 25.1765 60.4872 25.6367 60.4872C26.0543 60.4872 26.4109 60.4134 26.7063 60.2656C27.0046 60.1151 27.2319 59.9034 27.3881 59.6307C27.5472 59.358 27.6268 59.0355 27.6268 58.6634L28.0018 58.7188H25.7518V57.3295H29.4038V58.429C29.4038 59.196 29.2418 59.8551 28.918 60.4062C28.5941 60.9545 28.1481 61.3778 27.5799 61.6761C27.0117 61.9716 26.3612 62.1193 25.6282 62.1193C24.81 62.1193 24.0913 61.9389 23.4719 61.5781C22.8526 61.2145 22.3697 60.6989 22.0231 60.0312C21.6793 59.3608 21.5075 58.5653 21.5075 57.6449C21.5075 56.9375 21.6097 56.3068 21.8143 55.7528C22.0217 55.196 22.3114 54.7244 22.6836 54.3381C23.0558 53.9517 23.489 53.6577 23.9833 53.456C24.4776 53.2543 25.0131 53.1534 25.5898 53.1534C26.0842 53.1534 26.5444 53.2259 26.9705 53.3707C27.3967 53.5128 27.7745 53.7145 28.104 53.9759C28.4364 54.2372 28.7077 54.5483 28.918 54.9091C29.1282 55.267 29.2631 55.6619 29.3228 56.0938H27.4478ZM31.1658 62V55.4545H32.9812V62H31.1658ZM32.082 54.6108C31.8121 54.6108 31.5806 54.5213 31.3874 54.3423C31.1942 54.1605 31.0977 53.9432 31.0977 53.6903C31.0977 53.4403 31.1942 53.2259 31.3874 53.0469C31.5806 52.8651 31.8107 52.7741 32.0778 52.7741C32.3505 52.7741 32.582 52.8651 32.7724 53.0469C32.9656 53.2259 33.0621 53.4403 33.0621 53.6903C33.0621 53.9432 32.9656 54.1605 32.7724 54.3423C32.582 54.5213 32.3519 54.6108 32.082 54.6108ZM37.9553 55.4545V56.8182H33.9155V55.4545H37.9553ZM34.8402 62V54.9815C34.8402 54.5071 34.9325 54.1136 35.1172 53.8011C35.3047 53.4886 35.5604 53.2543 35.8842 53.098C36.2081 52.9418 36.576 52.8636 36.9879 52.8636C37.2663 52.8636 37.5206 52.8849 37.7507 52.9276C37.9837 52.9702 38.157 53.0085 38.2706 53.0426L37.9467 54.4062C37.8757 54.3835 37.7876 54.3622 37.6825 54.3423C37.5803 54.3224 37.4751 54.3125 37.3672 54.3125C37.1001 54.3125 36.9141 54.375 36.8089 54.5C36.7038 54.6222 36.6513 54.794 36.6513 55.0156V62H34.8402ZM42.5458 55.4545V56.8182H38.604V55.4545H42.5458ZM39.4989 53.8864H41.3143V59.9886C41.3143 60.1562 41.3398 60.2869 41.391 60.3807C41.4421 60.4716 41.5131 60.5355 41.604 60.5724C41.6978 60.6094 41.8058 60.6278 41.9279 60.6278C42.0131 60.6278 42.0984 60.6207 42.1836 60.6065C42.2688 60.5895 42.3342 60.5767 42.3796 60.5682L42.6651 61.919C42.5742 61.9474 42.4464 61.9801 42.2816 62.017C42.1168 62.0568 41.9165 62.081 41.6808 62.0895C41.2433 62.1065 40.8597 62.0483 40.5302 61.9148C40.2035 61.7812 39.9492 61.5739 39.7674 61.2926C39.5856 61.0114 39.4961 60.6562 39.4989 60.2273V53.8864ZM54.2401 56.3281H52.3736C52.3395 56.0866 52.2699 55.8722 52.1648 55.6847C52.0597 55.4943 51.9247 55.3324 51.7599 55.1989C51.5952 55.0653 51.4048 54.9631 51.1889 54.892C50.9759 54.821 50.7443 54.7855 50.4943 54.7855C50.0426 54.7855 49.6491 54.8977 49.3139 55.1222C48.9787 55.3437 48.7188 55.6676 48.5341 56.0938C48.3494 56.517 48.2571 57.0312 48.2571 57.6364C48.2571 58.2585 48.3494 58.7812 48.5341 59.2045C48.7216 59.6278 48.983 59.9474 49.3182 60.1634C49.6534 60.3793 50.0412 60.4872 50.4815 60.4872C50.7287 60.4872 50.9574 60.4545 51.1676 60.3892C51.3807 60.3239 51.5696 60.2287 51.7344 60.1037C51.8991 59.9759 52.0355 59.821 52.1435 59.6392C52.2543 59.4574 52.331 59.25 52.3736 59.017L54.2401 59.0256C54.1918 59.4261 54.071 59.8125 53.8778 60.1847C53.6875 60.554 53.4304 60.8849 53.1065 61.1776C52.7855 61.4673 52.402 61.6974 51.956 61.8679C51.5128 62.0355 51.0114 62.1193 50.4517 62.1193C49.6733 62.1193 48.9773 61.9432 48.3636 61.5909C47.7528 61.2386 47.2699 60.7287 46.9148 60.0611C46.5625 59.3935 46.3864 58.5852 46.3864 57.6364C46.3864 56.6847 46.5653 55.875 46.9233 55.2074C47.2813 54.5398 47.767 54.0312 48.3807 53.6818C48.9943 53.3295 49.6847 53.1534 50.4517 53.1534C50.9574 53.1534 51.4261 53.2244 51.858 53.3665C52.2926 53.5085 52.6776 53.7159 53.0128 53.9886C53.348 54.2585 53.6207 54.5895 53.831 54.9815C54.044 55.3736 54.1804 55.8224 54.2401 56.3281ZM57.3956 62.1236C56.978 62.1236 56.6058 62.0511 56.2791 61.9062C55.9524 61.7585 55.6939 61.5412 55.5036 61.2543C55.3161 60.9645 55.2223 60.6037 55.2223 60.1719C55.2223 59.8082 55.2891 59.5028 55.4226 59.2557C55.5561 59.0085 55.7379 58.8097 55.968 58.6591C56.1982 58.5085 56.4595 58.3949 56.7521 58.3182C57.0476 58.2415 57.3572 58.1875 57.6811 58.1562C58.0618 58.1165 58.3686 58.0795 58.6016 58.0455C58.8345 58.0085 59.0036 57.9545 59.1087 57.8835C59.2138 57.8125 59.2663 57.7074 59.2663 57.5682V57.5426C59.2663 57.2727 59.1811 57.0639 59.0107 56.9162C58.843 56.7685 58.6044 56.6946 58.2947 56.6946C57.968 56.6946 57.7081 56.767 57.5149 56.9119C57.3217 57.054 57.1939 57.233 57.1314 57.4489L55.4524 57.3125C55.5376 56.9148 55.7053 56.571 55.9553 56.2812C56.2053 55.9886 56.5277 55.7642 56.9226 55.608C57.3203 55.4489 57.7805 55.3693 58.3033 55.3693C58.6669 55.3693 59.0149 55.4119 59.3473 55.4972C59.6825 55.5824 59.9794 55.7145 60.2379 55.8935C60.4993 56.0724 60.7053 56.3026 60.8558 56.5838C61.0064 56.8622 61.0817 57.196 61.0817 57.5852V62H59.3601V61.0923H59.3089C59.2038 61.2969 59.0632 61.4773 58.8871 61.6335C58.7109 61.7869 58.4993 61.9077 58.2521 61.9957C58.005 62.081 57.7195 62.1236 57.3956 62.1236ZM57.9155 60.8707C58.1825 60.8707 58.4183 60.8182 58.6229 60.7131C58.8274 60.6051 58.9879 60.4602 59.1044 60.2784C59.2209 60.0966 59.2791 59.8906 59.2791 59.6605V58.9659C59.2223 59.0028 59.1442 59.0369 59.0447 59.0682C58.9482 59.0966 58.8388 59.1236 58.7166 59.1491C58.5945 59.1719 58.4723 59.1932 58.3501 59.2131C58.228 59.2301 58.1172 59.2457 58.0178 59.2599C57.8047 59.2912 57.6186 59.3409 57.4595 59.4091C57.3004 59.4773 57.1768 59.5696 57.0888 59.6861C57.0007 59.7997 56.9567 59.9418 56.9567 60.1122C56.9567 60.3594 57.0462 60.5483 57.2251 60.679C57.407 60.8068 57.6371 60.8707 57.9155 60.8707ZM62.4901 62V55.4545H64.25V56.5966H64.3182C64.4375 56.1903 64.6378 55.8835 64.919 55.6761C65.2003 55.4659 65.5241 55.3608 65.8906 55.3608C65.9815 55.3608 66.0795 55.3665 66.1847 55.3778C66.2898 55.3892 66.3821 55.4048 66.4616 55.4247V57.0355C66.3764 57.0099 66.2585 56.9872 66.108 56.9673C65.9574 56.9474 65.8196 56.9375 65.6946 56.9375C65.4276 56.9375 65.1889 56.9957 64.9787 57.1122C64.7713 57.2259 64.6065 57.3849 64.4844 57.5895C64.3651 57.794 64.3054 58.0298 64.3054 58.2969V62H62.4901ZM69.5075 62.1065C69.0103 62.1065 68.56 61.9787 68.1566 61.723C67.756 61.4645 67.4379 61.0852 67.2021 60.5852C66.9691 60.0824 66.8526 59.4659 66.8526 58.7358C66.8526 57.9858 66.9734 57.3622 67.2148 56.8651C67.4563 56.3651 67.7773 55.9915 68.1779 55.7443C68.5813 55.4943 69.0231 55.3693 69.5032 55.3693C69.8697 55.3693 70.1751 55.4318 70.4194 55.5568C70.6665 55.679 70.8654 55.8324 71.016 56.017C71.1694 56.1989 71.2859 56.3778 71.3654 56.554H71.4208V53.2727H73.2319V62H71.4421V60.9517H71.3654C71.2802 61.1335 71.1594 61.3139 71.0032 61.4929C70.8498 61.669 70.6495 61.8153 70.4023 61.9318C70.158 62.0483 69.8597 62.1065 69.5075 62.1065ZM70.0827 60.6619C70.3754 60.6619 70.6225 60.5824 70.8242 60.4233C71.0288 60.2614 71.185 60.0355 71.293 59.7457C71.4038 59.456 71.4592 59.1165 71.4592 58.7273C71.4592 58.3381 71.4052 58 71.2972 57.7131C71.1893 57.4261 71.033 57.2045 70.8285 57.0483C70.6239 56.892 70.3754 56.8139 70.0827 56.8139C69.7844 56.8139 69.533 56.8949 69.3285 57.0568C69.1239 57.2187 68.9691 57.4432 68.864 57.7301C68.7589 58.017 68.7063 58.3494 68.7063 58.7273C68.7063 59.108 68.7589 59.4446 68.864 59.7372C68.9719 60.027 69.1268 60.2543 69.3285 60.419C69.533 60.581 69.7844 60.6619 70.0827 60.6619Z" fill="black"/>
</svg>
