<svg width="278" height="207" viewBox="0 0 278 207" fill="none" xmlns="http://www.w3.org/2000/svg">
<g id="empty cart">
<path id="Shape" d="M76.9515 20.2855C76.9515 20.1691 76.9515 20.0527 76.9515 19.9415C76.9703 9.78725 84.723 1.26241 94.9715 0.126644C105.22 -1.00912 114.703 5.60558 117.014 15.5017C121.118 13.2449 126.129 13.298 130.183 15.6413C134.236 17.9845 136.725 22.267 136.723 26.895C136.723 27.1914 136.723 27.4824 136.691 27.7682C143.168 30.1354 146.994 36.7303 145.774 43.4262C144.555 50.1221 138.639 54.9968 131.73 55H80.8267C71.7332 54.9908 64.1014 48.2502 63.1079 39.3505C62.1145 30.4508 68.0772 22.2391 76.9515 20.2855Z" fill="#F9F9FC"/>
<path id="Shape_2" d="M202 112H230.61L244 95H215.341L202 112Z" fill="#E8EAF1"/>
<path id="Rectangle-path" d="M158 112H230V175H158V112Z" fill="#F4F6F8"/>
<path id="Rectangle-path_2" d="M158 112H202V175H158V112Z" fill="#E1E7ED"/>
<path id="Shape_3" d="M158.318 112L145 95H188.746L202 112H158.318Z" fill="#E8EAF1"/>
<path id="Shape_4" fill-rule="evenodd" clip-rule="evenodd" d="M220.425 126.395C219.75 126.137 219.033 126.003 218.309 126C217.876 126.002 217.444 126.046 217.019 126.132L215.289 129.102C216 128.719 216.798 128.527 217.606 128.544C218.1 128.543 218.591 128.61 219.066 128.744L220.425 126.395ZM210 134.379C210 138.666 213.66 142 217.934 142C222.363 142.017 225.971 138.463 226 134.053C225.984 131.591 224.853 129.269 222.922 127.733L221.578 130.039C222.763 131.044 223.447 132.514 223.451 134.063C223.427 137.091 220.943 139.527 217.902 139.504C214.861 139.48 212.415 137.007 212.438 133.979C212.439 133.625 212.473 133.273 212.539 132.926L210 134.379Z" fill="white"/>
<g id="Shape_5">
<path d="M120 177H183.187H266" fill="#8E99A4"/>
<path d="M120 177H183.187H266" stroke="#C6CBDB" stroke-width="2.4" stroke-linecap="round" stroke-linejoin="round"/>
</g>
<path id="Rectangle-path_3" d="M37 155.152C37 154.516 37.5158 154 38.152 154H84.848C85.4842 154 86 154.516 86 155.152V162.848C86 163.484 85.4842 164 84.848 164H38.152C37.5158 164 37 163.484 37 162.848V155.152Z" fill="#F9F9FC"/>
<g id="Shape_6">
<path d="M9 176H136H9Z" fill="#8E99A4"/>
<path d="M9 176H136" stroke="#C6CBDB" stroke-width="2.4" stroke-linecap="round" stroke-linejoin="round"/>
</g>
<g id="_Group_">
<path id="Shape_7" d="M162.189 90.0211C162.222 90.0618 162.222 90.1193 162.189 90.16V90.0211Z" fill="#E8EAF1"/>
<path id="Shape_8" d="M162.19 122.193V181.967C162.187 194.689 151.833 205 139.062 205H62.2703C49.5619 204.997 39.2364 194.781 39.1479 182.122L38.7188 122.193L162.19 122.193Z" fill="#E8EAF1"/>
<path id="Shape_9" d="M162.189 90.1653V122.193H38.718L38.498 90.5929L162.066 90.1921C162.108 90.2091 162.157 90.1985 162.189 90.1653Z" fill="#E8EAF1"/>
<path id="Shape_10" d="M162.191 90.0211V90.16C162.168 90.1823 162.137 90.194 162.105 90.1921L38.5371 90.5929L42.0672 88.9202L55.3719 82.6088L41.7184 74.0688C41.6597 74.0301 41.6331 73.9578 41.6528 73.8904C41.6725 73.823 41.7339 73.7762 41.8043 73.7749L157.351 73.3741C157.405 73.3725 157.453 73.405 157.471 73.4547C157.489 73.5045 157.474 73.5603 157.432 73.5932L157.351 73.6573L146.128 82.5713L157.351 87.7551L162.148 89.9676C162.17 89.9767 162.187 89.997 162.191 90.0211Z" fill="#E2E5ED"/>
<path id="Shape_11" d="M157.35 73.6734V87.7765L146.127 82.5927L157.35 73.6734Z" fill="#E8EAF1"/>
<path id="Shape_12" d="M55.3722 82.5927L42.0675 88.8988L41.7188 74.0795L55.3722 82.5927Z" fill="#E8EAF1"/>
<path id="Shape_13" d="M41.7188 74.0795L42.0675 88.8988" stroke="#C5D0D9" stroke-width="2.4" stroke-linecap="round" stroke-linejoin="round"/>
<path id="Shape_14" d="M38.498 90.5929L38.718 122.193L39.1472 182.122C39.2356 194.781 49.5611 204.997 62.2695 205H139.061C145.195 205.001 151.078 202.576 155.417 198.256C159.755 193.936 162.193 188.077 162.194 181.967V89.7913" stroke="#C5D0D9" stroke-width="2.4" stroke-linecap="round" stroke-linejoin="round"/>
<path id="Shape_15" fill-rule="evenodd" clip-rule="evenodd" d="M41.7184 74.0688C41.6597 74.0301 41.6331 73.9578 41.6528 73.8904C41.6725 73.823 41.7339 73.7762 41.8043 73.7749L157.351 73.3741C157.405 73.3725 157.453 73.405 157.471 73.4547C157.489 73.5045 157.474 73.5603 157.432 73.5932L157.351 73.6573L146.128 82.5713L157.351 87.7551L162.148 89.9676C162.164 89.9734 162.177 89.9848 162.185 89.9997C162.217 90.0404 162.217 90.0979 162.185 90.1386C162.162 90.161 162.131 90.1726 162.099 90.1707L38.5371 90.5929V90.5929L42.0672 88.9202L55.3719 82.6088L41.7184 74.0688Z" stroke="#C5D0D9" stroke-width="2.4" stroke-linecap="round" stroke-linejoin="round"/>
<path id="Shape_16" d="M157.352 73.6734V87.7765" stroke="#C5D0D9" stroke-width="2.4" stroke-linecap="round" stroke-linejoin="round"/>
<path id="Shape_17" d="M38.498 122.193H38.718H162.189" stroke="#C5D0D9" stroke-width="2.4" stroke-linecap="round" stroke-linejoin="round"/>
</g>
<g id="_Group_2">
<g id="Group" style="mix-blend-mode:multiply" opacity="0.13">
<path id="Shape_18" d="M162.724 90.0589H147.148C147.148 90.0589 148.059 204.011 149.355 203.754C152.23 203.186 161.995 196.352 162.084 184.946L162.547 124.928L162.724 90.0589Z" fill="#E8EAF1"/>
<path id="Shape_19" fill-rule="evenodd" clip-rule="evenodd" d="M147.148 90.0589C147.148 90.0589 148.059 204.011 149.355 203.754C152.23 203.186 161.995 196.352 162.084 184.946L162.547 124.928L162.713 90.0589L147.148 90.0589Z" stroke="#C5D0D9" stroke-width="2.4" stroke-linecap="round" stroke-linejoin="round"/>
</g>
</g>
<path id="Shape_20" d="M134 111C134 140.048 125.693 170 100.853 170C76.4139 170 68 140.873 68 111.825" stroke="#C5D0D9" stroke-width="2.4" stroke-linecap="round" stroke-linejoin="round"/>
<path id="Oval" d="M68 112C70.7614 112 73 109.761 73 107C73 104.239 70.7614 102 68 102C65.2386 102 63 104.239 63 107C63 109.761 65.2386 112 68 112Z" fill="#E8EAF1" stroke="#C5D0D9" stroke-width="2.4" stroke-linecap="round" stroke-linejoin="round"/>
<path id="Oval_2" d="M134 111C136.761 111 139 108.761 139 106C139 103.239 136.761 101 134 101C131.239 101 129 103.239 129 106C129 108.761 131.239 111 134 111Z" fill="#E8EAF1" stroke="#C5D0D9" stroke-width="2.4" stroke-linecap="round" stroke-linejoin="round"/>
<g id="Shape_21">
<path d="M271 176H276H271Z" fill="#8E99A4"/>
<path d="M271 176H276" stroke="#C6CBDB" stroke-width="2.4" stroke-linecap="round" stroke-linejoin="round"/>
</g>
<g id="Shape_22">
<path d="M4 176H2H4Z" fill="#8E99A4"/>
<path d="M4 176H2" stroke="#C6CBDB" stroke-width="2.4" stroke-linecap="round" stroke-linejoin="round"/>
</g>
<g id="Group_2" style="mix-blend-mode:screen" opacity="0.28">
<path id="Shape_23" d="M25.1921 37.57V14.98C25.1921 8.91823 30.7174 4 36.8241 4H25.1281C19.0214 4 13.4961 8.91823 13.4961 14.98V37.57C13.4961 43.6371 19.0161 48.55 25.1281 48.55H36.8241C30.7174 48.55 25.1921 43.6318 25.1921 37.57Z" fill="#FCD66D"/>
</g>
<path id="Shape_24" d="M181.253 49.6519C181.253 49.5765 181.253 49.4957 181.253 49.4203C181.261 42.5873 186.394 36.8489 193.18 36.0851C199.967 35.3213 206.246 39.7754 207.771 46.4358C210.487 44.9153 213.805 44.9494 216.488 46.5253C219.172 48.1013 220.82 50.9828 220.818 54.0963C220.818 54.2957 220.818 54.4896 220.818 54.6835C225.116 56.2669 227.66 60.7084 226.851 65.2195C226.042 69.7306 222.114 73.0105 217.533 73H183.816C177.791 73.0035 172.729 68.4678 172.071 62.4757C171.414 56.4835 175.37 50.9569 181.253 49.6519Z" fill="#F4F6F8"/>
<g id="Group 2">
<path id="Shape_25" d="M71.5933 12.817H27.3636C21.9444 12.817 17.041 17.1812 17.041 22.56V42.6052C17.041 47.9888 21.9396 52.3482 27.3636 52.3482H58.7764L70.6846 61.7437V52.3482H71.5933C74.1967 52.3482 76.6935 51.3217 78.5344 49.4946C80.3753 47.6674 81.4095 45.1892 81.4095 42.6052V22.56C81.4095 19.976 80.3753 17.4978 78.5344 15.6707C76.6935 13.8435 74.1967 12.817 71.5933 12.817V12.817Z" fill="#FDD760" stroke="#FFC729" stroke-width="3.696"/>
<g id="Group_3" style="mix-blend-mode:screen" opacity="0.28">
<path id="Shape_26" d="M27.4185 42.6052V22.56C27.4185 17.1812 32.3218 12.817 37.7411 12.817H27.3617C21.9424 12.817 17.0391 17.1812 17.0391 22.56V42.6052C17.0391 47.9888 21.9377 52.3482 27.3617 52.3482H37.7411C32.3218 52.3482 27.4185 47.9841 27.4185 42.6052Z" fill="#FCD66D"/>
</g>
<path id="Oval 2" fill-rule="evenodd" clip-rule="evenodd" d="M37.672 31.6078C39.3041 31.6078 40.6272 30.291 40.6272 28.6667C40.6272 27.0423 39.3041 25.7255 37.672 25.7255C36.0399 25.7255 34.7168 27.0423 34.7168 28.6667C34.7168 30.291 36.0399 31.6078 37.672 31.6078Z" fill="#FFC729"/>
<path id="Oval 2 Copy" fill-rule="evenodd" clip-rule="evenodd" d="M57.3732 31.6078C59.0053 31.6078 60.3284 30.291 60.3284 28.6667C60.3284 27.0423 59.0053 25.7255 57.3732 25.7255C55.7411 25.7255 54.418 27.0423 54.418 28.6667C54.418 30.291 55.7411 31.6078 57.3732 31.6078Z" fill="#FFC729"/>
<g id="Shape_27">
<path d="M41.4434 41.0456C46.1763 36.9899 50.9219 36.9899 55.6802 41.0456H41.4434Z" fill="#FDD760"/>
<path d="M41.4434 41.0456C46.1763 36.9899 50.9219 36.9899 55.6802 41.0456" stroke="#FFC729" stroke-width="3.696" stroke-linecap="round"/>
</g>
<path id="Shape_28" fill-rule="evenodd" clip-rule="evenodd" d="M71.5933 12.817H27.3636C21.9444 12.817 17.041 17.1812 17.041 22.56V42.6052C17.041 47.9888 21.9396 52.3482 27.3636 52.3482H58.7764L70.6846 61.7437V52.3482H71.5933C74.1967 52.3482 76.6935 51.3217 78.5344 49.4946C80.3753 47.6674 81.4095 45.1892 81.4095 42.6052V22.56C81.4095 19.976 80.3753 17.4978 78.5344 15.6707C76.6935 13.8435 74.1967 12.817 71.5933 12.817V12.817Z" stroke="#FFC729" stroke-width="3.696"/>
</g>
</g>
</svg>
