<svg width="24" height="24" viewBox="0 0 24 24" fill="none" xmlns="http://www.w3.org/2000/svg">
<path d="M18.3934 17.852H6.60671C5.16788 17.8501 4.00193 16.6842 4.00003 15.2456V8.60674C4.00195 7.16791 5.16788 6.00196 6.60647 6.00006H18.3934C19.8322 6.00198 20.9981 7.16791 21 8.6065V15.2453C20.9981 16.6842 19.8322 17.8501 18.3936 17.852H18.3934ZM6.60667 16.4783H18.3934C19.0743 16.4783 19.6263 15.9263 19.6263 15.2454V14.1327H5.37368V15.2454C5.37368 15.9263 5.92567 16.4783 6.60661 16.4783H6.60667ZM18.3934 7.37378H6.60671C5.92576 7.37378 5.37379 7.92577 5.37379 8.6067V12.7589H19.6264V8.6067C19.6264 7.92575 19.0744 7.37378 18.3935 7.37378H18.3934ZM18.0809 11.9003H13.2453C12.8659 11.9003 12.5584 11.5928 12.5584 11.2134C12.5584 10.834 12.8659 10.5265 13.2453 10.5265H18.0809C18.4602 10.5265 18.7678 10.834 18.7678 11.2134C18.7678 11.5928 18.4602 11.9003 18.0809 11.9003Z" fill="#404553"/>
</svg>
