<svg width="280" height="154" viewBox="0 0 280 154" fill="none" xmlns="http://www.w3.org/2000/svg">
<rect x="235.28" y="96.5" width="21.6" height="43.2" fill="#F4F6F8"/>
<rect x="192.08" y="87.86" width="47.52" height="8.64" fill="#E0E5EC"/>
<rect x="239.6" y="87.86" width="17.28" height="8.64" fill="#E8EAF1"/>
<rect x="192.08" y="96.5" width="47.52" height="43.2" fill="#E8EAF1"/>
<path d="M213.68 87.86H226.64V122.42L220.16 116.658L213.68 122.42V87.86V87.86Z" fill="#F4F6F8"/>
<rect x="10.6399" y="74.9" width="73.44" height="64.8" fill="#F4F6F8"/>
<rect x="84.0801" y="74.9" width="25.92" height="64.8" fill="#F9F9FC"/>
<g style="mix-blend-mode:multiply">
<rect x="10.6399" y="61.9399" width="73.44" height="12.96" fill="#EBF1F7"/>
</g>
<rect x="84.0801" y="61.9399" width="25.92" height="12.96" fill="#F4F6F8"/>
<path d="M2 139.7H92.72Z" fill="#8E99A4"/>
<path d="M2 139.7H92.72" stroke="#C6CBDB" stroke-width="2.16" stroke-linecap="round" stroke-linejoin="round"/>
<path d="M187.76 139.7H262.998Z" fill="#8E99A4"/>
<path d="M187.76 139.7H262.998" stroke="#C6CBDB" stroke-width="2.16" stroke-linecap="round" stroke-linejoin="round"/>
<path d="M213.68 39.8864H126.373C126.373 31.3976 122.733 21.6992 111.82 21.6992H195.493C205.535 21.7052 213.674 29.8444 213.68 39.8864Z" fill="#F4F6F8"/>
<path d="M100.82 119.92L100.604 32.51C100.765 26.4996 105.683 21.7107 111.696 21.71H111.82C122.733 21.71 126.373 31.43 126.373 39.8972H195.493V128.997C195.494 135.277 193.001 141.3 188.561 145.74C184.121 150.181 178.099 152.676 171.819 152.676H89.9929C98.2387 152.676 100.723 147.411 100.906 140.796L100.82 119.92Z" fill="#E8EAF1"/>
<path d="M100.82 119.92L100.879 140.78C100.696 147.395 98.2119 152.66 89.9661 152.66H85.3599C79.0527 152.66 75.4131 149.247 75.4131 141.747V119.92H100.82Z" fill="#E2E5ED"/>
<path d="M85.3867 152.66C79.0795 152.66 75.4399 149.247 75.4399 141.747V119.92H100.906" stroke="#C5D0D9" stroke-width="2.16" stroke-linecap="round" stroke-linejoin="round"/>
<path d="M111.82 21.71C122.733 21.71 126.373 31.43 126.373 39.8972H213.68C213.674 29.8551 205.535 21.7159 195.493 21.71H111.696C105.683 21.7107 100.765 26.4996 100.604 32.51L100.82 119.92L100.879 140.78C100.696 147.395 98.2119 152.66 89.9661 152.66" stroke="#C5D0D9" stroke-width="2.16" stroke-linecap="round" stroke-linejoin="round"/>
<path d="M85.3867 152.66H171.819C178.099 152.66 184.121 150.165 188.561 145.724C193.001 141.283 195.494 135.261 195.493 128.981V39.881" stroke="#C5D0D9" stroke-width="2.16" stroke-linecap="round" stroke-linejoin="round"/>
<path d="M269.84 139.7H278.48Z" fill="#8E99A4"/>
<path d="M269.84 139.7H278.48" stroke="#C6CBDB" stroke-width="2.16" stroke-linecap="round" stroke-linejoin="round"/>
<path d="M122.625 59.2778H154.712" stroke="#F4F5F8" stroke-width="3.78" stroke-linecap="round" stroke-linejoin="round"/>
<path d="M122.128 75.1376H179.12" stroke="#F4F5F8" stroke-width="3.78" stroke-linecap="round" stroke-linejoin="round"/>
<path d="M122.128 90.9974H179.12" stroke="#F4F5F8" stroke-width="3.78" stroke-linecap="round" stroke-linejoin="round"/>
<path d="M122.128 106.852H179.12" stroke="#F4F5F8" stroke-width="3.78" stroke-linecap="round" stroke-linejoin="round"/>
<path d="M122.128 122.712H179.12" stroke="#F4F5F8" stroke-width="3.78" stroke-linecap="round" stroke-linejoin="round"/>
<path d="M60.5901 48.98C73.5633 48.98 84.0801 38.4632 84.0801 25.49C84.0801 12.5168 73.5633 2 60.5901 2C47.6169 2 37.1001 12.5168 37.1001 25.49C37.1001 38.4632 47.6169 48.98 60.5901 48.98Z" fill="#FDD760" stroke="#FFC729" stroke-width="3.78"/>
<g style="mix-blend-mode:screen" opacity="0.22">
<path d="M45.7401 25.49C45.7422 14.1844 53.7974 4.48416 64.9101 2.40498C55.6336 0.665715 46.217 4.64741 41.0023 12.5141C35.7876 20.3808 35.7876 30.6046 41.0023 38.4713C46.217 46.3379 55.6336 50.3196 64.9101 48.5804C53.7954 46.5008 45.7396 36.7975 45.7401 25.49Z" fill="#FCD66D"/>
</g>
<path d="M52.2957 20.9648H66.6705C69.4261 20.9648 71.6601 23.1988 71.6601 25.9544V26.4296C71.6601 29.6386 69.0586 32.24 65.8497 32.24H52.8897" fill="#FDD760"/>
<path d="M52.2957 20.9648H66.6705C69.4261 20.9648 71.6601 23.1988 71.6601 25.9544V26.4296C71.6601 29.6386 69.0586 32.24 65.8497 32.24H52.8897" stroke="#FFC729" stroke-width="3.78" stroke-linecap="round"/>
<path d="M54.3801 16.6448L50.0601 20.9648L54.3801 25.2848" stroke="#FFC729" stroke-width="3.78" stroke-linecap="round"/>
<path fill-rule="evenodd" clip-rule="evenodd" d="M60.5901 48.98C73.5633 48.98 84.0801 38.4632 84.0801 25.49C84.0801 12.5168 73.5633 2 60.5901 2C47.6169 2 37.1001 12.5168 37.1001 25.49C37.1001 38.4632 47.6169 48.98 60.5901 48.98Z" stroke="#FFC729" stroke-width="3.78"/>
<path d="M209.9 51.599H236.614C239.892 51.599 242.851 54.2558 242.851 57.539V69.7376C242.851 73.0154 239.892 75.6776 236.614 75.6776H217.627L210.44 81.38V75.656H209.9C206.619 75.656 203.96 72.9966 203.96 69.716V57.5282C203.966 54.2518 206.624 51.599 209.9 51.599V51.599Z" fill="#F4F6F8"/>
<path d="M223.638 55.8491C225.343 55.8491 226.577 56.5516 227.337 57.9564C227.926 59.0423 228.221 60.53 228.221 62.4195C228.221 64.2108 227.954 65.6924 227.42 66.8641C226.647 68.545 225.383 69.3855 223.629 69.3855C222.046 69.3855 220.868 68.6984 220.095 67.3242C219.451 66.177 219.129 64.6372 219.129 62.7047C219.129 61.2079 219.322 59.9226 219.709 58.849C220.433 56.8491 221.742 55.8491 223.638 55.8491ZM223.62 67.8763C224.478 67.8763 225.163 67.496 225.672 66.7353C226.181 65.9746 226.435 64.5574 226.435 62.4839C226.435 60.987 226.251 59.757 225.883 58.7938C225.515 57.8245 224.801 57.3399 223.739 57.3399C222.764 57.3399 222.049 57.8 221.595 58.7202C221.147 59.6343 220.923 60.9839 220.923 62.7692C220.923 64.1127 221.068 65.1924 221.356 66.0083C221.798 67.2537 222.552 67.8763 223.62 67.8763Z" fill="white"/>
<path d="M45.2 61.9399H61.4V105.14L53.3 97.9417L45.2 105.14V61.9399V61.9399Z" fill="#F9F9FC"/>
</svg>
