<svg width="31" height="10" viewBox="0 0 31 10" fill="none" xmlns="http://www.w3.org/2000/svg"><path d="M11.5705 9.1178L13.1238 0.380486H15.5508L14.0461 9.1178H11.5705Z" fill="#A1A6B7"/><path d="M22.8319 0.477558C22.3465 0.283396 21.5698 0.0892334 20.599 0.0892334C18.172 0.0892334 16.4245 1.30275 16.4245 3.05021C16.4245 4.36081 17.6381 5.04038 18.6089 5.47724C19.5797 5.91411 19.8709 6.20535 19.8709 6.59368C19.8709 7.17616 19.0943 7.46741 18.4147 7.46741C17.4439 7.46741 16.9099 7.32179 16.0848 6.982L15.745 6.83638L15.4052 8.82654C15.9877 9.06925 17.0556 9.31195 18.172 9.31195C20.7447 9.31195 22.4436 8.09844 22.4436 6.25389C22.4436 5.23454 21.8125 4.45789 20.3563 3.82686C19.4826 3.39 18.9486 3.14729 18.9486 2.71043C18.9486 2.3221 19.3855 1.93378 20.3563 1.93378C21.1815 1.93378 21.764 2.0794 22.2009 2.27356L22.4436 2.37064L22.8319 0.477558Z" fill="#A1A6B7"/><path fill-rule="evenodd" clip-rule="evenodd" d="M25.7444 1.01151C25.9871 0.429026 26.4239 0.380486 27.0064 0.380486H28.8995L30.9382 9.1178H28.6082L28.317 7.66158H25.2104L24.725 9.1178H22.1038L25.7444 1.01151ZM26.8608 3.63272C26.8608 3.63272 26.0356 5.76851 25.89 6.20537V6.25391H27.9287C27.8316 5.76851 27.3462 3.58418 27.3462 3.58418L27.2006 2.75899C27.055 3.09877 26.8608 3.63272 26.8608 3.63272Z" fill="#A0A5B6"/><path d="M7.10472 6.4966L6.86202 5.23455C6.42515 3.77833 5.01747 2.17649 3.46417 1.39984L5.6485 9.16634H8.26969L12.2015 0.429024H9.58029L7.10472 6.4966Z" fill="#A1A6B7"/><path d="M0.357605 0.380005L0.794471 0.477086C3.90107 1.2052 6.03686 3.04974 6.86205 5.23407L5.98832 1.10811C5.8427 0.525627 5.40583 0.380005 4.87188 0.380005H0.357605Z" fill="#A1A6B7"/><path d="M9.53179 6.20537L7.88141 4.55498L7.10476 6.39953L6.9106 5.18601C6.47373 3.72979 5.06606 2.12795 3.51276 1.3513L5.69708 9.1178H8.31828L9.53179 6.20537Z" fill="#A0A5B6"/><path d="M14.0461 9.1178L11.9588 6.98201L11.5705 9.1178H14.0461Z" fill="#A0A5B6"/><path d="M19.6282 6.1083C19.8224 6.30246 19.9195 6.44808 19.8709 6.64225C19.8709 7.22473 19.0943 7.51598 18.4147 7.51598C17.4439 7.51598 16.9099 7.37036 16.0848 7.03057L15.745 6.88495L15.4052 8.87511C15.9877 9.11782 17.0556 9.36052 18.172 9.36052C19.7253 9.36052 20.9874 8.92366 21.7155 8.14701L19.6282 6.1083Z" fill="#A0A5B6"/><path d="M22.4436 9.1178H24.725L25.2104 7.66158H28.317L28.6082 9.1178H30.9382L30.113 5.57434L27.2006 2.75898L27.3462 3.53563C27.3462 3.53563 27.8316 5.71996 27.9287 6.20536H25.89C26.0841 5.71996 26.8608 3.63271 26.8608 3.63271C26.8608 3.63271 27.0549 3.09876 27.2006 2.75898" fill="#A0A5B6"/></svg>