<svg width="24" height="19" viewBox="0 0 24 19" fill="none" xmlns="http://www.w3.org/2000/svg"><path d="M5.73582 16.6094V15.6627C5.74134 15.583 5.72982 15.5031 5.70205 15.4283C5.67427 15.3535 5.63086 15.2854 5.57473 15.2287C5.51859 15.172 5.451 15.1279 5.37648 15.0993C5.30195 15.0707 5.22219 15.0584 5.14251 15.063C5.03822 15.0562 4.934 15.0775 4.84074 15.1247C4.74748 15.1719 4.6686 15.2432 4.61232 15.3313C4.56103 15.2459 4.48764 15.1758 4.39988 15.1286C4.31212 15.0814 4.21325 15.0588 4.11369 15.063C4.02691 15.0587 3.94049 15.077 3.86299 15.1163C3.78549 15.1556 3.71961 15.2145 3.67187 15.2871V15.1009H3.34366V16.6094H3.67503V15.7794C3.66798 15.7278 3.67241 15.6753 3.68801 15.6257C3.70361 15.576 3.73 15.5304 3.76527 15.4921C3.80055 15.4538 3.84385 15.4238 3.89208 15.4042C3.94031 15.3845 3.99228 15.3758 4.04426 15.3786C4.26202 15.3786 4.37248 15.5206 4.37248 15.7763V16.6157H4.70384V15.7794C4.69708 15.7279 4.70172 15.6755 4.71743 15.626C4.73314 15.5764 4.75953 15.5309 4.79475 15.4927C4.82996 15.4545 4.87314 15.4244 4.92124 15.4047C4.96933 15.385 5.02117 15.3761 5.07308 15.3786C5.29715 15.3786 5.40445 15.5206 5.40445 15.7763V16.6157L5.73582 16.6094ZM10.6385 15.1009H10.0988V14.6433H9.76746V15.1009H9.46765V15.4007H9.77377V16.095C9.77377 16.4453 9.90948 16.6536 10.2976 16.6536C10.4427 16.6541 10.5849 16.6136 10.7079 16.5368L10.6132 16.256C10.5252 16.3085 10.4253 16.3378 10.3229 16.3412C10.1651 16.3412 10.1051 16.2402 10.1051 16.0887V15.4007H10.6416L10.6385 15.1009ZM13.4378 15.063C13.3577 15.0607 13.2786 15.08 13.2086 15.1188C13.1386 15.1577 13.0804 15.2148 13.0401 15.284V15.1009H12.7151V16.6094H13.0433V15.7636C13.0433 15.5143 13.1506 15.3755 13.3589 15.3755C13.4291 15.3745 13.4988 15.3874 13.564 15.4133L13.665 15.0978C13.59 15.0709 13.5111 15.0571 13.4314 15.0567L13.4378 15.063ZM9.20571 15.2208C9.01993 15.1104 8.80633 15.0556 8.59032 15.063C8.20845 15.063 7.95914 15.2461 7.95914 15.5459C7.95914 15.792 8.14218 15.9435 8.47986 15.9909L8.63765 16.013C8.81754 16.0382 8.90275 16.0855 8.90275 16.1708C8.90275 16.2875 8.78283 16.3538 8.55876 16.3538C8.37853 16.359 8.20178 16.3034 8.05697 16.196L7.89918 16.4516C8.09036 16.5851 8.31936 16.6537 8.55245 16.6473C8.98796 16.6473 9.24043 16.4422 9.24043 16.155C9.24043 15.8678 9.04161 15.751 8.7134 15.7037L8.5556 15.6816C8.41359 15.6627 8.29997 15.6343 8.29997 15.5333C8.29997 15.4323 8.40727 15.3565 8.58716 15.3565C8.75342 15.3585 8.91641 15.403 9.06054 15.4859L9.20571 15.2208ZM17.9964 15.063C17.9164 15.0607 17.8372 15.08 17.7672 15.1188C17.6973 15.1577 17.6391 15.2148 17.5988 15.284V15.1009H17.2737V16.6094H17.6019V15.7636C17.6019 15.5143 17.7092 15.3755 17.9175 15.3755C17.9877 15.3745 18.0574 15.3874 18.1227 15.4133L18.2237 15.0978C18.1487 15.0709 18.0697 15.0571 17.9901 15.0567L17.9964 15.063ZM13.7675 15.852C13.7636 15.958 13.7819 16.0637 13.8212 16.1622C13.8605 16.2608 13.9199 16.35 13.9956 16.4243C14.0714 16.4985 14.1618 16.5562 14.2611 16.5935C14.3604 16.6308 14.4664 16.647 14.5723 16.641C14.7694 16.651 14.963 16.5868 15.1151 16.4611L14.9573 16.196C14.8439 16.2825 14.7055 16.3301 14.5628 16.3317C14.4415 16.3219 14.3283 16.2668 14.2458 16.1773C14.1633 16.0878 14.1175 15.9706 14.1175 15.8489C14.1175 15.7271 14.1633 15.6099 14.2458 15.5204C14.3283 15.4309 14.4415 15.3758 14.5628 15.366C14.7055 15.3676 14.8439 15.4152 14.9573 15.5017L15.1151 15.2366C14.963 15.1109 14.7694 15.0467 14.5723 15.0567C14.4664 15.0507 14.3604 15.0669 14.2611 15.1042C14.1618 15.1415 14.0714 15.1992 13.9956 15.2734C13.9199 15.3477 13.8605 15.4369 13.8212 15.5355C13.7819 15.634 13.7636 15.7397 13.7675 15.8457V15.852ZM16.8414 15.852V15.1009H16.5132V15.284C16.4574 15.2122 16.3854 15.1548 16.3031 15.1164C16.2208 15.078 16.1305 15.0597 16.0398 15.063C15.8305 15.063 15.6299 15.1462 15.4819 15.2941C15.3339 15.4421 15.2508 15.6428 15.2508 15.852C15.2508 16.0613 15.3339 16.2619 15.4819 16.4099C15.6299 16.5579 15.8305 16.641 16.0398 16.641C16.1305 16.6443 16.2208 16.626 16.3031 16.5876C16.3854 16.5492 16.4574 16.4918 16.5132 16.4201V16.6031H16.8414V15.852ZM15.62 15.852C15.6253 15.7632 15.6564 15.6779 15.7095 15.6065C15.7626 15.5352 15.8354 15.4809 15.919 15.4504C16.0025 15.42 16.0932 15.4146 16.1798 15.4349C16.2664 15.4553 16.3451 15.5006 16.4063 15.5652C16.4675 15.6297 16.5084 15.7108 16.5241 15.7983C16.5398 15.8859 16.5296 15.9761 16.4947 16.0579C16.4598 16.1397 16.4017 16.2095 16.3276 16.2587C16.2535 16.3079 16.1666 16.3344 16.0777 16.3349C16.0152 16.3357 15.9532 16.3235 15.8957 16.2992C15.8381 16.2749 15.7862 16.2389 15.7432 16.1935C15.7002 16.1482 15.6671 16.0944 15.6459 16.0357C15.6247 15.9769 15.6159 15.9144 15.62 15.852ZM11.6594 15.063C11.4502 15.066 11.2507 15.1519 11.1048 15.3019C10.9589 15.452 10.8786 15.6538 10.8815 15.8631C10.8844 16.0723 10.9703 16.2718 11.1204 16.4177C11.2704 16.5636 11.4723 16.6439 11.6815 16.641C11.9085 16.6526 12.1318 16.5795 12.3079 16.4358L12.1502 16.1928C12.0256 16.2928 11.8712 16.3483 11.7115 16.3506C11.603 16.36 11.4951 16.3266 11.4109 16.2577C11.3266 16.1887 11.2725 16.0896 11.2602 15.9814H12.3805C12.3805 15.9404 12.3805 15.8993 12.3805 15.8552C12.3805 15.3818 12.087 15.0662 11.6641 15.0662L11.6594 15.063ZM11.6594 15.3565C11.7085 15.3555 11.7574 15.3641 11.8031 15.382C11.8489 15.3998 11.8907 15.4265 11.9262 15.4605C11.9616 15.4945 11.9901 15.5351 12.0098 15.5801C12.0296 15.6251 12.0402 15.6735 12.0413 15.7226H11.2523C11.258 15.6213 11.3032 15.5263 11.3781 15.4579C11.453 15.3895 11.5517 15.3531 11.6531 15.3565H11.6594ZM19.8821 15.8552V14.495H19.5665V15.284C19.5107 15.2122 19.4387 15.1548 19.3564 15.1164C19.2741 15.078 19.1839 15.0597 19.0931 15.063C18.8839 15.063 18.6832 15.1462 18.5352 15.2941C18.3872 15.4421 18.3041 15.6428 18.3041 15.852C18.3041 16.0613 18.3872 16.2619 18.5352 16.4099C18.6832 16.5579 18.8839 16.641 19.0931 16.641C19.1839 16.6443 19.2741 16.626 19.3564 16.5876C19.4387 16.5492 19.5107 16.4918 19.5665 16.4201V16.6031H19.8821V15.8552ZM20.4296 16.3901C20.4501 16.3898 20.4705 16.3936 20.4896 16.4011C20.5077 16.4085 20.5243 16.4192 20.5385 16.4327C20.5524 16.4463 20.5636 16.4623 20.5716 16.48C20.5796 16.4985 20.5837 16.5183 20.5837 16.5384C20.5837 16.5585 20.5796 16.5784 20.5716 16.5968C20.5636 16.6145 20.5524 16.6305 20.5385 16.6441C20.5243 16.6576 20.5077 16.6683 20.4896 16.6757C20.4707 16.684 20.4503 16.6883 20.4296 16.6883C20.3997 16.6881 20.3705 16.6794 20.3453 16.6632C20.3202 16.647 20.3002 16.6239 20.2876 16.5968C20.2797 16.5783 20.2756 16.5585 20.2756 16.5384C20.2756 16.5183 20.2797 16.4985 20.2876 16.48C20.2956 16.4623 20.3069 16.4463 20.3207 16.4327C20.3349 16.4192 20.3515 16.4085 20.3697 16.4011C20.3902 16.393 20.4122 16.3892 20.4343 16.3901H20.4296ZM20.4296 16.6568C20.4454 16.6569 20.461 16.6536 20.4754 16.6473C20.489 16.6412 20.5013 16.6327 20.5117 16.622C20.5314 16.6005 20.5424 16.5724 20.5424 16.5431C20.5424 16.5139 20.5314 16.4858 20.5117 16.4643C20.5013 16.4536 20.489 16.445 20.4754 16.439C20.4609 16.4327 20.4454 16.4295 20.4296 16.4295C20.4139 16.4296 20.3983 16.4328 20.3839 16.439C20.3697 16.4448 20.3568 16.4534 20.346 16.4643C20.3262 16.4858 20.3153 16.5139 20.3153 16.5431C20.3153 16.5724 20.3262 16.6005 20.346 16.622C20.3568 16.6329 20.3697 16.6414 20.3839 16.6473C20.3998 16.6542 20.417 16.6574 20.4343 16.6568H20.4296ZM20.4391 16.469C20.4538 16.4683 20.4683 16.4727 20.4801 16.4816C20.4849 16.4856 20.4887 16.4907 20.4912 16.4965C20.4937 16.5022 20.4947 16.5085 20.4943 16.5147C20.4945 16.52 20.4937 16.5252 20.4918 16.5301C20.4899 16.535 20.487 16.5394 20.4833 16.5431C20.4741 16.5515 20.4625 16.5565 20.4501 16.5573L20.4959 16.6094H20.4596L20.417 16.5573H20.4028V16.6094H20.3728V16.4706L20.4391 16.469ZM20.4044 16.4958V16.5337H20.4391C20.4453 16.5355 20.4518 16.5355 20.458 16.5337C20.4591 16.5315 20.4597 16.529 20.4597 16.5266C20.4597 16.5241 20.4591 16.5217 20.458 16.5195C20.4591 16.5173 20.4597 16.5148 20.4597 16.5124C20.4597 16.5099 20.4591 16.5075 20.458 16.5053C20.4518 16.5034 20.4453 16.5034 20.4391 16.5053L20.4044 16.4958ZM18.6686 15.8552C18.6739 15.7664 18.705 15.681 18.7581 15.6097C18.8112 15.5383 18.884 15.4841 18.9676 15.4536C19.0511 15.4231 19.1418 15.4177 19.2284 15.4381C19.3149 15.4585 19.3937 15.5037 19.4549 15.5683C19.516 15.6329 19.557 15.7139 19.5727 15.8015C19.5884 15.889 19.5782 15.9793 19.5433 16.0611C19.5083 16.1429 19.4503 16.2127 19.3762 16.2619C19.3021 16.3111 19.2152 16.3376 19.1262 16.338C19.0638 16.3388 19.0018 16.3267 18.9442 16.3023C18.8867 16.278 18.8348 16.2421 18.7918 16.1967C18.7488 16.1513 18.7157 16.0976 18.6945 16.0388C18.6733 15.98 18.6645 15.9175 18.6686 15.8552ZM7.58674 15.8552V15.1009H7.25853V15.284C7.2028 15.2122 7.1308 15.1548 7.04849 15.1164C6.96618 15.078 6.87592 15.0597 6.78515 15.063C6.5759 15.063 6.37522 15.1462 6.22726 15.2941C6.0793 15.4421 5.99618 15.6428 5.99618 15.852C5.99618 16.0613 6.0793 16.2619 6.22726 16.4099C6.37522 16.5579 6.5759 16.641 6.78515 16.641C6.87592 16.6443 6.96618 16.626 7.04849 16.5876C7.1308 16.5492 7.2028 16.4918 7.25853 16.4201V16.6031H7.58674V15.8552ZM6.36542 15.8552C6.37065 15.7664 6.40174 15.681 6.45485 15.6097C6.50797 15.5383 6.58079 15.4841 6.66435 15.4536C6.74791 15.4231 6.83856 15.4177 6.92515 15.4381C7.01173 15.4585 7.09046 15.5037 7.15165 15.5683C7.21283 15.6329 7.2538 15.7139 7.26951 15.8015C7.28522 15.889 7.27498 15.9793 7.24005 16.0611C7.20512 16.1429 7.14704 16.2127 7.07294 16.2619C6.99884 16.3111 6.91197 16.3376 6.82302 16.338C6.76028 16.3392 6.69797 16.3274 6.64004 16.3033C6.58211 16.2792 6.52982 16.2433 6.4865 16.1979C6.44318 16.1525 6.40976 16.0986 6.38837 16.0396C6.36699 15.9806 6.35809 15.9178 6.36226 15.8552H6.36542Z" fill="#A0A5B6"/><path d="M14.0673 3.6056H9.09683V12.5383H14.0673V3.6056Z" fill="#BBC0D1"/><path d="M9.41243 8.07399C9.41151 7.21358 9.60638 6.36424 9.98228 5.59029C10.3582 4.81634 10.9053 4.13807 11.5821 3.60684C10.7441 2.94824 9.73766 2.5387 8.67789 2.42501C7.61812 2.31133 6.54774 2.4981 5.58909 2.96397C4.63045 3.42984 3.8222 4.15602 3.25674 5.05951C2.69128 5.963 2.39142 7.00735 2.39142 8.0732C2.39142 9.13905 2.69128 10.1834 3.25674 11.0869C3.8222 11.9904 4.63045 12.7166 5.58909 13.1824C6.54774 13.6483 7.61812 13.8351 8.67789 13.7214C9.73766 13.6077 10.7441 13.1982 11.5821 12.5396C10.9055 12.0085 10.3585 11.3305 9.98263 10.5568C9.60673 9.78316 9.41175 8.93413 9.41243 8.07399Z" fill="#A0A5B6"/><path d="M20.7736 8.07275C20.7736 9.13868 20.4736 10.1831 19.9081 11.0866C19.3425 11.9901 18.5342 12.7163 17.5754 13.1821C16.6166 13.6479 15.5461 13.8346 14.4863 13.7207C13.4265 13.6069 12.4201 13.1971 11.5821 12.5383C12.2584 12.0068 12.8052 11.3286 13.1812 10.5549C13.5572 9.78117 13.7526 8.93218 13.7526 8.07196C13.7526 7.21174 13.5572 6.36274 13.1812 5.58904C12.8052 4.81534 12.2584 4.13713 11.5821 3.60559C12.4201 2.94679 13.4265 2.53705 14.4863 2.4232C15.5461 2.30936 16.6166 2.49601 17.5754 2.96181C18.5342 3.42762 19.3425 4.15378 19.9081 5.0573C20.4736 5.96082 20.7736 7.00524 20.7736 8.07117V8.07275Z" fill="#A0A5B6"/><path d="M20.2308 11.5916V11.4085H20.305V11.3707H20.1172V11.4085H20.1977V11.5916H20.2308ZM20.5953 11.5916V11.3707H20.5385L20.4722 11.5284L20.406 11.3707H20.3555V11.5916H20.3965V11.4259L20.458 11.5695H20.5006L20.5622 11.4259V11.5931L20.5953 11.5916Z" fill="#F79E1B"/></svg>