<svg width="414" height="225" viewBox="0 0 414 225" fill="none" xmlns="http://www.w3.org/2000/svg">
<path d="M311.928 103.04H345.136L360.68 82.736H327.408L311.928 103.04Z" fill="#F4F6F8"/>
<path d="M345.136 103.04H260.68V177.32H345.136V103.04Z" fill="#F9F9FC"/>
<path d="M311.928 103.04H260.68V177.32H311.928V103.04Z" fill="#F4F6F8"/>
<path d="M260.688 103.04L245.072 82.776H296.384L311.928 103.04H260.688Z" fill="#F4F4F4"/>
<path fill-rule="evenodd" clip-rule="evenodd" d="M333.136 119.48C332.332 119.171 331.478 119.011 330.616 119.008C330.1 119.011 329.585 119.064 329.08 119.168L327.032 122.712C327.876 122.254 328.824 122.022 329.784 122.04C330.368 122.04 330.95 122.121 331.512 122.28L333.136 119.48ZM320.784 129C320.889 134.097 325.086 138.155 330.184 138.088C335.452 138.119 339.749 133.876 339.784 128.608C339.757 125.682 338.415 122.923 336.128 121.096L334.528 123.848C335.935 125.047 336.747 126.8 336.752 128.648C336.606 132.172 333.693 134.946 330.166 134.92C326.639 134.894 323.767 132.078 323.672 128.552C323.672 128.123 323.712 127.694 323.792 127.272L320.784 129Z" fill="white"/>
<path d="M118.6 119.8H143.672L155.408 104.48H130.296L118.6 119.8Z" fill="#F4F6F8"/>
<path d="M143.672 119.808H79.912V175.888H143.672V119.808Z" fill="#F9F9FC"/>
<path d="M118.6 119.808H79.912V175.888H118.6V119.808Z" fill="#F4F6F8"/>
<path d="M79.9201 119.8L68.1281 104.504H106.864L118.6 119.8H79.9201Z" fill="#F4F4F4"/>
<path fill-rule="evenodd" clip-rule="evenodd" d="M134.616 132.216C134.008 131.981 133.363 131.859 132.712 131.856C132.322 131.858 131.934 131.898 131.552 131.976L130 134.648C130.638 134.303 131.355 134.129 132.08 134.144C132.521 134.143 132.959 134.202 133.384 134.32L134.616 132.216ZM125.288 139.416C125.362 143.266 128.533 146.334 132.384 146.28C136.345 146.28 139.562 143.081 139.584 139.12C139.564 136.91 138.55 134.827 136.824 133.448L135.624 135.528C136.684 136.435 137.297 137.757 137.304 139.152C137.284 141.88 135.056 144.076 132.328 144.056C129.6 144.036 127.404 141.808 127.424 139.08C127.423 138.755 127.452 138.431 127.512 138.112L125.288 139.416Z" fill="white"/>
<path d="M258 109H226V173H258V109Z" fill="#F4F6F8"/>
<path d="M232.4 96.2H162V109H232.4V96.2Z" fill="#E0E5EC"/>
<path d="M258 96.2H232.4V109H258V96.2Z" fill="#E8EAF1"/>
<path d="M232.4 109H162V173H232.4V109Z" fill="#E8EAF1"/>
<path d="M194 96.2H213.2V147.4L203.6 138.872L194 147.4V96.2Z" fill="#F4F6F8"/>
<path d="M285.928 1.60004H338.28C344.68 1.60004 350.496 6.80004 350.496 13.224V37.12C350.496 43.52 344.696 48.744 338.28 48.744H301.096L287 60V48.8H285.928C282.836 48.8001 279.87 47.5677 277.689 45.3757C275.507 43.1836 274.289 40.2126 274.304 37.12V13.224C274.304 10.1412 275.529 7.18455 277.709 5.00463C279.889 2.8247 282.845 1.60004 285.928 1.60004Z" fill="#FDD760" stroke="#FFC729" stroke-width="3.2"/>
<g style="mix-blend-mode:screen" opacity="0.28">
<g style="mix-blend-mode:screen" opacity="0.28">
<path d="M284.352 36.584V14.4C284.352 8.44004 288.304 3.60004 292.68 3.60004H284.304C279.928 3.60004 275.976 8.40004 275.976 14.4V36.584C275.976 42.544 279.928 47.384 284.304 47.384C284.304 47.384 284.352 42.552 284.352 36.584Z" fill="#FCD66D"/>
</g>
</g>
<path d="M312.864 8.69368C316.206 8.69368 318.623 10.0704 320.114 12.8237C321.268 14.9519 321.845 17.8676 321.845 21.5708C321.845 25.0816 321.322 27.9853 320.276 30.2818C318.761 33.5762 316.284 35.2234 312.846 35.2234C309.743 35.2234 307.435 33.8768 305.92 31.1835C304.658 28.9351 304.026 25.9172 304.026 22.1299C304.026 19.1961 304.405 16.6772 305.163 14.5731C306.581 10.6535 309.148 8.69368 312.864 8.69368ZM312.827 32.2656C314.511 32.2656 315.851 31.5202 316.849 30.0293C317.847 28.5384 318.346 25.7609 318.346 21.697C318.346 18.7633 317.986 16.3526 317.264 14.4649C316.543 12.5652 315.142 11.6154 313.062 11.6154C311.15 11.6154 309.749 12.5171 308.86 14.3206C307.982 16.1121 307.543 18.7573 307.543 22.2561C307.543 24.8892 307.826 27.0054 308.391 28.6045C309.257 31.0452 310.735 32.2656 312.827 32.2656Z" fill="#FFC729"/>
<path d="M2 175.136H136.4H2Z" fill="#8E99A4"/>
<path d="M2 175.136H136.4" stroke="#C6CBDB" stroke-width="3.2" stroke-linecap="round" stroke-linejoin="round"/>
<path d="M136.4 175.136H388.664H136.4Z" fill="#8E99A4"/>
<path d="M136.4 175.136H388.664" stroke="#C6CBDB" stroke-width="3.2" stroke-linecap="round" stroke-linejoin="round"/>
<path d="M299.984 188.736C304.168 188.808 311.728 191.936 311.728 191.936V193.736C311.688 196.392 306.368 198.464 299.856 198.36C293.344 198.256 288.096 196.008 288.144 193.352V191.552C288.144 191.552 295.912 188.672 299.984 188.736Z" fill="#EBF1F7"/>
<path d="M311.735 191.956C311.778 189.296 306.535 187.054 300.023 186.947C293.511 186.84 288.197 188.909 288.154 191.569C288.11 194.228 293.353 196.471 299.865 196.577C306.377 196.684 311.691 194.615 311.735 191.956Z" fill="#F4F6F8"/>
<path d="M101.792 188.928C98.8239 189.072 93.5439 191.512 93.5439 191.512L93.6079 192.808C93.7039 194.728 97.5199 196.096 102.128 195.872C106.736 195.648 110.408 193.912 110.312 191.992L110.248 190.696C110.248 190.696 104.672 188.8 101.792 188.928Z" fill="#EBF1F7"/>
<path d="M102.055 194.581C106.671 194.356 110.337 192.621 110.244 190.706C110.15 188.791 106.333 187.42 101.717 187.645C97.1007 187.87 93.4343 189.605 93.5276 191.52C93.621 193.436 97.4387 194.806 102.055 194.581Z" fill="#F4F6F8"/>
<path d="M175.328 212.856C170.528 213.088 161.952 217.048 161.952 217.048L162.056 219.144C162.208 222.256 168.4 224.48 175.88 224.112C183.36 223.744 189.304 220.912 189.152 217.824L189.048 215.728C189.048 215.728 180.008 212.624 175.328 212.856Z" fill="#EBF1F7"/>
<path d="M175.767 222.022C183.252 221.657 189.196 218.843 189.045 215.736C188.894 212.629 182.703 210.406 175.219 210.771C167.734 211.136 161.79 213.95 161.941 217.057C162.093 220.163 168.283 222.386 175.767 222.022Z" fill="#F4F6F8"/>
<path d="M398.8 175.136H411.6H398.8Z" fill="#8E99A4"/>
<path d="M398.8 175.136H411.6" stroke="#C6CBDB" stroke-width="3.2" stroke-linecap="round" stroke-linejoin="round"/>
<path d="M257.424 40.032H149.768C146.653 40.032 144.128 42.5572 144.128 45.672V192.976C144.128 196.091 146.653 198.616 149.768 198.616H257.424C260.539 198.616 263.064 196.091 263.064 192.976V45.672C263.064 42.5572 260.539 40.032 257.424 40.032Z" fill="#E8EAF1" stroke="#C5D0D9" stroke-width="2.4" stroke-linecap="round" stroke-linejoin="round"/>
<path d="M213.512 29.6C213.512 24.1257 209.074 19.688 203.6 19.688C198.126 19.688 193.688 24.1257 193.688 29.6H167.92V45.44H239.28V29.6H213.512Z" fill="#E8EAF1" stroke="#C5D0D9" stroke-width="2.4" stroke-linecap="round" stroke-linejoin="round"/>
<path opacity="0.41" d="M243.544 58.744H165.08C161.722 58.744 159 61.4661 159 64.824V177.328C159 180.686 161.722 183.408 165.08 183.408H243.544C246.902 183.408 249.624 180.686 249.624 177.328V64.824C249.624 61.4661 246.902 58.744 243.544 58.744Z" fill="#F4F5F8"/>
<path d="M205.584 92.8454L205.6 92.8527L205.615 92.8595L227.074 102.411L227.095 102.421L227.117 102.43C228.323 102.92 229.061 104.059 229.068 105.492C228.681 118.962 226.568 127.68 222.802 134.084C219.048 140.468 213.553 144.723 206.016 149.081C204.644 149.818 203.356 149.818 201.984 149.081C194.447 144.723 188.952 140.468 185.198 134.084C181.432 127.68 179.319 118.962 178.932 105.492C178.939 104.059 179.677 102.92 180.883 102.43L180.905 102.421L180.926 102.411L202.385 92.8595L202.4 92.8527L202.416 92.8454C203.049 92.5455 203.55 92.4322 204 92.4322C204.45 92.4322 204.951 92.5455 205.584 92.8454Z" fill="#F4F5F8" stroke="#CAD6E5" stroke-width="2.86486"/>
<path d="M193.306 121.033L200.243 128.937L215.436 113.13" stroke="#CAD6E5" stroke-width="2.86486"/>
</svg>
