<svg width="24" height="24" viewBox="0 0 24 24" fill="none" xmlns="http://www.w3.org/2000/svg">
<path d="M17.2062 16.9589L17.2062 17.0081C17.2062 17.187 17.0612 17.3321 16.8822 17.3321L16.8248 17.3321C16.6459 17.3321 16.5009 17.187 16.5009 17.0081C16.5009 17.0073 16.5009 17.0064 16.5009 17.0054C16.5009 16.852 16.3928 16.7238 16.2487 16.6927L16.2466 16.6923C15.9246 16.637 15.6384 16.5161 15.3909 16.3433L15.3977 16.3479C15.3093 16.2882 15.252 16.1884 15.252 16.0752C15.252 16.0071 15.2727 15.9439 15.3082 15.8915L15.3075 15.8927L15.4715 15.6302C15.5305 15.5323 15.6362 15.4679 15.757 15.4679C15.823 15.4679 15.8846 15.4871 15.9363 15.5203L15.9349 15.5195C16.1647 15.6785 16.448 15.7758 16.7536 15.7819L16.7551 15.782C17.0791 15.782 17.2759 15.6138 17.2759 15.3719C17.2759 15.1299 17.0135 14.9618 16.6321 14.8306C16.0703 14.6624 15.2952 14.4 15.2952 13.4322C15.2952 13.4321 15.2952 13.432 15.2952 13.4318C15.2952 12.8205 15.708 12.3056 16.2701 12.1507L16.2794 12.1486C16.409 12.1057 16.5009 11.9857 16.5009 11.8442C16.5009 11.8431 16.5009 11.8419 16.5008 11.8408L16.5008 11.841L16.5008 11.7918C16.5008 11.6128 16.6459 11.4678 16.8248 11.4678L16.8822 11.4678C17.0611 11.4678 17.2062 11.6128 17.2062 11.7918L17.2062 11.8287C17.2062 11.8294 17.2062 11.8303 17.2062 11.8311C17.2062 11.9786 17.306 12.1028 17.4418 12.1398L17.4441 12.1403C17.6771 12.1972 17.8822 12.2846 18.0683 12.3998L18.0592 12.3946C18.1498 12.4539 18.2087 12.555 18.2087 12.6698C18.2087 12.7351 18.1897 12.7959 18.1568 12.847L18.1576 12.8457L17.9936 13.1081C17.9341 13.1983 17.8333 13.257 17.7188 13.257C17.6567 13.257 17.5987 13.2398 17.5492 13.2098L17.5507 13.2107C17.3527 13.0955 17.1158 13.026 16.8628 13.022L16.8617 13.022C16.5582 13.022 16.4106 13.1779 16.4106 13.3788C16.4106 13.5797 16.669 13.7438 17.0545 13.8873C17.6368 14.0965 18.4078 14.3794 18.4078 15.2939C18.4088 15.3135 18.4094 15.3364 18.4094 15.3595C18.4094 15.97 18.0002 16.4849 17.4412 16.6449L17.4318 16.6472C17.3 16.6888 17.2062 16.8099 17.2062 16.9529C17.2062 16.955 17.2062 16.9571 17.2062 16.9592L17.2062 16.9589L17.2062 16.9589ZM16.7961 8.86778C16.4317 8.86843 16.076 8.90421 15.7318 8.97195L15.7668 8.9662L15.7668 7.28073C15.7668 5.64034 13.5113 4 9.20534 4C4.89937 4 2.62747 5.64038 2.62747 7.28073L2.62747 16.7128C2.62747 18.3532 4.88297 19.9936 9.18895 19.9936C9.29832 19.9977 9.42675 20 9.55574 20C11.1074 20 12.5803 19.6623 13.9047 19.0564L13.8394 19.0832C14.673 19.6132 15.6885 19.928 16.7776 19.928C19.833 19.928 22.3098 17.4511 22.3098 14.3958C22.3098 11.3413 19.8341 8.8649 16.7798 8.8637L16.7797 8.8637L16.7961 8.86778ZM11.875 11.8983C11.1032 12.0916 10.2172 12.2024 9.3052 12.2024C9.26432 12.2024 9.22348 12.2022 9.1827 12.2018L9.18893 12.2018C6.13784 12.2018 4.26782 11.1397 4.26782 10.5614L4.26782 9.5157C5.37096 10.1513 7.01954 10.5614 9.18893 10.5614C11.3583 10.5614 13.0069 10.1513 14.11 9.5157L14.11 9.5526C13.138 10.0992 12.3647 10.8989 11.8651 11.8632L11.8504 11.8942L11.875 11.8983ZM4.26784 12.7964C5.37098 13.4321 7.01956 13.8422 9.18895 13.8422C9.19843 13.8422 9.20964 13.8422 9.22085 13.8422C9.95349 13.8422 10.6729 13.7856 11.3749 13.6763L11.2968 13.6863C11.2636 13.9036 11.2447 14.1543 11.2447 14.4095C11.2447 14.7191 11.2726 15.0222 11.3261 15.3165L11.3214 15.2857C10.6883 15.4109 9.96035 15.4826 9.2157 15.4826C9.20629 15.4826 9.19688 15.4825 9.18748 15.4825L9.18895 15.4825C6.13785 15.4825 4.26784 14.4204 4.26784 13.8422L4.26784 12.7964ZM9.18895 5.64036C12.24 5.64036 14.1101 6.70249 14.1101 7.28074C14.1101 7.85899 12.24 8.92112 9.18895 8.92112C6.13785 8.92113 4.26784 7.859 4.26784 7.28074C4.26784 6.70249 6.13785 5.64036 9.18895 5.64036ZM4.26784 16.7128L4.26784 16.0772C5.37098 16.7128 7.01956 17.1229 9.18895 17.1229C9.21149 17.1231 9.23813 17.1232 9.26482 17.1232C10.1739 17.1232 11.0616 17.032 11.9194 16.8584L11.834 16.8728C12.0246 17.2507 12.236 17.5761 12.4779 17.8758L12.4697 17.8652C11.5318 18.1753 10.4523 18.3542 9.33097 18.3542C9.28104 18.3542 9.2312 18.3538 9.18142 18.3531L9.18895 18.3532C6.13785 18.3532 4.26784 17.2911 4.26784 16.7128L4.26784 16.7128ZM16.7797 18.2958C14.6281 18.2958 12.8838 16.5515 12.8838 14.3999C12.8838 12.2482 14.6281 10.504 16.7797 10.504C18.9314 10.504 20.6756 12.2482 20.6756 14.3999C20.6733 16.5506 18.9304 18.2934 16.78 18.2958L16.7798 18.2958L16.7797 18.2958Z" fill="#404553"/>
</svg>
