<?xml version="1.0" encoding="utf-8"?>
<!-- Generator: Adobe Illustrator 19.0.0, SVG Export Plug-In . SVG Version: 6.00 Build 0)  -->
<svg version="1.1" id="Layer_1" xmlns="http://www.w3.org/2000/svg" xmlns:xlink="http://www.w3.org/1999/xlink" x="0px" y="0px"
	 viewBox="-39 10 24 24" style="enable-background:new -39 10 24 24;" xml:space="preserve">
<style type="text/css">
	.st0{fill:none;stroke:#404553;stroke-width:1.5;}
	.st1{fill:#404553;}
	.st2{fill:#F6F6F6;}
	.st3{fill:#088DF9;stroke:#404553;stroke-width:1.5;}
</style>
<path class="st0" d="M-36.4,15c0-1.2,1-2.3,2.2-2.3h16.3l0,16.3c0,1.2-1,2.2-2.3,2.2h-14c-1.2,0-2.2-1-2.3-2.2L-36.4,15z"/>
<path class="st1" d="M-24.9,24.9c0.5-0.5,0.7-1.1,0.7-1.8c0-1.4-1.1-2.5-2.5-2.5c-1.4,0-2.5,1.1-2.5,2.5c0,0.7,0.3,1.3,0.7,1.7
	l1.8,2.2L-24.9,24.9z"/>
<path class="st1" d="M-24.9,24.9l-0.5-0.5l0,0l0,0L-24.9,24.9z M-28.4,24.8l0.6-0.5l0,0l0,0L-28.4,24.8z M-26.6,27l-0.6,0.5l0.6,0.7
	l0.6-0.7L-26.6,27z M-24.3,25.4c0.6-0.6,1-1.4,1-2.3h-1.5c0,0.5-0.2,0.9-0.5,1.2L-24.3,25.4z M-23.4,23.1c0-1.8-1.5-3.2-3.3-3.2v1.5
	c1,0,1.8,0.8,1.8,1.8H-23.4z M-26.6,19.9c-1.8,0-3.2,1.5-3.2,3.2h1.5c0-1,0.8-1.8,1.8-1.8V19.9z M-29.9,23.1c0,0.9,0.3,1.7,0.9,2.2
	l1.1-1c-0.3-0.3-0.5-0.7-0.5-1.2H-29.9z M-26,26.6l-1.8-2.2l-1.2,1l1.8,2.2L-26,26.6z M-25.4,24.4l-1.8,2.2l1.2,1l1.8-2.2
	L-25.4,24.4z"/>
<path class="st2" d="M-26.6,24.6c0.8,0,1.5-0.7,1.5-1.5s-0.7-1.5-1.5-1.5s-1.5,0.7-1.5,1.5S-27.5,24.6-26.6,24.6z"/>
<path class="st3" d="M-36.4,15.8c0-1.7,1.3-3,3-3h15.5l0,4.5h-17C-35.7,17.3-36.4,16.6-36.4,15.8z"/>
</svg>
