<?xml version="1.0" encoding="utf-8"?>
<!-- Generator: Adobe Illustrator 19.0.0, SVG Export Plug-In . SVG Version: 6.00 Build 0)  -->
<svg version="1.1" id="Layer_1" xmlns="http://www.w3.org/2000/svg" xmlns:xlink="http://www.w3.org/1999/xlink" x="0px" y="0px"
	 viewBox="-39 9 24 25" style="enable-background:new -39 9 24 25;" xml:space="preserve">
<style type="text/css">
	.st0{fill:#088DF9;}
	.st1{fill:none;stroke:#404553;stroke-width:1.5;}
	.st2{fill:none;stroke:#404553;stroke-width:1.5;stroke-linecap:round;}
	.st3{fill:#088DF9;stroke:#404553;stroke-width:1.5;}
</style>
<rect x="-30" y="19" class="st0" width="14" height="10"/>
<path class="st1" d="M-36.1,13.5h18c1.1,0,2,0.9,2,2v12c0,1.1-0.9,2-2,2h-18c-1.1,0-2-0.9-2-2v-12C-38.1,14.4-37.2,13.5-36.1,13.5z"
	/>
<line class="st2" x1="-37.1" y1="19" x2="-36.1" y2="19"/>
<line class="st2" x1="-24.3" y1="19" x2="-16.9" y2="19"/>
<line class="st2" x1="-29.4" y1="21" x2="-27.7" y2="23.1"/>
<line class="st2" x1="-31.6" y1="21.3" x2="-33.6" y2="23.1"/>
<line class="st2" x1="-30.5" y1="28.7" x2="-30.5" y2="14.2"/>
<path class="st3" d="M-30.1,19.2c2-3,5-2.1,5-0.2C-25,21-27.7,22-30.1,19.2z"/>
<path class="st3" d="M-31,19.2c-2-3-5-2.1-5-0.2C-36,21-33.3,22-31,19.2z"/>
</svg>
