<?xml version="1.0" encoding="utf-8"?>
<!-- Generator: Adobe Illustrator 19.0.0, SVG Export Plug-In . SVG Version: 6.00 Build 0)  -->
<svg version="1.1" id="Layer_1" xmlns="http://www.w3.org/2000/svg" xmlns:xlink="http://www.w3.org/1999/xlink" x="0px" y="0px"
	 viewBox="-39 9 25 25" style="enable-background:new -39 9 25 25;" xml:space="preserve">
<style type="text/css">
	.st0{fill:none;stroke:#404553;stroke-width:1.5102;}
	.st1{fill:#088DF9;stroke:#404553;stroke-width:1.1617;}
	.st2{fill:#FFFFFF;filter:url(#Adobe_OpacityMaskFilter);}
	.st3{mask:url(#path-4-inside-1);fill:#404553;}
	.st4{fill:#FFFFFF;filter:url(#Adobe_OpacityMaskFilter_1_);}
	.st5{mask:url(#path-6-inside-2);fill:#404553;}
</style>
<path class="st0" d="M-32.3,12.5h12c1.6,0,2.9,1.3,2.9,2.9l0,12c0,1.6-1.3,2.9-2.9,2.9h-12c-1.6,0-2.9-1.3-2.9-2.9l0-12
	C-35.1,13.8-33.9,12.5-32.3,12.5z"/>
<path class="st1" d="M-31.4,15.9h3c0,0,0,0,0,0l0,3.9c0,0,0,0,0,0h-3c0,0,0,0,0,0L-31.4,15.9C-31.5,15.9-31.5,15.9-31.4,15.9z"/>
<path class="st1" d="M-31.4,22.6h3c0,0,0,0,0,0l0,3.9c0,0,0,0,0,0h-3c0,0,0,0,0,0L-31.4,22.6C-31.5,22.6-31.5,22.6-31.4,22.6z"/>
<defs>
	<filter id="Adobe_OpacityMaskFilter" filterUnits="userSpaceOnUse" x="-29.3" y="13" width="11.4" height="5.6">
		<feColorMatrix  type="matrix" values="1 0 0 0 0  0 1 0 0 0  0 0 1 0 0  0 0 0 1 0"/>
	</filter>
</defs>
<mask maskUnits="userSpaceOnUse" x="-29.3" y="13" width="11.4" height="5.6" id="path-4-inside-1">
	<path class="st2" d="M-27,15.8c0-0.3,0.2-0.5,0.5-0.5h5.8c0.3,0,0.5,0.2,0.5,0.5l0,0c0,0.3-0.2,0.5-0.5,0.5h-5.8
		C-26.8,16.2-27,16-27,15.8L-27,15.8z"/>
</mask>
<path class="st3" d="M-26.5,17.6h5.8V13h-5.8V17.6z M-20.7,13.9h-5.8v4.6h5.8V13.9z M-26.5,13.9c1,0,1.8,0.8,1.8,1.8l-4.6,0.1
	c0,1.5,1.3,2.8,2.8,2.8V13.9z M-22.6,15.8c0-1,0.8-1.8,1.8-1.8v4.6c1.5,0,2.8-1.2,2.8-2.8L-22.6,15.8z M-20.7,17.6
	c-1,0-1.9-0.8-1.8-1.9l4.6,0c0-1.5-1.2-2.8-2.8-2.8V17.6z M-26.5,13c-1.6,0-2.8,1.3-2.8,2.8l4.6-0.1c0,1-0.8,1.9-1.8,1.9V13z"/>
<defs>
	<filter id="Adobe_OpacityMaskFilter_1_" filterUnits="userSpaceOnUse" x="-29.3" y="19.7" width="11.4" height="5.6">
		<feColorMatrix  type="matrix" values="1 0 0 0 0  0 1 0 0 0  0 0 1 0 0  0 0 0 1 0"/>
	</filter>
</defs>
<mask maskUnits="userSpaceOnUse" x="-29.3" y="19.7" width="11.4" height="5.6" id="path-6-inside-2">
	<path class="st4" d="M-27,22.5c0-0.3,0.2-0.5,0.5-0.5h5.8c0.3,0,0.5,0.2,0.5,0.5l0,0c0,0.3-0.2,0.5-0.5,0.5h-5.8
		C-26.8,23-27,22.8-27,22.5L-27,22.5z"/>
</mask>
<path class="st5" d="M-26.5,24.4h5.8v-4.6h-5.8V24.4z M-20.7,20.7h-5.8v4.6h5.8V20.7z M-26.5,20.7c1,0,1.8,0.8,1.8,1.8l-4.6,0.1
	c0,1.5,1.3,2.8,2.8,2.8V20.7z M-22.6,22.5c0-1,0.8-1.8,1.8-1.8v4.6c1.5,0,2.8-1.2,2.8-2.8L-22.6,22.5z M-20.7,24.4
	c-1,0-1.9-0.8-1.8-1.9l4.6,0c0-1.5-1.2-2.8-2.8-2.8V24.4z M-26.5,19.7c-1.6,0-2.8,1.3-2.8,2.8l4.6-0.1c0,1-0.8,1.9-1.8,1.9V19.7z"/>
</svg>
