<?xml version="1.0" encoding="utf-8"?>
<!-- Generator: Adobe Illustrator 19.0.0, SVG Export Plug-In . SVG Version: 6.00 Build 0)  -->
<svg version="1.1" id="Layer_1" xmlns="http://www.w3.org/2000/svg" xmlns:xlink="http://www.w3.org/1999/xlink" x="0px" y="0px"
	 viewBox="-39 10 24 24" style="enable-background:new -39 10 24 24;" xml:space="preserve">
<style type="text/css">
	.st0{fill:none;stroke:#404553;stroke-width:1.5;}
	.st1{fill:#088DF9;stroke:#404553;stroke-width:1.5;}
	.st2{fill:#FFFFFF;filter:url(#Adobe_OpacityMaskFilter);}
	.st3{mask:url(#path-3-inside-1);fill:#404553;}
</style>
<path class="st0" d="M-36.3,15c0-1.2,1-2.3,2.3-2.3h14c1.2,0,2.3,1,2.3,2.3l0,14c0,1.2-1,2.2-2.3,2.2h-14c-1.2,0-2.2-1-2.3-2.2
	L-36.3,15z"/>
<path class="st1" d="M-36.2,19.8c0-1.1,0.9-2,2-2h14.5c1.1,0,2,0.9,2,2c0,1.1-0.9,2-2,2h-14.5C-35.3,21.8-36.2,20.9-36.2,19.8z"/>
<defs>
	<filter id="Adobe_OpacityMaskFilter" filterUnits="userSpaceOnUse" x="-34.5" y="24.5" width="10" height="4.5">
		<feColorMatrix  type="matrix" values="1 0 0 0 0  0 1 0 0 0  0 0 1 0 0  0 0 0 1 0"/>
	</filter>
</defs>
<mask maskUnits="userSpaceOnUse" x="-34.5" y="24.5" width="10" height="4.5" id="path-3-inside-1">
	<path class="st2" d="M-33,26.8c0-0.4,0.3-0.8,0.7-0.8h5.5c0.4,0,0.8,0.3,0.8,0.8c0,0.4-0.3,0.7-0.8,0.7h-5.5
		C-32.7,27.5-33,27.2-33,26.8z"/>
</mask>
<path class="st3" d="M-32.2,27.5h5.5v-3h-5.5V27.5z M-26.7,26h-5.5v3h5.5V26z M-32.2,26c0.4,0,0.7,0.3,0.7,0.7l-3,0
	c0,1.2,1,2.2,2.2,2.2V26z M-27.5,26.7c0-0.4,0.3-0.7,0.8-0.7v3c1.2,0,2.2-1,2.3-2.2L-27.5,26.7z M-26.7,27.5c-0.4,0-0.8-0.3-0.8-0.8
	l3,0c0-1.2-1-2.3-2.3-2.3V27.5z M-32.2,24.5c-1.3,0-2.3,1-2.2,2.3l3,0c0,0.4-0.3,0.8-0.7,0.8V24.5z"/>
</svg>
