<?xml version="1.0" encoding="utf-8"?>
<!-- Generator: Adobe Illustrator 19.0.0, SVG Export Plug-In . SVG Version: 6.00 Build 0)  -->
<svg version="1.1" id="Layer_1" xmlns="http://www.w3.org/2000/svg" xmlns:xlink="http://www.w3.org/1999/xlink" x="0px" y="0px"
	 viewBox="-39 10 24 24" style="enable-background:new -39 10 24 24;" xml:space="preserve">
<style type="text/css">
	.st0{fill:none;stroke:#404553;stroke-width:1.5;}
	.st1{fill:#088DF9;stroke:#404553;stroke-width:1.5;}
	.st2{fill:none;stroke:#404553;}
</style>
<path class="st0" d="M-34.3,16.8v-2c0-1.1,0.9-2,2-2H-19c1.1,0,2,0.9,2,2l0,14.5c0,1.1-0.9,2-2,2h-13.4c-1.1,0-2-0.9-2-2v-8.9"/>
<path class="st0" d="M-33.6,18h-3.1"/>
<path class="st0" d="M-33.6,20.1h-3.1"/>
<path class="st0" d="M-34,16h17"/>
<path class="st1" d="M-35,22.8h12c0.7,0,1.3,0.6,1.3,1.3v6c0,0.7-0.6,1.3-1.3,1.3h-12c-0.7,0-1.3-0.6-1.3-1.3v-6
	C-36.3,23.3-35.7,22.8-35,22.8z"/>
<circle class="st2" cx="-29" cy="27" r="1.5"/>
<path class="st2" d="M-34,27h2"/>
<path class="st2" d="M-26,27h2"/>
<path class="st1" d="M-26.3,20.6V16h5.5v4.6l-2.4-1.1l-0.3-0.1l-0.3,0.1L-26.3,20.6z"/>
</svg>
