<?xml version="1.0" encoding="utf-8"?>
<!-- Generator: Adobe Illustrator 19.0.0, SVG Export Plug-In . SVG Version: 6.00 Build 0)  -->
<svg version="1.1" id="Layer_1" xmlns="http://www.w3.org/2000/svg" xmlns:xlink="http://www.w3.org/1999/xlink" x="0px" y="0px"
	 viewBox="-39 9 24 25" style="enable-background:new -39 9 24 25;" xml:space="preserve">
<style type="text/css">
	.st0{fill:#088DF9;stroke:#404553;stroke-width:1.5;stroke-linecap:round;stroke-linejoin:round;}
	.st1{fill:none;stroke:#404553;stroke-width:1.5;stroke-linecap:round;stroke-linejoin:round;}
</style>
<path class="st0" d="M-32.4,25.7c0-2.3,1.8-4.1,4.1-4.1c0.8,0,0.3,0,1.4,0c1.1,0,0.6,0,1.4,0c2.3,0,4.1,1.8,4.1,4.1v0.7h-5.5h-5.5
	V25.7z"/>
<path class="st0" d="M-27,19.5c1.5,0,2.7-1.2,2.7-2.7S-25.5,14-27,14s-2.7,1.2-2.7,2.7S-28.5,19.5-27,19.5z"/>
<path class="st1" d="M-16.8,21c0,5.7-4.6,10.3-10.3,10.3c-5.7,0-10.3-4.6-10.3-10.3c0-2.6,0.9-4.9,2.5-6.7c1.9-2.2,4.7-3.6,7.8-3.6
	C-21.3,10.8-16.8,15.4-16.8,21z"/>
</svg>
