<svg width="24" height="24" viewBox="0 0 24 24" fill="none" xmlns="http://www.w3.org/2000/svg">
<path d="M16.1238 19H9.01108C7.42421 18.9979 6.13863 17.7026 6.13863 16.1051V15.5619H5.73937C5.33103 15.5619 5 15.2287 5 14.8177C5 14.4067 5.33103 14.0735 5.73937 14.0735H6.13863V11.5581H5.73937C5.33103 11.5581 5 11.225 5 10.814C5 10.403 5.33103 10.0698 5.73937 10.0698H6.13863V7.54698H5.73937C5.33103 7.54698 5 7.21379 5 6.80279C5 6.39179 5.33103 6.05861 5.73937 6.05861H6.13863V5.89489C6.13863 4.29739 7.42423 3.00212 9.0109 3H16.1238C17.7123 3 19 4.29608 19 5.89489V16.1051C19 17.7039 17.7123 19 16.1238 19L16.1238 19ZM17.5212 5.89489C17.5212 5.11809 16.8956 4.48837 16.1238 4.48837H9.01108C8.23931 4.48837 7.61367 5.11809 7.61367 5.89489V6.05861H8.01662C8.42496 6.05861 8.75599 6.39179 8.75599 6.80279C8.75599 7.21379 8.42496 7.54698 8.01662 7.54698H7.61736V10.0698H8.01662C8.42496 10.0698 8.75599 10.403 8.75599 10.814C8.75599 11.225 8.42496 11.5581 8.01662 11.5581H7.61736V14.0735H8.01662C8.42496 14.0735 8.75599 14.4067 8.75599 14.8177C8.75599 15.2287 8.42496 15.5619 8.01662 15.5619H7.61736V16.1051C7.61736 16.8806 8.24089 17.5095 9.01088 17.5116H16.1238C16.8956 17.5116 17.5212 16.8819 17.5212 16.1051V5.89489ZM15.1626 10.2149H10.6081C10.1998 10.2149 9.86875 9.8817 9.86875 9.4707C9.86875 9.0597 10.1998 8.72651 10.6081 8.72651H15.1626C15.571 8.72651 15.902 9.0597 15.902 9.4707C15.902 9.8817 15.571 10.2149 15.1626 10.2149ZM15.1626 7.54325H10.6081C10.1998 7.54325 9.86875 7.21006 9.86875 6.79906C9.86875 6.38806 10.1998 6.05487 10.6081 6.05487H15.1626C15.571 6.05487 15.902 6.38806 15.902 6.79906C15.902 7.21006 15.571 7.54325 15.1626 7.54325ZM12.8854 11.0186C14.4437 11.0207 15.7061 12.2927 15.7061 13.8614C15.7061 15.4314 14.4415 16.7042 12.8817 16.7042C11.3218 16.7042 10.0573 15.4314 10.0573 13.8614C10.0594 12.2909 11.3247 11.0186 12.8854 11.0186L12.8854 11.0186ZM12.8854 15.2195C13.627 15.2174 14.2273 14.6118 14.2273 13.8651C14.2273 13.1171 13.6249 12.5107 12.8817 12.5107C12.1385 12.5107 11.536 13.1171 11.536 13.8651C11.5381 14.6136 12.1414 15.2195 12.8854 15.2195Z" fill="#404553"/>
</svg>
