<svg width="24" height="24" viewBox="0 0 24 24" fill="none" xmlns="http://www.w3.org/2000/svg">
<path d="M3.31757 5.84961H20.6824C21.4101 5.84961 22 6.33803 22 6.94052V16.7587C22 17.3612 21.4101 17.8496 20.6824 17.8496H3.31757C2.5899 17.8496 2 17.3612 2 16.7587V6.94052C2 6.33803 2.5899 5.84961 3.31757 5.84961Z" fill="#FEEE00" stroke="#404553"/>
<path d="M2 10.1555V8.97998H22V10.1555H2Z" fill="#404553"/>
<path d="M16.4257 15.9404C15.656 15.9404 15.0321 15.3299 15.0321 14.5768C15.0321 13.8237 15.656 13.2131 16.4257 13.2131C17.1953 13.2131 17.8193 13.8237 17.8193 14.5768C17.8193 15.3299 17.1953 15.9404 16.4257 15.9404Z" fill="#404553"/>
<path d="M18.6554 15.9404C17.8858 15.9404 17.2618 15.3299 17.2618 14.5768C17.2618 13.8237 17.8858 13.2131 18.6554 13.2131C19.4251 13.2131 20.049 13.8237 20.049 14.5768C20.049 15.3299 19.4251 15.9404 18.6554 15.9404Z" fill="#404553"/>
<path fill-rule="evenodd" clip-rule="evenodd" d="M17.5406 13.7585C17.7156 13.9865 17.8193 14.2698 17.8193 14.5769C17.8193 14.8839 17.7156 15.1673 17.5406 15.3952C17.3655 15.1673 17.2618 14.8839 17.2618 14.5769C17.2618 14.2698 17.3655 13.9865 17.5406 13.7585Z" fill="#FEEE00"/>
</svg>
