<svg width="24" height="24" viewBox="0 0 24 24" fill="none" xmlns="http://www.w3.org/2000/svg">
<rect x="2" y="6" width="20" height="12" rx="1" fill="#FEEE00" stroke="#404553"/>
<path fill-rule="evenodd" clip-rule="evenodd" d="M8.47437 12.1711C8.47437 14.104 10.0892 15.6057 11.9672 15.6057C13.9327 15.6057 15.5256 13.9924 15.5256 12.0224C15.5256 10.8701 14.9776 9.85905 14.1665 9.18252L13.5747 10.2233C14.0643 10.6471 14.4004 11.3012 14.4004 12.0372C14.4004 13.3754 13.3116 14.4757 11.9672 14.4757C10.6299 14.4757 9.54114 13.3754 9.54114 12.0001C9.54114 11.8366 9.5558 11.673 9.58505 11.5168L8.47437 12.1711ZM13.0632 8.5729C12.7271 8.44653 12.4275 8.39453 12.1279 8.39453C11.9014 8.39453 11.7041 8.42429 11.5579 8.45399L10.798 9.79212C11.0757 9.6286 11.4337 9.53938 11.821 9.53938C12.0475 9.53938 12.2521 9.56908 12.464 9.6286L13.0632 8.5729Z" fill="#404553"/>
</svg>
