<svg width="21" height="21" viewBox="0 0 21 21" fill="none" xmlns="http://www.w3.org/2000/svg">
<path d="M1.6 4.00001C1.6 2.80001 2.6 1.70001 3.8 1.70001H20.1V18C20.1 19.2 19.1 20.2 17.8 20.2H3.8C2.6 20.2 1.6 19.2 1.5 18L1.6 4.00001Z" stroke="#404553" stroke-width="1.5"/>
<path d="M13.0998 13.9C13.5998 13.4 13.7998 12.8 13.7998 12.1C13.7998 10.7 12.6998 9.59998 11.2998 9.59998C9.8998 9.59998 8.7998 10.7 8.7998 12.1C8.7998 12.8 9.09981 13.4 9.49981 13.8L11.2998 16L13.0998 13.9Z" fill="#404553"/>
<path d="M13.1001 13.9L12.6001 13.4L13.1001 13.9ZM9.6001 13.8L10.2001 13.3L9.6001 13.8ZM11.4001 16L10.8001 16.5L11.4001 17.2L12.0001 16.5L11.4001 16ZM13.7001 14.4C14.3001 13.8 14.7001 13 14.7001 12.1H13.2001C13.2001 12.6 13.0001 13 12.7001 13.3L13.7001 14.4ZM14.6001 12.1C14.6001 10.3 13.1001 8.90002 11.3001 8.90002V10.4C12.3001 10.4 13.1001 11.2 13.1001 12.2H14.6001V12.1ZM11.4001 8.90002C9.6001 8.90002 8.2001 10.4 8.2001 12.1H9.7001C9.7001 11.1 10.5001 10.3 11.5001 10.3V8.90002H11.4001ZM8.1001 12.1C8.1001 13 8.4001 13.8 9.0001 14.3L10.1001 13.3C9.8001 13 9.6001 12.6 9.6001 12.1H8.1001ZM12.0001 15.6L10.2001 13.4L9.0001 14.4L10.8001 16.6L12.0001 15.6ZM12.6001 13.4L10.8001 15.6L12.0001 16.6L13.8001 14.4L12.6001 13.4Z" fill="#404553"/>
<path d="M11.3999 13.6C12.1999 13.6 12.8999 12.9 12.8999 12.1C12.8999 11.3 12.1999 10.6 11.3999 10.6C10.5999 10.6 9.8999 11.3 9.8999 12.1C9.8999 12.9 10.4999 13.6 11.3999 13.6Z" fill="#F6F6F6"/>
<path d="M1.6001 4.79999C1.6001 3.09999 2.9001 1.79999 4.6001 1.79999H20.1001V6.29999H3.1001C2.3001 6.29999 1.6001 5.59999 1.6001 4.79999Z" fill="#088DF9" stroke="#404553" stroke-width="1.5"/>
</svg>
