<svg width="288" height="233" viewBox="0 0 288 233" fill="none" xmlns="http://www.w3.org/2000/svg">
<g clip-path="url(#clip0)">
<path d="M261.005 185.043C257.816 178.648 251.479 175.453 245.126 175.453C242.787 159.933 229.248 156.267 216.542 162.662C216.542 156.267 210.19 153.072 203.837 156.267C203.837 146.676 197.261 139.976 187.958 140.281C187.958 137.07 187.958 133.885 181.606 130.69C177.103 125.874 168.901 127.479 165.727 130.69C160.608 128.111 155.488 129.69 153.697 133.752C150.795 131.075 146.325 131.136 143.496 133.891C143.469 127.501 137.138 124.29 130.785 127.501C124.433 121.105 108.554 124.29 108.554 137.091C99.2455 136.786 92.6749 143.487 92.6749 153.077C86.3223 149.866 79.9697 153.077 79.9697 159.472C67.2646 153.077 53.7195 156.743 51.3857 172.263C45.0332 172.263 38.6806 175.474 35.5069 181.854C31.2542 180.783 25.9807 185.065 22.8018 188.249H273.71C270.521 185.043 265.242 183.978 261.005 185.043Z" fill="#F4F6F8"/>
<path d="M208.084 188.185H234.185L273.71 188.511" stroke="#C6CBDB" stroke-width="4.64149" stroke-linecap="round" stroke-linejoin="round"/>
<path d="M22.7959 188.153H138.902H22.7959Z" fill="#8E99A4"/>
<path d="M22.7959 188.153H138.902" stroke="#C6CBDB" stroke-width="4.64149" stroke-linecap="round" stroke-linejoin="round"/>
<path d="M158.885 231.326V204.379H175.896V231.326" fill="#E0E5EC"/>
<path d="M158.885 231.326V204.379H175.896V231.326" stroke="#C5D0D9" stroke-width="4.64149" stroke-linecap="round" stroke-linejoin="round"/>
<path d="M150.379 205.535H99.3457V172.354C99.3457 125.258 150.379 125.258 150.379 172.354V205.535Z" fill="#D3D7E6" stroke="#C5D0D9" stroke-width="4.64149" stroke-linecap="round" stroke-linejoin="round"/>
<path d="M158.885 197.074H90.8408V158.996L158.885 158.541V197.074Z" fill="#F4F6F8" stroke="#C5D0D9" stroke-width="4.64149" stroke-linecap="round" stroke-linejoin="round"/>
<path d="M108.405 176.122L95.6465 188.966L108.405 176.122Z" fill="#F4F6F8"/>
<path d="M108.405 176.122L95.6465 188.966" stroke="#C5D0D9" stroke-width="4.64149" stroke-linecap="round" stroke-linejoin="round"/>
<path d="M142.426 176.122L155.184 188.966L142.426 176.122Z" fill="#F4F6F8"/>
<path d="M142.426 176.122L155.184 188.966" stroke="#C5D0D9" stroke-width="4.64149" stroke-linecap="round" stroke-linejoin="round"/>
<path d="M90.8408 158.541L123.481 182.79C124.943 183.905 126.963 183.905 128.425 182.79L158.885 158.541H90.8408Z" fill="#F4F6F8" stroke="#C5D0D9" stroke-width="4.64149" stroke-linecap="round" stroke-linejoin="round"/>
<g style="mix-blend-mode:multiply" opacity="0.25">
<path d="M120.609 137.583C131.805 139.917 141.873 151.536 141.873 172.456V205.637H150.379V172.456C150.379 146.28 134.617 134.661 120.609 137.583Z" fill="#F2F2F7"/>
</g>
<path d="M188.585 137.134H122.736C137.945 138.135 150.379 149.978 150.379 172.504V205.733H218.424V172.515C218.424 149.978 203.789 138.145 188.585 137.134Z" fill="#E8EAF1" stroke="#C5D0D9" stroke-width="4.64149" stroke-linecap="round" stroke-linejoin="round"/>
<g style="mix-blend-mode:multiply" opacity="0.37">
<path d="M175.896 222.763L158.885 205.637H175.896V222.763Z" fill="#F4F5F8"/>
<path d="M175.896 222.763L158.885 205.637H175.896V222.763Z" stroke="#F4F5F8" stroke-width="4.64149" stroke-linecap="round" stroke-linejoin="round"/>
</g>
<path d="M281.812 188.153H286.468H281.812Z" fill="#8E99A4"/>
<path d="M281.812 188.153H286.468" stroke="#C6CBDB" stroke-width="4.64149" stroke-linecap="round" stroke-linejoin="round"/>
<path d="M18.5431 188.153H10.5957H18.5431Z" fill="#8E99A4"/>
<path d="M18.5431 188.153H10.5957" stroke="#C6CBDB" stroke-width="4.64149" stroke-linecap="round" stroke-linejoin="round"/>
<path d="M5.785 188.153H1.53223H5.785Z" fill="#8E99A4"/>
<path d="M5.785 188.153H1.53223" stroke="#C6CBDB" stroke-width="4.64149" stroke-linecap="round" stroke-linejoin="round"/>
<g opacity="0.26">
<g opacity="0.26">
<path d="M94.0303 87.116V118.403V87.116Z" fill="#8E99A4"/>
<path d="M94.0303 87.116V118.403" stroke="#D3D7E6" stroke-width="4.64149" stroke-linecap="round" stroke-linejoin="round"/>
</g>
</g>
<g opacity="0.26">
<g opacity="0.26">
<path d="M184.402 107.164V111.445V107.164Z" fill="#8E99A4"/>
<path d="M184.402 107.164V111.445" stroke="#D3D7E6" stroke-width="4.64149" stroke-linecap="round" stroke-linejoin="round"/>
</g>
<g opacity="0.26">
<path d="M184.402 90.0381V102.882V90.0381Z" fill="#8E99A4"/>
<path d="M184.402 90.0381V102.882" stroke="#D3D7E6" stroke-width="4.64149" stroke-linecap="round" stroke-linejoin="round"/>
</g>
</g>
<g opacity="0.26">
<g opacity="0.26">
<path d="M141.874 111.445V115.727V111.445Z" fill="#8E99A4"/>
<path d="M141.874 111.445V115.727" stroke="#D3D7E6" stroke-width="4.64149" stroke-linecap="round" stroke-linejoin="round"/>
</g>
<g opacity="0.26">
<path d="M141.874 98.601V107.164V98.601Z" fill="#8E99A4"/>
<path d="M141.874 98.601V107.164" stroke="#D3D7E6" stroke-width="4.64149" stroke-linecap="round" stroke-linejoin="round"/>
</g>
</g>
<g style="mix-blend-mode:multiply" opacity="0.76">
<path d="M217.717 205.637C217.972 195.094 226.93 145.697 194.066 137.182C193.891 137.096 193.795 137.064 193.795 137.064H175.896C201.913 137.064 218.424 167.109 209.919 205.642" fill="#F9F9FC"/>
</g>
<path d="M187.751 165.541C190.147 167.168 191.18 170.198 190.283 172.964C189.385 175.73 186.774 177.561 183.886 177.449C180.998 177.338 178.533 175.312 177.848 172.485C177.163 169.659 178.423 166.717 180.936 165.279" stroke="#C5D0D9" stroke-width="4.64149" stroke-linecap="round" stroke-linejoin="round"/>
<path d="M184.136 172.012V120.34" stroke="#C5D0D9" stroke-width="4.64149" stroke-linecap="round" stroke-linejoin="round"/>
<path d="M209.583 120.34H184.136V131.873H209.583V120.34Z" fill="#E1E7ED" stroke="#CFD4DC" stroke-width="4.64149" stroke-linecap="round" stroke-linejoin="round"/>
<path d="M86.9276 124.461C86.9276 136.379 65.4936 179.948 65.4936 179.948C65.4936 179.948 44.0596 136.379 44.0596 124.461C44.0596 112.543 53.6559 102.882 65.4936 102.882C77.3312 102.882 86.9276 112.543 86.9276 124.461Z" fill="#FDD760" stroke="#FFC729" stroke-width="8.1226"/>
<g style="mix-blend-mode:screen" opacity="0.28">
<path d="M70.9002 104.809C69.635 104.563 67.0781 104.006 65.7384 104.006C60.3144 103.981 55.1054 106.14 51.2719 110.003C47.4385 113.866 45.2991 119.113 45.3304 124.573C45.3304 136.042 65.4939 177.481 65.4939 177.481C65.4939 177.481 67.1631 174.077 69.4702 169.116C63.5164 156.304 53.1502 132.836 53.1502 124.573C53.1449 114.453 61.4378 106.629 70.9002 104.809Z" fill="#FCD66D"/>
</g>
<path d="M52.5654 122.149L58.9446 128.571" stroke="#FFC729" stroke-width="4.64149" stroke-linecap="round" stroke-linejoin="round"/>
<path d="M58.9446 122.149L52.5654 128.571" stroke="#FFC729" stroke-width="4.64149" stroke-linecap="round" stroke-linejoin="round"/>
<path d="M73.8291 122.149L80.2083 128.571" stroke="#FCC332" stroke-width="4.64149" stroke-linecap="round" stroke-linejoin="round"/>
<path d="M80.2083 122.149L73.8291 128.571" stroke="#FCC332" stroke-width="4.64149" stroke-linecap="round" stroke-linejoin="round"/>
<path d="M65.3232 137.134V141.415" stroke="#FCC332" stroke-width="8.1226" stroke-linecap="round" stroke-linejoin="round"/>
<path d="M228.614 104.916C228.614 104.868 228.614 104.814 228.614 104.766C228.676 100.392 231.959 96.7468 236.277 96.2578C240.594 95.7688 244.6 98.5887 245.625 102.84C247.372 101.842 249.514 101.856 251.248 102.876C252.983 103.896 254.046 105.768 254.04 107.79C254.04 107.918 254.04 108.047 254.04 108.17C256.793 109.204 258.416 112.073 257.893 114.984C257.37 117.895 254.852 120.011 251.914 120.008H230.262C226.393 120.009 223.143 117.078 222.72 113.206C222.297 109.333 224.837 105.761 228.614 104.916Z" fill="#F4F6F8"/>
<path d="M15.9755 147.73C15.9755 147.682 15.9755 147.629 15.9755 147.581C16.037 143.207 19.32 139.561 23.6379 139.072C27.9558 138.583 31.9612 141.403 32.9866 145.654C34.7335 144.656 36.8757 144.67 38.6098 145.69C40.3438 146.71 41.4075 148.583 41.4018 150.604C41.4018 150.733 41.4018 150.861 41.4018 150.984C44.1545 152.018 45.777 154.888 45.2542 157.798C44.7314 160.709 42.2134 162.825 39.2754 162.823H17.6234C13.7539 162.824 10.5039 159.892 10.0811 156.02C9.65824 152.148 12.1982 148.576 15.9755 147.73Z" fill="#F4F6F8"/>
<path d="M63.1971 205.637C73.7664 205.637 82.3346 203.72 82.3346 201.355C82.3346 198.991 73.7664 197.074 63.1971 197.074C52.6277 197.074 44.0596 198.991 44.0596 201.355C44.0596 203.72 52.6277 205.637 63.1971 205.637Z" fill="#F9F9FC"/>
</g>
<defs>
<clipPath id="clip0">
<rect y="0.12793" width="288" height="232.744" fill="white"/>
</clipPath>
</defs>
</svg>
