<svg width="22" height="14" viewBox="0 0 22 14" fill="none" xmlns="http://www.w3.org/2000/svg">
<path d="M20 1H2C1.44772 1 1 1.44772 1 2V12C1 12.5523 1.44772 13 2 13H20C20.5523 13 21 12.5523 21 12V2C21 1.44772 20.5523 1 20 1Z" fill="#088DF9" stroke="#006DC3"/>
<path fill-rule="evenodd" clip-rule="evenodd" d="M7.47437 7.1711C7.47437 9.104 9.0892 10.6057 10.9672 10.6057C12.9327 10.6057 14.5256 8.9924 14.5256 7.0224C14.5256 5.8701 13.9776 4.85905 13.1665 4.18252L12.5747 5.2233C13.0643 5.6471 13.4004 6.3012 13.4004 7.0372C13.4004 8.3754 12.3116 9.4757 10.9672 9.4757C9.6299 9.4757 8.54113 8.3754 8.54113 7.0001C8.54113 6.8366 8.55579 6.673 8.58504 6.5168L7.47437 7.1711ZM12.0632 3.5729C11.7271 3.44653 11.4275 3.39453 11.1279 3.39453C10.9014 3.39453 10.7041 3.42429 10.5579 3.45399L9.798 4.79212C10.0757 4.6286 10.4337 4.53938 10.821 4.53938C11.0475 4.53938 11.2521 4.56908 11.464 4.6286L12.0632 3.5729Z" fill="#006DC3"/>
</svg>
