<svg width="24" height="24" viewBox="0 0 24 24" fill="none" xmlns="http://www.w3.org/2000/svg">
<path d="M8.27667 5H16.1407V17.4514H8.27667V5Z" fill="#FEEE00"/>
<path d="M6.70614 18.1536H6.74682H6.78728H6.82752H6.86755H6.90735H6.94694H6.98631H7.02546H7.06441H7.10313H7.14164H7.17995H7.21803H7.25591H7.29358H7.33104H7.3683H7.40534H7.44218H7.47881H7.51524H7.55147H7.58749H7.62331H7.65893H7.69435H7.72958H7.7646H7.79942H7.83405H7.86848H7.90272H7.93676H7.97061H8.00427H8.03774H8.07102H8.1041H8.137H8.16971H8.20223H8.23457H8.26672H8.29868H8.33046H8.36206H8.39348H8.42472H8.45577H8.48665H8.51735H8.54787H8.57822H8.60838H8.63838H8.6682H8.69784H8.72732H8.75662H8.78575H8.81471H8.8435H8.87213H8.90058H8.92888H8.957H8.98496H9.01276H9.04039H9.06786H9.09518H9.12233H9.14932H9.17615H9.20283H9.22934H9.25571H9.28191H9.30797H9.33387H9.35961H9.38521H9.41065H9.43595H9.4611H9.48609H9.51094H9.53565H9.56021H9.58462H9.60889H9.63302H9.657H9.68085H9.70455H9.72811H9.75154H9.77483H9.79798H9.82099H9.84387H9.86662H9.88923H9.91171H9.93406H9.95627H9.97836H10.0003H10.0221H10.0439H10.0654H10.0869H10.1082H10.1294H10.1505H10.1714H10.1923H10.213H10.2336H10.2541H10.2744H10.2947H10.3148H10.3348H10.3547H10.3745H10.3941H10.4137H10.4331H10.4525H10.4717H10.4908H10.5098H10.5287H10.5476H10.5662H10.5848H10.6033H10.6217H10.64H10.6582H10.6763H10.6942H10.7121H10.7299H10.7476H10.7652H10.7827H10.8001H10.8175H10.8347H10.8518H10.8689H10.8858H10.9027H10.9195H10.9362H10.9528H10.9693H10.9857H11.0021H11.0184H11.0346H11.0507H11.0667H11.0826H11.0985H11.1143H11.13H11.1457H11.1613H11.1768H11.1922H11.2075H11.2228H11.238H11.2532H11.2683H11.2833H11.2982H11.3131H11.3279H11.3426H11.3573H11.3719H11.3865H11.401H11.4154H11.4298H11.4441H11.4584H11.4726H11.4867H11.5008H11.5149H11.5289H11.5428H11.5567H11.5705H11.5843H11.5981H11.6118H11.6254H11.639H11.6526H11.6661H11.6795H11.693H11.7063H11.7197H11.733H11.7463H11.7595H11.7727H11.7858H11.7989H11.812H11.8251H11.8381H11.8511H11.864H11.8769H11.8898H11.9027H11.9155H11.9283H11.9411H11.9539H11.9666H11.9793H11.992H12.0047H12.0173H12.0299H12.0425H12.0551H12.0677H12.0802H12.0928H12.1053H12.1178H12.1303H12.1428H12.1553H12.1677H12.1802H12.1926H12.2051H12.2175H12.2299H12.2423H12.2548H12.2672H12.2796H12.292H12.3044H12.3168H12.3292H12.3416H12.354H12.3664H12.3788H12.3913H12.4037H12.4161H12.4286H12.441H12.4535H12.466H12.4784H12.4909H12.5035H12.516H12.5285H12.5411H12.5536H12.5662H12.5788H12.5915H12.6041H12.6168H12.6295H12.6422H12.6549H12.6677H12.6804H12.6932H12.7061H12.7189H12.7318H12.7448H12.7577H12.7707H12.7837H12.7967H12.8098H12.8229H12.8361H12.8493H12.8625H12.8758H12.8891H12.9024H12.9158H12.9292H12.9427H12.9562H12.9698H12.9834H12.997H13.0107H13.0244H13.0382H13.0521H13.0659H13.0799H13.0939H13.1079H13.122H13.1362H13.1504H13.1646H13.179H13.1933H13.2078H13.2223H13.2368H13.2514H13.2661H13.2809H13.2957H13.3106H13.3255H13.3405H13.3556H13.3707H13.3859H13.4012H13.4166H13.432H13.4475H13.4631H13.4787H13.4944H13.5102H13.5261H13.5421H13.5581H13.5742H13.5904H13.6067H13.623H13.6395H13.656H13.6726H13.6893H13.7061H13.7229H13.7399H13.7569H13.7741H13.7913H13.8086H13.826H13.8435H13.8611H13.8788H13.8966H13.9145H13.9325H13.9506H13.9688H13.9871H14.0054H14.0239H14.0425H14.0612H14.08H14.0989H14.1179H14.137H14.1563H14.1756H14.1951H14.2146H14.2343H14.2541H14.274H14.294H14.3141H14.3343H14.3547H14.3752H14.3958H14.4165H14.4373H14.4583H14.4794H14.5006H14.5219H14.5433H14.5649H14.5866H14.6084H14.6304H14.6525H14.6747H14.6971H14.7195H14.7421H14.7649H14.7878H14.8108H14.8339H14.8572H14.8806H14.9042H14.9279H14.9518H14.9757H14.9999H15.0241H15.0486H15.0731H15.0978H15.1227H15.1477H15.1728H15.1981H15.2236H15.2491H15.2749H15.3008H15.3268H15.3531H15.3794H15.4059H15.4326H15.4594H15.4864H15.5136H15.5409H15.5684H15.596H15.6238H15.6518H15.6799H15.7082H15.7366H15.7653H15.7941H15.823H15.8521H15.8814H15.9109H15.9406H15.9704H16.0004H16.0305H16.0609H16.0914H16.1221H16.153H16.184H16.2153H16.2467H16.2783H16.3101H16.342H16.3742H16.4065H16.4391H16.4718H16.5047H16.5377H16.571H16.6045H16.6381H16.672H16.706H16.7403H16.7747H16.8093H16.8442H16.8792H16.9144H16.9498H16.9854H17.0213H17.0573H17.0935H17.1299H17.1666H17.2034H17.2405H17.2777H17.3152H17.3528H17.3907H17.4288H17.4671H17.5056H17.5444H17.5833H17.6225H17.6618H17.7014H17.7412H17.7812H17.8215H17.8619H17.9026C17.9921 18.1536 18.0764 18.1233 18.1386 18.061C18.2008 17.9988 18.2312 17.9145 18.2312 17.8251C18.2312 17.7356 18.2008 17.6513 18.1386 17.5891C18.0764 17.5269 17.9921 17.4965 17.9026 17.4965H16.6026V5.20357C16.6026 5.1141 16.5722 5.02982 16.51 4.96759C16.4478 4.90537 16.3635 4.875 16.274 4.875H8.33472C8.24524 4.875 8.16096 4.90537 8.09874 4.96759C8.03652 5.02982 8.00614 5.11409 8.00614 5.20357V17.4965H6.70614C6.61666 17.4965 6.53238 17.5269 6.47016 17.5891C6.40793 17.6513 6.37756 17.7356 6.37756 17.8251C6.37756 17.9145 6.40794 17.9988 6.47016 18.061C6.53238 18.1233 6.61666 18.1536 6.70614 18.1536ZM8.66329 5.53215H15.9455V17.4965H8.66329V5.53215Z" fill="#404553" stroke="#404553" stroke-width="0.25"/>
<path d="M9.91489 10.2434C9.71829 10.2434 9.58722 10.3745 9.58722 10.5711V11.8817C9.58722 12.0783 9.71829 12.2094 9.91489 12.2094C10.1115 12.2094 10.2426 12.0783 10.2426 11.8817V10.5711C10.2426 10.4072 10.1115 10.2434 9.91489 10.2434Z" fill="#404553"/>
<path d="M9.69438 13.5188H5V18.2202H9.69438V13.5188Z" fill="#FEEE00" stroke="#404553" stroke-width="0.8"/>
<path d="M11.5457 14.9092H8.23981V18.22H11.5457V14.9092Z" fill="white" stroke="#404553" stroke-width="0.8"/>
</svg>
