<svg width="22" height="14" viewBox="0 0 22 14" fill="none" xmlns="http://www.w3.org/2000/svg">
<path d="M2.31757 0.849609H19.6824C20.4101 0.849609 21 1.33803 21 1.94052V11.7587C21 12.3612 20.4101 12.8496 19.6824 12.8496H2.31757C1.5899 12.8496 1 12.3612 1 11.7587V1.94052C1 1.33803 1.5899 0.849609 2.31757 0.849609Z" fill="#088DF9" stroke="#006DC3"/>
<path d="M1 5.1555V3.97998H21V5.1555H1Z" fill="#006DC3"/>
<path d="M15.4256 10.9404C14.6559 10.9404 14.032 10.3299 14.032 9.5768C14.032 8.8237 14.6559 8.2131 15.4256 8.2131C16.1952 8.2131 16.8192 8.8237 16.8192 9.5768C16.8192 10.3299 16.1952 10.9404 15.4256 10.9404Z" fill="#006DC3"/>
<path d="M17.6553 10.9404C16.8857 10.9404 16.2617 10.3299 16.2617 9.5768C16.2617 8.8237 16.8857 8.2131 17.6553 8.2131C18.425 8.2131 19.0489 8.8237 19.0489 9.5768C19.0489 10.3299 18.425 10.9404 17.6553 10.9404Z" fill="#006DC3"/>
<path fill-rule="evenodd" clip-rule="evenodd" d="M16.5405 8.7585C16.7155 8.9865 16.8192 9.2698 16.8192 9.5769C16.8192 9.8839 16.7155 10.1673 16.5405 10.3952C16.3654 10.1673 16.2617 9.8839 16.2617 9.5769C16.2617 9.2698 16.3654 8.9865 16.5405 8.7585Z" fill="#088DF9"/>
</svg>
