<svg width="17" height="17" viewBox="0 0 17 17" fill="none" xmlns="http://www.w3.org/2000/svg">
<path d="M8.13184 16.0276C12.2658 16.0276 15.6299 12.6635 15.6299 8.52955C15.6299 4.37051 12.2634 0.990479 8.13184 0.990479C4.00026 0.990479 0.633789 4.37051 0.633789 8.52955C0.633789 12.6635 3.99786 16.0276 8.13184 16.0276Z" fill="#006DC3" stroke="white"/>
<path d="M10.4769 8.77905V8.77899L10.4716 8.78331C10.3051 8.91942 10.1706 9.17539 10.2573 9.44773L10.7494 11.3753C10.76 11.4326 10.7439 11.4735 10.7203 11.5016C10.6932 11.534 10.6527 11.5532 10.6108 11.5532C10.6041 11.5532 10.5914 11.552 10.575 11.5472C10.559 11.5425 10.5436 11.5355 10.5306 11.5273L10.5307 11.5271L10.5215 11.5217L8.72259 10.4592C8.72239 10.4591 8.72218 10.459 8.72197 10.4589C8.51207 10.3341 8.25034 10.334 8.04038 10.4587C8.04006 10.4588 8.03974 10.459 8.03942 10.4592L6.25452 11.5085L6.25442 11.5084L6.24485 11.5144C6.23183 11.5227 6.21641 11.5297 6.20038 11.5344C6.18406 11.5392 6.17132 11.5404 6.16458 11.5404C6.11892 11.5404 6.07053 11.518 6.04107 11.4842C6.02771 11.4688 6.02047 11.4537 6.01723 11.4401C6.01422 11.4274 6.01288 11.4089 6.02079 11.382L6.02099 11.3821L6.02387 11.3708L6.52088 9.42391L6.52095 9.42393L6.5225 9.41726C6.57644 9.18582 6.49806 8.92927 6.30381 8.7705L6.30384 8.77046L6.29928 8.76687L4.67515 7.48701C4.64588 7.46333 4.6344 7.44036 4.62951 7.42169C4.62405 7.4008 4.62449 7.37536 4.63382 7.34867C4.65222 7.29605 4.69885 7.25245 4.77353 7.248L4.77587 7.24785L6.88483 7.10695L6.88485 7.1072L6.89745 7.10587C7.13043 7.08118 7.33143 6.93652 7.43402 6.74087L7.43978 6.72989L7.44468 6.7185L8.25066 4.84846L8.25067 4.84847L8.2519 4.84554C8.27483 4.79089 8.33253 4.75092 8.40787 4.75092C8.48322 4.75092 8.54092 4.79089 8.56385 4.84554L8.56383 4.84555L8.56509 4.84846L9.37106 6.7185L9.37093 6.71856L9.37496 6.7272C9.47236 6.93616 9.67965 7.10225 9.93982 7.10755L12.0398 7.24785L12.0409 7.24792C12.0951 7.25136 12.1438 7.28787 12.1651 7.34867C12.1752 7.37744 12.1756 7.40391 12.1704 7.42453C12.1658 7.44246 12.1553 7.4641 12.1274 7.48677L10.4769 8.77905Z" fill="#006DC3" stroke="white" stroke-width="0.652272"/>
</svg>
