<!-- Generated by IcoMoon.io -->
<svg version="1.1" xmlns="http://www.w3.org/2000/svg" width="25" height="32" viewBox="0 0 25 32">
<title>notepad</title>
<path d="M20.403 2.716h-0.801c-0.344-1.563-1.717-2.716-3.359-2.716-0.001 0-0.001 0-0.002 0h-6.681c-0 0-0.001 0-0.002 0-1.643 0-3.016 1.153-3.355 2.693l-0.004 0.023h-1.154c-2.787 0.004-5.045 2.264-5.045 5.052 0 0.002 0 0.005 0 0.007v-0 19.188c0.004 2.785 2.26 5.041 5.044 5.045h15.359c2.785-0.004 5.041-2.26 5.045-5.044v-19.188c0-0.002 0-0.004 0-0.007 0-2.788-2.258-5.048-5.044-5.052h-0zM8.861 3.395c0.025-0.372 0.326-0.665 0.698-0.679l0.001-0h6.681c0.002-0 0.004-0 0.007-0 0.399 0 0.723 0.321 0.726 0.719v2.105c-0.008 0.393-0.326 0.709-0.719 0.713h-6.695c-0.002 0-0.005 0-0.007 0-0.396 0-0.719-0.318-0.726-0.712v-0.001zM22.732 26.962c0 1.286-1.043 2.329-2.329 2.329v0h-15.358c-1.286 0-2.329-1.043-2.329-2.329v0-19.188c-0-0.004-0-0.009-0-0.014 0-1.286 1.043-2.329 2.329-2.329 0 0 0 0 0 0h1.066v0.095c0.004 1.894 1.541 3.429 3.436 3.429 0 0 0 0 0 0h6.681c0.008 0 0.018 0 0.027 0 1.89 0 3.424-1.527 3.436-3.414v-0.11h0.733c1.286 0 2.329 1.043 2.329 2.329v0zM18.332 12.038h-10.864c-0.75 0-1.358 0.608-1.358 1.358s0.608 1.358 1.358 1.358v0h10.864c0.75 0 1.358-0.608 1.358-1.358s-0.608-1.358-1.358-1.358v0zM18.332 17.809h-10.864c-0.75 0-1.358 0.608-1.358 1.358s0.608 1.358 1.358 1.358v0h10.864c0.75 0 1.358-0.608 1.358-1.358s-0.608-1.358-1.358-1.358v0zM18.332 23.588h-10.864c-0.75 0-1.358 0.608-1.358 1.358s0.608 1.358 1.358 1.358v0h10.864c0.75 0 1.358-0.608 1.358-1.358s-0.608-1.358-1.358-1.358v0z"></path>
</svg>
