<svg width="37" height="25" viewBox="0 0 37 25" fill="none" xmlns="http://www.w3.org/2000/svg">
<path d="M35.8443 9.40414C35.1084 8.0306 34.0633 6.84693 32.7915 5.94658C31.2215 4.8298 29.3545 4.20588 27.4286 4.15437C27.3401 4.15437 27.2501 4.15069 27.1606 4.15069C26.1472 4.14981 25.1397 4.30606 24.1742 4.61387C23.8509 4.71776 23.5136 4.77103 23.1741 4.77177C22.7113 4.76905 22.2537 4.67318 21.8287 4.48989C21.4037 4.30659 21.0199 4.03962 20.7003 3.70487C19.5803 2.53453 18.2347 1.60348 16.7447 0.968024C15.2546 0.332572 13.6512 0.00592088 12.0314 0.00782074C11.8656 0.00782074 11.6971 0.0109773 11.5303 0.0178198L11.3555 0.0262416C10.9624 0.0478217 10.566 0.0899302 10.1781 0.15046C7.66244 0.544589 5.33867 1.73266 3.54614 3.54118C2.34168 4.74751 1.40339 6.19286 0.791773 7.78405C-0.2811 10.6131 -0.246134 13.7429 0.889673 16.5472C1.49817 18.037 2.39668 19.391 3.53298 20.5306C5.37576 22.3857 7.77789 23.5828 10.3686 23.9371C10.7692 23.9897 11.1782 24.0281 11.5845 24.0423C11.7329 24.0476 11.884 24.0502 12.034 24.0502C14.2438 24.0519 16.4112 23.4432 18.297 22.2912C18.8465 21.9525 19.4789 21.7723 20.1245 21.7706C20.7494 21.7689 21.3618 21.946 21.8893 22.2812C23.7169 23.4508 25.8806 23.9817 28.0421 23.7911C30.2035 23.6004 32.2409 22.6988 33.8355 21.2274C35.4302 19.7559 36.4923 17.7974 36.8557 15.6582C37.2192 13.519 36.8635 11.3197 35.8443 9.40414Z" fill="#006DC3"/>
<path d="M12.272 11.784C12.792 11.784 13.252 11.92 13.652 12.192C14.06 12.456 14.376 12.832 14.6 13.32C14.832 13.8 14.948 14.352 14.948 14.976C14.948 15.6 14.836 16.148 14.612 16.62C14.388 17.092 14.072 17.456 13.664 17.712C13.264 17.968 12.8 18.096 12.272 18.096C11.832 18.096 11.44 18.004 11.096 17.82C10.752 17.628 10.488 17.364 10.304 17.028V20.592H8.816V13.656C8.816 13.016 8.784 12.444 8.72 11.94H10.124L10.244 12.984C10.404 12.608 10.664 12.316 11.024 12.108C11.384 11.892 11.8 11.784 12.272 11.784ZM11.864 16.92C12.368 16.92 12.756 16.752 13.028 16.416C13.3 16.08 13.436 15.6 13.436 14.976C13.436 14.344 13.3 13.852 13.028 13.5C12.756 13.14 12.372 12.96 11.876 12.96C11.364 12.96 10.972 13.132 10.7 13.476C10.428 13.82 10.292 14.312 10.292 14.952C10.292 15.584 10.428 16.072 10.7 16.416C10.972 16.752 11.36 16.92 11.864 16.92ZM22.5934 11.94V18H21.1174V17.028C20.9334 17.364 20.6694 17.628 20.3254 17.82C19.9814 18.004 19.5894 18.096 19.1494 18.096C18.6214 18.096 18.1534 17.968 17.7454 17.712C17.3374 17.456 17.0214 17.092 16.7974 16.62C16.5734 16.148 16.4614 15.6 16.4614 14.976C16.4614 14.352 16.5734 13.8 16.7974 13.32C17.0294 12.832 17.3494 12.456 17.7574 12.192C18.1654 11.92 18.6294 11.784 19.1494 11.784C19.5894 11.784 19.9814 11.88 20.3254 12.072C20.6694 12.256 20.9334 12.516 21.1174 12.852V11.94H22.5934ZM19.5574 16.92C20.0534 16.92 20.4374 16.748 20.7094 16.404C20.9814 16.06 21.1174 15.576 21.1174 14.952C21.1174 14.312 20.9814 13.82 20.7094 13.476C20.4374 13.132 20.0494 12.96 19.5454 12.96C19.0494 12.96 18.6614 13.14 18.3814 13.5C18.1094 13.852 17.9734 14.344 17.9734 14.976C17.9734 15.6 18.1094 16.08 18.3814 16.416C18.6614 16.752 19.0534 16.92 19.5574 16.92ZM30.5031 11.94L27.6831 18.408C27.3631 19.16 26.9551 19.708 26.4591 20.052C25.9631 20.396 25.3511 20.624 24.6231 20.736L24.2871 19.584C24.8551 19.456 25.2791 19.292 25.5591 19.092C25.8471 18.9 26.0791 18.612 26.2551 18.228L26.4471 17.784L23.9271 11.94H25.4991L27.2391 16.296L29.0151 11.94H30.5031Z" fill="white"/>
<path d="M10.32 7.41C10.6067 7.41 10.82 7.49667 10.96 7.67C11.1 7.84 11.17 8.1 11.17 8.45V10H10.545V8.47C10.545 8.27 10.5117 8.12667 10.445 8.04C10.3817 7.95 10.275 7.905 10.125 7.905C9.95167 7.905 9.815 7.96667 9.715 8.09C9.61833 8.21 9.57 8.37667 9.57 8.59V10H8.945V8.47C8.945 8.27333 8.91 8.13 8.84 8.04C8.77333 7.95 8.66667 7.905 8.52 7.905C8.34667 7.905 8.21 7.96667 8.11 8.09C8.01 8.21 7.96 8.37667 7.96 8.59V10H7.34V8.19C7.34 7.92333 7.32667 7.685 7.3 7.475H7.885L7.93 7.875C8.00333 7.725 8.10833 7.61 8.245 7.53C8.385 7.45 8.545 7.41 8.725 7.41C9.11167 7.41 9.36333 7.57 9.48 7.89C9.56 7.74 9.67333 7.62333 9.82 7.54C9.97 7.45333 10.1367 7.41 10.32 7.41ZM14.4771 7.475V10H13.8621V9.595C13.7854 9.735 13.6754 9.845 13.5321 9.925C13.3887 10.0017 13.2254 10.04 13.0421 10.04C12.8221 10.04 12.6271 9.98667 12.4571 9.88C12.2871 9.77333 12.1554 9.62167 12.0621 9.425C11.9687 9.22833 11.9221 9 11.9221 8.74C11.9221 8.48 11.9687 8.25 12.0621 8.05C12.1587 7.84667 12.2921 7.69 12.4621 7.58C12.6321 7.46667 12.8254 7.41 13.0421 7.41C13.2254 7.41 13.3887 7.45 13.5321 7.53C13.6754 7.60667 13.7854 7.715 13.8621 7.855V7.475H14.4771ZM13.2121 9.55C13.4187 9.55 13.5787 9.47833 13.6921 9.335C13.8054 9.19167 13.8621 8.99 13.8621 8.73C13.8621 8.46333 13.8054 8.25833 13.6921 8.115C13.5787 7.97167 13.4171 7.9 13.2071 7.9C13.0004 7.9 12.8387 7.975 12.7221 8.125C12.6087 8.27167 12.5521 8.47667 12.5521 8.74C12.5521 9 12.6087 9.2 12.7221 9.34C12.8387 9.48 13.0021 9.55 13.2121 9.55ZM17.8428 7.475C17.8128 7.675 17.7978 7.91333 17.7978 8.19V11.08H17.1728V9.615C17.0961 9.75167 16.9861 9.85667 16.8428 9.93C16.7028 10.0033 16.5428 10.04 16.3628 10.04C16.1428 10.04 15.9478 9.98667 15.7778 9.88C15.6078 9.77333 15.4761 9.62167 15.3828 9.425C15.2894 9.22833 15.2428 9 15.2428 8.74C15.2428 8.48 15.2894 8.25 15.3828 8.05C15.4794 7.84667 15.6128 7.69 15.7828 7.58C15.9528 7.46667 16.1461 7.41 16.3628 7.41C16.5561 7.41 16.7278 7.45333 16.8778 7.54C17.0278 7.62667 17.1378 7.74833 17.2078 7.905L17.2528 7.475H17.8428ZM16.5328 9.55C16.7394 9.55 16.8994 9.47833 17.0128 9.335C17.1261 9.19167 17.1828 8.99 17.1828 8.73C17.1828 8.46333 17.1261 8.25833 17.0128 8.115C16.8994 7.97167 16.7378 7.9 16.5278 7.9C16.3211 7.9 16.1594 7.975 16.0428 8.125C15.9294 8.27167 15.8728 8.47667 15.8728 8.74C15.8728 9 15.9294 9.2 16.0428 9.34C16.1594 9.48 16.3228 9.55 16.5328 9.55ZM21.1185 7.475V10H20.5035V9.595C20.4268 9.735 20.3168 9.845 20.1735 9.925C20.0301 10.0017 19.8668 10.04 19.6835 10.04C19.4635 10.04 19.2685 9.98667 19.0985 9.88C18.9285 9.77333 18.7968 9.62167 18.7035 9.425C18.6101 9.22833 18.5635 9 18.5635 8.74C18.5635 8.48 18.6101 8.25 18.7035 8.05C18.8001 7.84667 18.9335 7.69 19.1035 7.58C19.2735 7.46667 19.4668 7.41 19.6835 7.41C19.8668 7.41 20.0301 7.45 20.1735 7.53C20.3168 7.60667 20.4268 7.715 20.5035 7.855V7.475H21.1185ZM19.8535 9.55C20.0601 9.55 20.2201 9.47833 20.3335 9.335C20.4468 9.19167 20.5035 8.99 20.5035 8.73C20.5035 8.46333 20.4468 8.25833 20.3335 8.115C20.2201 7.97167 20.0585 7.9 19.8485 7.9C19.6418 7.9 19.4801 7.975 19.3635 8.125C19.2501 8.27167 19.1935 8.47667 19.1935 8.74C19.1935 9 19.2501 9.2 19.3635 9.34C19.4801 9.48 19.6435 9.55 19.8535 9.55ZM24.4392 7.475V10H23.8242V9.595C23.7475 9.735 23.6375 9.845 23.4942 9.925C23.3508 10.0017 23.1875 10.04 23.0042 10.04C22.7842 10.04 22.5892 9.98667 22.4192 9.88C22.2492 9.77333 22.1175 9.62167 22.0242 9.425C21.9308 9.22833 21.8842 9 21.8842 8.74C21.8842 8.48 21.9308 8.25 22.0242 8.05C22.1208 7.84667 22.2542 7.69 22.4242 7.58C22.5942 7.46667 22.7875 7.41 23.0042 7.41C23.1875 7.41 23.3508 7.45 23.4942 7.53C23.6375 7.60667 23.7475 7.715 23.8242 7.855V7.475H24.4392ZM23.1742 9.55C23.3808 9.55 23.5408 9.47833 23.6542 9.335C23.7675 9.19167 23.8242 8.99 23.8242 8.73C23.8242 8.46333 23.7675 8.25833 23.6542 8.115C23.5408 7.97167 23.3792 7.9 23.1692 7.9C22.9625 7.9 22.8008 7.975 22.6842 8.125C22.5708 8.27167 22.5142 8.47667 22.5142 8.74C22.5142 9 22.5708 9.2 22.6842 9.34C22.8008 9.48 22.9642 9.55 23.1742 9.55ZM28.3249 7.41C28.6115 7.41 28.8249 7.49667 28.9649 7.67C29.1049 7.84 29.1749 8.1 29.1749 8.45V10H28.5499V8.47C28.5499 8.27 28.5165 8.12667 28.4499 8.04C28.3865 7.95 28.2799 7.905 28.1299 7.905C27.9565 7.905 27.8199 7.96667 27.7199 8.09C27.6232 8.21 27.5749 8.37667 27.5749 8.59V10H26.9499V8.47C26.9499 8.27333 26.9149 8.13 26.8449 8.04C26.7782 7.95 26.6715 7.905 26.5249 7.905C26.3515 7.905 26.2149 7.96667 26.1149 8.09C26.0149 8.21 25.9649 8.37667 25.9649 8.59V10H25.3449V8.19C25.3449 7.92333 25.3315 7.685 25.3049 7.475H25.8899L25.9349 7.875C26.0082 7.725 26.1132 7.61 26.2499 7.53C26.3899 7.45 26.5499 7.41 26.7299 7.41C27.1165 7.41 27.3682 7.57 27.4849 7.89C27.5649 7.74 27.6782 7.62333 27.8249 7.54C27.9749 7.45333 28.1415 7.41 28.3249 7.41ZM30.067 7.475H30.687V10H30.067V7.475ZM30.722 6.33V6.945H30.027V6.33H30.722Z" fill="white"/>
</svg>
