<svg width="350" height="205" viewBox="0 0 350 205" fill="none" xmlns="http://www.w3.org/2000/svg">
<path d="M175 128C175 128 173.92 128.396 172 129" stroke="#E8EAF1" stroke-width="2.88" stroke-linecap="round"/>
<path d="M166 129.129C149.77 132.852 113.462 138.52 94.7515 120.428C73.0027 99.39 85.4636 54.2398 99.8464 46" stroke="#E8EAF1" stroke-width="2.88" stroke-linecap="round" stroke-dasharray="8.47 8.47"/>
<path d="M102 45.5478C102.973 44.9825 103.998 44.8527 105 45.1678" stroke="#E8EAF1" stroke-width="2.88" stroke-linecap="round"/>
<path d="M275 79C275 79 276.143 79.6897 278 81" stroke="#E8EAF1" stroke-width="2.88" stroke-linecap="round"/>
<path d="M282.204 84C292.032 90.6162 306.928 104.326 293.9 120.727C279.36 139.059 244.797 138.607 231 137.615" stroke="#E8EAF1" stroke-width="2.88" stroke-linecap="round" stroke-dasharray="8.46 8.46"/>
<path d="M228 137.67C226.105 137.31 225 137 225 137" stroke="#E8EAF1" stroke-width="2.88" stroke-linecap="round"/>
<path d="M27 179H312C312 161.289 293.615 152.428 275.225 161.289C275.225 134.717 256.841 125.861 238.451 125.861L164.901 117L137.319 125.84H118.934C109.758 117 91.3517 125.84 91.3517 143.551C76.4054 135.606 63.4509 148.086 63.7693 161.263C45.3847 152.428 36.1923 161.283 27 179Z" fill="#F4F6F8"/>
<path d="M324 179H337" stroke="#C6CBDB" stroke-width="2.88" stroke-linecap="round" stroke-linejoin="round"/>
<path d="M342 179H348" stroke="#C6CBDB" stroke-width="2.88" stroke-linecap="round" stroke-linejoin="round"/>
<path d="M23 179H319" stroke="#C6CBDB" stroke-width="2.88" stroke-linecap="round" stroke-linejoin="round"/>
<path d="M219.742 39.4491C221.443 34.2652 227.024 31.4412 232.208 33.1416L279.948 48.801C285.132 50.5014 287.956 56.0822 286.256 61.2661L280.258 79.5508C278.558 84.7348 272.977 87.5588 267.793 85.8584L220.052 70.199C214.869 68.4986 212.045 62.9178 213.745 57.7338L219.742 39.4491Z" fill="#E6ECF4"/>
<g style="mix-blend-mode:multiply" opacity="0.27">
<g style="mix-blend-mode:multiply" opacity="0.27">
<path d="M224.29 41.9825C224.58 41.0983 225.532 40.6167 226.416 40.9067L283.077 59.4918C283.961 59.7818 284.442 60.7336 284.152 61.6178L282.709 66.0175C282.419 66.9017 281.467 67.3833 280.583 67.0933L223.923 48.5082C223.039 48.2182 222.557 47.2664 222.847 46.3822L224.29 41.9825Z" fill="#DAE2EC"/>
</g>
</g>
<g style="mix-blend-mode:multiply" opacity="0.27">
<g style="mix-blend-mode:multiply" opacity="0.27">
<path d="M258.849 72.9734C259.317 71.5489 260.85 70.773 262.275 71.2402L274.22 75.1583C275.644 75.6255 276.42 77.159 275.953 78.5835L275.151 81.0266C274.684 82.4511 273.151 83.227 271.726 82.7598L259.781 78.8417C258.357 78.3745 257.581 76.841 258.048 75.4165L258.849 72.9734Z" fill="#DAE2EC"/>
</g>
</g>
<path d="M97.4526 35.8044C95.3758 29.6477 98.6833 22.9732 104.84 20.8965L162.139 1.56886C168.295 -0.507881 174.97 2.79958 177.046 8.95629L184.548 31.1956C186.625 37.3522 183.317 44.0268 177.161 46.1035L119.862 65.4311C113.706 67.5079 107.031 64.2004 104.954 58.0437L97.4526 35.8044Z" fill="#F4F6F8"/>
<g style="mix-blend-mode:multiply" opacity="0.56">
<g style="mix-blend-mode:multiply" opacity="0.56">
<path d="M145.96 34.4563C146.534 27.5766 141.868 21.5714 135.539 21.0433C129.21 20.5151 123.614 25.664 123.039 32.5437C122.465 39.4233 127.131 45.4285 133.46 45.9567C139.789 46.4848 145.386 41.3359 145.96 34.4563Z" fill="#F4F6F8"/>
</g>
</g>
<g style="mix-blend-mode:multiply" opacity="0.56">
<g style="mix-blend-mode:multiply" opacity="0.56">
<path d="M157.96 31.4563C158.534 24.5766 153.868 18.5714 147.539 18.0433C141.21 17.5151 135.614 22.664 135.039 29.5437C134.465 36.4233 139.131 42.4285 145.46 42.9567C151.789 43.4848 157.386 38.3359 157.96 31.4563Z" fill="#F4F6F8"/>
</g>
</g>
<path d="M16 179H2" stroke="#C6CBDB" stroke-width="2.88" stroke-linecap="round" stroke-linejoin="round"/>
<path d="M329.002 130.534C332.998 136.453 334 151.31 334 151.31L330.284 153.754C324.779 157.372 315.279 152.84 309.063 143.658C302.848 134.477 302.277 124.057 307.781 120.444L311.498 118C311.498 118 325.119 124.759 329.002 130.534Z" fill="#EBF1F7"/>
<path d="M333.808 150.731C339.325 147.057 338.958 136.813 332.988 127.849C327.019 118.885 317.708 114.596 312.192 118.269C306.676 121.943 307.043 132.187 313.012 141.151C318.981 150.115 328.292 154.404 333.808 150.731Z" fill="#F4F6F8"/>
<path d="M15.3341 142.804C12.6702 146.478 12 155.711 12 155.711L14.4781 157.227C18.1501 159.473 24.4861 156.658 28.6312 150.939C32.7763 145.221 33.1368 138.762 29.4873 136.516L27.0092 135C27.0092 135 17.9305 139.228 15.3341 142.804Z" fill="#EBF1F7"/>
<path d="M24.8265 148.88C28.8059 142.904 29.4233 136.322 26.2055 134.18C22.9877 132.037 17.1531 135.144 13.1737 141.12C9.1942 147.096 8.57678 153.678 11.7947 155.82C15.0125 157.963 20.847 154.856 24.8265 148.88Z" fill="#F4F6F8"/>
<path d="M255 136.233V187.672C254.997 195.584 248.29 201.997 240.015 202H148.985C140.71 201.997 134.003 195.584 134 187.672V113C133.997 115.361 134.977 117.626 136.723 119.296C138.469 120.965 140.838 121.902 143.308 121.899H240.004C243.981 121.898 247.795 123.408 250.607 126.096C253.42 128.784 255 132.43 255 136.233Z" fill="#E8EAF1"/>
<path d="M237 115.034V123H143.364C138.192 123 134 118.971 134 114C134 109.029 138.192 105 143.364 105H226.566C229.334 105 231.989 106.057 233.946 107.939C235.903 109.821 237.001 112.373 237 115.034Z" fill="#E8EAF1"/>
<path d="M236.394 122.818V114.933C236.395 112.298 235.302 109.771 233.356 107.908C231.409 106.045 228.768 104.999 226.016 105H143.309C138.168 105 134 108.989 134 113.909C134 118.829 138.168 122.818 143.309 122.818H240.013C248.289 122.821 254.997 129.241 255 137.162V188.657C254.997 196.577 248.289 202.997 240.013 203H148.987C140.711 202.997 134.003 196.577 134 188.657V113.904" stroke="#C5D0D9" stroke-width="2.88" stroke-linecap="round" stroke-linejoin="round"/>
<g style="mix-blend-mode:screen" opacity="0.28">
<g style="mix-blend-mode:screen" opacity="0.28">
<path d="M151.787 121.974V205H149.475C141.107 205 134.344 198.077 134.344 189.524V112.361C134.344 117.674 138.549 121.974 143.742 121.974H151.787Z" fill="#FCF5E3"/>
</g>
</g>
<path d="M237 114.034V122H143.364C138.192 122 134 117.971 134 113C134 108.029 138.192 104 143.364 104H226.566C229.334 104 231.989 105.057 233.946 106.939C235.903 108.821 237.001 111.373 237 114.034Z" fill="#D3D7E6"/>
<path d="M236.394 121.817V113.932C236.395 111.298 235.302 108.771 233.356 106.908C231.409 105.045 228.768 103.999 226.016 104H143.309C138.168 104 134 107.989 134 112.909C134 117.829 138.168 121.817 143.309 121.817H240.013C248.289 121.82 254.997 128.24 255 136.16V187.657C254.997 195.577 248.289 201.997 240.013 202H148.987C140.711 201.997 134.003 195.577 134 187.657V112.909" stroke="#C6CBDB" stroke-width="2.88" stroke-linecap="round" stroke-linejoin="round"/>
<g style="mix-blend-mode:multiply" opacity="0.41">
<g style="mix-blend-mode:multiply" opacity="0.41">
<path d="M223.652 154H257V175H223.652C218.321 175 214 170.879 214 165.795V163.221C213.996 160.777 215.011 158.431 216.821 156.702C218.632 154.972 221.089 154 223.652 154Z" fill="#E8EAF1"/>
</g>
</g>
<path d="M223.882 151H259V172H223.882C218.424 172 214 167.784 214 162.584V160.411C214.003 155.213 218.426 151 223.882 151Z" fill="#E8EAF1" stroke="#C6CBDB" stroke-width="2.88" stroke-linecap="round" stroke-linejoin="round"/>
<path d="M226 165C228.209 165 230 163.209 230 161C230 158.791 228.209 157 226 157C223.791 157 222 158.791 222 161C222 163.209 223.791 165 226 165Z" fill="#E8EAF1" stroke="#C6CBDB" stroke-width="2.88" stroke-linecap="round" stroke-linejoin="round"/>
<path d="M107.652 91H51.9903C45.1659 91 39 96.2573 39 102.746V126.911C39 133.4 45.1659 138.657 51.9903 138.657H91.5216L106.504 150V138.657H107.646C114.469 138.657 120 133.398 120 126.911V102.746C120 96.261 114.472 91.0029 107.652 91Z" fill="#088DF9" stroke="#006DC3" stroke-width="5.04"/>
<g style="mix-blend-mode:screen" opacity="0.28">
<g style="mix-blend-mode:screen" opacity="0.28">
<path d="M52.0579 127.284V103.181C52.0579 96.7084 58.0698 91.4645 64.7236 91.4645H51.989C45.3351 91.4645 39.3232 96.7084 39.3232 103.181V127.284C39.3232 133.756 45.3351 139 51.989 139H64.7236C58.0751 139 52.0579 133.756 52.0579 127.284Z" fill="#FCD66D"/>
</g>
</g>
<path d="M70 125C75.9982 121 81.9982 121 88 125H70Z" fill="#FDD760"/>
<path d="M70 125C75.9982 121 81.9982 121 88 125" stroke="#006DC3" stroke-width="5.04" stroke-linecap="round"/>
<path d="M71 107V110" stroke="#006DC3" stroke-width="5.04" stroke-linecap="round"/>
<path d="M87 107V110" stroke="#006DC3" stroke-width="5.04" stroke-linecap="round"/>
<path fill-rule="evenodd" clip-rule="evenodd" d="M107.652 91H51.9903C45.1659 91 39 96.2573 39 102.746V126.911C39 133.4 45.1659 138.657 51.9903 138.657H91.5216L106.504 150V138.657H107.646C114.469 138.657 120 133.398 120 126.911V102.746C120 96.261 114.472 91.0029 107.652 91Z" stroke="#006DC3" stroke-width="5.04"/>
</svg>
