<svg width="15" height="14" viewBox="0 0 15 14" fill="none" xmlns="http://www.w3.org/2000/svg">
<path d="M0.0126267 13.1911C0.396065 10.29 2.31917 7.92703 4.90468 6.96002L4.95716 6.94285C4.13411 6.21376 3.61685 5.14571 3.61685 3.9546C3.61685 1.77051 5.35622 1.10585e-07 7.5018 2.98158e-07C9.64739 4.85731e-07 11.3868 1.77055 11.3868 3.9546C11.3868 5.14566 10.8695 6.21375 10.0511 6.93875L10.0464 6.94279C12.6859 7.92594 14.6104 10.2892 14.9902 13.1514L14.9945 13.1911C14.998 13.2181 15 13.2493 15 13.281C15 13.6781 14.6838 14 14.2937 14C14.2917 14 14.2898 14 14.2878 14L0.711929 14C0.710303 14 0.70834 14 0.706377 14C0.316245 14 2.9592e-05 13.6781 2.96268e-05 13.281C2.96295e-05 13.2493 0.00206573 13.2181 0.00593288 13.1875L0.00555236 13.1911L0.0126267 13.1911ZM9.95464 4.00201C9.95464 2.61215 8.8478 1.48541 7.48237 1.48541C6.11693 1.48541 5.01009 2.61209 5.01009 4.00201C5.01009 5.39187 6.11692 6.5186 7.48236 6.5186C8.84775 6.5186 9.95464 5.39193 9.95464 4.00201ZM13.4299 12.562C12.7062 9.87204 10.3262 7.92789 7.50006 7.92789C4.67395 7.92789 2.29393 9.87204 1.58027 12.5181L1.5702 12.5619L13.4299 12.562Z" fill="#404553"/>
</svg>
