<svg width="25" height="15" viewBox="0 0 25 15" fill="none" xmlns="http://www.w3.org/2000/svg">
<path d="M1.64696 0H23.353C24.2626 0 25 0.610521 25 1.36364V13.6364C25 14.3895 24.2626 15 23.353 15H1.64696C0.737369 15 0 14.3895 0 13.6364V1.36364C0 0.610521 0.737369 0 1.64696 0Z" fill="#38AE04"/>
<path d="M0 6.55136V3.91302H25V6.55136H0Z" fill="white"/>
<path d="M18.0321 12.6136C17.07 12.6136 16.2901 11.8505 16.2901 10.9091C16.2901 9.96768 17.07 9.20453 18.0321 9.20453C18.9942 9.20453 19.7741 9.96768 19.7741 10.9091C19.7741 11.8505 18.9942 12.6136 18.0321 12.6136Z" fill="white"/>
<path d="M20.8193 12.6136C19.8572 12.6136 19.0773 11.8505 19.0773 10.9091C19.0773 9.96768 19.8572 9.20453 20.8193 9.20453C21.7813 9.20453 22.5613 9.96768 22.5613 10.9091C22.5613 11.8505 21.7813 12.6136 20.8193 12.6136Z" fill="white"/>
</svg>
