<svg width="20" height="20" viewBox="0 0 20 20" fill="none" xmlns="http://www.w3.org/2000/svg">
<path fill-rule="evenodd" clip-rule="evenodd" d="M14.9972 5.63121C14.9963 5.5531 14.9653 5.47658 14.9065 5.41914L12.5167 3.08915L12.5165 3.08894C12.46 3.03397 12.3821 3 12.296 3H5.65724C5.29482 3 5 3.28742 5 3.64078V15.3592C5 15.7125 5.29479 16 5.65721 16H14.3407C14.703 16 14.9979 15.7126 14.9979 15.3592V5.63435C14.9979 5.63372 14.9977 5.63315 14.9975 5.63257L14.9972 5.63121ZM12.6082 4.03926L13.932 5.32997H12.641C12.6229 5.32997 12.6082 5.31557 12.6082 5.29793V4.03926ZM14.3407 15.3912C14.3588 15.3912 14.3735 15.3769 14.3735 15.3592H14.3735V5.93876H12.6411C12.2786 5.93876 11.9838 5.65126 11.9838 5.29793V3.60877H5.65724C5.63914 3.60877 5.6244 3.62314 5.6244 3.64078V15.3592C5.6244 15.3769 5.63914 15.3912 5.65724 15.3912H14.3407Z" fill="#7E859B"/>
<path d="M14.9065 5.41914L15.081 5.24018L15.081 5.24014L14.9065 5.41914ZM14.9972 5.63121L14.7472 5.63404L14.7475 5.66167L14.7539 5.68857L14.9972 5.63121ZM12.5167 3.08915L12.6913 2.91015L12.6773 2.89656L12.6615 2.8853L12.5167 3.08915ZM12.5165 3.08894L12.342 3.26802L12.3559 3.28156L12.3717 3.29279L12.5165 3.08894ZM14.9979 5.63435L14.7479 5.62266V5.63435H14.9979ZM14.9975 5.63257L14.7542 5.68993L14.7562 5.69855L14.7589 5.707L14.9975 5.63257ZM13.932 5.32997V5.57997H14.5465L14.1065 5.15097L13.932 5.32997ZM12.6082 4.03926L12.7827 3.86026L12.3582 3.44635V4.03926H12.6082ZM14.3735 15.3592V15.1092H14.1235V15.3592H14.3735ZM14.3735 15.3592V15.6092H14.6235V15.3592H14.3735ZM14.3735 5.93876H14.6235V5.68876H14.3735V5.93876ZM11.9838 3.60877H12.2338V3.35877H11.9838V3.60877ZM14.7319 5.5981C14.7419 5.60783 14.7471 5.62038 14.7472 5.63404L15.2472 5.62837C15.2456 5.48583 15.1888 5.34532 15.081 5.24018L14.7319 5.5981ZM12.3422 3.26815L14.7319 5.59814L15.081 5.24014L12.6913 2.91015L12.3422 3.26815ZM12.3717 3.29279L12.372 3.29299L12.6615 2.8853L12.6612 2.8851L12.3717 3.29279ZM12.296 3.25C12.3153 3.25 12.3311 3.25738 12.342 3.26802L12.6909 2.90986C12.589 2.81057 12.4489 2.75 12.296 2.75V3.25ZM5.65724 3.25H12.296V2.75H5.65724V3.25ZM5.25 3.64078C5.25 3.43143 5.42687 3.25 5.65724 3.25V2.75C5.16276 2.75 4.75 3.14341 4.75 3.64078H5.25ZM5.25 15.3592V3.64078H4.75V15.3592H5.25ZM5.65721 15.75C5.42686 15.75 5.25 15.5685 5.25 15.3592H4.75C4.75 15.8565 5.16272 16.25 5.65721 16.25V15.75ZM14.3407 15.75H5.65721V16.25H14.3407V15.75ZM14.7479 15.3592C14.7479 15.5685 14.571 15.75 14.3407 15.75V16.25C14.8351 16.25 15.2479 15.8566 15.2479 15.3592H14.7479ZM14.7479 5.63435V15.3592H15.2479V5.63435H14.7479ZM14.7589 5.707C14.7595 5.70909 14.7561 5.69869 14.7534 5.68617C14.7503 5.67188 14.7469 5.64978 14.7481 5.62267L15.2476 5.64603C15.2489 5.6183 15.2454 5.59559 15.2422 5.58071C15.2406 5.5734 15.239 5.56754 15.2379 5.56394C15.2374 5.56211 15.237 5.56062 15.2367 5.55969C15.2365 5.55922 15.2364 5.55883 15.2363 5.55858C15.2363 5.55835 15.2362 5.55814 15.2362 5.55813L14.7589 5.707ZM14.7539 5.68857L14.7542 5.68993L15.2409 5.5752L15.2405 5.57384L14.7539 5.68857ZM14.1065 5.15097L12.7827 3.86026L12.4337 4.21826L13.7575 5.50897L14.1065 5.15097ZM12.641 5.57997H13.932V5.07997H12.641V5.57997ZM12.3582 5.29793C12.3582 5.45957 12.4909 5.57997 12.641 5.57997V5.07997C12.755 5.07997 12.8582 5.17157 12.8582 5.29793H12.3582ZM12.3582 4.03926V5.29793H12.8582V4.03926H12.3582ZM14.1235 15.3592C14.1235 15.2329 14.2267 15.1412 14.3407 15.1412V15.6412C14.4908 15.6412 14.6235 15.5209 14.6235 15.3592H14.1235ZM14.3735 15.1092H14.3735V15.6092H14.3735V15.1092ZM14.1235 5.93876V15.3592H14.6235V5.93876H14.1235ZM12.6411 6.18876H14.3735V5.68876H12.6411V6.18876ZM11.7338 5.29793C11.7338 5.79526 12.1466 6.18876 12.6411 6.18876V5.68876C12.4107 5.68876 12.2338 5.50727 12.2338 5.29793H11.7338ZM11.7338 3.60877V5.29793H12.2338V3.60877H11.7338ZM5.65724 3.85877H11.9838V3.35877H5.65724V3.85877ZM5.8744 3.64078C5.8744 3.76714 5.77121 3.85877 5.65724 3.85877V3.35877C5.50707 3.35877 5.3744 3.47914 5.3744 3.64078H5.8744ZM5.8744 15.3592V3.64078H5.3744V15.3592H5.8744ZM5.65724 15.1412C5.77121 15.1412 5.8744 15.2329 5.8744 15.3592H5.3744C5.3744 15.5209 5.50707 15.6412 5.65724 15.6412V15.1412ZM14.3407 15.1412H5.65724V15.6412H14.3407V15.1412Z" fill="#7E859B"/>
<path d="M12.7617 7.16431H7.23624C7.06385 7.16431 6.92406 7.30058 6.92406 7.46869C6.92406 7.63678 7.06385 7.77307 7.23624 7.77307H12.7616C12.934 7.77307 13.0738 7.63678 13.0738 7.46869C13.0738 7.30058 12.934 7.16431 12.7617 7.16431Z" fill="#7E859B" stroke="#7E859B" stroke-width="0.5"/>
<path d="M12.7617 9.00122H7.23624C7.06385 9.00122 6.92406 9.13752 6.92406 9.3056C6.92406 9.47369 7.06385 9.60999 7.23624 9.60999H12.7616C12.934 9.60999 13.0738 9.47369 13.0738 9.3056C13.0738 9.13752 12.934 9.00122 12.7617 9.00122Z" fill="#7E859B" stroke="#7E859B" stroke-width="0.5"/>
<path d="M12.7617 10.8379H7.23624C7.06385 10.8379 6.92406 10.9742 6.92406 11.1423C6.92406 11.3104 7.06385 11.4467 7.23624 11.4467H12.7616C12.934 11.4467 13.0738 11.3104 13.0738 11.1423C13.0738 10.9742 12.934 10.8379 12.7617 10.8379Z" fill="#7E859B" stroke="#7E859B" stroke-width="0.5"/>
<path d="M9.99895 12.6746H7.23624C7.06385 12.6746 6.92406 12.8109 6.92406 12.9789C6.92406 13.1471 7.06385 13.2833 7.23624 13.2833H9.99895C10.1713 13.2833 10.3111 13.1471 10.3111 12.9789C10.3111 12.8108 10.1713 12.6746 9.99895 12.6746Z" fill="#7E859B" stroke="#7E859B" stroke-width="0.5"/>
</svg>
