<svg width="25" height="24" viewBox="0 0 25 24" fill="none" xmlns="http://www.w3.org/2000/svg">
<path d="M12.2529 20.6787C17.046 20.6787 20.9315 16.7931 20.9315 12C20.9315 7.2069 17.046 3.32133 12.2529 3.32133C7.45979 3.32133 3.57422 7.2069 3.57422 12C3.57422 16.7931 7.45979 20.6787 12.2529 20.6787Z" stroke="#7F8599" stroke-width="1.5" stroke-linecap="round" stroke-linejoin="round"/>
<path d="M4.54453 15.2453H20.0657" stroke="#7F8599" stroke-width="1.5" stroke-linecap="round" stroke-linejoin="round"/>
<path d="M4.54453 9.34047H20.0657" stroke="#7F8599" stroke-width="1.5" stroke-linecap="round" stroke-linejoin="round"/>
<path d="M12.2529 3.32133C14.4236 5.69786 15.6573 8.78198 15.7243 12C15.6573 15.218 14.4236 18.3021 12.2529 20.6787C10.0821 18.3021 8.84844 15.218 8.7814 12C8.84844 8.78198 10.0821 5.69786 12.2529 3.32133V3.32133Z" stroke="#7F8599" stroke-width="1.5" stroke-linecap="round" stroke-linejoin="round"/>
</svg>
