<svg width="24" height="24" viewBox="0 0 24 24" fill="none" xmlns="http://www.w3.org/2000/svg">
<path d="M7.67949 4.44252L8.10503 4.44252C8.28752 3.6122 9.01693 3 9.88932 3C9.8896 3 9.8899 3 9.89018 3L13.4387 3C13.439 3 13.4392 3 13.4395 3C14.3119 3 15.0413 3.61218 15.2216 4.43042L15.2238 4.44252L15.8369 4.44252C17.3171 4.44458 18.5163 5.64503 18.5163 7.12559C18.5163 7.12685 18.5163 7.12813 18.5163 7.12939L18.5163 7.12919L18.5163 17.3205C18.5143 18.7995 17.3159 19.9979 15.8371 20L7.67947 20C6.20047 19.9979 5.00206 18.7995 5 17.3207L5 7.12919C5 7.12813 5 7.12685 5 7.12559C5 5.64504 6.19919 4.44457 7.67927 4.44252L7.67947 4.44252L7.67949 4.44252ZM13.8102 4.80314C13.7969 4.60578 13.6372 4.44974 13.4394 4.44253L13.4387 4.44252L9.89013 4.44252C9.88905 4.4425 9.88777 4.4425 9.88651 4.4425C9.67467 4.4425 9.50268 4.61323 9.50066 4.82459L9.50066 5.94273C9.50468 6.15148 9.67386 6.31941 9.88273 6.32138L13.4387 6.32138C13.4398 6.3214 13.4411 6.3214 13.4424 6.3214C13.653 6.3214 13.8241 6.15271 13.8282 5.94309L13.8282 5.94271L13.8102 4.80314ZM6.44252 17.3205C6.44252 18.0037 6.99633 18.5575 7.67947 18.5575L15.8369 18.5575C16.52 18.5575 17.0738 18.0037 17.0738 17.3205L17.0738 7.12919C17.0738 7.12705 17.0738 7.12451 17.0738 7.12197C17.0738 6.43881 16.52 5.88502 15.8369 5.88502L15.8369 5.88502L15.2707 5.88502L15.2707 5.93551C15.2686 6.94175 14.4524 7.75668 13.4459 7.75668L9.89733 7.75668C9.89304 7.75671 9.88796 7.75673 9.88288 7.75673C8.87886 7.75673 8.06423 6.94586 8.05814 5.94329L8.05814 5.88502L7.66867 5.88502C6.98551 5.88502 6.43172 6.43883 6.43172 7.12197L6.44252 17.3205ZM8.77939 9.39392L14.5494 9.39393C14.9478 9.39393 15.2707 9.71684 15.2707 10.1152C15.2707 10.5135 14.9478 10.8364 14.5494 10.8364L8.77939 10.8364C8.38105 10.8364 8.05814 10.5135 8.05814 10.1152C8.05814 9.71684 8.38105 9.39392 8.77939 9.39392ZM8.77939 12.4593L14.5494 12.4593C14.9478 12.4593 15.2707 12.7822 15.2707 13.1805C15.2707 13.5789 14.9478 13.9018 14.5494 13.9018L8.77939 13.9018C8.38105 13.9018 8.05814 13.5789 8.05814 13.1805C8.05814 12.7822 8.38105 12.4593 8.77939 12.4593ZM8.77939 15.5282L14.5494 15.5282C14.9478 15.5282 15.2707 15.8511 15.2707 16.2495C15.2707 16.6478 14.9478 16.9707 14.5494 16.9707L8.77939 16.9707C8.38105 16.9707 8.05814 16.6478 8.05814 16.2495C8.05814 15.8511 8.38105 15.5282 8.77939 15.5282Z" fill="#404553"/>
</svg>
