<svg width="19" height="19" viewBox="0 0 19 19" fill="none" xmlns="http://www.w3.org/2000/svg">
<rect width="19" height="19" fill="white"/>
<path fill-rule="evenodd" clip-rule="evenodd" d="M0.714478 5.36108H3.43662V6.67416H0.714478V5.36108Z" fill="#404553"/>
<path fill-rule="evenodd" clip-rule="evenodd" d="M0.685059 7.2312H3.37942V8.54427H0.685059V7.2312Z" fill="#404553"/>
<path d="M0.418213 11.2615C0.418213 10.2946 1.20205 9.51074 2.16897 9.51074H12.6735C13.6405 9.51074 14.4243 10.2946 14.4243 11.2615V16.5138C14.4243 17.4807 13.6405 18.2645 12.6735 18.2645H2.16897C1.20205 18.2645 0.418213 17.4807 0.418213 16.5138V11.2615Z" fill="white"/>
<path fill-rule="evenodd" clip-rule="evenodd" d="M12.6735 10.8238H2.16897C1.92724 10.8238 1.73129 11.0198 1.73129 11.2615V16.5138C1.73129 16.7556 1.92724 16.9514 2.16897 16.9514H12.6735C12.9153 16.9514 13.1112 16.7554 13.1112 16.5138V11.2615C13.1112 11.0198 12.9153 10.8238 12.6735 10.8238ZM2.16897 9.51074C1.20205 9.51074 0.418213 10.2946 0.418213 11.2615V16.5138C0.418213 17.4807 1.20205 18.2645 2.16897 18.2645H12.6735C13.6405 18.2645 14.4243 17.4807 14.4243 16.5138V11.2615C14.4243 10.2946 13.6405 9.51074 12.6735 9.51074H2.16897Z" fill="#404553"/>
<path fill-rule="evenodd" clip-rule="evenodd" d="M7.42104 14.7629C7.90451 14.7629 8.29643 14.3709 8.29643 13.8875C8.29643 13.404 7.90451 13.0121 7.42104 13.0121C6.93759 13.0121 6.54566 13.404 6.54566 13.8875C6.54566 14.3709 6.93759 14.7629 7.42104 14.7629ZM7.42104 15.6382C8.38796 15.6382 9.17181 14.8544 9.17181 13.8875C9.17181 12.9206 8.38796 12.1367 7.42104 12.1367C6.45412 12.1367 5.67029 12.9206 5.67029 13.8875C5.67029 14.8544 6.45412 15.6382 7.42104 15.6382Z" fill="#404553"/>
<path fill-rule="evenodd" clip-rule="evenodd" d="M4.79494 14.325H3.04419V13.4497H4.79494V14.325Z" fill="#404553"/>
<path fill-rule="evenodd" clip-rule="evenodd" d="M11.7983 14.325H10.0475V13.4497H11.7983V14.325Z" fill="#404553"/>
<path fill-rule="evenodd" clip-rule="evenodd" d="M2.09985 3.14266C2.09985 1.81314 3.17762 0.735352 4.50714 0.735352H16.1745C17.5042 0.735352 18.5822 1.81347 18.5819 3.14318L18.579 15.8416C18.5787 17.1711 17.5011 18.2485 16.1718 18.2485H11.533V16.9354H14.0664H16.1718C16.776 16.9354 17.2658 16.4456 17.2659 15.8413L17.2683 4.91491H15.2885V8.61455C15.2885 8.93378 14.9578 9.14563 14.6679 9.01215L12.2247 7.88753L9.78157 9.01215C9.49159 9.14563 9.16087 8.93378 9.16087 8.61455V4.91491H3.41292V4.91574H2.09985V3.14266ZM17.2688 3.1429L17.2686 3.60184H3.41292V3.14266C3.41292 2.53833 3.90281 2.04842 4.50714 2.04842H16.1745C16.779 2.04842 17.2689 2.53848 17.2688 3.1429ZM2.06958 10.7043V8.08362H3.38265V10.7043H2.06958ZM13.9755 7.24793L12.2247 6.44202L10.4739 7.24792V4.92096H13.9755V7.24793Z" fill="#404553"/>
</svg>
