<svg width="21" height="22" viewBox="0 0 21 22" fill="none" xmlns="http://www.w3.org/2000/svg">
<g filter="url(#filter0_i)">
<path d="M1.00005 20.0281C1.00005 16.1155 4.17181 12.9438 8.08438 12.9438C9.38914 12.9438 8.60486 12.9438 10.45 12.9438C12.2952 12.9438 11.4798 12.9438 12.7845 12.9438C16.7143 12.9438 19.9 16.1295 19.9 20.0593V21.2125H1.00005V20.0281Z" fill="#FFE600"/>
</g>
<path d="M1.00005 20.0281C1.00005 16.1155 4.17181 12.9438 8.08438 12.9438C9.38914 12.9438 8.60486 12.9438 10.45 12.9438C12.2952 12.9438 11.4798 12.9438 12.7845 12.9438C16.7143 12.9438 19.9 16.1295 19.9 20.0593V21.2125H1.00005V20.0281Z" stroke="#756020" stroke-linejoin="round"/>
<g filter="url(#filter1_i)">
<path d="M10.45 10.45C13.0596 10.45 15.175 8.33455 15.175 5.725C15.175 3.11545 13.0596 1 10.45 1C7.8405 1 5.72504 3.11545 5.72504 5.725C5.72504 8.33455 7.8405 10.45 10.45 10.45Z" fill="#FFE600"/>
</g>
<path d="M10.45 10.45C13.0596 10.45 15.175 8.33455 15.175 5.725C15.175 3.11545 13.0596 1 10.45 1C7.8405 1 5.72504 3.11545 5.72504 5.725C5.72504 8.33455 7.8405 10.45 10.45 10.45Z" stroke="#756020" stroke-linejoin="round"/>
<defs>
<filter id="filter0_i" x="0.500046" y="12.4438" width="19.9" height="9.26875" filterUnits="userSpaceOnUse" color-interpolation-filters="sRGB">
<feFlood flood-opacity="0" result="BackgroundImageFix"/>
<feBlend mode="normal" in="SourceGraphic" in2="BackgroundImageFix" result="shape"/>
<feColorMatrix in="SourceAlpha" type="matrix" values="0 0 0 0 0 0 0 0 0 0 0 0 0 0 0 0 0 0 127 0" result="hardAlpha"/>
<feOffset dx="2" dy="0.5"/>
<feComposite in2="hardAlpha" operator="arithmetic" k2="-1" k3="1"/>
<feColorMatrix type="matrix" values="0 0 0 0 1 0 0 0 0 0.933333 0 0 0 0 0.717647 0 0 0 1 0"/>
<feBlend mode="normal" in2="shape" result="effect1_innerShadow"/>
</filter>
<filter id="filter1_i" x="5.22504" y="0.5" width="10.45" height="10.45" filterUnits="userSpaceOnUse" color-interpolation-filters="sRGB">
<feFlood flood-opacity="0" result="BackgroundImageFix"/>
<feBlend mode="normal" in="SourceGraphic" in2="BackgroundImageFix" result="shape"/>
<feColorMatrix in="SourceAlpha" type="matrix" values="0 0 0 0 0 0 0 0 0 0 0 0 0 0 0 0 0 0 127 0" result="hardAlpha"/>
<feOffset dx="2" dy="0.5"/>
<feComposite in2="hardAlpha" operator="arithmetic" k2="-1" k3="1"/>
<feColorMatrix type="matrix" values="0 0 0 0 1 0 0 0 0 0.933333 0 0 0 0 0.717647 0 0 0 1 0"/>
<feBlend mode="normal" in2="shape" result="effect1_innerShadow"/>
</filter>
</defs>
</svg>
