<svg width="241" height="212" viewBox="0 0 241 212" fill="none" xmlns="http://www.w3.org/2000/svg">
<path d="M227.166 73.5035C216.624 52.4201 192.547 23.3259 128.063 27.6871C63.5794 32.0483 31.8771 69.9422 23.2497 117.647C17.6494 148.613 43.0154 175.956 84.1939 182.544C125.372 189.133 181.36 170.64 214.647 138.401C229.135 124.37 237.707 94.5869 227.166 73.5035Z" fill="#E5EAF6"/>
<mask id="mask0" mask-type="alpha" maskUnits="userSpaceOnUse" x="22" y="27" width="210" height="157">
<path d="M227.169 73.2468C216.636 52.1802 192.578 23.109 128.146 27.4668C63.7128 31.8246 32.0357 69.6884 23.4151 117.355C17.8192 148.297 43.1651 175.618 84.311 182.201C125.457 188.785 181.4 170.306 214.661 138.093C229.137 124.073 237.703 94.3135 227.169 73.2468Z" fill="#E5EAF6"/>
</mask>
<g mask="url(#mask0)">
<path d="M79.8861 45.3187C57.1591 45.9285 36.3104 62.7422 32.4534 68.078L0.791473 134.675L37.714 179.41L118.203 202.658L226.047 165.689L257.611 82.5611C246.213 81.7988 218.789 82.561 202.844 64.4534C190.087 44.2556 179.057 35.5103 157.488 38.9404C135.919 42.3706 133.984 60.4555 118.202 60.4555C102.42 60.4555 106.108 49.2165 79.8861 45.3187Z" fill="#CED9ED"/>
</g>
<path d="M21.6505 103.719C23.17 97.9918 21.0634 92.4645 16.9453 91.3729C12.8271 90.2814 8.25687 94.0389 6.73738 99.7657C5.21788 105.492 7.32451 111.02 11.4427 112.111C15.5608 113.203 20.131 109.445 21.6505 103.719Z" fill="#E5EAF6"/>
<path d="M228.162 52.2431C230.199 51.4973 231.008 48.5937 229.969 45.7575C228.93 42.9214 226.436 41.2267 224.399 41.9725C222.363 42.7182 221.554 45.6219 222.593 48.4581C223.632 51.2942 226.125 52.9888 228.162 52.2431Z" fill="#E5EAF6"/>
<path d="M47.4509 166.592L68.5614 162.385C68.2809 159.441 68.0003 156.426 67.5094 153.271C66.9483 149.344 66.3171 145.698 65.6157 142.193C65.4053 141.912 63.7922 139.949 61.1271 139.949C60.2154 139.949 59.3036 140.229 58.3919 140.86C55.5164 142.683 56.2878 145.698 57.6905 148.994C55.3761 147.802 52.5006 148.363 50.8173 150.396C49.1341 152.429 49.1341 155.444 50.8173 157.548C50.5368 157.548 47.8717 157.968 46.5391 160.422C45.5572 162.315 45.9079 164.839 47.4509 166.592Z" fill="#8C93A3"/>
<path d="M119.968 134.129C121.091 151.307 122.283 168.415 123.405 185.593C115.339 181.246 106.432 176.969 96.6135 172.832L94.7199 155.654L92.5457 135.742L103.697 140.86L119.968 134.129Z" fill="#FFC74F"/>
<path d="M94.7923 155.654L96.6859 172.832C94.7221 171.99 92.7584 171.219 90.7244 170.378C82.659 167.223 74.9441 164.488 67.58 162.244C67.3696 158.949 66.8085 150.956 65.6864 142.753L94.652 155.724L94.7923 155.654Z" fill="#FFDC50"/>
<path d="M92.6182 135.812L94.7924 155.724H94.6521L65.6865 142.823C64.4942 133.989 62.7409 124.804 60.2861 120.878L92.6182 135.812Z" fill="#FFDC50"/>
<path d="M60.5898 121.597L42.1202 112.815" stroke="black" stroke-width="0.907721" stroke-linecap="round"/>
<path d="M88.9598 134.75L91.2496 153.305L67.8854 144.142L63.9915 123.297" stroke="#FEE889" stroke-width="0.907721"/>
<path d="M60.4705 121.534L103.746 141.584L119.88 134.915" stroke="black" stroke-width="0.907721"/>
<path d="M114.918 158.318C115.693 158.318 116.321 157.251 116.321 155.934C116.321 154.618 115.693 153.551 114.918 153.551C114.143 153.551 113.515 154.618 113.515 155.934C113.515 157.251 114.143 158.318 114.918 158.318Z" fill="#FFDC50"/>
<path d="M90.9651 15.6757C91.0641 17.9366 92.8258 20.5663 95.5198 22.54C98.2139 24.5136 101.921 25.8165 105.173 25.9696C107.238 26.0781 109.705 25.9263 111.219 27.2561C112.009 27.9337 112.232 28.7149 112.39 29.4707C113.036 32.4537 113.455 35.4408 113.515 38.3813C113.187 37.0963 112.271 35.5824 111.423 34.2803C110.64 33.0035 109.272 31.6843 107.554 30.8774C105.132 29.7506 102.404 29.8007 99.8416 29.0359C96.218 27.9046 93.3663 25.1751 92.1092 22.6027C90.9486 19.9752 90.9206 18.1123 90.9651 15.6757Z" fill="#A0ABC4"/>
<path d="M127.409 36.2396C126.464 34.0526 124.749 33.0626 123.225 31.8979C121.702 30.7332 120.061 28.8772 119.91 26.4139C119.767 24.5182 120.585 22.8156 120.269 20.949C120.02 19.2134 118.97 17.9688 117.903 17.1535C116.848 16.4074 115.766 16.0215 114.719 15.0607C113.672 14.0998 112.777 12.4732 112.896 10.8178C112.987 8.74021 114.528 7.91099 115.837 7.54745C117.092 7.12204 118.402 6.7585 119.356 5.60168C120.311 4.44486 120.984 2.41111 120.548 0.351625C122.153 3.56478 122.357 8.43675 120.772 10.8378C120.455 11.318 120.052 11.8127 119.942 12.4713C119.731 13.5737 120.265 14.9055 120.921 15.6479C121.578 16.3903 122.402 16.8198 123.141 17.2639C124.782 18.3376 126.57 20.8086 126.389 23.3991C126.263 25.2693 125.128 26.6698 125.326 28.6274C125.486 30.0937 126.353 31.2983 127.048 32.5319C127.743 33.7655 128.043 35.2792 127.409 36.2396Z" fill="#A0ABC4"/>
<path d="M145.62 7.02144C144.168 7.33789 142.651 7.73649 141.54 9.13306C140.429 10.5296 139.76 13.1315 140.281 15.7456C140.565 17.1909 141.222 18.502 141.687 19.8456C142.151 21.1892 142.509 22.8354 142.207 24.0953C141.759 25.6643 140.453 25.6717 139.46 26.1239C138.182 26.7665 137.257 28.5584 137.003 30.8057C136.749 33.0529 137.166 35.7557 138.156 37.8638C137.47 35.9175 138.061 34.2534 138.949 33.1789C139.837 32.1044 141.031 31.9027 142.198 31.7766C143.365 31.6505 144.594 31.6561 145.555 30.7825C147.27 29.2127 147.802 24.8564 146.667 21.4217C145.923 19.1297 144.633 17.3567 143.993 14.976C143.101 11.5714 143.741 7.62339 145.62 7.02144Z" fill="#A0ABC4"/>
<path d="M118.078 105.102L119.971 134.129L103.77 140.93V129.992L118.078 105.102Z" fill="#F4B73B"/>
<path d="M118.077 105.102L103.77 129.992V140.93L95.8448 137.284L95.1434 126.977L108.188 101.035L118.077 105.102Z" fill="#FEE889"/>
<path d="M108.186 101.034L95.1414 126.977L95.8428 137.283L85.9538 132.726L85.2524 122.559L98.1572 96.9678L108.186 101.034Z" fill="#FFC74F"/>
<path d="M98.1606 96.9683L85.2558 122.56L85.9572 132.727L76.0682 128.169L75.3668 118.213L88.1313 92.9017L98.1606 96.9683Z" fill="#FEE889"/>
<path d="M88.129 92.9021L75.3645 118.213L76.0658 128.17L67.5094 124.243L66.8782 114.567L79.5024 89.3964L88.129 92.9021Z" fill="#FFC74F"/>
<path d="M79.5061 89.3956L66.8818 114.567L67.513 124.242L58.6059 120.106L57.9747 110.64L70.5288 85.6796L79.5061 89.3956Z" fill="#FEE889"/>
<path d="M70.5262 85.6801L57.9721 110.641L58.6033 120.106L49.1352 115.759L48.504 106.364L60.8477 81.7537L70.5262 85.6801Z" fill="#FFC74F"/>
<path d="M55.0268 79.3697L60.848 81.7536L48.5043 106.364L49.1355 115.759L41.9116 112.393V103.068L55.0268 79.3697Z" fill="#FEE889"/>
<path d="M210.864 74.4619C197.539 73.9711 180.636 74.532 161.489 78.0377C147.533 80.6319 135.259 84.2078 124.949 87.9939V83.717C135.119 80.4917 146.972 77.3366 160.297 75.0929C174.675 72.6389 187.79 71.5872 199.152 71.3769C186.037 65.6976 171.519 60.1586 155.668 55.0403C144.026 51.3242 132.804 48.1691 122.214 45.5749L98.2981 53.638C96.3343 52.5863 94.09 51.7449 91.7054 51.184L91.7756 50.8334L121.022 42.2795C133.716 44.5933 148.304 48.099 164.084 53.4978C182.53 59.8782 198.17 67.3804 210.864 74.4619Z" fill="#FEE889"/>
<path d="M161.489 78.0376C180.635 74.5318 197.538 73.9709 210.863 74.4617C205.673 84.4179 200.063 97.389 196.065 113.095C190.384 135.461 189.963 155.023 190.875 168.976C179.724 169.326 165.416 170.869 149.495 175.566C139.396 178.511 130.699 182.157 123.405 185.663C121.582 158.809 119.829 131.955 118.005 105.102L117.093 91.0087C119.548 90.0271 122.143 88.9754 124.878 87.9938C135.188 84.2076 147.462 80.6318 161.489 78.0376Z" fill="#F4B73B"/>
<path d="M199.081 71.3069C187.789 71.5173 174.674 72.569 160.226 75.023C146.9 77.3367 135.048 80.4218 124.878 83.647V79.37L115.69 75.2333C115.69 75.2333 111.482 60.3691 98.2971 53.5681L122.213 45.4348C132.803 48.029 144.025 51.1141 155.667 54.9002C171.518 60.0887 185.965 65.6277 199.081 71.3069Z" fill="#F4B73B"/>
<path d="M121.333 53.3313L105.163 59.0086C109.183 61.3057 113.842 70.2809 115.572 75.3034L124.915 79.3918V84.4199C132.325 80.1712 164.412 74.2024 179.315 72.4321L150.171 62.0235L121.333 53.3313Z" fill="#FDCA64"/>
<path d="M124.878 83.717V87.994C122.143 88.9756 119.548 90.0273 117.093 91.0089V81.824L124.878 79.37V83.717Z" fill="#F4B73B"/>
<path d="M124.88 79.3704L117.095 81.8244L106.434 78.3187C106.434 78.3187 100.894 51.5351 82.4483 50.8339C79.152 50.6937 76.2063 50.9742 73.6113 51.6052C80.6949 49.8523 86.6564 49.9224 91.6359 51.1845C94.0205 51.7454 96.2648 52.5868 98.2286 53.6385C111.414 60.4396 115.622 75.3038 115.622 75.3038L124.88 79.3704Z" fill="#FEE889"/>
<path d="M117.093 91.0088L118.005 105.102L54.9541 79.3698L49.7641 60.2287L57.0582 62.6827C57.3387 62.1217 61.4065 55.4609 70.9448 52.3759C71.0149 52.3759 71.0851 52.3759 71.0851 52.3058C71.9267 52.0954 72.6982 51.815 73.5398 51.6747H73.6099C76.2049 51.1138 79.1506 50.8334 82.4469 50.9035C100.892 51.6046 106.433 78.3882 106.433 78.3882L117.093 81.8939V91.0088Z" fill="#FFDC50"/>
<path fill-rule="evenodd" clip-rule="evenodd" d="M76.9098 75.7957C77.7883 80.0974 81.216 82.8789 84.4083 82.227C87.7496 81.5446 89.7243 77.4013 88.8288 73.0169C88.3051 70.4524 86.914 68.3926 85.2277 67.1685L84.6947 69.6903C85.7195 70.4635 86.5882 71.8026 86.9227 73.4406C87.5309 76.4186 86.1802 79.2454 83.8947 79.7121C81.6215 80.1764 79.2706 78.1056 78.6455 75.0448C78.5712 74.6809 78.5218 74.3118 78.5005 73.9541L76.9098 75.7957Z" fill="#FFEFAB"/>
<path fill-rule="evenodd" clip-rule="evenodd" d="M83.075 66.1952C82.4462 66.0306 81.9133 66.0189 81.404 66.1229C81.019 66.2016 80.6971 66.3363 80.4622 66.4531L79.7786 69.695C80.1763 69.2347 80.7444 68.9118 81.4026 68.7774C81.7878 68.6987 82.149 68.6938 82.5363 68.7527L83.075 66.1952Z" fill="#FFEFAB"/>
<path d="M73.5397 51.675C72.7682 51.8853 71.9266 52.0956 71.0849 52.306C71.9266 52.0255 72.698 51.8152 73.5397 51.675Z" fill="#FFDC50"/>
<path d="M56.4971 57.5647L60.1441 58.8969C59.583 59.3176 58.9518 59.8785 58.3206 60.7199C57.7595 61.421 57.3387 62.1222 57.1283 62.6831L49.7641 60.2291L56.4971 57.5647Z" fill="#FEE889"/>
<path d="M166.339 186.918L234.099 160.804C236.166 159.488 237.387 157.311 237.095 155.44C236.663 152.669 233.112 150.385 229.169 151.497C231.914 145.888 230.025 140.151 227.03 138.702C223.806 137.147 217.6 139.677 215.363 146.271C212.98 141.462 207.856 138.643 202.994 139.331C197.093 140.181 192.375 145.884 192.779 152.563C191.586 150.833 187.387 144.392 183.705 145.818C176.678 148.547 175.63 155.026 176.424 167.391C174.06 166.341 171.357 166.763 169.633 168.451C167.536 170.481 167.325 174.133 169.362 176.725C168.676 177.329 167.021 179.006 166.302 181.673C165.677 184.041 166.129 186.029 166.339 186.918Z" fill="#8C93A3"/>
<path d="M188.773 103.419C186.598 108.888 184.424 115.759 182.951 123.822C181.619 131.044 181.198 136.443 181.128 141.912C174.746 140.86 165.348 141.14 154.266 142.963C144.868 144.506 137.294 147.451 131.893 150.045C131.192 144.155 130.841 136.933 131.473 128.66C132.034 121.088 133.366 114.497 134.699 109.098C141.712 107.345 149.637 105.803 158.334 104.751C169.626 103.279 179.865 103.068 188.773 103.419ZM181.198 123.542C182.601 116.25 184.635 110.01 186.598 105.102C178.393 104.821 168.854 105.032 158.404 106.294C150.339 107.275 143.045 108.607 136.592 110.22C135.33 115.128 134.138 121.088 133.577 127.959C133.015 135.461 133.366 141.982 133.997 147.31C138.977 144.997 145.99 142.332 154.687 140.93C164.927 139.317 173.694 138.967 179.585 139.948C179.585 134.97 180.006 130.132 181.198 123.542Z" stroke="#FFC866" stroke-width="0.907721" stroke-miterlimit="10"/>
<path d="M186.599 105.102C184.635 110.01 182.602 116.25 181.199 123.542C179.936 130.133 179.586 134.971 179.516 139.879C173.624 138.897 164.928 139.178 154.618 140.86C145.921 142.263 138.908 144.927 133.928 147.241C133.297 141.912 132.946 135.321 133.507 127.889C134.068 121.018 135.261 115.058 136.523 110.15C142.976 108.608 150.34 107.206 158.335 106.224C168.925 105.032 178.394 104.822 186.599 105.102Z" fill="#FFDC50"/>
<path d="M151.323 115.619L167.805 129.993" stroke="#F4B73B" stroke-width="0.907721" stroke-miterlimit="10"/>
<path d="M150.479 123.052L164.015 133.709" stroke="#F4B73B" stroke-width="0.907721" stroke-miterlimit="10"/>
<path d="M222.472 109.99L209.594 108.89" stroke="#8C93A3" stroke-width="1.81544" stroke-miterlimit="10" stroke-linecap="round"/>
<path d="M218.337 96.2392L208.442 101.59" stroke="#8C93A3" stroke-width="1.81544" stroke-miterlimit="10" stroke-linecap="round"/>
<path d="M172.819 211.71C189.243 211.71 202.556 198.4 202.556 181.982C202.556 165.563 189.243 152.253 172.819 152.253C156.396 152.253 143.082 165.563 143.082 181.982C143.082 198.4 156.396 211.71 172.819 211.71Z" fill="#2F3D48"/>
<path d="M171.977 209.046C188.4 209.046 201.714 195.736 201.714 179.317C201.714 162.899 188.4 149.589 171.977 149.589C155.553 149.589 142.24 162.899 142.24 179.317C142.24 195.736 155.553 209.046 171.977 209.046Z" fill="#FF9165"/>
<path d="M176.115 159.895L186.565 162.209L172.187 188.572L165.945 186.258L176.115 159.895Z" fill="white"/>
<path d="M165.524 199.089C167.577 199.089 169.241 197.426 169.241 195.373C169.241 193.321 167.577 191.657 165.524 191.657C163.471 191.657 161.807 193.321 161.807 195.373C161.807 197.426 163.471 199.089 165.524 199.089Z" fill="white"/>
<path d="M103.769 59.0533L121.327 53.0088C139.845 58.3818 178.032 70.164 182.637 74.3089" stroke="#FEE889" stroke-width="0.907721"/>
<path d="M122.228 45.4463L121.239 53.1142" stroke="#FEE889" stroke-width="0.907721"/>
<path d="M99.1648 179.365C97.2105 178.012 91.2203 181.07 88.7151 182.636L92.1513 183.323C95.0324 182.509 101.119 180.718 99.1648 179.365Z" fill="#8C93A3"/>
<path d="M91.6752 183.698L88.0734 183.084C87.3129 183.711 85.1862 184.807 86.7897 185.241C88.3932 185.676 91.0504 184.483 91.6752 183.698Z" fill="#8C93A3"/>
<path d="M107.109 181.113C105.811 179.123 100.096 183.17 96.6598 184.384L100.096 185.071C102.977 184.257 108.002 182.481 107.109 181.113Z" fill="#8C93A3"/>
<path d="M99.1029 185.358L96.0741 184.598C95.3133 184.805 93.2349 185.226 94.5134 185.812C95.7918 186.398 98.428 185.685 99.1029 185.358Z" fill="#8C93A3"/>
<path d="M71.8575 186.736C70.3122 185.192 64.3937 186.974 61.8714 187.979L64.8659 189.164C67.6049 188.901 73.4028 188.28 71.8575 186.736Z" fill="#A5ACBB"/>
<path d="M64.3782 189.425L61.2219 188.279C60.4312 188.722 58.3283 189.363 59.7071 190.019C61.0859 190.675 63.6844 190.033 64.3782 189.425Z" fill="#A5ACBB"/>
<path d="M78.7566 189.62C77.9087 187.607 72.0769 190.329 68.7705 190.863L71.765 192.048C74.5039 191.785 79.3393 191.003 78.7566 189.62Z" fill="#A5ACBB"/>
<path d="M70.8185 192.145L68.2043 190.96C67.4824 191.023 65.5337 191.063 66.5937 191.803C67.6537 192.542 70.1546 192.33 70.8185 192.145Z" fill="#A5ACBB"/>
<path d="M43.3224 193.041C41.777 191.497 35.8585 193.279 33.3363 194.284L36.3308 195.47C39.0697 195.206 44.8677 194.585 43.3224 193.041Z" fill="#C6C8CC"/>
<path d="M35.8431 195.731L32.6867 194.584C31.8961 195.027 29.7932 195.669 31.172 196.324C32.5508 196.98 35.1493 196.338 35.8431 195.731Z" fill="#C6C8CC"/>
<path d="M50.2213 195.925C49.3734 193.912 43.5417 196.634 40.2352 197.168L43.2297 198.354C45.9687 198.09 50.8041 197.309 50.2213 195.925Z" fill="#C6C8CC"/>
<path d="M42.2832 198.45L39.669 197.266C38.9471 197.328 36.9985 197.368 38.0584 198.108C39.1184 198.848 41.6193 198.635 42.2832 198.45Z" fill="#C6C8CC"/>
<path d="M13.797 193.694C12.2516 192.15 6.33316 193.932 3.8109 194.937L6.80539 196.122C9.54433 195.859 15.3423 195.238 13.797 193.694Z" fill="#E6E6E6"/>
<path d="M6.3177 196.383L3.16137 195.237C2.37069 195.68 0.267801 196.321 1.64661 196.977C3.02541 197.633 5.62392 196.991 6.3177 196.383Z" fill="#E6E6E6"/>
<path d="M20.6959 196.578C19.848 194.565 14.0163 197.287 10.7099 197.821L13.7044 199.006C16.4433 198.743 21.2787 197.962 20.6959 196.578Z" fill="#E6E6E6"/>
<path d="M12.7578 199.103L10.1437 197.918C9.42177 197.981 7.47309 198.021 8.53307 198.761C9.59304 199.5 12.094 199.288 12.7578 199.103Z" fill="#E6E6E6"/>
</svg>
