<svg width="23" height="23" viewBox="0 0 23 23" fill="none" xmlns="http://www.w3.org/2000/svg">
<path d="M22.2295 11.8248C22.2295 17.4857 17.6404 22.0748 11.9795 22.0748C6.31857 22.0748 1.72949 17.4857 1.72949 11.8248C1.72949 9.27397 2.66033 6.94242 4.20181 5.14844C6.08276 2.95939 8.86903 1.57483 11.9795 1.57483C17.6404 1.57483 22.2295 6.16391 22.2295 11.8248Z" stroke="#404554" stroke-width="1.5" stroke-linecap="round" stroke-linejoin="round"/>
<path d="M17.0102 7.51375C16.3819 6.88311 15.55 6.53842 14.6621 6.53842C13.7743 6.53842 12.9398 6.88566 12.3115 7.51631L11.9833 7.84567L11.65 7.5112C11.0217 6.88055 10.1847 6.53076 9.29686 6.53076C8.41155 6.53076 7.57713 6.878 6.95131 7.50609C6.32294 8.13674 5.97696 8.9742 5.97951 9.86528C5.97951 10.7564 6.32803 11.5913 6.9564 12.2219L11.734 17.0169C11.8001 17.0833 11.8892 17.119 11.9757 17.119C12.0622 17.119 12.1512 17.0858 12.2174 17.0194L17.0051 12.2321C17.6335 11.6015 17.9795 10.764 17.9795 9.87294C17.982 8.98186 17.6386 8.1444 17.0102 7.51375Z" fill="#FEEE00" stroke="#404554" stroke-width="1.5"/>
</svg>
