<svg width="28" height="10" viewBox="0 0 28 10" fill="none" xmlns="http://www.w3.org/2000/svg"><path opacity="0.834352" fill-rule="evenodd" clip-rule="evenodd" d="M4.80735 9.02793C2.61107 9.02793 0.892242 7.64397 0.892242 5.49113C0.892242 2.69955 3.05271 0.866089 5.52352 0.866089C7.46914 0.866089 8.59115 1.90702 9.05666 3.10172L7.43333 3.64585C7.12299 2.806 6.35906 2.35651 5.43997 2.35651C3.936 2.35651 2.67075 3.64585 2.67075 5.38467C2.67075 6.61486 3.53016 7.53751 4.90284 7.53751C5.5832 7.53751 6.32325 7.18264 6.77683 6.62669L8.08983 7.50202C7.17073 8.66124 5.8458 9.02793 4.80735 9.02793ZM11.9214 3.03075C12.6972 3.03075 13.3776 3.36195 13.7596 3.92973L13.9147 3.17269H15.4426L14.1654 8.88598H12.6375L12.8047 8.17626C12.3153 8.74404 11.7662 9.02793 11.0739 9.02793C9.77284 9.02793 8.87762 8.17626 8.87762 6.66218C8.87762 4.93518 9.96382 3.03075 11.9214 3.03075ZM12.1601 4.3674C11.1694 4.3674 10.4651 5.30187 10.4651 6.35463C10.4651 7.17082 11.0142 7.69128 11.7423 7.69128C12.2795 7.69128 12.7569 7.39556 13.0673 7.00521L13.5089 5.02981C13.2582 4.63946 12.7688 4.3674 12.1601 4.3674ZM18.176 9.02793C19.7516 9.02793 20.6707 8.11711 20.6707 7.02887C20.6707 5.29004 17.7343 5.44381 17.7343 4.74592C17.7343 4.4502 18.0327 4.21362 18.5699 4.21362C19.2741 4.21362 19.9903 4.60397 20.2648 4.95884L21.0526 3.95339C20.5036 3.39744 19.5845 3.03075 18.6057 3.03075C17.0659 3.03075 16.2304 3.96522 16.2304 4.95884C16.2304 6.674 19.1667 6.48474 19.1667 7.25361C19.1667 7.57299 18.8444 7.84505 18.3312 7.84505C17.4956 7.84505 16.6601 7.34824 16.3139 6.94607L15.4664 7.99883C16.111 8.67306 17.1256 9.02793 18.176 9.02793ZM26.782 8.88598L27.6534 4.95884C27.6773 4.84055 27.7131 4.60397 27.7131 4.48569C27.7131 3.59853 27.0208 3.03075 25.9107 3.03075C25.0632 3.03075 24.4425 3.48024 23.9889 3.90608L24.6454 0.996202H23.1176L21.363 8.88598H22.8908L23.7383 5.04164C24.0725 4.71043 24.5738 4.3674 25.0871 4.3674C25.6481 4.3674 26.0778 4.56849 26.0778 5.08895C26.0778 5.17175 26.0539 5.32553 26.03 5.42016L25.2661 8.88598H26.782Z" fill="#A0A5B6"/></svg>