<?xml version="1.0" encoding="utf-8"?>
<!-- Generator: Adobe Illustrator 24.2.1, SVG Export Plug-In . SVG Version: 6.00 Build 0)  -->
<svg version="1.1" id="Layer_1" xmlns="http://www.w3.org/2000/svg" xmlns:xlink="http://www.w3.org/1999/xlink" x="0px" y="0px"
	 viewBox="0 0 82 22" style="enable-background:new 0 0 82 22;" xml:space="preserve">
<style type="text/css">
	.st0{fill:#088DF9;}
	.st1{fill:#FFFAFA;}
</style>
<g id="logo">
	<path id="back" class="st0" d="M9.21,4H81c0,0-2.74,7.35-6.94,11.87c-1.14,1.23-3.2,1.98-5.42,1.98H9.68
		c-0.94,0-1.85-0.16-2.65-0.48c-2.25-0.88-6.14-2.99-6.14-6.45c0,0-0.37-3.47,5.14-6.23C6.94,4.24,8.06,4,9.21,4z"/>
	<g id="text">
		<path class="st1" d="M17.48,8.72c0,0.29-0.1,0.56-0.31,0.79c-0.21,0.23-0.53,0.44-0.96,0.6c-0.43,0.17-0.99,0.3-1.66,0.39
			c-0.67,0.09-1.47,0.13-2.39,0.13h-0.88c-0.03,0.09-0.04,0.19-0.06,0.28c-0.01,0.09-0.02,0.18-0.02,0.25c0,0.33,0.13,0.58,0.4,0.74
			c0.27,0.17,0.69,0.25,1.29,0.25c0.42,0,0.79-0.02,1.13-0.06c0.33-0.04,0.62-0.08,0.88-0.13c0.25-0.05,0.46-0.09,0.62-0.13
			c0.16-0.04,0.29-0.06,0.36-0.06s0.13,0.01,0.16,0.04c0.03,0.03,0.05,0.07,0.05,0.13c0,0.07-0.01,0.15-0.03,0.24
			c-0.02,0.09-0.05,0.18-0.08,0.27c-0.03,0.09-0.08,0.17-0.13,0.25c-0.05,0.08-0.12,0.14-0.19,0.18c-0.08,0.05-0.22,0.1-0.42,0.15
			c-0.2,0.05-0.45,0.09-0.73,0.13c-0.29,0.04-0.61,0.07-0.96,0.1s-0.72,0.04-1.08,0.04c-0.61,0-1.14-0.04-1.59-0.12
			c-0.45-0.08-0.83-0.21-1.14-0.37c-0.3-0.17-0.53-0.38-0.69-0.64c-0.15-0.26-0.23-0.56-0.23-0.92c0-0.27,0.04-0.56,0.12-0.88
			c0.08-0.31,0.21-0.62,0.39-0.92c0.18-0.3,0.41-0.59,0.69-0.87c0.28-0.28,0.62-0.52,1.01-0.73c0.4-0.21,0.85-0.38,1.38-0.5
			c0.52-0.13,1.11-0.19,1.78-0.19c0.58,0,1.07,0.04,1.49,0.13c0.42,0.09,0.76,0.2,1.02,0.35c0.27,0.14,0.46,0.31,0.59,0.49
			C17.42,8.34,17.48,8.53,17.48,8.72z M15.13,8.84c0-0.16-0.1-0.3-0.3-0.41c-0.2-0.11-0.49-0.16-0.87-0.16
			c-0.32,0-0.6,0.04-0.85,0.11c-0.25,0.07-0.47,0.17-0.66,0.3c-0.19,0.12-0.35,0.27-0.49,0.44c-0.14,0.17-0.25,0.35-0.33,0.54h0.8
			c0.51,0,0.93-0.02,1.28-0.06c0.34-0.04,0.62-0.1,0.83-0.17c0.21-0.07,0.36-0.16,0.46-0.26C15.08,9.06,15.13,8.95,15.13,8.84z"/>
		<path class="st1" d="M24.65,10.15l1.52,2.71c0.03,0.07,0.04,0.13,0.02,0.17s-0.08,0.08-0.18,0.11c-0.1,0.03-0.24,0.05-0.42,0.06
			c-0.18,0.01-0.42,0.02-0.71,0.02c-0.27,0-0.48,0-0.63-0.01c-0.15-0.01-0.27-0.02-0.35-0.04c-0.08-0.02-0.14-0.04-0.17-0.07
			c-0.03-0.03-0.05-0.06-0.06-0.1l-1.03-1.92l-2.15,1.93c-0.04,0.04-0.08,0.07-0.13,0.09s-0.13,0.05-0.24,0.06
			c-0.11,0.02-0.26,0.03-0.44,0.04c-0.18,0.01-0.42,0.01-0.73,0.01c-0.27,0-0.49-0.01-0.66-0.02c-0.16-0.01-0.29-0.03-0.36-0.06
			c-0.08-0.03-0.11-0.06-0.1-0.1c0.01-0.04,0.05-0.1,0.12-0.17l3.23-2.71l-1.42-2.52c-0.04-0.07-0.05-0.13-0.04-0.18
			c0.01-0.05,0.06-0.08,0.15-0.11c0.08-0.03,0.22-0.05,0.4-0.06C20.46,7.29,20.7,7.28,21,7.28c0.26,0,0.47,0,0.62,0.01
			c0.15,0.01,0.26,0.01,0.34,0.03c0.08,0.01,0.13,0.03,0.16,0.06c0.03,0.03,0.05,0.06,0.07,0.1l0.99,1.82l2.05-1.82
			c0.04-0.03,0.08-0.06,0.12-0.09c0.04-0.02,0.11-0.04,0.21-0.06c0.1-0.02,0.22-0.03,0.37-0.04c0.15-0.01,0.36-0.01,0.62-0.01
			c0.29,0,0.52,0,0.7,0.01c0.17,0.01,0.3,0.02,0.39,0.05c0.08,0.02,0.12,0.06,0.11,0.1c-0.01,0.04-0.06,0.1-0.14,0.17L24.65,10.15z"
			/>
		<path class="st1" d="M37.07,9.25c0,0.26-0.04,0.55-0.11,0.85c-0.08,0.31-0.19,0.61-0.35,0.91c-0.16,0.3-0.36,0.59-0.61,0.87
			c-0.25,0.28-0.54,0.52-0.89,0.74c-0.35,0.21-0.74,0.38-1.19,0.51c-0.45,0.13-0.95,0.19-1.51,0.19c-0.25,0-0.49-0.02-0.71-0.05
			c-0.22-0.03-0.43-0.08-0.61-0.14c-0.19-0.06-0.36-0.13-0.51-0.21c-0.15-0.08-0.29-0.16-0.4-0.25l-0.75,2.46
			c-0.01,0.04-0.04,0.08-0.09,0.11c-0.05,0.03-0.12,0.06-0.22,0.08c-0.1,0.02-0.23,0.04-0.39,0.05c-0.16,0.01-0.36,0.02-0.59,0.02
			c-0.24,0-0.43-0.01-0.57-0.02c-0.15-0.01-0.26-0.03-0.35-0.05c-0.09-0.02-0.14-0.05-0.17-0.08c-0.03-0.03-0.03-0.07-0.02-0.11
			l2.38-7.62c0.02-0.09,0.12-0.15,0.3-0.18c0.17-0.04,0.45-0.05,0.85-0.05c0.2,0,0.36,0,0.48,0.01c0.12,0.01,0.22,0.02,0.3,0.04
			s0.12,0.04,0.15,0.07c0.03,0.03,0.03,0.07,0.02,0.11L31.23,8.4c0.09-0.13,0.25-0.27,0.45-0.42c0.21-0.14,0.45-0.28,0.74-0.4
			c0.29-0.12,0.61-0.22,0.95-0.3c0.35-0.08,0.7-0.12,1.07-0.12c0.49,0,0.9,0.05,1.23,0.16c0.33,0.11,0.6,0.26,0.81,0.44
			c0.21,0.19,0.35,0.41,0.45,0.66C37.03,8.69,37.07,8.96,37.07,9.25z M34.61,9.39c0-0.14-0.02-0.26-0.05-0.38
			c-0.04-0.11-0.09-0.21-0.17-0.29c-0.08-0.08-0.18-0.14-0.3-0.18c-0.12-0.04-0.27-0.06-0.45-0.06c-0.29,0-0.57,0.05-0.86,0.16
			c-0.29,0.11-0.56,0.26-0.81,0.44c-0.25,0.19-0.48,0.4-0.68,0.65c-0.2,0.25-0.34,0.51-0.42,0.79l-0.27,0.83
			c0.22,0.22,0.47,0.39,0.74,0.5c0.27,0.11,0.58,0.17,0.94,0.17c0.26,0,0.5-0.04,0.72-0.12c0.22-0.08,0.42-0.19,0.59-0.33
			c0.17-0.14,0.33-0.29,0.46-0.47c0.13-0.18,0.24-0.37,0.32-0.56c0.09-0.2,0.15-0.39,0.19-0.59C34.59,9.75,34.61,9.56,34.61,9.39z"
			/>
		<path class="st1" d="M45.33,7.44c0,0.03-0.01,0.08-0.02,0.15c-0.01,0.07-0.03,0.16-0.06,0.26c-0.03,0.1-0.06,0.2-0.1,0.3
			c-0.04,0.1-0.08,0.2-0.13,0.29c-0.05,0.09-0.1,0.16-0.16,0.22c-0.06,0.06-0.13,0.09-0.19,0.09c-0.06,0-0.11-0.01-0.17-0.02
			c-0.06-0.01-0.12-0.03-0.19-0.04s-0.15-0.03-0.23-0.04C44,8.62,43.91,8.62,43.8,8.62c-0.22,0-0.45,0.05-0.69,0.16
			c-0.24,0.11-0.48,0.25-0.7,0.42c-0.22,0.17-0.42,0.37-0.59,0.6c-0.17,0.23-0.3,0.47-0.38,0.72l-0.76,2.45
			c-0.01,0.04-0.04,0.08-0.09,0.11c-0.05,0.03-0.12,0.06-0.22,0.08c-0.1,0.02-0.23,0.04-0.39,0.05c-0.16,0.01-0.35,0.02-0.58,0.02
			c-0.23,0-0.43-0.01-0.58-0.02c-0.15-0.01-0.27-0.03-0.35-0.05c-0.09-0.02-0.14-0.05-0.17-0.08c-0.02-0.03-0.03-0.07-0.02-0.11
			l1.69-5.45c0.01-0.04,0.04-0.08,0.09-0.11c0.04-0.03,0.11-0.05,0.19-0.07c0.09-0.02,0.2-0.03,0.33-0.04
			c0.14-0.01,0.3-0.01,0.49-0.01c0.2,0,0.36,0,0.48,0.01c0.12,0.01,0.22,0.02,0.29,0.04c0.07,0.02,0.11,0.04,0.14,0.07
			c0.02,0.03,0.03,0.07,0.01,0.11l-0.27,0.87c0.15-0.18,0.33-0.34,0.53-0.48c0.2-0.15,0.41-0.27,0.64-0.38
			c0.23-0.11,0.46-0.19,0.7-0.25c0.24-0.06,0.48-0.09,0.71-0.09c0.09,0,0.19,0,0.29,0.01c0.1,0.01,0.19,0.02,0.28,0.03
			c0.09,0.01,0.16,0.03,0.23,0.05c0.07,0.02,0.12,0.04,0.16,0.06C45.32,7.35,45.33,7.39,45.33,7.44z"/>
		<path class="st1" d="M54.68,8.72c0,0.29-0.1,0.56-0.31,0.79c-0.21,0.23-0.53,0.44-0.96,0.6c-0.43,0.17-0.99,0.3-1.66,0.39
			c-0.67,0.09-1.47,0.13-2.39,0.13h-0.88c-0.03,0.09-0.05,0.19-0.06,0.28c-0.01,0.09-0.02,0.18-0.02,0.25c0,0.33,0.13,0.58,0.4,0.74
			c0.27,0.17,0.69,0.25,1.28,0.25c0.42,0,0.8-0.02,1.13-0.06c0.33-0.04,0.63-0.08,0.88-0.13c0.25-0.05,0.46-0.09,0.62-0.13
			c0.16-0.04,0.29-0.06,0.36-0.06c0.08,0,0.13,0.01,0.16,0.04c0.03,0.03,0.05,0.07,0.05,0.13c0,0.07-0.01,0.15-0.03,0.24
			c-0.02,0.09-0.05,0.18-0.08,0.27c-0.03,0.09-0.08,0.17-0.13,0.25c-0.05,0.08-0.12,0.14-0.19,0.18c-0.08,0.05-0.22,0.1-0.42,0.15
			c-0.2,0.05-0.45,0.09-0.73,0.13c-0.29,0.04-0.61,0.07-0.96,0.1c-0.36,0.03-0.72,0.04-1.09,0.04c-0.61,0-1.14-0.04-1.6-0.12
			c-0.45-0.08-0.83-0.21-1.14-0.37c-0.3-0.17-0.53-0.38-0.68-0.64c-0.15-0.26-0.23-0.56-0.23-0.92c0-0.27,0.04-0.56,0.12-0.88
			c0.08-0.31,0.21-0.62,0.39-0.92c0.18-0.3,0.41-0.59,0.68-0.87c0.28-0.28,0.62-0.52,1.01-0.73c0.4-0.21,0.86-0.38,1.38-0.5
			c0.52-0.13,1.11-0.19,1.78-0.19c0.58,0,1.07,0.04,1.49,0.13c0.42,0.09,0.76,0.2,1.02,0.35c0.27,0.14,0.47,0.31,0.59,0.49
			C54.62,8.34,54.68,8.53,54.68,8.72z M52.33,8.84c0-0.16-0.1-0.3-0.3-0.41c-0.2-0.11-0.49-0.16-0.87-0.16
			c-0.32,0-0.6,0.04-0.85,0.11c-0.25,0.07-0.47,0.17-0.66,0.3c-0.19,0.12-0.35,0.27-0.49,0.44c-0.14,0.17-0.25,0.35-0.33,0.54h0.8
			c0.51,0,0.93-0.02,1.28-0.06c0.34-0.04,0.62-0.1,0.83-0.17c0.21-0.07,0.36-0.16,0.46-0.26S52.33,8.95,52.33,8.84z"/>
		<path class="st1" d="M62.41,7.76c0,0.05-0.01,0.12-0.03,0.22c-0.02,0.1-0.06,0.19-0.1,0.29c-0.04,0.1-0.1,0.18-0.16,0.25
			c-0.06,0.07-0.13,0.11-0.2,0.11c-0.08,0-0.18-0.02-0.29-0.06c-0.11-0.04-0.25-0.08-0.4-0.13c-0.16-0.05-0.34-0.09-0.56-0.12
			c-0.21-0.04-0.46-0.06-0.75-0.06c-0.22,0-0.42,0.02-0.59,0.06C59.15,8.36,59,8.41,58.89,8.47c-0.11,0.06-0.2,0.14-0.26,0.22
			s-0.09,0.18-0.09,0.27c0,0.13,0.08,0.23,0.24,0.32c0.16,0.09,0.36,0.17,0.6,0.24c0.24,0.08,0.5,0.15,0.78,0.24
			c0.28,0.08,0.54,0.18,0.78,0.31c0.24,0.12,0.44,0.27,0.6,0.45c0.16,0.18,0.24,0.39,0.24,0.66c0,0.31-0.09,0.6-0.28,0.86
			c-0.18,0.26-0.45,0.49-0.8,0.68c-0.35,0.19-0.78,0.34-1.28,0.45c-0.5,0.11-1.07,0.16-1.71,0.16c-0.3,0-0.59-0.01-0.87-0.04
			c-0.28-0.03-0.52-0.06-0.74-0.1c-0.22-0.04-0.4-0.09-0.56-0.14c-0.15-0.05-0.27-0.1-0.34-0.15c-0.05-0.03-0.09-0.07-0.11-0.1
			c-0.02-0.04-0.03-0.08-0.03-0.14c0-0.04,0-0.08,0.01-0.14s0.02-0.12,0.05-0.19c0.02-0.07,0.05-0.14,0.08-0.21
			c0.03-0.07,0.06-0.13,0.1-0.19c0.04-0.06,0.08-0.1,0.12-0.14c0.05-0.04,0.09-0.05,0.14-0.05c0.09,0,0.19,0.02,0.3,0.07
			c0.11,0.05,0.25,0.1,0.42,0.16s0.38,0.11,0.63,0.16c0.25,0.05,0.56,0.08,0.94,0.08c0.26,0,0.49-0.02,0.68-0.06
			c0.19-0.04,0.35-0.09,0.48-0.16c0.13-0.07,0.22-0.15,0.28-0.24c0.06-0.09,0.09-0.19,0.09-0.29c0-0.14-0.08-0.26-0.23-0.35
			c-0.16-0.09-0.35-0.17-0.59-0.25c-0.23-0.08-0.49-0.16-0.77-0.24c-0.28-0.08-0.53-0.18-0.77-0.3c-0.23-0.12-0.43-0.26-0.59-0.44
			c-0.16-0.17-0.23-0.39-0.23-0.66c0-0.29,0.09-0.56,0.26-0.81c0.17-0.25,0.42-0.47,0.75-0.65c0.33-0.19,0.73-0.33,1.2-0.43
			c0.47-0.1,1-0.16,1.6-0.16c0.27,0,0.52,0.01,0.77,0.03c0.25,0.02,0.48,0.05,0.68,0.09c0.2,0.04,0.37,0.08,0.52,0.12
			c0.15,0.04,0.26,0.09,0.32,0.13C62.38,7.6,62.41,7.67,62.41,7.76z"/>
		<path class="st1" d="M71.07,7.76c0,0.05-0.01,0.12-0.03,0.22c-0.02,0.1-0.06,0.19-0.1,0.29c-0.04,0.1-0.1,0.18-0.16,0.25
			c-0.06,0.07-0.13,0.11-0.2,0.11c-0.08,0-0.18-0.02-0.29-0.06c-0.11-0.04-0.25-0.08-0.4-0.13c-0.16-0.05-0.34-0.09-0.56-0.12
			c-0.21-0.04-0.46-0.06-0.75-0.06c-0.22,0-0.42,0.02-0.59,0.06c-0.17,0.04-0.32,0.09-0.43,0.15c-0.11,0.06-0.2,0.14-0.26,0.22
			c-0.06,0.09-0.09,0.18-0.09,0.27c0,0.13,0.08,0.23,0.24,0.32c0.16,0.09,0.36,0.17,0.6,0.24c0.24,0.08,0.5,0.15,0.78,0.24
			c0.28,0.08,0.54,0.18,0.78,0.31c0.24,0.12,0.44,0.27,0.6,0.45c0.16,0.18,0.24,0.39,0.24,0.66c0,0.31-0.09,0.6-0.28,0.86
			c-0.18,0.26-0.45,0.49-0.8,0.68c-0.35,0.19-0.78,0.34-1.28,0.45c-0.5,0.11-1.07,0.16-1.71,0.16c-0.3,0-0.59-0.01-0.87-0.04
			c-0.28-0.03-0.52-0.06-0.74-0.1c-0.22-0.04-0.4-0.09-0.56-0.14c-0.15-0.05-0.27-0.1-0.34-0.15c-0.05-0.03-0.09-0.07-0.11-0.1
			c-0.02-0.04-0.03-0.08-0.03-0.14c0-0.04,0-0.08,0.01-0.14c0.01-0.06,0.02-0.12,0.05-0.19c0.02-0.07,0.05-0.14,0.08-0.21
			c0.03-0.07,0.06-0.13,0.1-0.19c0.04-0.06,0.08-0.1,0.12-0.14c0.05-0.04,0.09-0.05,0.14-0.05c0.09,0,0.19,0.02,0.3,0.07
			c0.11,0.05,0.25,0.1,0.42,0.16c0.17,0.06,0.38,0.11,0.63,0.16c0.25,0.05,0.56,0.08,0.94,0.08c0.26,0,0.49-0.02,0.68-0.06
			c0.19-0.04,0.35-0.09,0.48-0.16c0.13-0.07,0.22-0.15,0.28-0.24c0.06-0.09,0.09-0.19,0.09-0.29c0-0.14-0.08-0.26-0.23-0.35
			c-0.16-0.09-0.35-0.17-0.59-0.25c-0.23-0.08-0.49-0.16-0.77-0.24c-0.28-0.08-0.53-0.18-0.77-0.3c-0.23-0.12-0.43-0.26-0.59-0.44
			c-0.16-0.17-0.23-0.39-0.23-0.66c0-0.29,0.09-0.56,0.26-0.81c0.17-0.25,0.42-0.47,0.75-0.65c0.33-0.19,0.73-0.33,1.2-0.43
			c0.47-0.1,1-0.16,1.6-0.16c0.27,0,0.52,0.01,0.77,0.03c0.25,0.02,0.48,0.05,0.68,0.09c0.2,0.04,0.37,0.08,0.52,0.12
			c0.15,0.04,0.26,0.09,0.32,0.13C71.04,7.6,71.07,7.67,71.07,7.76z"/>
	</g>
</g>
</svg>
