<svg width="335" height="100" viewBox="0 0 335 100" fill="none" xmlns="http://www.w3.org/2000/svg">
<path fill-rule="evenodd" clip-rule="evenodd" d="M334.589 52.233C334.589 46.3227 330.323 43.4273 323.899 38.6167C317.616 33.9247 306.946 27.0228 300.591 23.2372C294.239 19.448 283.898 13.6141 276.761 10.1952C269.554 6.74972 263.81 4.46947 260.328 4.46947C256.847 4.46947 254.445 5.56315 252.721 7.83886C251.015 10.1119 250.006 13.4437 249.326 17.6561C248.63 21.8652 248.283 26.9619 248.09 32.7757C247.917 38.5964 247.9 52.233 247.9 52.233C247.9 52.233 247.917 65.872 248.09 71.6917C248.283 77.5072 248.63 82.6042 249.326 86.812C250.006 91.024 251.015 94.3561 252.721 96.6291C254.445 98.905 256.847 100 260.328 100C263.81 100 269.554 97.7186 276.761 94.2726C283.898 90.8561 294.239 85.0176 300.591 81.2302C306.946 77.4449 317.616 70.5431 323.899 65.8524C330.323 61.0404 334.589 58.1449 334.589 52.233Z" fill="#B9141A"/>
<path fill-rule="evenodd" clip-rule="evenodd" d="M325.084 45.0217H323.743C323.134 45.0217 322.613 45.5318 322.613 46.1592V58.3154C322.613 58.9407 323.134 59.4523 323.743 59.4523H325.084C325.71 59.4523 326.215 58.9407 326.215 58.3154V46.1592C326.215 45.5318 325.71 45.0217 325.084 45.0217Z" fill="#EC1D25"/>
<path fill-rule="evenodd" clip-rule="evenodd" d="M284.072 41.4162H285.412C286.038 41.4162 286.545 40.9046 286.545 40.2811V20.9082C286.545 20.2791 286.038 19.7727 285.412 19.7727H284.072C283.446 19.7727 282.941 20.2791 282.941 20.9082V40.2811C282.941 40.9046 283.446 41.4162 284.072 41.4162Z" fill="#EC1D25"/>
<path fill-rule="evenodd" clip-rule="evenodd" d="M296.223 73.8815H294.9C294.255 73.8815 293.75 74.3916 293.75 75.0193V76.3519C293.75 76.9778 294.255 77.4891 294.9 77.4891H296.223C296.849 77.4891 297.371 76.9778 297.371 76.3519V75.0193C297.371 74.3916 296.849 73.8815 296.223 73.8815Z" fill="#EC1D25"/>
<path fill-rule="evenodd" clip-rule="evenodd" d="M255.21 34.1988H270.982C271.61 34.1988 272.113 33.6868 272.113 33.0613V26.9834H278.188C278.816 26.9834 279.32 26.4739 279.32 25.8567V17.3028C279.32 16.6721 278.816 16.1619 278.188 16.1619H276.849C276.239 16.1619 275.716 16.6721 275.716 17.3028V23.38H272.113V13.6868C272.113 13.0617 271.61 12.5563 270.982 12.5563H262.417C261.79 12.5563 261.286 13.0665 261.286 13.6921V25.8567C261.286 26.4739 261.807 26.9834 262.435 26.9834H268.51V30.5895H257.683V17.3028C257.683 16.6721 257.176 16.1657 256.551 16.1657H255.21C254.585 16.1657 254.079 16.6721 254.079 17.3028V33.0613C254.079 33.6868 254.585 34.1988 255.21 34.1988ZM268.51 23.38H264.89L264.906 16.1657H268.51V23.38Z" fill="#EC1D25"/>
<path fill-rule="evenodd" clip-rule="evenodd" d="M317.879 41.4161H316.537C315.91 41.4161 315.404 41.9264 315.404 42.5519V59.4525H309.312C308.704 59.4525 308.182 59.9675 308.182 60.5862V66.6685H304.578V60.5862C304.578 59.9609 304.056 59.4468 303.446 59.4468H291.279C290.652 59.4468 290.147 59.9609 290.147 60.5862V61.9222C290.147 62.5498 290.652 63.0601 291.279 63.0601H300.974V66.6685H286.545V55.8434H296.223C296.85 55.8434 297.372 55.3304 297.372 54.7107V53.374C297.372 52.7498 296.85 52.2329 296.223 52.2329H284.072C283.446 52.2329 282.941 52.7445 282.941 53.374V69.1351C282.941 69.7554 283.446 70.274 284.072 70.274H300.974V72.7445C300.974 73.3711 301.478 73.8814 302.106 73.8814H303.446C304.073 73.8814 304.578 73.3711 304.578 72.7445V70.274H310.654C311.28 70.274 311.786 69.7491 311.786 69.1251V63.0601H317.879C318.504 63.0601 319.009 62.5498 319.009 61.9222V42.5519C319.009 41.9264 318.504 41.4161 317.879 41.4161Z" fill="#EC1D25"/>
<path fill-rule="evenodd" clip-rule="evenodd" d="M289.016 73.8815H280.451C279.825 73.8815 279.32 74.3916 279.32 75.0193V81.0981H257.683V77.4891H274.584C275.212 77.4891 275.716 76.9778 275.716 76.3519V75.0242C275.716 74.3916 275.212 73.8815 274.584 73.8815H255.21C254.585 73.8815 254.079 74.3882 254.079 75.0124V83.5731C254.079 84.1956 254.601 84.7038 255.21 84.7038H281.792C282.417 84.7038 282.941 84.1956 282.941 83.5731V77.4925H286.543V79.9658C286.543 80.59 287.048 81.0981 287.658 81.0981H289.016C289.642 81.0981 290.147 80.59 290.147 79.9658V75.0193C290.147 74.3916 289.642 73.8815 289.016 73.8815Z" fill="#EC1D25"/>
<path fill-rule="evenodd" clip-rule="evenodd" d="M260.118 88.3114H258.849C258.204 88.3114 257.682 88.8363 257.682 89.4768V90.7567C257.682 91.3962 258.204 91.9194 258.849 91.9194H260.118C260.763 91.9194 261.285 91.3962 261.285 90.7567V89.4768C261.285 88.8363 260.763 88.3114 260.118 88.3114Z" fill="#EC1D25"/>
<path fill-rule="evenodd" clip-rule="evenodd" d="M267.344 88.3114H266.055C265.427 88.3114 264.889 88.8363 264.889 89.4768V90.7567C264.889 91.3962 265.427 91.9194 266.055 91.9194H267.344C267.988 91.9194 268.509 91.3962 268.509 90.7567V89.4768C268.509 88.8363 267.988 88.3114 267.344 88.3114Z" fill="#EC1D25"/>
<path fill-rule="evenodd" clip-rule="evenodd" d="M255.246 66.6704C254.601 66.6704 254.079 67.197 254.079 67.8386V69.1085C254.079 69.7493 254.601 70.2742 255.246 70.2742H256.515C257.16 70.2742 257.683 69.7493 257.683 69.1085V67.8386C257.683 67.197 257.16 66.6704 256.515 66.6704H255.246Z" fill="#EC1D25"/>
<path fill-rule="evenodd" clip-rule="evenodd" d="M262.451 66.6684C261.807 66.6684 261.285 67.1922 261.285 67.832V69.1083C261.285 69.7509 261.807 70.274 262.451 70.274H263.723C264.367 70.274 264.889 69.7509 264.889 69.1083V67.832C264.889 67.1922 264.367 66.6684 263.723 66.6684H262.451Z" fill="#EC1D25"/>
<path fill-rule="evenodd" clip-rule="evenodd" d="M268.509 67.8319V69.1082C268.509 69.749 269.031 70.2739 269.676 70.2739H278.187C278.815 70.2739 279.32 69.7609 279.32 69.135V53.3738C279.32 52.7444 278.815 52.2327 278.187 52.2327H276.848C276.238 52.2327 275.716 52.7444 275.716 53.3738V66.6683H269.676C269.031 66.6683 268.509 67.1921 268.509 67.8319Z" fill="#EC1D25"/>
<path fill-rule="evenodd" clip-rule="evenodd" d="M302.14 52.2327C301.498 52.2327 300.974 52.7615 300.974 53.4037V54.6823C300.974 55.3222 301.498 55.8432 302.14 55.8432H303.412C304.056 55.8432 304.577 55.3222 304.577 54.6823V53.4037C304.577 52.7615 304.056 52.2327 303.412 52.2327H302.14Z" fill="#EC1D25"/>
<path fill-rule="evenodd" clip-rule="evenodd" d="M298.519 30.5893H299.808C300.453 30.5893 300.974 30.0707 300.974 29.4302V28.1533C300.974 27.5128 300.453 26.9833 299.808 26.9833H298.519C297.894 26.9833 297.372 27.5128 297.372 28.1533V29.4302C297.372 30.0707 297.894 30.5893 298.519 30.5893Z" fill="#EC1D25"/>
<path fill-rule="evenodd" clip-rule="evenodd" d="M278.154 30.5893H276.883C276.239 30.5893 275.716 31.1183 275.716 31.7605V33.0371C275.716 33.6801 276.239 34.1987 276.883 34.1987H278.154C278.798 34.1987 279.32 33.6801 279.32 33.0371V31.7605C279.32 31.1183 278.798 30.5893 278.154 30.5893Z" fill="#EC1D25"/>
<path fill-rule="evenodd" clip-rule="evenodd" d="M270.946 45.0255H269.676C269.031 45.0255 268.509 45.5508 268.509 46.1881V47.4696C268.509 48.1037 269.031 48.6311 269.676 48.6311H270.946C271.59 48.6311 272.112 48.1037 272.112 47.4696V46.1881C272.112 45.5508 271.59 45.0255 270.946 45.0255Z" fill="#EC1D25"/>
<path fill-rule="evenodd" clip-rule="evenodd" d="M310.618 52.2327H309.348C308.721 52.2327 308.182 52.7615 308.182 53.4037V54.6789C308.182 55.3222 308.721 55.8432 309.348 55.8432H310.618C311.28 55.8432 311.786 55.3222 311.786 54.6789V53.4037C311.786 52.7615 311.28 52.2327 310.618 52.2327Z" fill="#EC1D25"/>
<path fill-rule="evenodd" clip-rule="evenodd" d="M255.21 63.06H270.982C271.61 63.06 272.113 62.5497 272.113 61.9221V53.3739C272.113 52.7497 271.61 52.2394 270.982 52.2394H264.906V41.416H275.716V47.468C275.716 48.1055 276.239 48.6323 276.883 48.6323H310.654C311.28 48.6323 311.784 48.1156 311.784 47.4935V35.3302C311.784 34.7102 311.28 34.1986 310.654 34.1986H302.123C301.498 34.1986 300.974 34.7102 300.974 35.3302V37.8108H293.751V24.5135C293.751 23.8914 293.246 23.378 292.619 23.378H291.279C290.652 23.378 290.147 23.8914 290.147 24.5135V45.0216H279.32V38.941C279.32 38.3186 278.816 37.8108 278.188 37.8108H262.435C261.807 37.8108 261.286 38.3186 261.286 38.941V54.7161C261.286 55.3348 261.807 55.8432 262.435 55.8432H268.51V59.4467H257.683V38.9459C257.683 38.3238 257.176 37.8108 256.551 37.8108H255.21C254.585 37.8108 254.079 38.3137 254.079 38.941V61.9221C254.079 62.5497 254.585 63.06 255.21 63.06ZM293.751 41.416H304.578V37.8108H308.182V45.0216H293.751V41.416Z" fill="#EC1D25"/>
<path fill-rule="evenodd" clip-rule="evenodd" d="M220.082 24.711C219.664 24.711 219.159 24.5986 219.159 24.3738V21.4454C219.159 21.2465 219.664 21.1055 220.082 21.1055H222.71C223.598 21.1055 223.825 21.0783 223.825 20.1737V15.696C223.825 14.5404 223.806 13.2702 223.772 11.9208C223.772 11.6094 223.999 11.3852 224.347 11.3852H226.715C227.132 11.3852 227.307 11.6094 227.324 11.9208C227.359 13.1312 227.377 14.0047 227.377 14.8225V18.5688C227.377 20.9627 227.377 22.5711 227.271 23.5822C227.184 23.9472 227.08 24.2043 226.627 24.4031C225.844 24.6261 223.598 24.711 222.084 24.711H220.082ZM221.719 27.8102C221.719 27.4442 222.032 27.1621 222.363 27.1621H224.539C224.905 27.1621 225.234 27.4442 225.234 27.8102V30.0658C225.234 30.3737 224.905 30.6558 224.539 30.6558H222.363C222.032 30.6558 221.719 30.3737 221.719 30.0658V27.8102ZM209.742 24.711C209.325 24.711 208.819 24.5986 208.819 24.3738V21.4454C208.819 21.2465 209.325 21.1055 209.742 21.1055H212.388C213.032 21.1055 214.025 21.0183 214.025 20.1452V12.0037C214.025 11.6924 214.251 11.4666 214.6 11.4666H217.035C217.35 11.4666 217.576 11.6924 217.576 12.0037V20.6259C217.802 21.0183 218.899 21.1055 219.404 21.1055H220.082V24.711H219.752C218.307 24.711 216.74 24.5424 215.747 23.7536C214.704 24.4864 213.066 24.711 211.866 24.711H209.742ZM214.006 6.67968C214.006 6.31082 214.303 6.02834 214.668 6.02834H216.896C217.245 6.02834 217.523 6.31082 217.523 6.67968V8.87774C217.523 9.21416 217.245 9.49812 216.879 9.49812H214.668C214.251 9.49812 214.006 9.21416 214.006 8.87774V6.67968ZM189.566 15.8086C189.881 15.8086 190.055 15.9781 190.055 16.3421C190.02 16.7656 190.02 17.4149 190.02 17.6102C190.02 20.3134 191.377 21.1055 195.12 21.1055H201.943C202.622 21.1055 203.544 21.0183 203.544 20.1452V3.85916C203.544 3.52446 203.807 3.27085 204.12 3.27085H206.644C206.956 3.27085 207.219 3.52446 207.219 3.85916V20.6259C207.444 21.0183 208.454 21.1055 208.976 21.1055H209.724V24.711H209.377C208.245 24.711 206.607 24.5682 205.495 23.9222C204.485 24.5682 202.866 24.711 201.595 24.711H194.492C188.469 24.711 186.694 22.4854 186.694 18.5688C186.694 18.2035 186.729 16.9353 186.868 16.3707C186.974 15.9479 187.095 15.8086 187.46 15.8086H189.566ZM193.605 13.5268C193.605 13.299 193.762 13.1872 194.111 13.1872H194.528C194.302 12.8201 194.163 12.1451 194.163 11.6094C194.163 9.78023 195.312 8.79062 197.348 8.79062C197.678 8.79062 198.219 8.81987 198.758 8.96104C199.001 9.01707 199.123 9.18565 199.123 9.43853V10.4538C199.123 10.7084 199.001 10.821 198.758 10.821C198.532 10.821 197.853 10.7662 197.627 10.7662C196.757 10.7662 196.356 11.242 196.356 11.9477C196.356 12.5376 196.617 12.9877 196.808 13.1054H198.933C199.263 13.1054 199.436 13.243 199.436 13.4944V14.6522C199.436 14.9074 199.263 15.0485 198.933 15.0485H194.111C193.762 15.0485 193.605 14.9074 193.605 14.6522V13.5268ZM173.709 5.41115C173.396 5.41115 173.257 5.29799 173.257 5.07326V4.25579C173.257 4.06005 173.396 3.97331 173.709 3.97331H174.248C173.935 3.52446 173.796 2.93443 173.796 2.367C173.796 0.789206 174.719 0 176.616 0C176.912 0 177.487 0.0309637 177.938 0.170669C178.131 0.197455 178.251 0.311357 178.251 0.450694V1.21275C178.251 1.40983 178.131 1.49486 177.886 1.49486H176.895C175.901 1.49486 175.483 1.80278 175.483 2.62024C175.483 3.27085 175.746 3.74907 176.075 3.94787H178.043C178.357 3.94787 178.496 4.03081 178.496 4.22802V5.07326C178.496 5.29799 178.357 5.41115 178.043 5.41115H173.709ZM174.214 7.75063C174.214 7.43965 174.44 7.18604 174.769 7.18604H177.313C177.66 7.18604 177.886 7.43965 177.886 7.75063V24.1193C177.886 24.4285 177.66 24.711 177.313 24.711H174.769C174.44 24.711 174.214 24.4285 174.214 24.1193V7.75063ZM161.68 24.711C161.245 24.711 160.757 24.5986 160.757 24.3738V21.4454C160.757 21.2465 161.245 21.1055 161.68 21.1055H164.587C165.475 21.1055 165.701 21.0783 165.701 20.1737V15.7793C165.701 14.6268 165.684 13.3554 165.65 12.0037C165.65 11.6924 165.876 11.4666 166.224 11.4666H168.573C169.009 11.4666 169.165 11.6924 169.201 12.0037C169.235 13.2144 169.252 14.0914 169.252 14.9074V18.5688C169.252 20.9627 169.252 22.5711 169.148 23.5822C169.061 23.9472 168.939 24.2043 168.503 24.4031C167.703 24.6261 165.475 24.711 163.96 24.711H161.68ZM163.594 27.8102C163.594 27.4442 163.909 27.1621 164.239 27.1621H166.415C166.78 27.1621 167.112 27.4442 167.112 27.8102V30.0658C167.112 30.3737 166.78 30.6558 166.415 30.6558H164.239C163.909 30.6558 163.594 30.3737 163.594 30.0658V27.8102ZM148.156 28.6854C148.156 28.3706 148.329 28.2041 148.659 28.2041H151.219C154.16 28.2041 155.71 27.6963 155.71 25.5573V24.711H153.638C149.565 24.711 147.11 22.5979 147.11 18.5145V17.9506C147.11 13.5268 149.808 10.9905 154.665 10.9905C156.093 10.9905 158.007 11.188 158.807 11.4666C159.173 11.6094 159.278 11.6924 159.278 12.0037V21.1055H161.767V24.711H159.226V25.6699C158.86 30.2901 155.85 31.4154 151.984 31.4154C151.339 31.4154 149.026 31.4154 148.608 31.2743C148.242 31.1911 148.156 31.0497 148.156 30.7405V28.6854ZM150.661 18.0624C150.661 20.203 151.532 21.2159 153.638 21.2159H155.761V14.3447C155.222 14.2868 154.631 14.2579 154.039 14.2579C151.897 14.2579 150.661 15.5261 150.661 17.697V18.0624ZM132.21 5.26862C132.21 4.90504 132.506 4.62084 132.889 4.62084H135.1C135.447 4.62084 135.726 4.90504 135.726 5.26862V7.46852C135.726 7.80642 135.447 8.0889 135.081 8.0889H132.889C132.453 8.0889 132.21 7.80642 132.21 7.46852V5.26862ZM120.181 21.6101C120.181 21.3025 120.424 21.1055 120.739 21.1055H124.394V3.85916C124.394 3.52446 124.62 3.27085 124.968 3.27085H127.527C127.839 3.27085 128.065 3.52446 128.065 3.85916V12.4544C130.034 11.1031 132.941 10.9345 134.263 10.9345C139.085 10.9345 142.184 12.9051 142.184 18.4859V19.6384C142.184 20.8811 142.063 22.6269 141.818 23.7536C141.731 24.1193 141.506 24.4864 140.913 24.5682C139.868 24.711 135.673 24.711 134.071 24.711H120.739C120.424 24.711 120.181 24.5118 120.181 24.2043V21.6101ZM138.058 21.1886C138.545 21.1886 138.633 20.8811 138.633 19.3306V18.9073C138.633 15.4699 137.031 14.3697 133.34 14.3697C132.071 14.3697 129.476 14.5404 128.065 15.5825V21.1322C128.936 21.1611 130.016 21.1886 131.444 21.1886H138.058ZM94.5919 18.7931C94.5919 17.9774 94.7313 16.2861 94.9572 15.0758C95.0105 14.7086 95.2188 14.5133 95.5149 14.5133H97.6911C98.0568 14.5133 98.1954 14.6807 98.1773 15.0485C98.0906 15.8642 98.0205 16.7928 98.0205 17.3281C98.0205 21.2465 98.682 24.1754 103.714 24.1754C104.741 24.1754 105.558 24.1193 106.342 24.0054C106.429 22.1204 106.429 21.2465 106.429 19.723V17.2463C106.429 12.963 109.023 10.9905 113.671 10.9905C115.168 10.9905 116.734 11.1587 117.727 11.3562C118.039 11.4408 118.196 11.5551 118.196 11.9208V20.119C118.196 20.9358 118.51 21.1055 119.501 21.1055H120.79V24.711H118.563C115.969 24.711 114.627 24.0921 114.627 21.1611V14.4007C114.072 14.3157 113.776 14.2868 113.235 14.2868C111.112 14.2868 109.997 15.1043 109.997 17.5846V22.2339C109.997 23.5822 109.98 25.3335 109.893 26.6573C109.893 26.9924 109.684 27.1896 109.266 27.2745C107.7 27.5277 105.698 27.6963 103.644 27.6963C97.186 27.6963 94.5919 24.6261 94.5919 18.7931ZM99.1358 30.234C99.1358 29.8668 99.4318 29.6426 99.7785 29.6426H101.659C102.007 29.6426 102.303 29.8668 102.303 30.234V32.2364C102.303 32.5442 101.973 32.7978 101.659 32.7978H99.7785C99.4318 32.7978 99.1358 32.5442 99.1358 32.2364V30.234ZM104.375 30.234C104.375 29.8668 104.671 29.6426 104.984 29.6426H106.899C107.212 29.6426 107.525 29.8668 107.525 30.234V32.2364C107.525 32.5442 107.212 32.7978 106.899 32.7978H104.984C104.671 32.7978 104.375 32.5442 104.375 32.2364V30.234ZM82.1635 3.83372C82.1635 3.52446 82.3896 3.27085 82.738 3.27085H85.2607C85.6096 3.27085 85.835 3.52446 85.835 3.83372V24.1193C85.835 24.4285 85.6096 24.711 85.2607 24.711H82.738C82.3896 24.711 82.1635 24.4285 82.1635 24.1193V3.83372ZM70.3946 21.4454C70.3946 21.2465 70.9 21.1055 71.3179 21.1055H73.8065C74.6958 21.1055 74.9047 21.0783 74.9047 20.1737V3.85916C74.9047 3.52446 75.1478 3.27085 75.4609 3.27085H78.0196C78.3338 3.27085 78.5597 3.52446 78.5597 3.85916V20.2316C78.5597 21.2465 78.5256 22.5711 78.4204 23.5822C78.3338 23.9472 78.2278 24.2043 77.776 24.4031C76.9582 24.6261 74.6432 24.711 73.1284 24.711H71.3179C70.9 24.711 70.3946 24.5986 70.3946 24.3738V21.4454ZM60.0728 21.4454C60.0728 21.2465 60.5774 21.1055 61.0125 21.1055H63.624C64.268 21.1055 65.2611 21.0183 65.2611 20.1452V12.0037C65.2611 11.6924 65.487 11.4666 65.8336 11.4666H68.2717C68.5845 11.4666 68.8119 11.6924 68.8119 12.0037V20.6259C69.0383 21.0183 70.1348 21.1055 70.6398 21.1055H71.3179V24.711H70.9877C69.543 24.711 67.9586 24.5424 66.983 23.7536C65.9392 24.4864 64.3022 24.711 63.1023 24.711H61.0125C60.5774 24.711 60.0728 24.5986 60.0728 24.3738V21.4454ZM62.7195 6.64897C62.7195 6.28502 63.0327 6.00118 63.3976 6.00118H65.3478C65.7131 6.00118 66.043 6.28502 66.043 6.64897V8.84677C66.043 9.18566 65.6772 9.46568 65.3478 9.46568H63.3976C63.0327 9.46568 62.7195 9.18566 62.7195 8.84677V6.64897ZM67.9415 6.64897C67.9415 6.28502 68.2717 6.00118 68.6204 6.00118H70.5868C70.9526 6.00118 71.2312 6.28502 71.2312 6.64897V8.84677C71.2312 9.18566 70.9526 9.46568 70.5868 9.46568H68.6204C68.2717 9.46568 67.9415 9.18566 67.9415 8.84677V6.64897ZM43.9368 24.711C43.483 24.711 43.0141 24.5118 43.0141 24.3738V21.4454C43.0141 21.2465 43.5018 21.1055 43.9368 21.1055H56.192L54.8675 18.1745C53.7711 15.7793 51.8567 14.2579 48.27 14.2579C48.0102 14.2579 47.1732 14.2868 46.7573 14.3157C46.3557 14.3447 46.1642 14.2032 46.1642 13.8619V11.7812C46.1642 11.4972 46.3557 11.3273 46.7214 11.242C47.6615 11.0465 48.4978 10.9905 49.4887 10.9905C53.5979 10.9905 56.5571 12.6226 58.8029 17.7238C59.3943 19.0752 59.9335 20.4273 60.1428 20.7091C60.3344 21.0183 60.474 21.1055 60.7868 21.1055H61.0655V24.711H43.9368ZM49.8544 27.8102C49.8544 27.4442 50.1502 27.1621 50.4987 27.1621H52.6746C53.0403 27.1621 53.3715 27.4442 53.3715 27.8102V30.0658C53.3715 30.3737 53.0403 30.6558 52.6746 30.6558H50.4987C50.1502 30.6558 49.8544 30.3737 49.8544 30.0658V27.8102ZM37.7556 3.83372C37.7556 3.52446 38.0178 3.27085 38.3494 3.27085H40.8548C41.2204 3.27085 41.4294 3.52446 41.4294 3.83372V19.6674C41.4294 20.9358 41.9512 21.1055 43.0141 21.1055H43.9368V24.711H41.9512C39.393 24.711 37.7556 24.0361 37.7556 20.7383V3.83372ZM26.128 28.7126C26.128 28.4284 26.3032 28.2894 26.5992 28.2894H27.1907C29.3139 28.2894 30.062 28.0919 30.062 25.7838V12.0037C30.062 11.6924 30.288 11.4666 30.6367 11.4666H33.0911C33.3872 11.4666 33.6133 11.6924 33.6133 12.0037V25.362C33.6133 26.7966 33.5433 28.1191 32.9689 29.2211C32.0986 30.8236 30.6552 31.4154 28.2871 31.4154C27.9913 31.4154 26.9984 31.4154 26.5295 31.3307C26.2677 31.2743 26.128 31.1065 26.128 30.7965V28.7126ZM1.32222 18.7931C1.32222 17.9506 1.49769 16.2861 1.72414 15.0758C1.81052 14.6522 1.8969 14.5133 2.31552 14.5133H4.49097C4.80417 14.5133 4.96046 14.6807 4.96046 15.0485C4.87384 15.8642 4.80417 16.7928 4.80417 17.3281C4.80417 21.2465 5.44851 24.1754 10.4971 24.1754C11.5068 24.1754 12.3245 24.1193 13.1082 24.0054C13.195 22.1204 13.195 21.2465 13.195 19.723V17.2463C13.195 12.9336 15.7535 10.9905 20.6103 10.9905C21.9328 10.9905 23.57 11.1302 24.6136 11.3562C24.9093 11.4408 25.0845 11.5551 25.0845 11.9208V24.1193C25.0845 24.4557 24.8585 24.711 24.5265 24.711H22.0383C21.7234 24.711 21.4974 24.4557 21.4974 24.1193V14.4007C20.8362 14.3157 20.5406 14.2868 20.0185 14.2868C17.8768 14.2868 16.78 15.1043 16.78 17.5846V22.2339C16.78 23.5822 16.7458 25.3335 16.6577 26.6573C16.6577 26.9924 16.4673 27.1896 16.0322 27.2745C14.4648 27.5277 12.4284 27.6963 10.409 27.6963C3.95082 27.6963 1.32222 24.6261 1.32222 18.7931ZM5.90092 30.234C5.90092 29.8668 6.17959 29.6426 6.54526 29.6426H8.408C8.77367 29.6426 9.05197 29.8668 9.05197 30.234V32.2364C9.05197 32.5442 8.73779 32.7978 8.408 32.7978H6.54526C6.17959 32.7978 5.90092 32.5442 5.90092 32.2364V30.234ZM11.1059 30.234C11.1059 29.8668 11.4186 29.6426 11.7502 29.6426H13.6645C13.9786 29.6426 14.2911 29.8668 14.2911 30.234V32.2364C14.2911 32.5442 13.9786 32.7978 13.6645 32.7978H11.7502C11.4186 32.7978 11.1059 32.5442 11.1059 32.2364V30.234ZM85.2098 39.5855H67.5744C67.0359 39.5855 65.5383 40.0957 65.5383 42.4039V96.6732C65.5383 99.2061 67.5744 99.2061 67.5744 99.2061H85.2098C103.017 99.2061 115.324 88.078 115.324 69.5398C115.324 50.662 103.017 39.5855 85.2098 39.5855ZM84.1645 91.9093H73.5805V46.8562H84.1645C97.7775 46.8562 106.306 54.9715 106.306 69.5398C106.306 83.7942 97.7775 91.9093 84.1645 91.9093ZM176.111 86.3034C175.433 85.091 174.354 85.5977 173.674 86.3034C171.149 88.5864 165.145 92.36 157.05 92.36C143.96 92.36 134.908 81.8524 134.908 68.9773C134.908 56.6921 143.455 46.4636 156.544 46.4636C163.561 46.4636 168.573 49.1682 171.533 51.1685C173.674 52.4644 174.161 52.4644 175.433 51.1685C176.111 49.8985 177.154 48.1536 177.154 48.1536C177.154 48.1536 178.391 46.4636 177.154 45.588C174.161 43.672 167.285 38.8544 156.544 38.8544C139.19 38.8544 126.378 51.901 126.378 68.9773C126.378 86.3034 138.633 99.8822 156.544 99.8822C168.138 99.8822 175.433 94.3898 178.391 91.9093C179.679 91.0935 179.14 90.3318 178.635 89.319C178.391 88.8976 177.154 87.3723 176.111 86.3034ZM220.866 67.7074C225.686 65.7608 228.682 60.9723 228.682 54.9715C228.682 45.0833 221.387 39.5855 211.1 39.5855H192.944C190.751 39.5855 190.246 41.8992 190.246 42.4039V96.6732C190.246 97.433 190.246 99.2061 192.944 99.2061H211.57C222.137 99.2061 230.682 93.6583 230.682 82.0789C230.682 75.8489 227.098 69.7933 220.866 67.7074ZM198.793 46.8562H211.1C216.618 46.8562 220.134 50.662 220.134 55.9864C220.134 60.9723 216.618 64.6914 211.1 64.6914H198.793V46.8562ZM212.092 91.9093H198.793V71.5404H212.092C218.377 71.5404 222.137 75.8489 222.137 81.8524C222.137 88.078 218.377 91.9093 212.092 91.9093ZM33.9612 42.4039C33.1086 40.6021 32.7258 39.5855 30.1314 39.5855H25.1357C22.856 39.5855 22.0721 40.6021 21.394 42.4039C20.853 43.842 0 97.433 0 97.433C0 97.433 0 99.2061 2.00072 99.2061H7.32857C8.51146 99.2061 9.05197 97.9397 9.05197 97.9397L14.8306 82.0789H40.5252L46.2331 97.9397C46.2331 97.9397 46.7573 99.2061 47.991 99.2061H53.0573C55.2331 99.2061 55.2331 97.433 55.2331 97.433C55.2331 97.433 34.5189 43.842 33.9612 42.4039ZM17.3902 75.3424L23.3608 58.721L27.6769 47.9015L31.8725 58.721L37.7047 75.3424H17.3902ZM115.082 27.8102C115.082 27.4442 115.377 27.1621 115.724 27.1621H117.9C118.265 27.1621 118.597 27.4442 118.597 27.8102V30.0658C118.597 30.3737 118.265 30.6558 117.9 30.6558H115.724C115.377 30.6558 115.082 30.3737 115.082 30.0658V27.8102Z" fill="#243841"/>
</svg>
