<svg width="82" height="22" viewBox="0 0 82 22" fill="none" xmlns="http://www.w3.org/2000/svg">
<g filter="url(#filter0_d)">
<path d="M82 0C81.6986 1.14758 78.4111 13.3232 77.4248 16.2901C76.603 18.8372 73.9729 21.4682 69.2608 22C68.8498 21.972 11.9447 22 11.1228 22H10.7667C10.6023 22 10.4379 22 10.2736 22C4.54776 21.7481 0 16.9338 0 11.028C0 7.9771 1.20543 5.2341 3.15056 3.24682C5.09569 1.23155 7.80791 0 10.7667 0H82Z" fill="#006DC3"/>
</g>
<g filter="url(#filter1_d)">
<path d="M12.1576 15.1428C13.2913 15.1428 14.5007 14.8037 15.3888 14.2009L14.6518 12.5245C14.085 12.9577 13.1591 13.1838 12.3465 13.1838C10.6459 13.1838 9.83338 12.1478 9.83338 11.3755C9.83338 11.319 9.83338 11.2059 9.83338 11.1494H16.617C16.6926 10.8669 16.806 10.1888 16.806 9.6425C16.806 7.09957 15.0487 5.59265 12.7056 5.59265C9.66331 5.59265 7.43359 8.09791 7.43359 11.0552C7.43359 13.5982 9.28539 15.1428 12.1576 15.1428ZM14.6329 9.49181H10.0979C10.2869 8.49348 11.2506 7.55165 12.5544 7.55165C13.9905 7.55165 14.6707 8.38046 14.6707 9.30345C14.6707 9.34112 14.6707 9.45414 14.6518 9.49181H14.6329Z" fill="white"/>
</g>
<g filter="url(#filter2_d)">
<path d="M25.8521 14.9167L23.6224 10.2453L27.6661 5.81866H24.9073L22.3941 8.60647L21.147 5.81866H18.5394L20.599 10.2453L16.3286 14.9167H19.0685L21.8462 11.8464L23.2634 14.9167H25.8521Z" fill="white"/>
</g>
<g filter="url(#filter3_d)">
<path d="M32.6152 15.1428C35.7141 15.1428 37.4147 12.0913 37.4147 9.35996C37.4147 6.94888 36.0164 5.59265 33.9568 5.59265C32.8608 5.59265 31.9727 6.04473 31.198 6.94888L31.4625 5.81869H29.0627L26.2661 18.3827H28.6659L29.7052 13.7112C30.3099 14.6153 31.3869 15.1428 32.6152 15.1428ZM32.2184 13.0142C31.2547 13.0142 30.4799 12.581 30.0831 11.9594L30.8012 8.8137C31.2925 8.19209 32.0483 7.72118 32.8797 7.72118C34.0513 7.72118 34.9016 8.54999 34.9016 9.84971C34.9016 11.5262 33.8056 13.0142 32.2184 13.0142Z" fill="white"/>
</g>
<g filter="url(#filter4_d)">
<path d="M40.4568 14.9167L41.7795 8.94555C42.3086 8.34278 43.159 7.85303 44.0471 7.85303C44.425 7.85303 44.7651 7.92838 44.9163 7.96605L45.4454 5.59265C43.9904 5.59265 43.0078 6.13891 42.2142 7.00539L42.4787 5.81869H40.0789L38.0571 14.9167H40.4568Z" fill="white"/>
</g>
<g filter="url(#filter5_d)">
<path d="M49.9496 15.1428C51.0834 15.1428 52.2927 14.8037 53.1808 14.2009L52.4439 12.5245C51.877 12.9577 50.9511 13.1838 50.1386 13.1838C48.438 13.1838 47.6254 12.1478 47.6254 11.3755C47.6254 11.319 47.6254 11.2059 47.6254 11.1494H54.4091C54.4847 10.8669 54.598 10.1888 54.598 9.6425C54.598 7.09957 52.8407 5.59265 50.4976 5.59265C47.4554 5.59265 45.2256 8.09791 45.2256 11.0552C45.2256 13.5982 47.0775 15.1428 49.9496 15.1428ZM52.425 9.49181H47.89C48.0789 8.49348 49.0426 7.55165 50.3464 7.55165C51.7825 7.55165 52.4628 8.38046 52.4628 9.30345C52.4628 9.34112 52.4628 9.45414 52.4439 9.49181H52.425Z" fill="white"/>
</g>
<g filter="url(#filter6_d)">
<path d="M59.2791 15.1428C61.7734 15.1428 63.2284 13.6924 63.2284 11.9594C63.2284 9.19043 58.58 9.4353 58.58 8.32395C58.58 7.85303 59.0524 7.4763 59.9027 7.4763C61.0175 7.4763 62.1513 8.09791 62.5859 8.663L63.833 7.0619C62.9638 6.17658 61.5088 5.59265 59.9594 5.59265C57.5218 5.59265 56.1991 7.08074 56.1991 8.663C56.1991 11.3943 60.8475 11.0929 60.8475 12.3173C60.8475 12.8259 60.3373 13.2591 59.5248 13.2591C58.202 13.2591 56.8793 12.468 56.3313 11.8275L54.9897 13.504C56.0101 14.5777 57.6163 15.1428 59.2791 15.1428Z" fill="white"/>
</g>
<g filter="url(#filter7_d)">
<path d="M68.284 15.1428C70.7783 15.1428 72.2332 13.6924 72.2332 11.9594C72.2332 9.19043 67.5848 9.4353 67.5848 8.32395C67.5848 7.85303 68.0572 7.4763 68.9076 7.4763C70.0224 7.4763 71.1562 8.09791 71.5908 8.663L72.8379 7.0619C71.9687 6.17658 70.5137 5.59265 68.9642 5.59265C66.5267 5.59265 65.204 7.08074 65.204 8.663C65.204 11.3943 69.8524 11.0929 69.8524 12.3173C69.8524 12.8259 69.3422 13.2591 68.5296 13.2591C67.2069 13.2591 65.8842 12.468 65.3362 11.8275L63.9946 13.504C65.015 14.5777 66.6212 15.1428 68.284 15.1428Z" fill="white"/>
</g>
<defs>
<filter id="filter0_d" x="-4" y="0" width="90" height="30" filterUnits="userSpaceOnUse" color-interpolation-filters="sRGB">
<feFlood flood-opacity="0" result="BackgroundImageFix"/>
<feColorMatrix in="SourceAlpha" type="matrix" values="0 0 0 0 0 0 0 0 0 0 0 0 0 0 0 0 0 0 127 0"/>
<feOffset dy="4"/>
<feGaussianBlur stdDeviation="2"/>
<feColorMatrix type="matrix" values="0 0 0 0 0 0 0 0 0 0 0 0 0 0 0 0 0 0 0.25 0"/>
<feBlend mode="normal" in2="BackgroundImageFix" result="effect1_dropShadow"/>
<feBlend mode="normal" in="SourceGraphic" in2="effect1_dropShadow" result="shape"/>
</filter>
<filter id="filter1_d" x="3.43359" y="5.59265" width="17.3724" height="17.5501" filterUnits="userSpaceOnUse" color-interpolation-filters="sRGB">
<feFlood flood-opacity="0" result="BackgroundImageFix"/>
<feColorMatrix in="SourceAlpha" type="matrix" values="0 0 0 0 0 0 0 0 0 0 0 0 0 0 0 0 0 0 127 0"/>
<feOffset dy="4"/>
<feGaussianBlur stdDeviation="2"/>
<feColorMatrix type="matrix" values="0 0 0 0 0 0 0 0 0 0 0 0 0 0 0 0 0 0 0.25 0"/>
<feBlend mode="normal" in2="BackgroundImageFix" result="effect1_dropShadow"/>
<feBlend mode="normal" in="SourceGraphic" in2="effect1_dropShadow" result="shape"/>
</filter>
<filter id="filter2_d" x="12.3286" y="5.81866" width="19.3375" height="17.098" filterUnits="userSpaceOnUse" color-interpolation-filters="sRGB">
<feFlood flood-opacity="0" result="BackgroundImageFix"/>
<feColorMatrix in="SourceAlpha" type="matrix" values="0 0 0 0 0 0 0 0 0 0 0 0 0 0 0 0 0 0 127 0"/>
<feOffset dy="4"/>
<feGaussianBlur stdDeviation="2"/>
<feColorMatrix type="matrix" values="0 0 0 0 0 0 0 0 0 0 0 0 0 0 0 0 0 0 0.25 0"/>
<feBlend mode="normal" in2="BackgroundImageFix" result="effect1_dropShadow"/>
<feBlend mode="normal" in="SourceGraphic" in2="effect1_dropShadow" result="shape"/>
</filter>
<filter id="filter3_d" x="22.2661" y="5.59265" width="19.1486" height="20.7901" filterUnits="userSpaceOnUse" color-interpolation-filters="sRGB">
<feFlood flood-opacity="0" result="BackgroundImageFix"/>
<feColorMatrix in="SourceAlpha" type="matrix" values="0 0 0 0 0 0 0 0 0 0 0 0 0 0 0 0 0 0 127 0"/>
<feOffset dy="4"/>
<feGaussianBlur stdDeviation="2"/>
<feColorMatrix type="matrix" values="0 0 0 0 0 0 0 0 0 0 0 0 0 0 0 0 0 0 0.25 0"/>
<feBlend mode="normal" in2="BackgroundImageFix" result="effect1_dropShadow"/>
<feBlend mode="normal" in="SourceGraphic" in2="effect1_dropShadow" result="shape"/>
</filter>
<filter id="filter4_d" x="34.0571" y="5.59265" width="15.3883" height="17.3241" filterUnits="userSpaceOnUse" color-interpolation-filters="sRGB">
<feFlood flood-opacity="0" result="BackgroundImageFix"/>
<feColorMatrix in="SourceAlpha" type="matrix" values="0 0 0 0 0 0 0 0 0 0 0 0 0 0 0 0 0 0 127 0"/>
<feOffset dy="4"/>
<feGaussianBlur stdDeviation="2"/>
<feColorMatrix type="matrix" values="0 0 0 0 0 0 0 0 0 0 0 0 0 0 0 0 0 0 0.25 0"/>
<feBlend mode="normal" in2="BackgroundImageFix" result="effect1_dropShadow"/>
<feBlend mode="normal" in="SourceGraphic" in2="effect1_dropShadow" result="shape"/>
</filter>
<filter id="filter5_d" x="41.2256" y="5.59265" width="17.3724" height="17.5501" filterUnits="userSpaceOnUse" color-interpolation-filters="sRGB">
<feFlood flood-opacity="0" result="BackgroundImageFix"/>
<feColorMatrix in="SourceAlpha" type="matrix" values="0 0 0 0 0 0 0 0 0 0 0 0 0 0 0 0 0 0 127 0"/>
<feOffset dy="4"/>
<feGaussianBlur stdDeviation="2"/>
<feColorMatrix type="matrix" values="0 0 0 0 0 0 0 0 0 0 0 0 0 0 0 0 0 0 0.25 0"/>
<feBlend mode="normal" in2="BackgroundImageFix" result="effect1_dropShadow"/>
<feBlend mode="normal" in="SourceGraphic" in2="effect1_dropShadow" result="shape"/>
</filter>
<filter id="filter6_d" x="50.9897" y="5.59265" width="16.8433" height="17.5501" filterUnits="userSpaceOnUse" color-interpolation-filters="sRGB">
<feFlood flood-opacity="0" result="BackgroundImageFix"/>
<feColorMatrix in="SourceAlpha" type="matrix" values="0 0 0 0 0 0 0 0 0 0 0 0 0 0 0 0 0 0 127 0"/>
<feOffset dy="4"/>
<feGaussianBlur stdDeviation="2"/>
<feColorMatrix type="matrix" values="0 0 0 0 0 0 0 0 0 0 0 0 0 0 0 0 0 0 0.25 0"/>
<feBlend mode="normal" in2="BackgroundImageFix" result="effect1_dropShadow"/>
<feBlend mode="normal" in="SourceGraphic" in2="effect1_dropShadow" result="shape"/>
</filter>
<filter id="filter7_d" x="59.9946" y="5.59265" width="16.8433" height="17.5501" filterUnits="userSpaceOnUse" color-interpolation-filters="sRGB">
<feFlood flood-opacity="0" result="BackgroundImageFix"/>
<feColorMatrix in="SourceAlpha" type="matrix" values="0 0 0 0 0 0 0 0 0 0 0 0 0 0 0 0 0 0 127 0"/>
<feOffset dy="4"/>
<feGaussianBlur stdDeviation="2"/>
<feColorMatrix type="matrix" values="0 0 0 0 0 0 0 0 0 0 0 0 0 0 0 0 0 0 0.25 0"/>
<feBlend mode="normal" in2="BackgroundImageFix" result="effect1_dropShadow"/>
<feBlend mode="normal" in="SourceGraphic" in2="effect1_dropShadow" result="shape"/>
</filter>
</defs>
</svg>
