<svg width="171" height="100" viewBox="0 0 171 100" fill="none" xmlns="http://www.w3.org/2000/svg">
<path fill-rule="evenodd" clip-rule="evenodd" d="M170.977 0L122.84 26.3446H142.116C132.161 47.6461 134.227 72.604 147.53 91.9768C141.785 57.6092 155.849 24.3373 170.977 0Z" fill="#DC3F37"/>
<path fill-rule="evenodd" clip-rule="evenodd" d="M0.000488281 90.2267H5.58228V91.5576H1.61282V94.2077H5.1625V95.4655H1.61282V99.8768H0.000488281V90.2267Z" fill="#1B477A"/>
<path fill-rule="evenodd" clip-rule="evenodd" d="M6.6123 90.0425C6.6123 89.5168 7.03232 89.0695 7.60893 89.0695C8.16304 89.0695 8.59988 89.5171 8.59988 90.0425C8.59988 90.5682 8.16327 91.021 7.60893 91.021C7.03232 91.021 6.6123 90.5682 6.6123 90.0425ZM6.8139 99.877H8.38146V92.3012H6.8139V99.877Z" fill="#1B477A"/>
<path fill-rule="evenodd" clip-rule="evenodd" d="M9.99951 92.3011H11.5505V93.095C12.015 92.5527 12.6364 92.1783 13.4596 92.1783C13.6776 92.1783 13.9242 92.2286 14.0922 92.2731V93.682C13.9074 93.6375 13.6442 93.5757 13.3028 93.5757C12.4462 93.5757 11.9703 93.8668 11.5673 94.2075V99.8768H9.99951V92.3011Z" fill="#1B477A"/>
<path fill-rule="evenodd" clip-rule="evenodd" d="M14.6353 99.5804V98.3449C15.1335 98.5629 16.018 98.7924 16.729 98.7924C17.7256 98.7924 18.2072 98.4681 18.2072 97.7692C18.2072 97.1374 17.7256 96.964 16.7906 96.6399C15.6764 96.3155 14.6521 95.7282 14.6521 94.3641C14.6521 92.8602 15.7551 92.1783 17.3674 92.1783C18.1567 92.1783 18.9013 92.3515 19.2763 92.5081V93.7604C18.8734 93.5873 18.1736 93.3859 17.429 93.3859C16.561 93.3859 16.1412 93.6991 16.1412 94.258C16.1412 94.8116 16.5276 95.0298 17.5074 95.3371C18.5597 95.6837 19.7411 96.1758 19.7411 97.6742C19.7411 99.1336 18.6213 100 16.9642 100C16.0628 100 15.1782 99.8325 14.6353 99.5807" fill="#1B477A"/>
<path fill-rule="evenodd" clip-rule="evenodd" d="M21.0845 97.8306V93.4528H20.0488V92.3011H21.1014L21.3811 90.2886H22.6521V92.3011H24.3876V93.4528H22.6521V97.6013C22.6521 98.3898 22.9321 98.7307 23.6319 98.7307C24.0181 98.7307 24.3597 98.6416 24.5892 98.5464V99.7819C24.3094 99.8769 23.8615 99.9996 23.2737 99.9996C21.8291 99.9996 21.0845 99.4127 21.0845 97.8304" fill="#1B477A"/>
<path fill-rule="evenodd" clip-rule="evenodd" d="M31.8512 90.2267H33.7099L37.1866 99.8768H35.4174L34.6728 97.6292H30.6866L29.9086 99.8768H28.2681L31.8512 90.2267ZM34.2531 96.3153L33.3237 93.5257C33.1055 92.8768 32.8421 92.0886 32.7357 91.619H32.7032C32.5803 92.0886 32.3171 92.8768 32.0987 93.5257L31.1245 96.3153H34.2531Z" fill="#1B477A"/>
<path fill-rule="evenodd" clip-rule="evenodd" d="M38.0542 99.4911V89.3434H39.622V92.8935C39.9018 92.5806 40.5513 92.1781 41.4527 92.1781C43.6587 92.1781 44.5542 93.8999 44.5542 96.0248C44.5542 98.2053 43.2387 99.9997 40.7863 99.9997C39.762 99.9997 38.7542 99.7706 38.0542 99.4911ZM42.8971 96.0973C42.8971 94.5934 42.4325 93.464 40.9711 93.464C40.4447 93.464 39.9354 93.6486 39.622 93.9168V98.591C39.9465 98.7024 40.4002 98.7642 40.82 98.7642C42.2757 98.7642 42.8971 97.618 42.8971 96.0971" fill="#1B477A"/>
<path fill-rule="evenodd" clip-rule="evenodd" d="M45.624 97.322V92.3011H47.1748V97.0759C47.1748 98.127 47.505 98.7475 48.636 98.7475C49.2407 98.7475 49.8005 98.4682 50.1701 98.222V92.3011H51.7377V99.8771H50.1869V99.2732C49.8176 99.5694 49.0839 99.9998 48.0928 99.9998C46.2454 99.9998 45.624 98.8539 45.624 97.322Z" fill="#1B477A"/>
<path fill-rule="evenodd" clip-rule="evenodd" d="M56.8491 90.2267H59.9674C63.2875 90.2267 64.5471 92.5527 64.5471 95.063C64.5471 97.4281 63.338 99.877 59.9226 99.877H56.8491V90.2267ZM59.6931 98.5463C62.2182 98.5463 62.8396 96.9192 62.8396 95.063C62.8396 93.2013 62.2461 91.5294 59.7826 91.5294H58.4671V98.5463H59.6931Z" fill="#1B477A"/>
<path fill-rule="evenodd" clip-rule="evenodd" d="M65.9414 89.3434H67.4753V92.9106C67.8674 92.6142 68.5783 92.1781 69.5693 92.1781C71.4166 92.1781 72.055 93.3297 72.055 94.8618V99.8767H70.4875V95.1077C70.4875 94.0568 70.1738 93.4361 69.0429 93.4361C68.4215 93.4361 67.8674 93.7097 67.509 93.9615V99.8767H65.9414V89.3434Z" fill="#1B477A"/>
<path fill-rule="evenodd" clip-rule="evenodd" d="M77.362 99.1503C77.0204 99.5865 76.2758 99.9999 75.3744 99.9999C73.9525 99.9999 73.0063 99.1949 73.0063 97.8644C73.0063 96.2989 74.3219 95.5384 76.4158 95.5384C76.6622 95.5384 76.959 95.5545 77.1604 95.5709V94.9672C77.1604 93.8824 76.7238 93.4351 75.6096 93.4351C74.8146 93.4351 74.1484 93.6642 73.7005 93.8656V92.5965C74.2268 92.384 75.0048 92.1771 75.8896 92.1771C77.6699 92.1771 78.7279 92.9376 78.7279 94.7043V98.1428C78.7279 98.618 78.9409 98.7744 79.2823 98.7744C79.3607 98.7744 79.4725 98.7624 79.5623 98.746V99.8308C79.3773 99.909 79.1311 99.9983 78.6777 99.9983C78.0115 99.9983 77.5636 99.674 77.362 99.1485V99.1503ZM77.1604 98.3099V96.5489C77.0488 96.5489 76.7683 96.5323 76.5724 96.5323C75.2848 96.5323 74.585 96.8903 74.585 97.7403C74.585 98.4333 75.0498 98.8246 75.8224 98.8246C76.399 98.8246 76.8804 98.5899 77.1604 98.3103" fill="#1B477A"/>
<path fill-rule="evenodd" clip-rule="evenodd" d="M80.397 99.4911V89.3434H81.9645V92.8935C82.2445 92.5806 82.8941 92.1781 83.7955 92.1781C86.0013 92.1781 86.897 93.8999 86.897 96.0248C86.897 98.2053 85.5815 99.9997 83.1293 99.9997C82.1048 99.9997 81.097 99.7706 80.3972 99.4911H80.397ZM85.2399 96.0973C85.2399 94.5934 84.7753 93.464 83.3141 93.464C82.7877 93.464 82.2784 93.6486 81.9648 93.9168V98.591C82.2893 98.7024 82.7375 98.7642 83.1573 98.7642C84.6185 98.7642 85.2399 97.618 85.2399 96.0971" fill="#1B477A"/>
<path fill-rule="evenodd" clip-rule="evenodd" d="M87.8374 90.0425C87.8374 89.5168 88.2574 89.0695 88.8338 89.0695C89.3879 89.0695 89.8248 89.5171 89.8248 90.0425C89.8248 90.5682 89.3881 91.021 88.8338 91.021C88.2574 91.021 87.8374 90.5682 87.8374 90.0425ZM88.039 99.877H89.6066V92.3012H88.039V99.877Z" fill="#1B477A"/>
<path fill-rule="evenodd" clip-rule="evenodd" d="M95.1772 90.2267H98.4971C100.496 90.2267 101.548 91.2053 101.548 92.6756C101.548 93.8218 100.804 94.5821 99.9811 94.7948V94.8271C101.039 95.045 101.862 95.8001 101.862 97.0858C101.862 98.7743 100.619 99.8757 98.5869 99.8757H95.1772V90.2267ZM98.3067 94.2748C99.4265 94.2748 99.9361 93.7602 99.9361 92.8436C99.9361 92.0551 99.4379 91.5129 98.3237 91.5129H96.7896V94.275L98.3067 94.2748ZM98.3571 98.5911C99.4994 98.5911 100.11 98.0485 100.11 97.0421C100.11 96.008 99.5497 95.4319 98.3851 95.4319H96.7896V98.5911H98.3571Z" fill="#1B477A"/>
<path fill-rule="evenodd" clip-rule="evenodd" d="M107.119 99.1503C106.777 99.5865 106.033 99.9999 105.137 99.9999C103.709 99.9999 102.763 99.1949 102.763 97.8644C102.763 96.2989 104.079 95.5384 106.173 95.5384C106.424 95.5384 106.716 95.5545 106.923 95.5709V94.9672C106.923 93.8824 106.486 93.4351 105.366 93.4351C104.577 93.4351 103.911 93.6642 103.463 93.8656V92.5965C103.989 92.384 104.762 92.1771 105.646 92.1771C107.432 92.1771 108.485 92.9376 108.485 94.7043V98.1428C108.485 98.618 108.703 98.7744 109.045 98.7744C109.123 98.7744 109.23 98.7624 109.325 98.746V99.8308C109.134 99.909 108.888 99.9983 108.44 99.9983C107.774 99.9983 107.32 99.674 107.119 99.1485V99.1503ZM106.923 98.3099V96.5489C106.811 96.5489 106.531 96.5323 106.329 96.5323C105.042 96.5323 104.342 96.8903 104.342 97.7403C104.342 98.4333 104.812 98.8246 105.585 98.8246C106.161 98.8246 106.643 98.5899 106.923 98.3103" fill="#1B477A"/>
<path fill-rule="evenodd" clip-rule="evenodd" d="M110.187 92.3013H111.726V92.9109C112.113 92.6145 112.823 92.1783 113.82 92.1783C115.668 92.1783 116.3 93.3245 116.3 94.8621V99.877H114.733V95.108C114.733 94.057 114.424 93.4363 113.288 93.4363C112.672 93.4363 112.112 93.71 111.754 93.9618V99.877H110.187V92.3013Z" fill="#1B477A"/>
<path fill-rule="evenodd" clip-rule="evenodd" d="M121.547 98.8875L119.391 96.0529V99.8771H117.829V89.3492H119.391V95.6167L122.078 92.3011H123.797L120.959 95.7117L122.946 98.25C123.192 98.5743 123.394 98.7196 123.736 98.7196C123.768 98.7196 123.798 98.7196 123.921 98.7034V99.8776C123.769 99.9278 123.596 99.9389 123.456 99.9389C122.711 99.9389 122.174 99.7266 121.547 98.888" fill="#1B477A"/>
<path fill-rule="evenodd" clip-rule="evenodd" d="M0.000488281 26.3447H33.1947V36.1512H11.9087V48.7364H30.8489V57.7602H11.9087V80.4149H0.000488281V26.3447Z" fill="#1B477A"/>
<path fill-rule="evenodd" clip-rule="evenodd" d="M61.8434 60.1082L57.3253 46.2204C56.2839 43.0112 55.2425 39.8802 54.6322 37.3701H54.4588C53.7645 39.7966 52.7176 43.0951 51.6762 46.2204L46.9847 60.1082H61.8434ZM48.2891 26.3447H61.5802L81.3991 80.4149H68.4498L64.9729 69.6524H43.855L40.2047 80.4149H27.9492L48.2891 26.3447Z" fill="#1B477A"/>
<path fill-rule="evenodd" clip-rule="evenodd" d="M104.589 71.1284C109.89 71.1284 112.763 68.6963 112.763 63.9215C112.763 59.0632 110.069 56.5472 104.678 56.5472H97.2094V71.1284H104.589ZM104.331 48.3898C109.717 48.3898 111.979 45.9577 111.979 41.7926C111.979 38.0633 109.633 35.6312 104.421 35.6312H97.2094V48.3898H104.331ZM85.3013 26.3447H105.893C117.628 26.3447 123.971 31.902 123.971 40.1432C123.971 46.8243 119.89 50.9056 115.456 52.1191V52.2923C121.278 53.5948 125.623 57.6763 125.623 64.7041C125.623 74.6001 118.148 80.4147 106.413 80.4147H85.3013V26.3447Z" fill="#1B477A"/>
<path fill-rule="evenodd" clip-rule="evenodd" d="M6.33796 3.90239H5.22383C5.10087 3.90239 5.03337 3.96398 5.03337 4.08694V13.6587C5.03337 14.1507 4.85995 14.5644 4.51267 14.911C4.17084 15.2576 3.75127 15.431 3.26421 15.431C2.77715 15.431 2.36281 15.2578 2.01576 14.911C1.66302 14.5646 1.48937 14.1507 1.48937 13.6587V10.1308C1.48937 10.0022 1.42755 9.94057 1.31028 9.94057H0.190462C0.0618204 9.94057 0 10.0019 0 10.1308V13.6587C0 14.5587 0.318875 15.3249 0.957308 15.9622C1.58983 16.5997 2.36259 16.9183 3.26398 16.9183C4.1597 16.9183 4.93223 16.5994 5.57611 15.9622C6.20886 15.3249 6.52797 14.5587 6.52797 13.6587V4.08694C6.52797 3.96398 6.46615 3.90239 6.33751 3.90239" fill="#1B477A"/>
<path fill-rule="evenodd" clip-rule="evenodd" d="M11.2144 7.04429C10.3355 7.04429 9.58546 7.35749 8.96407 7.97819C8.33677 8.59867 8.02881 9.34779 8.02881 10.2255V11.2767C8.02881 12.1545 8.337 12.9038 8.96407 13.5243C9.58546 14.145 10.3355 14.4523 11.2144 14.4523H12.9108C12.8906 14.8494 12.7317 15.1794 12.4408 15.4589C12.1494 15.7326 11.808 15.8726 11.416 15.8726H9.7366C9.61341 15.8726 9.55159 15.9396 9.55159 16.068V17.1751C9.55159 17.3038 9.61341 17.3706 9.7366 17.3706H11.416C12.2278 17.3706 12.9276 17.0744 13.5099 16.4817C14.1036 15.8946 14.4002 15.1957 14.4002 14.3852V10.2253C14.4002 9.34779 14.0922 8.59844 13.4708 7.97797C12.8492 7.35726 12.0992 7.04407 11.2146 7.04407L11.2144 7.04429ZM12.911 12.9704H11.2146C10.75 12.9704 10.3468 12.8029 10.0164 12.4674C9.68046 12.1374 9.51818 11.7406 9.51818 11.2765V10.2253C9.51818 9.75576 9.68069 9.3587 10.0164 9.02891C10.3468 8.69913 10.75 8.53139 11.2146 8.53139C11.6849 8.53139 12.0767 8.6989 12.4128 9.02891C12.7431 9.3587 12.911 9.75576 12.911 10.2253V12.9704Z" fill="#1B477A"/>
<path fill-rule="evenodd" clip-rule="evenodd" d="M22.8818 3.90237H21.7677C21.6447 3.90237 21.5829 3.96397 21.5829 4.08692V11.8581C21.5829 12.2552 21.4936 12.5404 21.3197 12.7138C21.1461 12.8813 20.8606 12.9654 20.4629 12.9709H16.0682C15.9507 12.9709 15.8945 13.0325 15.8945 13.1609V14.2734C15.8945 14.3964 15.9564 14.4523 16.0795 14.4523H20.4631C21.275 14.4523 21.9132 14.2232 22.378 13.7591C22.8425 13.3007 23.0777 12.6631 23.0777 11.847V4.08692C23.0777 3.96374 23.0107 3.90215 22.8818 3.90215" fill="#1B477A"/>
<path fill-rule="evenodd" clip-rule="evenodd" d="M18.2185 5.02036C18.0953 5.02036 18.0337 5.08195 18.0337 5.20491V12.0877C18.0337 12.2106 18.0953 12.2722 18.2185 12.2722H19.3381C19.4669 12.2722 19.5283 12.2106 19.5283 12.0877V5.20491C19.5283 5.08195 19.4665 5.02036 19.3381 5.02036H18.2185Z" fill="#1B477A"/>
<path fill-rule="evenodd" clip-rule="evenodd" d="M17.4173 4.17643H20.1494C20.256 4.17643 20.3006 4.12597 20.3006 4.02551V3.57799C20.3006 3.48322 20.256 3.43299 20.1494 3.43299H18.5819V2.59978C18.5819 2.46545 18.6266 2.35409 18.7221 2.26431C18.8119 2.17453 18.9291 2.12999 19.058 2.12999C19.271 2.12999 19.4108 2.22499 19.4892 2.41522L19.5789 2.61637C19.5951 2.65705 19.6235 2.68387 19.6517 2.70046C19.6719 2.71274 19.6962 2.71683 19.7185 2.71683C19.7389 2.71683 19.7592 2.71274 19.7803 2.70046L20.1833 2.52159C20.2508 2.49318 20.2842 2.44909 20.2842 2.39863C20.2842 2.37431 20.2801 2.35409 20.2681 2.33159L20.1785 2.13044C19.9712 1.62724 19.5962 1.37564 19.0589 1.37564C18.7228 1.37564 18.4316 1.4986 18.1909 1.73906C17.9557 1.9743 17.8382 2.25908 17.8382 2.60023V3.43322H17.4184C17.3175 3.43322 17.2729 3.48345 17.2729 3.57845V4.02574C17.2729 4.12642 17.3175 4.17688 17.4184 4.17688" fill="#1B477A"/>
<path fill-rule="evenodd" clip-rule="evenodd" d="M25.8776 3.90239H24.7634C24.6346 3.90239 24.5728 3.96398 24.5728 4.09262V14.2737C24.5728 14.3966 24.6346 14.4528 24.7634 14.4528H25.8776C26.0008 14.4528 26.0624 14.3966 26.0624 14.2737V4.09262C26.0624 3.96398 26.0008 3.90239 25.8776 3.90239Z" fill="#1B477A"/>
<path fill-rule="evenodd" clip-rule="evenodd" d="M37.198 17.6282H36.1734C36.0447 17.6282 35.9829 17.6898 35.9829 17.8127V18.8973C35.9829 19.026 36.0445 19.0878 36.1734 19.0878H37.198C37.3211 19.0878 37.3827 19.0262 37.3827 18.8973V17.8127C37.3827 17.6898 37.3211 17.6282 37.198 17.6282Z" fill="#1B477A"/>
<path fill-rule="evenodd" clip-rule="evenodd" d="M34.9529 17.6282H33.9338C33.8108 17.6282 33.749 17.6898 33.749 17.8127V18.8973C33.749 19.026 33.8108 19.0878 33.9338 19.0878H34.9529C35.0818 19.0878 35.1434 19.0262 35.1434 18.8973V17.8127C35.1434 17.6898 35.0818 17.6282 34.9529 17.6282Z" fill="#1B477A"/>
<path fill-rule="evenodd" clip-rule="evenodd" d="M56.2893 15.7662H55.259C55.136 15.7662 55.0742 15.828 55.0742 15.9507V17.0353C55.0742 17.164 55.136 17.2258 55.259 17.2258H56.2893C56.4122 17.2258 56.474 17.1642 56.474 17.0353V15.9507C56.474 15.828 56.4122 15.7662 56.2893 15.7662Z" fill="#1B477A"/>
<path fill-rule="evenodd" clip-rule="evenodd" d="M64.5806 7.03861C63.5897 7.03861 62.3803 7.58658 60.9696 8.67685V4.09236C60.9696 3.96372 60.9025 3.9019 60.7789 3.9019H59.6536C59.5304 3.9019 59.4688 3.96372 59.4688 4.09236V12.9706H57.2238C56.8935 12.9706 56.6751 12.9204 56.5687 12.8254C56.5401 12.7752 56.524 12.7136 56.524 12.6352V7.5084C56.524 7.38544 56.4565 7.32385 56.3335 7.32385H55.2137C55.0905 7.32385 55.0346 7.38544 55.0346 7.5084V12.4506C55.0346 12.6463 54.9939 12.7806 54.9171 12.8588C54.8387 12.9316 54.71 12.9709 54.5364 12.9709H43.0648V9.59961C43.0648 8.89504 42.813 8.29138 42.3146 7.78818C41.8164 7.29066 41.2118 7.03883 40.5009 7.03883C39.7954 7.03883 39.1963 7.29043 38.6979 7.78818C38.1999 8.29138 37.9478 8.89504 37.9478 9.59961V14.7432H33.8161C33.3345 14.7432 32.9147 14.57 32.5563 14.2232C32.2094 13.8768 32.0412 13.4575 32.0412 12.9709C32.0412 12.6245 32.1306 12.2999 32.3099 12.0092C32.4947 11.7074 32.7354 11.4835 33.0433 11.3272L33.5415 11.0701C33.6199 11.0376 33.6588 10.9858 33.6588 10.9299C33.6588 10.8974 33.6468 10.8631 33.6263 10.8294L33.117 9.82848C33.0927 9.78371 33.0611 9.7503 33.0106 9.73348C32.9901 9.72939 32.9699 9.72143 32.9488 9.72143C32.9204 9.72143 32.8926 9.72552 32.8647 9.74984L32.3663 10.0012C31.8176 10.2808 31.3755 10.689 31.0451 11.2258C30.7148 11.7681 30.5469 12.3497 30.5469 12.9702C30.5469 13.8705 30.8714 14.6418 31.5042 15.2794C32.1424 15.911 32.8983 16.2296 33.7718 16.2296H38.6929C38.9001 16.2296 39.0736 16.1571 39.2192 16.0114C39.3647 15.8603 39.4377 15.6873 39.4377 15.486V9.59893C39.4377 9.30278 39.5443 9.05118 39.7513 8.83867C39.9643 8.63185 40.2104 8.52548 40.5016 8.52548C40.7982 8.52548 41.0502 8.63185 41.2629 8.83867C41.4702 9.05118 41.5766 9.30278 41.5766 9.59893V13.7139C41.5766 13.9209 41.6493 14.0941 41.7948 14.2398C41.9402 14.3796 42.1141 14.4523 42.3212 14.4523H54.5316C55.0914 14.4523 55.5451 14.2955 55.9033 13.9714C56.2896 14.2955 56.8215 14.4523 57.499 14.4523H65.0681C65.8857 14.4523 66.5239 14.223 66.983 13.7589C67.4476 13.3004 67.6771 12.6629 67.6771 11.8411V10.4994C67.6771 9.46506 67.3916 8.63207 66.8207 7.99455C66.2552 7.35703 65.505 7.03861 64.5811 7.03861H64.5806ZM66.188 11.8411C66.188 12.2493 66.0986 12.5345 65.9245 12.7022C65.7568 12.8754 65.4711 12.9652 65.0681 12.9706H60.97V10.5721C61.4235 10.0578 62.0337 9.58256 62.7951 9.16323C63.5565 8.74367 64.1556 8.53139 64.5811 8.53139C65.2081 8.53139 65.6559 8.78867 65.9245 9.29733C66.0982 9.62734 66.188 10.0242 66.188 10.4994V11.8411Z" fill="#1B477A"/>
<path fill-rule="evenodd" clip-rule="evenodd" d="M63.5283 5.77512H64.5526C64.6815 5.77512 64.7433 5.71353 64.7433 5.59625V4.51167C64.7433 4.38303 64.6817 4.31598 64.5526 4.31598H63.5283C63.4051 4.31598 63.3433 4.38303 63.3433 4.51167V5.59625C63.3433 5.71353 63.4051 5.77512 63.5283 5.77512Z" fill="#1B477A"/>
<path fill-rule="evenodd" clip-rule="evenodd" d="M85.8329 7.32389H84.7133C84.5901 7.32389 84.5283 7.38571 84.5283 7.50866V12.4509C84.5283 12.6466 84.4879 12.7807 84.4108 12.8591C84.3381 12.9318 84.1981 12.9711 84.0022 12.9711H75.5428V10.2258C75.5428 9.34828 75.2348 8.59893 74.6077 7.97846C73.9863 7.35798 73.2361 7.04478 72.3572 7.04478C71.4726 7.04478 70.728 7.35798 70.1064 7.97846C69.485 8.59893 69.1714 9.34828 69.1714 10.2258V11.277C69.1714 12.155 69.485 12.9039 70.1064 13.5248C70.728 14.145 71.4726 14.4528 72.3572 14.4528H74.0479C74.0236 14.8444 73.8686 15.1796 73.5831 15.4592C73.2865 15.7385 72.9449 15.8728 72.5586 15.8728H70.8735C70.7503 15.8728 70.6887 15.9399 70.6887 16.0685V17.1754C70.6887 17.304 70.7503 17.3708 70.8735 17.3708H72.5586C73.3536 17.3708 74.0422 17.0802 74.6302 16.5099C75.218 15.9342 75.5205 15.2521 75.5428 14.4526H84.0022C84.6124 14.4526 85.0997 14.2794 85.4693 13.9157C85.8331 13.5412 86.0177 13.0548 86.0177 12.4509V7.50866C86.0177 7.38571 85.9561 7.32389 85.8329 7.32389ZM74.0479 12.9707H72.3572C71.8924 12.9707 71.4892 12.8032 71.159 12.4677C70.8287 12.1377 70.6608 11.7406 70.6608 11.2768V10.2256C70.6608 9.75602 70.8285 9.35896 71.159 9.02918C71.4892 8.69939 71.8924 8.53166 72.3572 8.53166C72.8217 8.53166 73.2247 8.69916 73.5495 9.02918C73.8797 9.35896 74.0479 9.75602 74.0479 10.2256V12.9707Z" fill="#1B477A"/>
<path fill-rule="evenodd" clip-rule="evenodd" d="M84.8527 15.7662H83.8282C83.7052 15.7662 83.6377 15.828 83.6377 15.9507V17.0353C83.6377 17.164 83.7047 17.2258 83.8282 17.2258H84.8527C84.9759 17.2258 85.0377 17.1642 85.0377 17.0353V15.9507C85.0377 15.828 84.9759 15.7662 84.8527 15.7662Z" fill="#1B477A"/>
<path fill-rule="evenodd" clip-rule="evenodd" d="M89.618 2.26415H88.0616V1.43661C88.0616 1.3082 88.1063 1.19615 88.1961 1.10683C88.2859 1.01183 88.3977 0.966825 88.5323 0.966825C88.7336 0.966825 88.8791 1.06183 88.9518 1.25206L89.0471 1.45912C89.0714 1.52048 89.1141 1.55412 89.1646 1.55412C89.193 1.55412 89.2091 1.5498 89.2371 1.54185L89.6514 1.36843C89.6839 1.35616 89.7132 1.32388 89.7243 1.27888C89.7364 1.26252 89.7405 1.24638 89.7405 1.22843C89.7405 1.20411 89.7362 1.18797 89.7243 1.17251L89.6457 0.965689C89.433 0.473625 89.0636 0.227707 88.5318 0.227707C88.1957 0.227707 87.9045 0.350666 87.6695 0.585447C87.4343 0.820456 87.3168 1.10547 87.3168 1.43525V2.26278H86.8967C86.7961 2.26278 86.7456 2.31301 86.7456 2.4137V2.8553C86.7456 2.95599 86.7961 3.00622 86.8967 3.00622H89.6178C89.7128 3.00622 89.7632 2.95599 89.7632 2.8553V2.4137C89.7632 2.31301 89.7128 2.26278 89.6178 2.26278" fill="#1B477A"/>
<path fill-rule="evenodd" clip-rule="evenodd" d="M88.8113 3.90239H87.7029C87.574 3.90239 87.5122 3.96398 87.5122 4.08694V14.2737C87.5122 14.3966 87.574 14.4528 87.7029 14.4528H88.8113C88.9345 14.4528 88.9964 14.3966 88.9964 14.2737V4.08694C88.9964 3.96398 88.9345 3.90239 88.8113 3.90239Z" fill="#1B477A"/>
<path fill-rule="evenodd" clip-rule="evenodd" d="M97.5903 9.2976H100.323C100.418 9.2976 100.463 9.24714 100.463 9.14668V8.69371C100.463 8.59871 100.418 8.54848 100.323 8.54848H98.7549V7.72095C98.7549 7.58663 98.7995 7.47526 98.8949 7.3798C98.9845 7.29071 99.0967 7.24593 99.2254 7.24593C99.4436 7.24593 99.5838 7.34093 99.6565 7.53117L99.7459 7.74368C99.7743 7.79959 99.8188 7.83345 99.8747 7.83345C99.9031 7.83345 99.9252 7.82936 99.9531 7.81709L100.362 7.64913C100.39 7.63299 100.412 7.60458 100.435 7.56526C100.439 7.5489 100.447 7.53276 100.447 7.50935C100.447 7.4848 100.443 7.46867 100.435 7.44753L100.35 7.24639C100.137 6.74864 99.7627 6.49704 99.2252 6.49704C98.889 6.49704 98.6036 6.62 98.3685 6.85501C98.1279 7.09547 98.0101 7.38616 98.0101 7.7214V8.54893H97.5901C97.4894 8.54893 97.439 8.59939 97.439 8.69417V9.14691C97.439 9.24782 97.4894 9.29805 97.5901 9.29805" fill="#1B477A"/>
<path fill-rule="evenodd" clip-rule="evenodd" d="M117.18 5.77524H118.21C118.333 5.77524 118.394 5.71365 118.394 5.59637V4.51178C118.394 4.38314 118.333 4.32178 118.21 4.32178H117.18C117.056 4.32178 116.995 4.3836 116.995 4.51178V5.59637C116.995 5.71365 117.056 5.77524 117.18 5.77524Z" fill="#1B477A"/>
<path fill-rule="evenodd" clip-rule="evenodd" d="M123.736 7.32388H122.616C122.493 7.32388 122.431 7.3857 122.431 7.50866V12.4509C122.431 12.6466 122.399 12.7807 122.319 12.8591C122.24 12.9318 122.106 12.9711 121.91 12.9711H119.111C118.792 12.9711 118.59 12.9207 118.495 12.8202C118.455 12.7798 118.433 12.7195 118.433 12.6245V7.50321C118.433 7.37456 118.372 7.31297 118.249 7.31297H117.134C117.011 7.31297 116.95 7.37456 116.95 7.50321V12.4345C116.95 12.6413 116.909 12.7757 116.837 12.8482C116.759 12.9209 116.63 12.9655 116.457 12.9711H104.157C103.832 12.9711 103.624 12.9209 103.535 12.8202C103.503 12.7918 103.485 12.7252 103.485 12.6245V4.0874C103.485 3.96421 103.423 3.90262 103.3 3.90262H102.174C102.051 3.90262 101.984 3.96421 101.984 4.0874V12.4345C101.984 12.6473 101.951 12.7868 101.877 12.8539C101.799 12.9264 101.67 12.9711 101.485 12.9711H96.7656C96.2785 12.967 95.8642 12.7923 95.5171 12.4511C95.1703 12.0988 94.9964 11.6797 94.9964 11.1933C94.9964 10.852 95.0862 10.5333 95.2708 10.2315C95.4499 9.93557 95.6962 9.7117 96.0042 9.56078L96.4969 9.29759C96.5697 9.26532 96.6092 9.21372 96.6092 9.15781C96.6092 9.12531 96.5967 9.09076 96.5806 9.05144L96.0767 8.05618C96.0483 8.00595 96.0149 7.97231 95.9651 7.96118C95.9487 7.94913 95.9324 7.94913 95.9033 7.94913C95.879 7.94913 95.8528 7.95322 95.8249 7.96936L95.3153 8.22096C94.7667 8.5062 94.33 8.91417 93.9996 9.451C93.6693 9.98784 93.5068 10.5692 93.5068 11.1897C93.5068 12.0956 93.8259 12.867 94.4644 13.5046C95.1026 14.1362 95.8697 14.4494 96.7654 14.4494H101.468C102.034 14.4494 102.498 14.2871 102.862 13.963C103.249 14.2871 103.78 14.4494 104.463 14.4494H116.428C116.993 14.4494 117.458 14.2871 117.822 13.963C118.208 14.2871 118.74 14.4494 119.417 14.4494H121.909C122.519 14.4494 123.006 14.2762 123.376 13.9128C123.74 13.5382 123.919 13.0516 123.919 12.4477V7.50548C123.919 7.38252 123.857 7.3207 123.734 7.3207" fill="#1B477A"/>
<path fill-rule="evenodd" clip-rule="evenodd" d="M122.762 15.7662H121.737C121.608 15.7662 121.546 15.828 121.546 15.9507V17.0353C121.546 17.164 121.608 17.2258 121.737 17.2258H122.762C122.885 17.2258 122.946 17.1642 122.946 17.0353V15.9507C122.946 15.828 122.885 15.7662 122.762 15.7662Z" fill="#1B477A"/>
</svg>
