<svg width="368" height="225" viewBox="0 0 368 225" fill="none" xmlns="http://www.w3.org/2000/svg">
<rect width="368" height="225" rx="10" fill="#FEEE00"/>
<mask id="mask0" mask-type="alpha" maskUnits="userSpaceOnUse" x="0" y="4" width="368" height="221">
<rect y="4" width="368" height="221" rx="10" fill="#FEEE00"/>
</mask>
<g mask="url(#mask0)">
<path d="M24.3283 175.491V225H0.577593V139.364H23.2132V154.473H24.2168C26.1124 149.492 29.2903 145.552 33.7505 142.653C38.2108 139.717 43.6188 138.249 49.9746 138.249C55.9216 138.249 61.1066 139.549 65.5297 142.151C69.9527 144.753 73.3908 148.47 75.8439 153.302C78.2971 158.097 79.5236 163.821 79.5236 170.474V225H55.7729V174.711C55.8101 169.47 54.472 165.382 51.7587 162.445C49.0454 159.472 45.31 157.985 40.5524 157.985C37.3559 157.985 34.5311 158.673 32.0779 160.048C29.662 161.423 27.7664 163.43 26.3912 166.069C25.0531 168.671 24.3655 171.812 24.3283 175.491ZM136.935 226.673C128.275 226.673 120.785 224.833 114.467 221.153C108.185 217.436 103.335 212.27 99.9152 205.654C96.4957 199.001 94.786 191.288 94.786 182.516C94.786 173.67 96.4957 165.939 99.9152 159.323C103.335 152.67 108.185 147.504 114.467 143.824C120.785 140.107 128.275 138.249 136.935 138.249C145.595 138.249 153.066 140.107 159.348 143.824C165.666 147.504 170.535 152.67 173.955 159.323C177.374 165.939 179.084 173.67 179.084 182.516C179.084 191.288 177.374 199.001 173.955 205.654C170.535 212.27 165.666 217.436 159.348 221.153C153.066 224.833 145.595 226.673 136.935 226.673ZM137.047 208.274C140.986 208.274 144.276 207.159 146.915 204.929C149.554 202.662 151.542 199.577 152.88 195.674C154.256 191.771 154.943 187.33 154.943 182.349C154.943 177.368 154.256 172.927 152.88 169.024C151.542 165.121 149.554 162.036 146.915 159.769C144.276 157.502 140.986 156.368 137.047 156.368C133.07 156.368 129.724 157.502 127.011 159.769C124.335 162.036 122.309 165.121 120.934 169.024C119.596 172.927 118.927 177.368 118.927 182.349C118.927 187.33 119.596 191.771 120.934 195.674C122.309 199.577 124.335 202.662 127.011 204.929C129.724 207.159 133.07 208.274 137.047 208.274ZM233.22 226.673C224.56 226.673 217.071 224.833 210.752 221.153C204.47 217.436 199.62 212.27 196.2 205.654C192.781 199.001 191.071 191.288 191.071 182.516C191.071 173.67 192.781 165.939 196.2 159.323C199.62 152.67 204.47 147.504 210.752 143.824C217.071 140.107 224.56 138.249 233.22 138.249C241.881 138.249 249.351 140.107 255.633 143.824C261.952 147.504 266.821 152.67 270.24 159.323C273.66 165.939 275.369 173.67 275.369 182.516C275.369 191.288 273.66 199.001 270.24 205.654C266.821 212.27 261.952 217.436 255.633 221.153C249.351 224.833 241.881 226.673 233.22 226.673ZM233.332 208.274C237.272 208.274 240.561 207.159 243.2 204.929C245.839 202.662 247.828 199.577 249.166 195.674C250.541 191.771 251.228 187.33 251.228 182.349C251.228 177.368 250.541 172.927 249.166 169.024C247.828 165.121 245.839 162.036 243.2 159.769C240.561 157.502 237.272 156.368 233.332 156.368C229.355 156.368 226.01 157.502 223.296 159.769C220.62 162.036 218.594 165.121 217.219 169.024C215.881 172.927 215.212 177.368 215.212 182.349C215.212 187.33 215.881 191.771 217.219 195.674C218.594 199.577 220.62 202.662 223.296 204.929C226.01 207.159 229.355 208.274 233.332 208.274ZM314.564 175.491V225H290.813V139.364H313.449V154.473H314.452C316.348 149.492 319.526 145.552 323.986 142.653C328.446 139.717 333.854 138.249 340.21 138.249C346.157 138.249 351.342 139.549 355.765 142.151C360.188 144.753 363.626 148.47 366.079 153.302C368.532 158.097 369.759 163.821 369.759 170.474V225H346.008V174.711C346.045 169.47 344.707 165.382 341.994 162.445C339.281 159.472 335.545 157.985 330.788 157.985C327.591 157.985 324.766 158.673 322.313 160.048C319.897 161.423 318.002 163.43 316.627 166.069C315.288 168.671 314.601 171.812 314.564 175.491Z" fill="black"/>
</g>
<path d="M145.775 105.68C145.661 105.282 145.5 104.931 145.293 104.626C145.086 104.316 144.833 104.054 144.533 103.842C144.239 103.624 143.902 103.458 143.521 103.344C143.145 103.229 142.728 103.172 142.271 103.172C141.416 103.172 140.665 103.385 140.017 103.809C139.374 104.234 138.873 104.852 138.514 105.663C138.155 106.469 137.975 107.455 137.975 108.62C137.975 109.785 138.152 110.776 138.506 111.593C138.86 112.41 139.361 113.033 140.009 113.463C140.657 113.888 141.422 114.1 142.304 114.1C143.104 114.1 143.787 113.959 144.354 113.676C144.926 113.387 145.361 112.982 145.661 112.459C145.966 111.936 146.118 111.318 146.118 110.605L146.837 110.711H142.524V108.048H149.524V110.156C149.524 111.626 149.214 112.889 148.593 113.945C147.972 114.996 147.117 115.808 146.028 116.379C144.939 116.946 143.692 117.229 142.287 117.229C140.719 117.229 139.342 116.883 138.155 116.191C136.968 115.494 136.042 114.506 135.378 113.227C134.719 111.942 134.389 110.417 134.389 108.653C134.389 107.297 134.585 106.088 134.977 105.026C135.375 103.959 135.93 103.055 136.644 102.315C137.357 101.574 138.187 101.011 139.135 100.624C140.082 100.237 141.109 100.044 142.214 100.044C143.161 100.044 144.043 100.183 144.86 100.461C145.677 100.733 146.401 101.119 147.033 101.62C147.67 102.121 148.19 102.718 148.593 103.409C148.996 104.095 149.254 104.852 149.369 105.68H145.775ZM152.901 117V104.455H156.381V117H152.901ZM154.657 102.837C154.14 102.837 153.696 102.666 153.326 102.323C152.956 101.974 152.771 101.558 152.771 101.073C152.771 100.594 152.956 100.183 153.326 99.8398C153.696 99.4914 154.137 99.3171 154.649 99.3171C155.172 99.3171 155.616 99.4914 155.98 99.8398C156.351 100.183 156.536 100.594 156.536 101.073C156.536 101.558 156.351 101.974 155.98 102.323C155.616 102.666 155.175 102.837 154.657 102.837ZM165.914 104.455V107.068H158.171V104.455H165.914ZM159.944 117V103.548C159.944 102.639 160.121 101.884 160.475 101.286C160.834 100.687 161.324 100.237 161.945 99.9379C162.566 99.6384 163.271 99.4886 164.06 99.4886C164.594 99.4886 165.081 99.5295 165.522 99.6112C165.969 99.6928 166.301 99.7663 166.519 99.8317L165.898 102.445C165.762 102.402 165.593 102.361 165.392 102.323C165.195 102.285 164.994 102.266 164.787 102.266C164.275 102.266 163.919 102.385 163.717 102.625C163.516 102.859 163.415 103.189 163.415 103.613V117H159.944ZM174.713 104.455V107.068H167.158V104.455H174.713ZM168.873 101.449H172.352V113.145C172.352 113.466 172.401 113.717 172.499 113.896C172.597 114.071 172.734 114.193 172.908 114.264C173.087 114.335 173.294 114.37 173.528 114.37C173.692 114.37 173.855 114.356 174.019 114.329C174.182 114.297 174.307 114.272 174.394 114.256L174.941 116.845C174.767 116.899 174.522 116.962 174.206 117.033C173.891 117.109 173.507 117.155 173.055 117.172C172.216 117.204 171.481 117.093 170.85 116.837C170.223 116.581 169.736 116.183 169.388 115.644C169.039 115.105 168.868 114.424 168.873 113.602V101.449ZM197.127 106.129H193.549C193.484 105.666 193.351 105.255 193.149 104.896C192.948 104.531 192.689 104.22 192.373 103.964C192.057 103.709 191.693 103.513 191.279 103.376C190.87 103.24 190.427 103.172 189.947 103.172C189.082 103.172 188.328 103.387 187.685 103.817C187.042 104.242 186.544 104.863 186.19 105.68C185.836 106.491 185.659 107.477 185.659 108.636C185.659 109.829 185.836 110.831 186.19 111.642C186.55 112.453 187.051 113.066 187.693 113.48C188.336 113.894 189.079 114.1 189.923 114.1C190.397 114.1 190.835 114.038 191.238 113.913C191.646 113.787 192.008 113.605 192.324 113.365C192.64 113.12 192.901 112.824 193.108 112.475C193.321 112.127 193.468 111.729 193.549 111.283L197.127 111.299C197.034 112.067 196.803 112.807 196.433 113.521C196.068 114.228 195.575 114.863 194.954 115.424C194.339 115.979 193.604 116.42 192.749 116.747C191.9 117.068 190.938 117.229 189.866 117.229C188.374 117.229 187.04 116.891 185.864 116.216C184.693 115.541 183.767 114.563 183.087 113.284C182.411 112.004 182.074 110.455 182.074 108.636C182.074 106.812 182.417 105.26 183.103 103.981C183.789 102.701 184.72 101.727 185.896 101.057C187.072 100.382 188.396 100.044 189.866 100.044C190.835 100.044 191.733 100.18 192.561 100.452C193.394 100.725 194.132 101.122 194.775 101.645C195.417 102.162 195.94 102.797 196.343 103.548C196.751 104.299 197.012 105.16 197.127 106.129ZM203.175 117.237C202.374 117.237 201.661 117.098 201.035 116.82C200.409 116.537 199.913 116.121 199.548 115.571C199.189 115.015 199.009 114.324 199.009 113.496C199.009 112.799 199.137 112.214 199.393 111.74C199.649 111.266 199.998 110.885 200.439 110.597C200.88 110.308 201.381 110.09 201.942 109.943C202.508 109.796 203.101 109.693 203.722 109.633C204.452 109.557 205.04 109.486 205.486 109.42C205.933 109.35 206.257 109.246 206.458 109.11C206.66 108.974 206.76 108.772 206.76 108.506V108.457C206.76 107.939 206.597 107.539 206.27 107.256C205.949 106.973 205.492 106.831 204.898 106.831C204.272 106.831 203.774 106.97 203.404 107.248C203.033 107.52 202.788 107.863 202.669 108.277L199.45 108.016C199.614 107.253 199.935 106.594 200.414 106.039C200.893 105.478 201.511 105.048 202.268 104.749C203.031 104.444 203.913 104.291 204.915 104.291C205.612 104.291 206.279 104.373 206.916 104.536C207.558 104.7 208.127 104.953 208.623 105.296C209.124 105.639 209.518 106.08 209.807 106.619C210.096 107.153 210.24 107.792 210.24 108.538V117H206.94V115.26H206.842C206.641 115.652 206.371 115.998 206.034 116.298C205.696 116.592 205.29 116.823 204.817 116.992C204.343 117.155 203.796 117.237 203.175 117.237ZM204.171 114.836C204.683 114.836 205.135 114.735 205.527 114.533C205.919 114.326 206.227 114.049 206.45 113.7C206.673 113.352 206.785 112.957 206.785 112.516V111.185C206.676 111.255 206.526 111.321 206.336 111.381C206.151 111.435 205.941 111.487 205.707 111.536C205.473 111.579 205.239 111.62 205.004 111.658C204.77 111.691 204.558 111.721 204.367 111.748C203.959 111.808 203.602 111.903 203.297 112.034C202.992 112.165 202.756 112.342 202.587 112.565C202.418 112.783 202.334 113.055 202.334 113.382C202.334 113.855 202.505 114.218 202.848 114.468C203.197 114.713 203.638 114.836 204.171 114.836ZM212.939 117V104.455H216.312V106.643H216.443C216.672 105.865 217.056 105.277 217.595 104.879C218.134 104.476 218.755 104.275 219.457 104.275C219.631 104.275 219.819 104.286 220.021 104.308C220.222 104.329 220.399 104.359 220.551 104.397V107.485C220.388 107.436 220.162 107.392 219.874 107.354C219.585 107.316 219.321 107.297 219.081 107.297C218.569 107.297 218.112 107.408 217.709 107.632C217.312 107.85 216.996 108.154 216.762 108.547C216.533 108.939 216.419 109.391 216.419 109.902V117H212.939ZM226.389 117.204C225.436 117.204 224.573 116.959 223.8 116.469C223.032 115.974 222.423 115.247 221.971 114.288C221.524 113.325 221.301 112.143 221.301 110.744C221.301 109.306 221.532 108.111 221.995 107.158C222.458 106.2 223.073 105.484 223.841 105.01C224.614 104.531 225.461 104.291 226.381 104.291C227.084 104.291 227.669 104.411 228.137 104.651C228.611 104.885 228.992 105.179 229.281 105.533C229.575 105.881 229.798 106.224 229.95 106.562H230.057V100.273H233.528V117H230.097V114.991H229.95C229.787 115.339 229.556 115.685 229.256 116.028C228.962 116.366 228.578 116.646 228.104 116.869C227.636 117.093 227.064 117.204 226.389 117.204ZM227.492 114.435C228.053 114.435 228.526 114.283 228.913 113.978C229.305 113.668 229.605 113.235 229.812 112.679C230.024 112.124 230.13 111.473 230.13 110.727C230.13 109.981 230.027 109.333 229.82 108.783C229.613 108.233 229.313 107.809 228.921 107.509C228.529 107.21 228.053 107.06 227.492 107.06C226.92 107.06 226.438 107.215 226.046 107.526C225.654 107.836 225.357 108.266 225.156 108.816C224.955 109.366 224.854 110.003 224.854 110.727C224.854 111.457 224.955 112.102 225.156 112.663C225.363 113.218 225.66 113.654 226.046 113.97C226.438 114.28 226.92 114.435 227.492 114.435Z" fill="black"/>
<path d="M15.9482 30V19.0909H20.2521C21.0795 19.0909 21.7844 19.2489 22.3668 19.565C22.9492 19.8775 23.3931 20.3125 23.6985 20.87C24.0075 21.424 24.1619 22.0632 24.1619 22.7876C24.1619 23.5121 24.0057 24.1513 23.6932 24.7053C23.3807 25.2592 22.9279 25.6907 22.3349 25.9996C21.7454 26.3086 21.0316 26.4631 20.1935 26.4631H17.4503V24.6147H19.8207C20.2646 24.6147 20.6303 24.5384 20.918 24.3857C21.2092 24.2294 21.4258 24.0146 21.5678 23.7411C21.7134 23.4641 21.7862 23.1463 21.7862 22.7876C21.7862 22.4254 21.7134 22.1094 21.5678 21.8395C21.4258 21.5661 21.2092 21.3548 20.918 21.2056C20.6268 21.0529 20.2575 20.9766 19.81 20.9766H18.2546V30H15.9482ZM29.1824 30.1598C28.3549 30.1598 27.6394 29.984 27.0357 29.6325C26.4355 29.2773 25.9721 28.7837 25.6454 28.1516C25.3187 27.516 25.1554 26.7791 25.1554 25.9411C25.1554 25.0959 25.3187 24.3572 25.6454 23.7251C25.9721 23.0895 26.4355 22.5959 27.0357 22.2443C27.6394 21.8892 28.3549 21.7116 29.1824 21.7116C30.0098 21.7116 30.7235 21.8892 31.3237 22.2443C31.9274 22.5959 32.3926 23.0895 32.7193 23.7251C33.046 24.3572 33.2093 25.0959 33.2093 25.9411C33.2093 26.7791 33.046 27.516 32.7193 28.1516C32.3926 28.7837 31.9274 29.2773 31.3237 29.6325C30.7235 29.984 30.0098 30.1598 29.1824 30.1598ZM29.193 28.402C29.5694 28.402 29.8837 28.2955 30.1358 28.0824C30.388 27.8658 30.5779 27.571 30.7058 27.1982C30.8372 26.8253 30.9029 26.4009 30.9029 25.9251C30.9029 25.4492 30.8372 25.0249 30.7058 24.652C30.5779 24.2791 30.388 23.9844 30.1358 23.7678C29.8837 23.5511 29.5694 23.4428 29.193 23.4428C28.813 23.4428 28.4934 23.5511 28.2342 23.7678C27.9785 23.9844 27.785 24.2791 27.6536 24.652C27.5257 25.0249 27.4618 25.4492 27.4618 25.9251C27.4618 26.4009 27.5257 26.8253 27.6536 27.1982C27.785 27.571 27.9785 27.8658 28.2342 28.0824C28.4934 28.2955 28.813 28.402 29.193 28.402ZM36.0938 30L33.8672 21.8182H36.163L37.4308 27.3153H37.5053L38.8263 21.8182H41.0795L42.4219 27.2834H42.4911L43.7376 21.8182H46.0281L43.8068 30H41.4045L39.9982 24.8544H39.897L38.4908 30H36.0938ZM50.7622 30.1598C49.9205 30.1598 49.1961 29.9893 48.5889 29.6484C47.9852 29.304 47.52 28.8175 47.1933 28.1889C46.8666 27.5568 46.7032 26.8093 46.7032 25.9464C46.7032 25.1048 46.8666 24.3661 47.1933 23.7305C47.52 23.0948 47.9798 22.5994 48.5729 22.2443C49.1695 21.8892 49.8691 21.7116 50.6716 21.7116C51.2114 21.7116 51.7139 21.7987 52.1791 21.9727C52.6478 22.1431 53.0562 22.4006 53.4042 22.745C53.7558 23.0895 54.0292 23.5227 54.2245 24.0447C54.4198 24.5632 54.5175 25.1705 54.5175 25.8665V26.4897H47.6088V25.0835H52.3815C52.3815 24.7567 52.3105 24.4673 52.1684 24.2152C52.0264 23.9631 51.8293 23.766 51.5771 23.6239C51.3286 23.4783 51.0392 23.4055 50.7089 23.4055C50.3644 23.4055 50.059 23.4854 49.7927 23.6452C49.5299 23.8015 49.324 24.0128 49.1748 24.2791C49.0257 24.5419 48.9493 24.8349 48.9458 25.158V26.495C48.9458 26.8999 49.0203 27.2496 49.1695 27.5444C49.3222 27.8391 49.537 28.0664 49.814 28.2262C50.091 28.386 50.4195 28.4659 50.7994 28.4659C51.0516 28.4659 51.2824 28.4304 51.4919 28.3594C51.7014 28.2884 51.8808 28.1818 52.0299 28.0398C52.1791 27.8977 52.2927 27.7237 52.3708 27.5178L54.4695 27.6562C54.363 28.1605 54.1446 28.6009 53.8144 28.9773C53.4877 29.3501 53.0651 29.6413 52.5466 29.8509C52.0317 30.0568 51.4369 30.1598 50.7622 30.1598ZM55.9983 30V21.8182H58.1982V23.2457H58.2835C58.4326 22.7379 58.683 22.3544 59.0345 22.0952C59.3861 21.8324 59.7909 21.701 60.249 21.701C60.3627 21.701 60.4852 21.7081 60.6166 21.7223C60.748 21.7365 60.8634 21.756 60.9628 21.7809V23.7944C60.8563 23.7624 60.7089 23.734 60.5207 23.7092C60.3325 23.6843 60.1602 23.6719 60.004 23.6719C59.6702 23.6719 59.3719 23.7447 59.1091 23.8903C58.8499 24.0323 58.6439 24.2312 58.4912 24.4869C58.3421 24.7425 58.2675 25.0373 58.2675 25.3711V30H55.9983ZM65.4838 30.1598C64.6422 30.1598 63.9178 29.9893 63.3105 29.6484C62.7069 29.304 62.2417 28.8175 61.915 28.1889C61.5882 27.5568 61.4249 26.8093 61.4249 25.9464C61.4249 25.1048 61.5882 24.3661 61.915 23.7305C62.2417 23.0948 62.7015 22.5994 63.2946 22.2443C63.8912 21.8892 64.5907 21.7116 65.3933 21.7116C65.9331 21.7116 66.4355 21.7987 66.9007 21.9727C67.3695 22.1431 67.7779 22.4006 68.1259 22.745C68.4775 23.0895 68.7509 23.5227 68.9462 24.0447C69.1415 24.5632 69.2392 25.1705 69.2392 25.8665V26.4897H62.3304V25.0835H67.1032C67.1032 24.7567 67.0321 24.4673 66.8901 24.2152C66.748 23.9631 66.551 23.766 66.2988 23.6239C66.0502 23.4783 65.7608 23.4055 65.4306 23.4055C65.0861 23.4055 64.7807 23.4854 64.5144 23.6452C64.2516 23.8015 64.0456 24.0128 63.8965 24.2791C63.7473 24.5419 63.671 24.8349 63.6674 25.158V26.495C63.6674 26.8999 63.742 27.2496 63.8912 27.5444C64.0439 27.8391 64.2587 28.0664 64.5357 28.2262C64.8127 28.386 65.1412 28.4659 65.5211 28.4659C65.7733 28.4659 66.0041 28.4304 66.2136 28.3594C66.4231 28.2884 66.6025 28.1818 66.7516 28.0398C66.9007 27.8977 67.0144 27.7237 67.0925 27.5178L69.1912 27.6562C69.0847 28.1605 68.8663 28.6009 68.536 28.9773C68.2093 29.3501 67.7868 29.6413 67.2683 29.8509C66.7534 30.0568 66.1586 30.1598 65.4838 30.1598ZM73.7349 30.1332C73.1135 30.1332 72.5506 29.9734 72.0463 29.6538C71.5456 29.3306 71.1479 28.8565 70.8532 28.2315C70.562 27.603 70.4164 26.8324 70.4164 25.9197C70.4164 24.9822 70.5673 24.2028 70.8691 23.5813C71.171 22.9563 71.5723 22.4893 72.073 22.1804C72.5772 21.8679 73.1294 21.7116 73.7296 21.7116C74.1877 21.7116 74.5694 21.7898 74.8748 21.946C75.1838 22.0987 75.4324 22.2905 75.6206 22.5213C75.8123 22.7486 75.9579 22.9723 76.0574 23.1925H76.1266V19.0909H78.3904V30H76.1532V28.6896H76.0574C75.9508 28.9169 75.7999 29.1424 75.6046 29.3661C75.4128 29.5863 75.1625 29.7692 74.8535 29.9148C74.5481 30.0604 74.1752 30.1332 73.7349 30.1332ZM74.454 28.3274C74.8198 28.3274 75.1287 28.228 75.3809 28.0291C75.6365 27.8267 75.8319 27.5444 75.9668 27.1822C76.1053 26.82 76.1745 26.3956 76.1745 25.9091C76.1745 25.4226 76.1071 25 75.9721 24.6413C75.8372 24.2827 75.6419 24.0057 75.3862 23.8104C75.1305 23.6151 74.8198 23.5174 74.454 23.5174C74.0811 23.5174 73.7669 23.6186 73.5112 23.821C73.2555 24.0234 73.062 24.304 72.9306 24.6626C72.7992 25.0213 72.7335 25.4368 72.7335 25.9091C72.7335 26.3849 72.7992 26.8058 72.9306 27.1715C73.0655 27.5337 73.2591 27.8178 73.5112 28.0238C73.7669 28.2262 74.0811 28.3274 74.454 28.3274ZM83.7704 30V19.0909H86.0396V23.1925H86.1088C86.2083 22.9723 86.3521 22.7486 86.5403 22.5213C86.7321 22.2905 86.9806 22.0987 87.286 21.946C87.595 21.7898 87.9785 21.7116 88.4366 21.7116C89.0332 21.7116 89.5836 21.8679 90.0879 22.1804C90.5922 22.4893 90.9952 22.9563 91.2971 23.5813C91.5989 24.2028 91.7498 24.9822 91.7498 25.9197C91.7498 26.8324 91.6025 27.603 91.3077 28.2315C91.0165 28.8565 90.6188 29.3306 90.1145 29.6538C89.6138 29.9734 89.0527 30.1332 88.4313 30.1332C87.9909 30.1332 87.6163 30.0604 87.3074 29.9148C87.002 29.7692 86.7516 29.5863 86.5563 29.3661C86.361 29.1424 86.2118 28.9169 86.1088 28.6896H86.0076V30H83.7704ZM85.9917 25.9091C85.9917 26.3956 86.0591 26.82 86.1941 27.1822C86.329 27.5444 86.5243 27.8267 86.78 28.0291C87.0357 28.228 87.3464 28.3274 87.7122 28.3274C88.0815 28.3274 88.394 28.2262 88.6497 28.0238C88.9054 27.8178 89.0989 27.5337 89.2303 27.1715C89.3652 26.8058 89.4327 26.3849 89.4327 25.9091C89.4327 25.4368 89.367 25.0213 89.2356 24.6626C89.1042 24.304 88.9107 24.0234 88.655 23.821C88.3993 23.6186 88.085 23.5174 87.7122 23.5174C87.3429 23.5174 87.0304 23.6151 86.7747 23.8104C86.5225 24.0057 86.329 24.2827 86.1941 24.6413C86.0591 25 85.9917 25.4226 85.9917 25.9091ZM94.3865 33.0522C94.0989 33.0522 93.829 33.0291 93.5769 32.983C93.3283 32.9403 93.1223 32.8871 92.959 32.8232L93.4703 31.1239C93.8716 31.2482 94.209 31.2802 94.4824 31.2198C94.7594 31.163 94.9778 30.9499 95.1376 30.5806L95.2708 30.2344L92.3358 21.8182H94.7221L96.416 27.8267H96.5012L98.2111 21.8182L100.613 21.8288L97.4334 30.8842C97.2807 31.321 97.073 31.701 96.8102 32.0241C96.551 32.3509 96.2225 32.603 95.8248 32.7805C95.427 32.9616 94.9476 33.0522 94.3865 33.0522ZM107.516 25.2699V30H105.246V21.8182H107.409V23.2617H107.505C107.686 22.7859 107.99 22.4094 108.416 22.1325C108.842 21.8519 109.359 21.7116 109.966 21.7116C110.534 21.7116 111.029 21.8359 111.452 22.0845C111.875 22.3331 112.203 22.6882 112.437 23.1499C112.672 23.608 112.789 24.1548 112.789 24.7905V30H110.52V25.1953C110.523 24.6946 110.396 24.304 110.136 24.0234C109.877 23.7393 109.52 23.5973 109.066 23.5973C108.76 23.5973 108.49 23.663 108.256 23.7944C108.025 23.9258 107.844 24.1175 107.713 24.3697C107.585 24.6183 107.519 24.9183 107.516 25.2699ZM118.274 30.1598C117.447 30.1598 116.731 29.984 116.127 29.6325C115.527 29.2773 115.064 28.7837 114.737 28.1516C114.411 27.516 114.247 26.7791 114.247 25.9411C114.247 25.0959 114.411 24.3572 114.737 23.7251C115.064 23.0895 115.527 22.5959 116.127 22.2443C116.731 21.8892 117.447 21.7116 118.274 21.7116C119.102 21.7116 119.815 21.8892 120.415 22.2443C121.019 22.5959 121.484 23.0895 121.811 23.7251C122.138 24.3572 122.301 25.0959 122.301 25.9411C122.301 26.7791 122.138 27.516 121.811 28.1516C121.484 28.7837 121.019 29.2773 120.415 29.6325C119.815 29.984 119.102 30.1598 118.274 30.1598ZM118.285 28.402C118.661 28.402 118.975 28.2955 119.228 28.0824C119.48 27.8658 119.67 27.571 119.798 27.1982C119.929 26.8253 119.995 26.4009 119.995 25.9251C119.995 25.4492 119.929 25.0249 119.798 24.652C119.67 24.2791 119.48 23.9844 119.228 23.7678C118.975 23.5511 118.661 23.4428 118.285 23.4428C117.905 23.4428 117.585 23.5511 117.326 23.7678C117.07 23.9844 116.877 24.2791 116.745 24.652C116.618 25.0249 116.554 25.4492 116.554 25.9251C116.554 26.4009 116.618 26.8253 116.745 27.1982C116.877 27.571 117.07 27.8658 117.326 28.0824C117.585 28.2955 117.905 28.402 118.285 28.402ZM127.473 30.1598C126.646 30.1598 125.93 29.984 125.327 29.6325C124.727 29.2773 124.263 28.7837 123.936 28.1516C123.61 27.516 123.446 26.7791 123.446 25.9411C123.446 25.0959 123.61 24.3572 123.936 23.7251C124.263 23.0895 124.727 22.5959 125.327 22.2443C125.93 21.8892 126.646 21.7116 127.473 21.7116C128.301 21.7116 129.015 21.8892 129.615 22.2443C130.218 22.5959 130.684 23.0895 131.01 23.7251C131.337 24.3572 131.5 25.0959 131.5 25.9411C131.5 26.7791 131.337 27.516 131.01 28.1516C130.684 28.7837 130.218 29.2773 129.615 29.6325C129.015 29.984 128.301 30.1598 127.473 30.1598ZM127.484 28.402C127.86 28.402 128.175 28.2955 128.427 28.0824C128.679 27.8658 128.869 27.571 128.997 27.1982C129.128 26.8253 129.194 26.4009 129.194 25.9251C129.194 25.4492 129.128 25.0249 128.997 24.652C128.869 24.2791 128.679 23.9844 128.427 23.7678C128.175 23.5511 127.86 23.4428 127.484 23.4428C127.104 23.4428 126.784 23.5511 126.525 23.7678C126.27 23.9844 126.076 24.2791 125.945 24.652C125.817 25.0249 125.753 25.4492 125.753 25.9251C125.753 26.4009 125.817 26.8253 125.945 27.1982C126.076 27.571 126.27 27.8658 126.525 28.0824C126.784 28.2955 127.104 28.402 127.484 28.402ZM135.245 25.2699V30H132.976V21.8182H135.138V23.2617H135.234C135.415 22.7859 135.719 22.4094 136.145 22.1325C136.571 21.8519 137.088 21.7116 137.695 21.7116C138.263 21.7116 138.759 21.8359 139.181 22.0845C139.604 22.3331 139.933 22.6882 140.167 23.1499C140.401 23.608 140.518 24.1548 140.518 24.7905V30H138.249V25.1953C138.253 24.6946 138.125 24.304 137.866 24.0234C137.607 23.7393 137.25 23.5973 136.795 23.5973C136.49 23.5973 136.22 23.663 135.985 23.7944C135.755 23.9258 135.574 24.1175 135.442 24.3697C135.314 24.6183 135.249 24.9183 135.245 25.2699ZM145.779 33.0682V21.8182H148.016V23.1925H148.117C148.216 22.9723 148.36 22.7486 148.548 22.5213C148.74 22.2905 148.989 22.0987 149.294 21.946C149.603 21.7898 149.987 21.7116 150.445 21.7116C151.041 21.7116 151.592 21.8679 152.096 22.1804C152.6 22.4893 153.003 22.9563 153.305 23.5813C153.607 24.2028 153.758 24.9822 153.758 25.9197C153.758 26.8324 153.611 27.603 153.316 28.2315C153.025 28.8565 152.627 29.3306 152.123 29.6538C151.622 29.9734 151.061 30.1332 150.439 30.1332C149.999 30.1332 149.624 30.0604 149.316 29.9148C149.01 29.7692 148.76 29.5863 148.564 29.3661C148.369 29.1424 148.22 28.9169 148.117 28.6896H148.048V33.0682H145.779ZM148 25.9091C148 26.3956 148.067 26.82 148.202 27.1822C148.337 27.5444 148.532 27.8267 148.788 28.0291C149.044 28.228 149.355 28.3274 149.72 28.3274C150.09 28.3274 150.402 28.2262 150.658 28.0238C150.914 27.8178 151.107 27.5337 151.238 27.1715C151.373 26.8058 151.441 26.3849 151.441 25.9091C151.441 25.4368 151.375 25.0213 151.244 24.6626C151.112 24.304 150.919 24.0234 150.663 23.821C150.407 23.6186 150.093 23.5174 149.72 23.5174C149.351 23.5174 149.039 23.6151 148.783 23.8104C148.531 24.0057 148.337 24.2827 148.202 24.6413C148.067 25 148 25.4226 148 25.9091ZM157.604 30.1545C157.082 30.1545 156.617 30.0639 156.208 29.8828C155.8 29.6982 155.477 29.4265 155.239 29.0678C155.004 28.7056 154.887 28.2546 154.887 27.7148C154.887 27.2603 154.971 26.8786 155.138 26.5696C155.305 26.2607 155.532 26.0121 155.819 25.8239C156.107 25.6357 156.434 25.4936 156.8 25.3977C157.169 25.3018 157.556 25.2344 157.961 25.1953C158.437 25.1456 158.82 25.0994 159.111 25.0568C159.403 25.0107 159.614 24.9432 159.745 24.8544C159.877 24.7656 159.942 24.6342 159.942 24.4602V24.4283C159.942 24.0909 159.836 23.8299 159.623 23.6452C159.413 23.4606 159.115 23.3683 158.728 23.3683C158.319 23.3683 157.994 23.4588 157.753 23.6399C157.512 23.8175 157.352 24.0412 157.274 24.3111L155.175 24.1406C155.281 23.6435 155.491 23.2138 155.803 22.8516C156.116 22.4858 156.519 22.2053 157.013 22.0099C157.51 21.8111 158.085 21.7116 158.738 21.7116C159.193 21.7116 159.628 21.7649 160.044 21.8714C160.463 21.978 160.834 22.1431 161.157 22.3668C161.483 22.5906 161.741 22.8782 161.929 23.2298C162.117 23.5778 162.211 23.995 162.211 24.4815V30H160.059V28.8654H159.996C159.864 29.1211 159.688 29.3466 159.468 29.5419C159.248 29.7337 158.983 29.8846 158.675 29.9947C158.366 30.1012 158.009 30.1545 157.604 30.1545ZM158.254 28.5884C158.588 28.5884 158.882 28.5227 159.138 28.3913C159.394 28.2564 159.594 28.0753 159.74 27.848C159.885 27.6207 159.958 27.3633 159.958 27.0756V26.2074C159.887 26.2536 159.79 26.2962 159.665 26.3352C159.545 26.3707 159.408 26.4045 159.255 26.4364C159.102 26.4648 158.95 26.4915 158.797 26.5163C158.644 26.5376 158.506 26.5572 158.382 26.5749C158.115 26.614 157.883 26.6761 157.684 26.7614C157.485 26.8466 157.33 26.962 157.22 27.1076C157.11 27.2496 157.055 27.4272 157.055 27.6403C157.055 27.9492 157.167 28.1854 157.391 28.3487C157.618 28.5085 157.906 28.5884 158.254 28.5884ZM165.08 33.0522C164.792 33.0522 164.522 33.0291 164.27 32.983C164.022 32.9403 163.816 32.8871 163.652 32.8232L164.164 31.1239C164.565 31.2482 164.902 31.2802 165.176 31.2198C165.453 31.163 165.671 30.9499 165.831 30.5806L165.964 30.2344L163.029 21.8182H165.415L167.109 27.8267H167.195L168.904 21.8182L171.307 21.8288L168.127 30.8842C167.974 31.321 167.766 31.701 167.504 32.0241C167.244 32.3509 166.916 32.603 166.518 32.7805C166.12 32.9616 165.641 33.0522 165.08 33.0522Z" fill="black"/>
</svg>
