<svg width="24" height="24" viewBox="0 0 24 24" fill="none" xmlns="http://www.w3.org/2000/svg">
<path d="M9 17.2124V21.7876L12.0774 19.1273L15.1041 21.7876V14.934" fill="#FEEE00"/>
<path d="M9 17.2124V21.7876L12.0774 19.1273L15.1041 21.7876V14.934" stroke="#404553" stroke-linecap="round" stroke-linejoin="round"/>
<path d="M15.5495 14.6586C14.5293 15.325 13.3107 15.7124 12 15.7124C10.9779 15.7124 10.0123 15.4769 9.1531 15.0576C8.08635 14.5369 7.18274 13.7325 6.54112 12.7425C5.88249 11.7262 5.5 10.5148 5.5 9.2124C5.5 7.74411 5.98624 6.39082 6.80671 5.30281C7.99387 3.72853 9.87819 2.7124 12 2.7124C15.5899 2.7124 18.5 5.62255 18.5 9.2124C18.5 10.1333 18.3088 11.0083 17.9643 11.8008C17.4549 12.9729 16.6095 13.9663 15.5495 14.6586Z" fill="white" stroke="#404553"/>
<path d="M9.66089 9.25951L11.5452 11.1749L15.1041 7.42822" stroke="#404553" stroke-linecap="round"/>
</svg>
