<svg width="22" height="22" viewBox="0 0 22 22" fill="none" xmlns="http://www.w3.org/2000/svg">
    <path d="M6.35254 1H18.2046V20.4985H6.35254V1Z" fill="#FBED30"/>
    <rect x="8.64661" y="6.35257" width="3.05859" height="9.17578" fill="white"/>
    <rect x="13.2343" y="6.35257" width="3.82324" height="9.17578" fill="white"/>
    <path d="M16.5329 2.52917L16.5329 4.82312L8.64663 4.82312L8.64663 2.52918L16.5329 2.52917Z" fill="white"/>
    <path d="M16.5329 17.0576L16.5329 19.3515L8.64663 19.3515L8.64663 17.0576L16.5329 17.0576Z" fill="white"/>
    <path
        d="M3.60422 20.9232H3.6663H3.72804H3.78945H3.85052H3.91126H3.97167H4.03174H4.09149H4.15091H4.21001H4.26877H4.32722H4.38534H4.44314H4.50062H4.55778H4.61463H4.67116H4.72737H4.78327H4.83886H4.89414H4.94911H5.00377H5.05813H5.11217H5.16592H5.21936H5.2725H5.32534H5.37788H5.43013H5.48208H5.53373H5.58509H5.63616H5.68693H5.73742H5.78762H5.83753H5.88716H5.9365H5.98556H6.03434H6.08284H6.13106H6.179H6.22666H6.27405H6.32117H6.36801H6.41458H6.46089H6.50692H6.55269H6.59819H6.64343H6.68841H6.73312H6.77757H6.82176H6.8657H6.90938H6.9528H6.99597H7.03889H7.08156H7.12397H7.16614H7.20806H7.24974H7.29117H7.33235H7.3733H7.414H7.45447H7.4947H7.53469H7.57444H7.61396H7.65325H7.69231H7.73114H7.76973H7.80811H7.84625H7.88417H7.92187H7.95934H7.9966H8.03363H8.07045H8.10705H8.14343H8.1796H8.21556H8.2513H8.28684H8.32217H8.35729H8.3922H8.42691H8.46141H8.49571H8.52981H8.56371H8.59742H8.63092H8.66424H8.69735H8.73027H8.76301H8.79555H8.8279H8.86006H8.89204H8.92383H8.95544H8.98687H9.01812H9.04918H9.08007H9.11078H9.14131H9.17167H9.20186H9.23187H9.26172H9.29139H9.3209H9.35024H9.37942H9.40843H9.43728H9.46596H9.49449H9.52286H9.55107H9.57913H9.60703H9.63478H9.66237H9.68982H9.71711H9.74426H9.77126H9.79811H9.82483H9.85139H9.87782H9.90411H9.93026H9.95627H9.98214H10.0079H10.0335H10.059H10.0843H10.1095H10.1346H10.1596H10.1844H10.2091H10.2337H10.2581H10.2825H10.3067H10.3308H10.3548H10.3787H10.4024H10.4261H10.4496H10.4731H10.4964H10.5196H10.5427H10.5657H10.5886H10.6114H10.6341H10.6567H10.6792H10.7016H10.7239H10.7461H10.7683H10.7903H10.8122H10.8341H10.8558H10.8775H10.8991H10.9206H10.9421H10.9634H10.9847H11.0059H11.027H11.048H11.069H11.0899H11.1107H11.1315H11.1521H11.1728H11.1933H11.2138H11.2342H11.2546H11.2749H11.2951H11.3153H11.3354H11.3555H11.3755H11.3955H11.4154H11.4352H11.455H11.4748H11.4945H11.5142H11.5338H11.5534H11.5729H11.5924H11.6119H11.6313H11.6507H11.6701H11.6894H11.7087H11.728H11.7472H11.7664H11.7856H11.8048H11.8239H11.843H11.8621H11.8812H11.9002H11.9192H11.9383H11.9573H11.9762H11.9952H12.0142H12.0331H12.0521H12.071H12.09H12.1089H12.1278H12.1468H12.1657H12.1846H12.2036H12.2225H12.2414H12.2604H12.2794H12.2983H12.3173H12.3363H12.3553H12.3743H12.3933H12.4124H12.4315H12.4505H12.4697H12.4888H12.5079H12.5271H12.5463H12.5656H12.5848H12.6041H12.6235H12.6428H12.6622H12.6816H12.7011H12.7206H12.7402H12.7597H12.7794H12.799H12.8188H12.8385H12.8583H12.8782H12.8981H12.9181H12.9381H12.9581H12.9783H12.9984H13.0187H13.039H13.0593H13.0798H13.1002H13.1208H13.1414H13.1621H13.1828H13.2037H13.2246H13.2455H13.2666H13.2877H13.3089H13.3301H13.3515H13.3729H13.3944H13.416H13.4377H13.4595H13.4813H13.5033H13.5253H13.5474H13.5696H13.5919H13.6143H13.6368H13.6594H13.6821H13.7049H13.7278H13.7508H13.7739H13.7972H13.8205H13.8439H13.8674H13.8911H13.9149H13.9387H13.9627H13.9868H14.0111H14.0354H14.0599H14.0844H14.1092H14.134H14.1589H14.184H14.2092H14.2346H14.2601H14.2857H14.3114H14.3373H14.3633H14.3894H14.4157H14.4421H14.4687H14.4954H14.5223H14.5493H14.5764H14.6037H14.6312H14.6588H14.6865H14.7144H14.7425H14.7707H14.7991H14.8276H14.8563H14.8851H14.9141H14.9433H14.9726H15.0021H15.0318H15.0617H15.0917H15.1219H15.1522H15.1828H15.2135H15.2444H15.2754H15.3067H15.3381H15.3697H15.4015H15.4335H15.4656H15.498H15.5305H15.5633H15.5962H15.6293H15.6626H15.6961H15.7298H15.7637H15.7978H15.8321H15.8666H15.9013H15.9363H15.9714H16.0067H16.0422H16.078H16.1139H16.1501H16.1865H16.2231H16.2599H16.2969H16.3342H16.3717H16.4094H16.4473H16.4854H16.5238H16.5624H16.6012H16.6403H16.6796H16.7191H16.7589H16.7988H16.8391H16.8795H16.9202H16.9612H17.0024H17.0438H17.0855H17.1274H17.1696H17.212H17.2547H17.2976H17.3407H17.3842H17.4278H17.4718H17.516H17.5604H17.6051H17.6501H17.6954H17.7409H17.7866H17.8327H17.879H17.9255H17.9724H18.0195H18.0669H18.1145H18.1625H18.2107H18.2592H18.308H18.357H18.4064H18.456H18.5059H18.5561H18.6066H18.6574H18.7085H18.7598H18.8115H18.8634H18.9157H18.9682H19.021H19.0742H19.1276H19.1814H19.2354H19.2898H19.3444H19.3994H19.4547H19.5103H19.5662H19.6224H19.6789H19.7358H19.7929H19.8504H19.9082H19.9663H20.0248H20.0835H20.1426H20.2021H20.2618H20.3219H20.3823H20.443H20.5041H20.5655H20.6272H20.6893C20.7921 20.9232 20.8811 20.8887 20.9445 20.8253C21.0078 20.762 21.0423 20.673 21.0423 20.5702C21.0423 20.4674 21.0078 20.3785 20.9445 20.3151C20.8811 20.2517 20.7921 20.2173 20.6893 20.2173H18.5572V1.31064C18.5572 1.20783 18.5227 1.11887 18.4593 1.05551C18.396 0.992145 18.307 0.957692 18.2042 0.957692H6.08932C5.98652 0.957692 5.89756 0.992145 5.8342 1.05551C5.77083 1.11887 5.73638 1.20783 5.73638 1.31064V20.2173H3.60422C3.50141 20.2173 3.41245 20.2517 3.34909 20.3151C3.28572 20.3785 3.25127 20.4674 3.25127 20.5702C3.25127 20.673 3.28572 20.762 3.34909 20.8253C3.41245 20.8887 3.50141 20.9232 3.60422 20.9232ZM6.44227 1.66358H17.8513V20.2173H6.44227V1.66358Z"
        fill="#404553" stroke="#404553" stroke-width="0.0846159"/>
    <path
        d="M16.7132 2.49098H14.5698H8.72983C8.54344 2.49098 8.41919 2.61524 8.41919 2.80162V5.10034C8.41919 5.28673 8.54344 5.41098 8.72983 5.41098H16.7132C16.8996 5.41098 17.0239 5.28673 17.0239 5.10034V2.80162C17.0239 2.6463 16.8686 2.49098 16.7132 2.49098ZM11.1839 4.82077L12.8613 3.14332H13.7932L12.1158 4.82077H11.1839ZM9.04047 3.11226H11.9915L10.283 4.82077H9.04047V3.11226ZM16.4026 4.82077H13.0166L14.6941 3.14332H16.4026V4.82077Z"
        fill="#404553"/>
    <path
        d="M8.72983 15.6H11.9605C12.1469 15.6 12.2711 15.4758 12.2711 15.2894V6.62256C12.2711 6.43618 12.1469 6.31192 11.9605 6.31192H8.72983C8.54344 6.31192 8.41919 6.43618 8.41919 6.62256V15.2894C8.41919 15.4758 8.54344 15.6 8.72983 15.6ZM9.04047 6.9332H11.6498V14.9787H9.04047V6.9332Z"
        fill="#404553"/>
    <path
        d="M16.7135 15.6C16.8999 15.6 17.0242 15.4758 17.0242 15.2894V6.62256C17.0242 6.43618 16.8999 6.31192 16.7135 6.31192H13.4829C13.2965 6.31192 13.1722 6.43618 13.1722 6.62256V15.2894C13.1722 15.4758 13.2965 15.6 13.4829 15.6H16.7135ZM13.7935 6.9332H16.4029V14.9787H13.7935V6.9332Z"
        fill="#404553"/>
    <path
        d="M16.7132 16.5009H8.72983C8.54344 16.5009 8.41919 16.6252 8.41919 16.8116V19.0792C8.41919 19.2656 8.54344 19.3899 8.72983 19.3899H16.7132C16.8996 19.3899 17.0239 19.2656 17.0239 19.0792V16.8116C17.0239 16.6252 16.8686 16.5009 16.7132 16.5009ZM16.4026 18.7686H9.04047V17.1222H16.4026V18.7686Z"
        fill="#404553"/>
    <path
        d="M7.39462 10.0085C7.20824 10.0085 7.08398 10.1328 7.08398 10.3191V11.5617C7.08398 11.7481 7.20824 11.8723 7.39462 11.8723C7.58101 11.8723 7.70526 11.7481 7.70526 11.5617V10.3191C7.70526 10.1638 7.58101 10.0085 7.39462 10.0085Z"
        fill="#404553"/>
    <path d="M8.16332 13.9991H1V21.1731H8.16332V13.9991Z" fill="#FBED30" stroke="#404553" stroke-width="0.761543"/>
    <path d="M10.9889 16.1208H5.94434V21.173H10.9889V16.1208Z" fill="#FBED30" stroke="#404553" stroke-width="0.761543"/>
</svg>
