<svg width="18" height="22" viewBox="0 0 18 22" fill="none" xmlns="http://www.w3.org/2000/svg">
<path d="M14.0935 0.355469L0.3396 6.09912V17.2101L4.92424 15.6134L5.09405 18.6295L9.16929 14.0166L14.4331 11.5328L14.0935 0.355469Z" fill="#F3E008"/>
<path d="M8.30568 21.999C8.29311 21.999 8.28055 22 8.26764 22C8.25338 21.9801 5.98959 20.4292 4.8689 19.6797C4.81456 19.6428 4.71234 19.6447 4.64544 19.6703C4.35066 19.7829 4.0569 19.9012 3.77129 20.0365C3.61406 20.1112 3.49757 20.098 3.3563 20.0005C2.5005 19.4119 0.259457 17.9178 0 17.7512C0 13.8214 0 9.89153 0 5.96265C0.0669019 5.94371 9.59821 1.99212 14.2963 0.0295246C14.423 -0.0234523 14.5034 -0.00170057 14.6046 0.0673859C15.6622 0.787489 16.7197 1.50667 17.7847 2.21542C17.9385 2.31761 18 2.42456 18 2.62231C17.9935 6.35911 17.9952 14.0154 17.9952 14.1053C16.284 14.8178 14.5802 15.5266 12.8788 16.2391C12.7874 16.277 12.6889 16.3337 12.6285 16.4113C11.1838 18.2717 9.74492 20.1358 8.30568 21.999ZM13.9798 0.700447C13.8697 0.743028 13.7981 0.768576 13.7278 0.797921C9.39241 2.60339 5.05771 4.4117 0.7203 6.2115C0.536914 6.28722 0.476464 6.37522 0.476464 6.5834C0.483595 9.98049 0.480879 16.9044 0.480879 16.999C2.08449 16.3319 3.62764 15.6695 5.2214 15.0052C5.2214 16.0716 5.25129 17.1106 5.25129 18.1752C5.30902 18.1042 7.62579 14.9285 8.74682 13.4912C8.74682 13.4912 12.1503 12.0547 13.7186 11.4094C13.8786 11.3431 13.9835 11.3195 13.9825 11.1463C13.9771 7.76908 13.9791 4.39088 13.9791 1.01366C13.9798 0.921864 13.9798 0.830069 13.9798 0.700447Z" fill="#26272A"/>
<path d="M6.19845 6.08303C6.19845 6.46345 5.98348 6.82964 5.687 6.95362C5.39053 7.07756 5.17522 6.89021 5.17522 6.50979C5.17522 6.1294 5.39053 5.76321 5.687 5.63923C5.98348 5.51621 6.19845 5.70264 6.19845 6.08303ZM9.27118 4.80179C9.27118 5.18221 9.05587 5.5484 8.75939 5.67234C8.46292 5.79632 8.24795 5.60897 8.24795 5.22855C8.24795 4.84817 8.46292 4.48194 8.75939 4.358C9.05587 4.23402 9.27118 4.42045 9.27118 4.80179ZM11.9479 2.43706C11.7163 2.53358 11.5068 2.70769 11.3448 2.93575L11.2986 2.76542L10.8901 2.93575V5.3213L11.409 5.1046V3.80821C11.409 3.5319 11.5689 3.18555 11.8746 3.05781C12.1133 2.95846 12.256 3.09283 12.256 3.41928V4.75165L12.7749 4.53495V3.15908C12.7759 2.50994 12.4512 2.227 11.9479 2.43706ZM5.687 5.04875C5.10458 5.29196 4.64918 6.03005 4.64918 6.73028C4.64918 7.43051 5.10458 7.78822 5.687 7.54502C6.26908 7.30182 6.72551 6.56376 6.72551 5.86349C6.72551 5.16326 6.26908 4.80559 5.687 5.04875ZM8.76042 3.76656C8.17834 4.00976 7.72191 4.74785 7.72191 5.44809C7.72191 6.14832 8.17732 6.50603 8.76042 6.26282C9.3425 6.01965 9.79892 5.28156 9.79892 4.58129C9.79824 3.88202 9.3425 3.52339 8.76042 3.76656ZM2.72804 6.28269C2.49677 6.37921 2.28723 6.55333 2.12524 6.78138L2.07905 6.61106L1.67153 6.78138V9.16694L2.19045 8.95024V7.65385C2.19045 7.37754 2.3504 7.03118 2.65604 6.9044C2.89444 6.80505 3.03742 6.93942 3.03742 7.26587V8.59821L3.55633 8.38151V7.00471C3.55701 6.3565 3.23167 6.07263 2.72804 6.28269Z" fill="#26272A"/>
<path d="M3.74345 13.5472L2.73823 13.9664L1.64436 11.3358L2.68015 10.9034L3.25069 12.9265L3.81579 10.4302L4.8363 10.0044L3.74345 13.5472Z" fill="#26272A"/>
<path d="M7.57893 8.11435C7.57893 8.42661 7.38705 8.70292 7.09703 8.82406C6.80667 8.94516 6.61514 8.82878 6.61514 8.51652C6.61514 8.20423 6.80667 7.92792 7.09703 7.80682C7.38705 7.68568 7.57893 7.80206 7.57893 8.11435ZM6.63042 12.3432V9.25554L7.56331 8.86664V11.9534L6.63042 12.3432Z" fill="#26272A"/>
<path d="M12.7406 8.08606C12.7406 9.1847 12.1395 10.0307 11.4297 10.3268C11.2022 10.4214 10.9325 10.4763 10.7926 10.4423L10.6109 10.1887V11.7207L9.67802 12.1096V7.88923L10.6109 7.50033V7.95168L10.8177 7.524C10.9733 7.33189 11.2426 7.15589 11.5227 7.03951C12.2739 6.72629 12.7406 7.17293 12.7406 8.08606ZM11.787 8.53649C11.787 7.95832 11.5275 7.74258 11.2011 7.87883C10.8595 8.02173 10.6109 8.35669 10.6109 9.00395V9.13736C10.6109 9.75623 10.8955 9.84519 11.1757 9.7288C11.5384 9.57644 11.787 9.16671 11.787 8.53649Z" fill="#26272A"/>
</svg>
