<svg width="40" height="40" viewBox="0 0 40 40" fill="none" xmlns="http://www.w3.org/2000/svg">
<rect width="40" height="40" rx="20" fill="#FFF8EC"/>
<path d="M24.3736 11.427L11.6055 16.5301V26.4019L15.8615 24.9832L16.0191 27.6629L19.8023 23.5645L24.6888 21.3577L24.3736 11.427Z" fill="#F3E008"/>
<path d="M19.0006 30.6568C18.9889 30.6568 18.9772 30.6577 18.9652 30.6577C18.952 30.64 16.8505 29.262 15.8101 28.5962C15.7597 28.5634 15.6648 28.5651 15.6027 28.5878C15.329 28.6878 15.0563 28.7929 14.7912 28.9131C14.6452 28.9796 14.5371 28.9678 14.4059 28.8812C13.6115 28.3583 11.5311 27.0308 11.2902 26.8828C11.2902 23.3912 11.2902 19.8997 11.2902 16.409C11.3523 16.3921 20.2004 12.8813 24.5617 11.1376C24.6793 11.0905 24.7541 11.1098 24.848 11.1712C25.8297 11.811 26.8114 12.45 27.8001 13.0797C27.9429 13.1705 28 13.2655 28 13.4412C27.994 16.7612 27.9956 23.5636 27.9956 23.6434C26.407 24.2765 24.8253 24.9062 23.2459 25.5393C23.161 25.5729 23.0696 25.6234 23.0135 25.6923C21.6724 27.3452 20.3366 29.0014 19.0006 30.6568ZM24.2679 11.7337C24.1658 11.7715 24.0993 11.7942 24.034 11.8203C20.0094 13.4244 15.9854 15.031 11.9589 16.6301C11.7886 16.6973 11.7325 16.7755 11.7325 16.9605C11.7392 19.9787 11.7366 26.1303 11.7366 26.2144C13.2253 25.6217 14.6578 25.0332 16.1374 24.443C16.1374 25.3905 16.1651 26.3136 16.1651 27.2594C16.2187 27.1964 18.3694 24.3749 19.4101 23.0978C19.4101 23.0978 22.5696 21.8216 24.0255 21.2482C24.174 21.1894 24.2714 21.1683 24.2704 21.0145C24.2654 18.0139 24.2673 15.0125 24.2673 12.0119C24.2679 11.9304 24.2679 11.8488 24.2679 11.7337Z" fill="#404553"/>
<path d="M17.0444 16.5159C17.0444 16.8539 16.8448 17.1793 16.5696 17.2894C16.2944 17.3995 16.0945 17.2331 16.0945 16.8951C16.0945 16.5571 16.2944 16.2318 16.5696 16.1216C16.8448 16.0123 17.0444 16.178 17.0444 16.5159ZM19.8969 15.3776C19.8969 15.7156 19.697 16.0409 19.4218 16.151C19.1465 16.2612 18.947 16.0947 18.947 15.7568C18.947 15.4188 19.1465 15.0934 19.4218 14.9833C19.697 14.8731 19.8969 15.0388 19.8969 15.3776ZM22.3817 13.2766C22.1667 13.3623 21.9722 13.517 21.8218 13.7197L21.779 13.5683L21.3997 13.7197V15.8392L21.8814 15.6466V14.4948C21.8814 14.2493 22.0299 13.9416 22.3136 13.8281C22.5353 13.7398 22.6677 13.8592 22.6677 14.1493V15.333L23.1494 15.1405V13.9181C23.1503 13.3414 22.849 13.09 22.3817 13.2766ZM16.5696 15.597C16.0289 15.8131 15.6062 16.4689 15.6062 17.091C15.6062 17.7131 16.0289 18.0309 16.5696 17.8149C17.1099 17.5988 17.5337 16.943 17.5337 16.3209C17.5337 15.6987 17.1099 15.381 16.5696 15.597ZM19.4227 14.4578C18.8823 14.6739 18.4586 15.3297 18.4586 15.9518C18.4586 16.5739 18.8814 16.8918 19.4227 16.6757C19.9631 16.4596 20.3868 15.8039 20.3868 15.1817C20.3861 14.5604 19.9631 14.2418 19.4227 14.4578ZM13.8227 16.6933C13.608 16.7791 13.4135 16.9338 13.2631 17.1364L13.2203 16.9851L12.8419 17.1364V19.2559L13.3237 19.0634V17.9116C13.3237 17.6661 13.4722 17.3583 13.7559 17.2457C13.9772 17.1574 14.1099 17.2768 14.1099 17.5669V18.7506L14.5916 18.5581V17.3348C14.5923 16.7589 14.2903 16.5067 13.8227 16.6933Z" fill="#404553"/>
<path d="M14.7653 23.1477L13.8322 23.5201L12.8167 21.1829L13.7783 20.7987L14.3079 22.5962L14.8325 20.3783L15.7798 20L14.7653 23.1477Z" fill="#404553"/>
<path d="M18.3259 18.3209C18.3259 18.5983 18.1478 18.8438 17.8785 18.9515C17.609 19.0591 17.4312 18.9556 17.4312 18.6782C17.4312 18.4008 17.609 18.1553 17.8785 18.0477C18.1478 17.94 18.3259 18.0434 18.3259 18.3209ZM17.4454 22.0781V19.3348L18.3114 18.9893V21.7317L17.4454 22.0781Z" fill="#404553"/>
<path d="M23.1176 18.2956C23.1176 19.2717 22.5595 20.0234 21.9007 20.2865C21.6894 20.3706 21.4391 20.4193 21.3092 20.3891L21.1406 20.1637V21.5249L20.2745 21.8704V18.1208L21.1406 17.7752V18.1762L21.3326 17.7963C21.4769 17.6256 21.7269 17.4692 21.987 17.3658C22.6844 17.0875 23.1176 17.4843 23.1176 18.2956ZM22.2323 18.6958C22.2323 18.1821 21.9914 17.9905 21.6885 18.1115C21.3713 18.2385 21.1406 18.5361 21.1406 19.1112V19.2297C21.1406 19.7795 21.4047 19.8586 21.6648 19.7552C22.0015 19.6198 22.2323 19.2558 22.2323 18.6958Z" fill="#404553"/>
<path d="M11.9374 19.2024L11.2902 19.366V23.0116L11.9374 22.794V19.2024Z" fill="#F3E008"/>
<path d="M9.00808 21.1763L11.9427 20.2753" stroke="#404553" stroke-linecap="round" stroke-linejoin="round"/>
<path d="M9.07194 22.8375L11.0761 22.2124" stroke="#404553" stroke-linecap="round" stroke-linejoin="round"/>
</svg>
