<svg width="24" height="24" viewBox="0 0 24 24" fill="none" xmlns="http://www.w3.org/2000/svg">
<path fill-rule="evenodd" clip-rule="evenodd" d="M12.3793 22C17.9021 22 22.3793 17.5228 22.3793 12C22.3793 6.47715 17.9021 2 12.3793 2C6.85642 2 2.37927 6.47715 2.37927 12C2.37927 17.5228 6.85642 22 12.3793 22Z" fill="white"/>
<mask id="mask0" mask-type="alpha" maskUnits="userSpaceOnUse" x="2" y="2" width="21" height="20">
<path fill-rule="evenodd" clip-rule="evenodd" d="M12.3793 22C17.9021 22 22.3793 17.5228 22.3793 12C22.3793 6.47715 17.9021 2 12.3793 2C6.85642 2 2.37927 6.47715 2.37927 12C2.37927 17.5228 6.85642 22 12.3793 22Z" fill="white"/>
</mask>
<g mask="url(#mask0)">
<path fill-rule="evenodd" clip-rule="evenodd" d="M11.497 2.50757C8.96289 4.87977 7.37927 8.25496 7.37927 12C7.37927 15.7451 8.96289 19.1203 11.497 21.4925C6.42752 21.2919 2.37927 17.1187 2.37927 12C2.37927 6.88134 6.42752 2.70818 11.497 2.50757Z" fill="#FEEE00"/>
<path fill-rule="evenodd" clip-rule="evenodd" d="M13.3793 2.50757C15.9134 4.87977 17.497 8.25496 17.497 12C17.497 15.7451 15.9134 19.1203 13.3793 21.4925C18.4488 21.2919 22.497 17.1187 22.497 12C22.497 6.88134 18.4488 2.70818 13.3793 2.50757Z" fill="#FEEE00"/>
</g>
<path fill-rule="evenodd" clip-rule="evenodd" d="M12.3793 2C16.4382 2 20.0942 4.45419 21.6315 8.21075C21.6468 8.23957 21.6589 8.27006 21.6674 8.30162C22.6166 10.6758 22.6166 13.3242 21.6674 15.6984C21.6589 15.7299 21.6468 15.7604 21.6315 15.7893C20.0942 19.5458 16.4382 22 12.3793 22C8.32035 22 4.66433 19.5458 3.12709 15.7893C3.1117 15.7604 3.09966 15.7299 3.09119 15.6984C2.14197 13.3242 2.14197 10.6758 3.09119 8.30162C3.09966 8.27006 3.1117 8.23957 3.12709 8.21075C4.66433 4.45419 8.32035 2 12.3793 2ZM8.49354 16.0217C9.21585 19.0188 10.7048 21.1304 12.3793 21.1304C14.0537 21.1304 15.5427 19.0188 16.265 16.0217H8.49354ZM16.7271 12C16.7285 13.0569 16.6353 14.1118 16.4487 15.1522H8.30989C7.93863 13.0671 7.93863 10.9329 8.30989 8.84782H16.4487C16.6353 9.88814 16.7285 10.9431 16.7271 12ZM7.41812 8.84782H3.81011C3.43793 9.85704 3.24789 10.9243 3.24884 12C3.24789 13.0757 3.43793 14.1429 3.81011 15.1522H7.41812C7.07647 13.0646 7.07647 10.9354 7.41812 8.84782ZM12.3793 2.86957C14.0537 2.86957 15.5427 4.98115 16.265 7.97826H8.49354C9.21585 4.98115 10.7048 2.86957 12.3793 2.86957ZM17.3404 15.1522H20.9484C21.6968 13.1173 21.6968 10.8826 20.9484 8.84782H17.3404C17.5129 9.88965 17.5986 10.944 17.5967 12C17.5986 13.056 17.5129 14.1103 17.3404 15.1522ZM20.5737 7.97826H17.1711C16.7175 5.94814 15.9269 4.2855 14.9259 3.23364C17.3896 3.95504 19.4381 5.67598 20.5737 7.97826ZM7.58743 7.97826C8.04107 5.94814 8.83166 4.2855 9.83266 3.23364C7.36899 3.95504 5.32044 5.67598 4.18484 7.97826H7.58743ZM7.58743 16.0217C8.04107 18.0518 8.83167 19.7145 9.83266 20.7663C7.36899 20.045 5.32044 18.324 4.18484 16.0217H7.58743ZM20.5737 16.0217H17.1711C16.7175 18.0518 15.9269 19.7145 14.9259 20.7663C17.3896 20.045 19.4381 18.324 20.5737 16.0217Z" fill="#404553"/>
<path d="M21.6315 8.21075L21.3538 8.32437L21.3596 8.33854L21.3668 8.35204L21.6315 8.21075ZM21.6674 8.30162L21.3776 8.3793L21.3822 8.39648L21.3888 8.41299L21.6674 8.30162ZM21.6674 15.6984L21.3888 15.587L21.3822 15.6035L21.3776 15.6207L21.6674 15.6984ZM21.6315 15.7893L21.3668 15.648L21.3596 15.6615L21.3538 15.6756L21.6315 15.7893ZM3.12709 15.7893L3.40474 15.6756L3.39894 15.6615L3.39173 15.648L3.12709 15.7893ZM3.09119 15.6984L3.38096 15.6207L3.37636 15.6035L3.36976 15.587L3.09119 15.6984ZM3.09119 8.30162L3.36976 8.41299L3.37636 8.39648L3.38096 8.37931L3.09119 8.30162ZM3.12709 8.21075L3.39173 8.35203L3.39894 8.33853L3.40474 8.32437L3.12709 8.21075ZM8.49354 16.0217V15.7217H8.11265L8.20189 16.092L8.49354 16.0217ZM16.265 16.0217L16.5567 16.092L16.6459 15.7217H16.265V16.0217ZM16.4487 15.1522V15.4522H16.6996L16.7439 15.2051L16.4487 15.1522ZM16.7271 12L16.4271 11.9996L16.4271 12.0004L16.7271 12ZM8.30989 15.1522L8.01453 15.2048L8.05858 15.4522H8.30989V15.1522ZM8.30989 8.84782V8.54782H8.05858L8.01453 8.79523L8.30989 8.84782ZM16.4487 8.84782L16.7439 8.79485L16.6996 8.54782H16.4487V8.84782ZM3.81011 8.84782V8.54782H3.60099L3.52864 8.74402L3.81011 8.84782ZM7.41812 8.84782L7.71418 8.89628L7.77121 8.54782H7.41812V8.84782ZM3.24884 12L3.54884 12.0003L3.54884 11.9997L3.24884 12ZM3.81011 15.1522L3.52864 15.256L3.60099 15.4522H3.81011V15.1522ZM7.41812 15.1522V15.4522H7.77121L7.71418 15.1037L7.41812 15.1522ZM16.265 7.97826V8.27826H16.6459L16.5567 7.90797L16.265 7.97826ZM8.49354 7.97826L8.20189 7.90797L8.11265 8.27826H8.49354V7.97826ZM20.9484 15.1522V15.4522H21.1577L21.23 15.2557L20.9484 15.1522ZM17.3404 15.1522L17.0444 15.1032L16.9867 15.4522H17.3404V15.1522ZM20.9484 8.84782L21.23 8.74427L21.1577 8.54782H20.9484V8.84782ZM17.3404 8.84782V8.54782H16.9867L17.0444 8.89681L17.3404 8.84782ZM17.5967 12L17.2967 11.9994L17.2967 12.0005L17.5967 12ZM17.1711 7.97826L16.8783 8.04368L16.9308 8.27826H17.1711V7.97826ZM20.5737 7.97826V8.27826H21.0562L20.8428 7.84555L20.5737 7.97826ZM14.9259 3.23364L15.0102 2.94573L13.9394 2.63218L14.7086 3.44045L14.9259 3.23364ZM9.83266 3.23364L10.05 3.44045L10.8192 2.63218L9.74835 2.94573L9.83266 3.23364ZM7.58743 7.97826V8.27826H7.82779L7.88021 8.04368L7.58743 7.97826ZM4.18484 7.97826L3.91579 7.84555L3.70235 8.27826H4.18484V7.97826ZM9.83266 20.7663L9.74835 21.0543L10.8192 21.3678L10.05 20.5595L9.83266 20.7663ZM7.58743 16.0217L7.88021 15.9563L7.82779 15.7217H7.58743V16.0217ZM4.18484 16.0217V15.7217H3.70235L3.91579 16.1544L4.18484 16.0217ZM17.1711 16.0217V15.7217H16.9308L16.8783 15.9563L17.1711 16.0217ZM20.5737 16.0217L20.8428 16.1544L21.0562 15.7217H20.5737V16.0217ZM14.9259 20.7663L14.7086 20.5595L13.9394 21.3678L15.0102 21.0543L14.9259 20.7663ZM21.9091 8.09713C20.3257 4.22784 16.56 1.7 12.3793 1.7V2.3C16.3164 2.3 19.8627 4.68054 21.3538 8.32437L21.9091 8.09713ZM21.9571 8.22393C21.9427 8.17028 21.9223 8.11845 21.8961 8.06946L21.3668 8.35204C21.3714 8.36069 21.375 8.36984 21.3776 8.3793L21.9571 8.22393ZM21.9459 15.8098C22.9237 13.364 22.9237 10.636 21.9459 8.19025L21.3888 8.41299C22.3094 10.7157 22.3094 13.2843 21.3888 15.587L21.9459 15.8098ZM21.8961 15.9305C21.9223 15.8816 21.9427 15.8297 21.9571 15.7761L21.3776 15.6207C21.375 15.6302 21.3714 15.6393 21.3668 15.648L21.8961 15.9305ZM12.3793 22.3C16.56 22.3 20.3257 19.7722 21.9091 15.9029L21.3538 15.6756C19.8627 19.3195 16.3164 21.7 12.3793 21.7V22.3ZM2.84943 15.9029C4.43281 19.7722 8.19855 22.3 12.3793 22.3V21.7C8.44216 21.7 4.89585 19.3195 3.40474 15.6756L2.84943 15.9029ZM2.80143 15.7761C2.81581 15.8297 2.83628 15.8815 2.86244 15.9305L3.39173 15.648C3.38711 15.6393 3.3835 15.6302 3.38096 15.6207L2.80143 15.7761ZM2.81263 8.19025C1.83482 10.636 1.83482 13.364 2.81263 15.8098L3.36976 15.587C2.44911 13.2843 2.44911 10.7157 3.36976 8.41299L2.81263 8.19025ZM2.86244 8.06946C2.83628 8.11846 2.81581 8.17028 2.80143 8.22392L3.38096 8.37931C3.3835 8.36984 3.38711 8.36069 3.39173 8.35203L2.86244 8.06946ZM12.3793 1.7C8.19855 1.7 4.43281 4.22784 2.84943 8.09713L3.40474 8.32437C4.89585 4.68054 8.44216 2.3 12.3793 2.3V1.7ZM12.3793 20.8304C11.6768 20.8304 10.9643 20.3865 10.32 19.5209C9.67926 18.6601 9.14002 17.4238 8.78519 15.9514L8.20189 16.092C8.56936 17.6168 9.13576 18.9348 9.8387 19.8791C10.538 20.8186 11.4072 21.4304 12.3793 21.4304V20.8304ZM15.9734 15.9514C15.6185 17.4238 15.0793 18.6601 14.4385 19.5209C13.7942 20.3865 13.0817 20.8304 12.3793 20.8304V21.4304C13.3513 21.4304 14.2205 20.8186 14.9198 19.8791C15.6228 18.9348 16.1892 17.6168 16.5567 16.092L15.9734 15.9514ZM8.49354 16.3217H16.265V15.7217H8.49354V16.3217ZM16.7439 15.2051C16.9337 14.1472 17.0285 13.0744 17.0271 11.9996L16.4271 12.0004C16.4284 13.0394 16.3368 14.0765 16.1534 15.0992L16.7439 15.2051ZM8.30989 15.4522H16.4487V14.8522H8.30989V15.4522ZM8.01453 8.79523C7.63708 10.9151 7.63708 13.0849 8.01453 15.2048L8.60524 15.0996C8.24018 13.0493 8.24018 10.9507 8.60524 8.90041L8.01453 8.79523ZM16.4487 8.54782H8.30989V9.14782H16.4487V8.54782ZM17.0271 12.0004C17.0285 10.9256 16.9337 9.85278 16.7439 8.79485L16.1534 8.90079C16.3368 9.9235 16.4284 10.9606 16.4271 11.9996L17.0271 12.0004ZM3.81011 9.14782H7.41812V8.54782H3.81011V9.14782ZM3.54884 11.9997C3.54792 10.9596 3.73168 9.92753 4.09158 8.95162L3.52864 8.74402C3.14417 9.78656 2.94786 10.8891 2.94884 12.0003L3.54884 11.9997ZM4.09158 15.0484C3.73168 14.0725 3.54792 13.0404 3.54884 12.0003L2.94884 11.9997C2.94786 13.1109 3.14417 14.2134 3.52864 15.256L4.09158 15.0484ZM7.41812 14.8522H3.81011V15.4522H7.41812V14.8522ZM7.12206 8.79937C6.77515 10.919 6.77515 13.081 7.12206 15.2006L7.71418 15.1037C7.37778 13.0482 7.37778 10.9517 7.71418 8.89628L7.12206 8.79937ZM16.5567 7.90797C16.1892 6.3832 15.6228 5.06519 14.9198 4.12086C14.2205 3.1814 13.3513 2.56957 12.3793 2.56957V3.16957C13.0817 3.16957 13.7942 3.61352 14.4385 4.47913C15.0793 5.33988 15.6185 6.57621 15.9734 8.04854L16.5567 7.90797ZM8.49354 8.27826H16.265V7.67826H8.49354V8.27826ZM12.3793 2.56957C11.4072 2.56957 10.538 3.1814 9.8387 4.12086C9.13576 5.06519 8.56936 6.3832 8.20189 7.90797L8.78519 8.04855C9.14002 6.57621 9.67926 5.33988 10.32 4.47913C10.9643 3.61352 11.6768 3.16957 12.3793 3.16957V2.56957ZM20.9484 14.8522H17.3404V15.4522H20.9484V14.8522ZM20.6669 8.95137C21.3906 10.9193 21.3906 13.0806 20.6669 15.0486L21.23 15.2557C22.0029 13.154 22.0029 10.8459 21.23 8.74427L20.6669 8.95137ZM17.3404 9.14782H20.9484V8.54782H17.3404V9.14782ZM17.8967 12.0005C17.8986 10.9279 17.8116 9.85703 17.6364 8.79883L17.0444 8.89681C17.2142 9.92227 17.2986 10.96 17.2967 11.9994L17.8967 12.0005ZM17.6364 15.2012C17.8116 14.143 17.8986 13.072 17.8967 11.9994L17.2967 12.0005C17.2986 13.0399 17.2142 14.0777 17.0444 15.1032L17.6364 15.2012ZM17.1711 8.27826H20.5737V7.67826H17.1711V8.27826ZM14.7086 3.44045C15.6596 4.43978 16.4319 6.04566 16.8783 8.04368L17.4639 7.91283C17.0031 5.85062 16.1942 4.13122 15.1432 3.02683L14.7086 3.44045ZM20.8428 7.84555C19.67 5.46796 17.5545 3.69072 15.0102 2.94573L14.8416 3.52155C17.2247 4.21935 19.2062 5.884 20.3047 8.11097L20.8428 7.84555ZM9.61534 3.02683C8.56435 4.13122 7.75546 5.85062 7.29465 7.91283L7.88021 8.04368C8.32667 6.04566 9.09898 4.43978 10.05 3.44045L9.61534 3.02683ZM4.45389 8.11097C5.55234 5.884 7.53388 4.21935 9.91696 3.52155L9.74835 2.94573C7.20409 3.69072 5.08854 5.46796 3.91579 7.84555L4.45389 8.11097ZM7.58743 7.67826H4.18484V8.27826H7.58743V7.67826ZM10.05 20.5595C9.09898 19.5602 8.32667 17.9543 7.88021 15.9563L7.29465 16.0872C7.75546 18.1494 8.56436 19.8688 9.61534 20.9732L10.05 20.5595ZM3.91579 16.1544C5.08854 18.532 7.20409 20.3093 9.74835 21.0543L9.91696 20.4784C7.53388 19.7806 5.55234 18.116 4.45389 15.889L3.91579 16.1544ZM7.58743 15.7217H4.18484V16.3217H7.58743V15.7217ZM17.1711 16.3217H20.5737V15.7217H17.1711V16.3217ZM15.1432 20.9732C16.1942 19.8688 17.0031 18.1494 17.4639 16.0872L16.8783 15.9563C16.4319 17.9543 15.6596 19.5602 14.7086 20.5595L15.1432 20.9732ZM20.3047 15.889C19.2062 18.116 17.2247 19.7806 14.8416 20.4784L15.0102 21.0543C17.5545 20.3093 19.67 18.532 20.8428 16.1544L20.3047 15.889Z" fill="#404553"/>
</svg>
