<svg width="24" height="24" viewBox="0 0 24 24" fill="none" xmlns="http://www.w3.org/2000/svg">
<path fill-rule="evenodd" clip-rule="evenodd" d="M14 17.5C17.866 17.5 21 14.366 21 10.5C21 6.63401 17.866 3.5 14 3.5C10.134 3.5 7 6.63401 7 10.5C7 14.366 10.134 17.5 14 17.5Z" fill="#FEEE00"/>
<path fill-rule="evenodd" clip-rule="evenodd" d="M12 2.5C14.5377 2.5 16.9234 3.488 18.7177 5.28231C20.512 7.07662 21.5 9.46231 21.5 12C21.5 14.5377 20.512 16.9234 18.7177 18.7177C16.9234 20.512 14.5377 21.5 12 21.5C9.4635 21.5 7.07662 20.512 5.28231 18.7177C3.488 16.9234 2.5 14.5377 2.5 12C2.5 9.46231 3.488 7.07662 5.28231 5.28231C7.07662 3.488 9.4635 2.5 12 2.5ZM17.8781 17.8781C16.3083 19.448 14.2206 20.3125 12 20.3125C9.77938 20.3125 7.69175 19.448 6.12306 17.8781C4.552 16.3083 3.6875 14.2206 3.6875 12C3.6875 9.77938 4.552 7.69175 6.12306 6.12188C7.69294 4.552 9.78056 3.6875 12 3.6875C14.2206 3.6875 16.3083 4.552 17.8781 6.12188C19.448 7.69175 20.3125 9.77938 20.3125 12C20.3125 14.2206 19.448 16.3083 17.8781 17.8781ZM11.4062 7.26781V8.45531H12.5938V7.26781H11.4062ZM11.4062 9.63569V16.7334H12.5938V9.63569H11.4062Z" fill="#404553"/>
<path d="M18.7177 5.28231L18.5409 5.45909L18.7177 5.28231ZM18.7177 18.7177L18.5409 18.5409L18.7177 18.7177ZM5.28231 18.7177L5.45909 18.5409L5.28231 18.7177ZM6.12306 17.8781L6.29991 17.7014L6.29977 17.7013L6.12306 17.8781ZM6.12306 6.12188L6.29977 6.29872L6.29984 6.29865L6.12306 6.12188ZM11.4062 8.45531H11.1562V8.70531H11.4062V8.45531ZM11.4062 7.26781V7.01781H11.1562V7.26781H11.4062ZM12.5938 8.45531V8.70531H12.8438V8.45531H12.5938ZM12.5938 7.26781H12.8438V7.01781H12.5938V7.26781ZM11.4062 16.7334H11.1562V16.9834H11.4062V16.7334ZM11.4062 9.63569V9.38569H11.1562V9.63569H11.4062ZM12.5938 16.7334V16.9834H12.8438V16.7334H12.5938ZM12.5938 9.63569H12.8438V9.38569H12.5938V9.63569ZM18.8945 5.10554C17.0533 3.26433 14.604 2.25 12 2.25V2.75C14.4714 2.75 16.7935 3.71167 18.5409 5.45909L18.8945 5.10554ZM21.75 12C21.75 9.39602 20.7357 6.94674 18.8945 5.10554L18.5409 5.45909C20.2883 7.20651 21.25 9.5286 21.25 12H21.75ZM18.8945 18.8945C20.7357 17.0533 21.75 14.604 21.75 12H21.25C21.25 14.4714 20.2883 16.7935 18.5409 18.5409L18.8945 18.8945ZM12 21.75C14.604 21.75 17.0533 20.7357 18.8945 18.8945L18.5409 18.5409C16.7935 20.2883 14.4714 21.25 12 21.25V21.75ZM5.10554 18.8945C6.94675 20.7357 9.39723 21.75 12 21.75V21.25C9.52977 21.25 7.2065 20.2883 5.45909 18.5409L5.10554 18.8945ZM2.25 12C2.25 14.604 3.26433 17.0533 5.10554 18.8945L5.45909 18.5409C3.71167 16.7935 2.75 14.4714 2.75 12H2.25ZM5.10554 5.10554C3.26433 6.94674 2.25 9.39602 2.25 12H2.75C2.75 9.5286 3.71167 7.20651 5.45909 5.45909L5.10554 5.10554ZM12 2.25C9.39723 2.25 6.94675 3.26432 5.10554 5.10554L5.45909 5.45909C7.2065 3.71168 9.52977 2.75 12 2.75V2.25ZM12 20.5625C14.2869 20.5625 16.4381 19.6717 18.0549 18.0549L17.7013 17.7013C16.1784 19.2243 14.1543 20.0625 12 20.0625V20.5625ZM5.94622 18.0548C7.56185 19.6717 9.71311 20.5625 12 20.5625V20.0625C9.84564 20.0625 7.82165 19.2243 6.29991 17.7014L5.94622 18.0548ZM3.4375 12C3.4375 14.2869 4.32833 16.4382 5.94635 18.055L6.29977 17.7013C4.77567 16.1783 3.9375 14.1543 3.9375 12H3.4375ZM5.94635 5.94503C4.32833 7.56183 3.4375 9.71309 3.4375 12H3.9375C3.9375 9.84566 4.77567 7.82167 6.29977 6.29872L5.94635 5.94503ZM12 3.4375C9.71426 3.4375 7.56305 4.32834 5.94629 5.9451L6.29984 6.29865C7.82283 4.77567 9.84686 3.9375 12 3.9375V3.4375ZM18.0549 5.9451C16.4381 4.32832 14.2869 3.4375 12 3.4375V3.9375C14.1543 3.9375 16.1784 4.77568 17.7013 6.29865L18.0549 5.9451ZM20.5625 12C20.5625 9.7131 19.6717 7.56188 18.0549 5.9451L17.7013 6.29865C19.2243 7.82162 20.0625 9.84565 20.0625 12H20.5625ZM18.0549 18.0549C19.6717 16.4381 20.5625 14.2869 20.5625 12H20.0625C20.0625 14.1543 19.2243 16.1784 17.7013 17.7013L18.0549 18.0549ZM11.6562 8.45531V7.26781H11.1562V8.45531H11.6562ZM12.5938 8.20531H11.4062V8.70531H12.5938V8.20531ZM12.3438 7.26781V8.45531H12.8438V7.26781H12.3438ZM11.4062 7.51781H12.5938V7.01781H11.4062V7.51781ZM11.6562 16.7334V9.63569H11.1562V16.7334H11.6562ZM12.5938 16.4834H11.4062V16.9834H12.5938V16.4834ZM12.3438 9.63569V16.7334H12.8438V9.63569H12.3438ZM11.4062 9.88569H12.5938V9.38569H11.4062V9.88569Z" fill="#404553"/>
</svg>
