<svg width="24" height="24" viewBox="0 0 24 24" fill="none" xmlns="http://www.w3.org/2000/svg">
<path fill-rule="evenodd" clip-rule="evenodd" d="M3.63926 2.80225H14.3677L3.37394 13.3047H3.21138V2.80225H3.63926Z" fill="#FEEE00"/>
<path fill-rule="evenodd" clip-rule="evenodd" d="M21.2083 3.2147L15.6554 8.07351L21.2083 12.9323C21.4513 13.1058 21.5207 13.4182 21.4166 13.6958C21.3124 13.9735 21.0348 14.147 20.7572 14.147H3.92485V22H2.53662V2H20.7572C21.0695 2 21.3124 2.17353 21.4166 2.45118C21.5207 2.72882 21.4166 3.04117 21.2083 3.2147ZM3.95956 3.38823V12.7588H18.9525L14.1631 8.5941C13.9895 8.45527 13.9201 8.28175 13.9201 8.07351C13.9201 7.86528 14.0242 7.69175 14.1631 7.55292L18.9525 3.38823H3.95956Z" fill="#404553"/>
<path d="M15.6554 8.07351L15.5896 7.99825L15.5035 8.07351L15.5896 8.14877L15.6554 8.07351ZM21.2083 3.2147L21.1443 3.13786L21.1425 3.13944L21.2083 3.2147ZM21.2083 12.9323L21.1422 13.0079L21.1502 13.0137L21.2083 12.9323ZM3.92485 14.147V14.047H3.82485V14.147H3.92485ZM3.92485 22V22.1H4.02485V22H3.92485ZM2.53662 22H2.43662V22.1H2.53662V22ZM2.53662 2V1.9H2.43662V2H2.53662ZM21.4166 2.45118L21.3229 2.48629L21.4166 2.45118ZM3.95956 12.7588H3.85956V12.8588H3.95956V12.7588ZM3.95956 3.38823V3.28823H3.85956V3.38823H3.95956ZM18.9525 12.7588V12.8588H19.2199L19.0181 12.6833L18.9525 12.7588ZM14.1631 8.5941L14.2287 8.51857L14.2255 8.51601L14.1631 8.5941ZM14.1631 7.55292L14.0973 7.47728L14.0923 7.48221L14.1631 7.55292ZM18.9525 3.38823L19.0181 3.46369L19.2199 3.28823H18.9525V3.38823ZM15.7213 8.14877L21.2742 3.28996L21.1425 3.13944L15.5896 7.99825L15.7213 8.14877ZM21.2742 12.8571L15.7213 7.99825L15.5896 8.14877L21.1425 13.0076L21.2742 12.8571ZM21.5102 13.731C21.6276 13.4179 21.552 13.0549 21.2665 12.8509L21.1502 13.0137C21.3505 13.1568 21.4138 13.4185 21.3229 13.6607L21.5102 13.731ZM20.7572 14.247C21.0735 14.247 21.3904 14.0503 21.5102 13.731L21.3229 13.6607C21.2345 13.8967 20.9961 14.047 20.7572 14.047V14.247ZM3.92485 14.247H20.7572V14.047H3.92485V14.247ZM4.02485 22V14.147H3.82485V22H4.02485ZM2.53662 22.1H3.92485V21.9H2.53662V22.1ZM2.43662 2V22H2.63662V2H2.43662ZM20.7572 1.9H2.53662V2.1H20.7572V1.9ZM21.5102 2.41606C21.3914 2.09932 21.1111 1.9 20.7572 1.9V2.1C21.0279 2.1 21.2335 2.24774 21.3229 2.48629L21.5102 2.41606ZM21.2723 3.29152C21.5102 3.09332 21.6306 2.73712 21.5102 2.41606L21.3229 2.48629C21.4108 2.72052 21.3229 2.98903 21.1443 3.13788L21.2723 3.29152ZM4.05956 12.7588V3.38823H3.85956V12.7588H4.05956ZM18.9525 12.6588H3.95956V12.8588H18.9525V12.6588ZM14.0974 8.66956L18.8868 12.8343L19.0181 12.6833L14.2287 8.51864L14.0974 8.66956ZM13.8201 8.07351C13.8201 8.3083 13.9005 8.51212 14.1006 8.67218L14.2255 8.51601C14.0785 8.39843 14.0201 8.25519 14.0201 8.07351H13.8201ZM14.0923 7.48221C13.9426 7.63194 13.8201 7.8294 13.8201 8.07351H14.0201C14.0201 7.90115 14.1058 7.75156 14.2338 7.62363L14.0923 7.48221ZM18.8868 3.31277L14.0974 7.47746L14.2287 7.62838L19.0181 3.46369L18.8868 3.31277ZM3.95956 3.48823H18.9525V3.28823H3.95956V3.48823Z" fill="#404553"/>
</svg>
