<svg width="24" height="24" viewBox="0 0 24 24" fill="none" xmlns="http://www.w3.org/2000/svg">
<path d="M16.4179 12.4044L17.9522 12.1424C17.711 10.7329 17.0457 9.45636 16.0354 8.4418C14.9667 7.3732 13.6154 6.6996 12.1268 6.4917L11.9106 8.03432C13.0624 8.19648 14.1102 8.71623 14.9376 9.54367C15.7193 10.3254 16.2308 11.315 16.4179 12.4044Z" fill="#404553"/>
<path d="M18.8171 5.73493C17.0457 3.96362 14.8046 2.84511 12.3306 2.5L12.1144 4.04262C14.2516 4.342 16.1892 5.31081 17.7193 6.8368C19.1705 8.28794 20.1227 10.1216 20.4678 12.1383L22.0021 11.8763C21.5988 9.5395 20.4969 7.41892 18.8171 5.73493Z" fill="#404553"/>
<path d="M17.2121 15.7184C16.5593 15.0739 15.7443 15.0739 15.0956 15.7184C14.6008 16.209 14.106 16.6996 13.6196 17.1986C13.4865 17.3358 13.3742 17.3649 13.2121 17.2734C12.8919 17.0988 12.5509 16.9574 12.2433 16.7662C10.8087 15.8639 9.60708 14.7038 8.54263 13.3982C8.01456 12.7495 7.54471 12.0552 7.21623 11.2734C7.1497 11.1154 7.16217 11.0115 7.29107 10.8826C7.78587 10.4044 8.2682 9.91378 8.75469 9.42314C9.43244 8.74122 9.43244 7.94289 8.75053 7.25682C8.36384 6.86596 7.97714 6.48343 7.59045 6.09257C7.19128 5.69341 6.79627 5.29008 6.39294 4.89507C5.74014 4.25889 4.92517 4.25889 4.27652 4.89923C3.77756 5.38987 3.29939 5.89299 2.79211 6.37532C2.32226 6.82023 2.08525 7.36492 2.03535 8.0011C1.95635 9.03644 2.20999 10.0136 2.56758 10.9658C3.29939 12.9366 4.41373 14.6872 5.76508 16.2922C7.59045 18.4626 9.76924 20.1799 12.3181 21.419C13.4657 21.9762 14.6549 22.4044 15.948 22.4751C16.8378 22.525 17.6112 22.3005 18.2308 21.6061C18.6549 21.1321 19.1331 20.6996 19.5821 20.2464C20.2474 19.5728 20.2516 18.7579 19.5904 18.0926C18.8004 17.2984 18.0062 16.5084 17.2121 15.7184Z" fill="#FEEE00" stroke="#404553" stroke-width="1.5"/>
</svg>
