<svg width="24" height="24" viewBox="0 0 24 24" fill="none" xmlns="http://www.w3.org/2000/svg">
<path d="M4.6712 6.75084V4.72534C4.6712 3.62077 5.56663 2.72534 6.6712 2.72534H19.9996C21.1043 2.72534 21.9998 3.62104 21.9996 4.72578L21.9964 19.232C21.9961 20.3364 21.1008 21.2316 19.9964 21.2316H6.63663C5.53206 21.2316 4.63663 20.3362 4.63663 19.2316V10.3697" stroke="#404553" stroke-width="1.5"/>
<path d="M5.44791 8.00977H2.33826" stroke="#404553" stroke-width="1.5"/>
<path d="M5.41619 10.146H2.33826" stroke="#404553" stroke-width="1.5"/>
<path d="M5 6L22 6" stroke="#404553" stroke-width="1.5"/>
<rect x="2.75" y="12.75" width="14.5" height="8.5" rx="1.25" fill="#FEEE00" stroke="#404553" stroke-width="1.5"/>
<circle cx="10" cy="17" r="1.5" stroke="#404553"/>
<path d="M5 17H7" stroke="#404553"/>
<path d="M13 17H15" stroke="#404553"/>
<path d="M12.7375 10.5857V6.00656H18.2375V10.5857L15.8011 9.46416L15.4875 9.3198L15.1739 9.46416L12.7375 10.5857Z" fill="#FEEE00" stroke="#404553" stroke-width="1.5"/>
</svg>
