<svg width="23" height="23" viewBox="0 0 23 23" fill="none" xmlns="http://www.w3.org/2000/svg">
<path d="M3.87996 12.1462V22.2598H11.4776H19.0752V12.1462L11.4344 4.89758L3.87996 12.1462Z" stroke="#404554" stroke-linejoin="round"/>
<path d="M11.4344 4.89759L3.27053 12.7795C2.74606 13.2859 1.91041 13.2712 1.40406 12.7467C0.897701 12.2223 0.912385 11.3866 1.43685 10.8803L11.4117 1.24991L21.6264 10.8689C22.1572 11.3687 22.1823 12.2041 21.6825 12.7348C21.1827 13.2656 20.3473 13.2907 19.8165 12.7909L11.4344 4.89759Z" stroke="#404554" stroke-linejoin="round"/>
<path d="M8.92001 22L8.92001 17.5135C8.92001 16.1248 10.0457 14.9991 11.4344 14.9991V14.9991C12.8231 14.9991 13.9488 16.1248 13.9488 17.5135V22" stroke="#404554" stroke-linecap="round" stroke-linejoin="round"/>
<path d="M12.5256 12.4557H10.2438" stroke="#404554" stroke-linecap="round" stroke-linejoin="round"/>
</svg>
