<svg width="19" height="19" viewBox="0 0 19 19" fill="none" xmlns="http://www.w3.org/2000/svg">
<g clip-path="url(#clip0)">
<path d="M2.01703 5.36746V5.18197M2.01703 5.18197V14.8709C2.01703 16.1227 3.03172 17.1373 4.28341 17.1373H7.16462M2.01703 5.18197L4.14057 2.27149C4.70945 1.49179 5.61654 1.03075 6.58172 1.03075H14.4978C15.7494 1.03075 16.7641 2.04545 16.7641 3.29712V11.5148" stroke="#404553" stroke-width="1.51092"/>
<path d="M16.7603 10.2224V15.6182C16.7603 16.4527 16.0839 17.1291 15.2494 17.1291H9.23465" stroke="#404553" stroke-width="1.51092"/>
<path d="M10.1836 14.3911V17.2003H6.78657L6.85389 14.4075L6.86317 14.0228L6.53814 13.8168C5.88876 13.4053 5.3893 12.9997 5.04723 12.5083C4.71564 12.032 4.50308 11.433 4.50314 10.5809C4.50323 9.06371 5.10002 8.10113 5.82287 7.50527C6.32515 7.09125 6.90034 6.84522 7.40721 6.72813V10.5809V11.2608H8.08712H9.18783H9.86774V10.5809V6.78121C11.3751 7.24161 12.7627 8.7382 12.7627 10.5809C12.7627 11.5386 12.4856 12.2 12.1029 12.6797C11.711 13.171 11.1732 13.5152 10.5925 13.7675L10.1836 13.9452V14.3911Z" stroke="#404553" stroke-width="1.35983"/>
<path fill-rule="evenodd" clip-rule="evenodd" d="M12.7033 2.25932H13.7873V2.87676C13.884 2.90742 13.9773 2.94604 14.0662 2.99188L14.4971 2.56098L15.2635 3.32742L14.8351 3.75585C14.8846 3.85032 14.9259 3.94976 14.9582 4.05322H15.5811V5.12133H14.9582C14.926 5.22478 14.8846 5.3242 14.8351 5.41866L15.2636 5.84714L14.4972 6.61359L14.0662 6.18266C13.9773 6.22853 13.8841 6.26716 13.7873 6.29782V6.91523H12.7033V6.29796C12.6091 6.26814 12.5183 6.23078 12.4316 6.18656L12.0045 6.61359L11.2381 5.84714L11.659 5.4262C11.6078 5.32948 11.5651 5.22753 11.532 5.12133H10.9092V4.05322H11.532C11.5651 3.94705 11.6078 3.84513 11.659 3.74844L11.238 3.32742L12.0044 2.56098L12.4315 2.98806C12.5183 2.94382 12.6091 2.90644 12.7033 2.87664V2.25932ZM13.2456 5.2512C13.6123 5.2512 13.9096 4.95395 13.9096 4.58724C13.9096 4.22056 13.6123 3.9233 13.2456 3.9233C12.8789 3.9233 12.5816 4.22056 12.5816 4.58724C12.5816 4.95395 12.8789 5.2512 13.2456 5.2512Z" fill="#404553"/>
</g>
<defs>
<clipPath id="clip0">
<rect y="0.00279999" width="18.1311" height="18.1311" fill="white"/>
</clipPath>
</defs>
</svg>
