<svg width="350" height="208" viewBox="0 0 350 208" fill="none" xmlns="http://www.w3.org/2000/svg">
<path d="M175 131C175 131 173.92 131.396 172 132" stroke="#E8EAF1" stroke-width="2.88" stroke-linecap="round"/>
<path d="M166 132.129C149.77 135.852 113.462 141.52 94.7515 123.428C73.0027 102.39 85.4636 57.2398 99.8464 49" stroke="#E8EAF1" stroke-width="2.88" stroke-linecap="round" stroke-dasharray="8.47"/>
<path d="M102 48.5478C102.973 47.9825 103.998 47.8527 105 48.1678" stroke="#E8EAF1" stroke-width="2.88" stroke-linecap="round"/>
<path d="M275 82C275 82 276.143 82.6897 278 84" stroke="#E8EAF1" stroke-width="2.88" stroke-linecap="round"/>
<path d="M282.204 87C292.032 93.6162 306.928 107.326 293.9 123.727C279.36 142.059 244.797 141.607 231 140.615" stroke="#E8EAF1" stroke-width="2.88" stroke-linecap="round" stroke-dasharray="8.46"/>
<path d="M228 140.67C226.105 140.31 225 140 225 140" stroke="#E8EAF1" stroke-width="2.88" stroke-linecap="round"/>
<path d="M27 182H312C312 164.289 293.615 155.428 275.225 164.289C275.225 137.717 256.841 128.861 238.451 128.861L164.901 120L137.319 128.84H118.934C109.758 120 91.3517 128.84 91.3517 146.551C76.4054 138.606 63.4509 151.086 63.7693 164.263C45.3847 155.428 36.1923 164.283 27 182Z" fill="#F4F6F8"/>
<path d="M324 182H337H324Z" fill="#8E99A4"/>
<path d="M324 182H337" stroke="#C6CBDB" stroke-width="2.88" stroke-linecap="round" stroke-linejoin="round"/>
<path d="M342 182H348H342Z" fill="#8E99A4"/>
<path d="M342 182H348" stroke="#C6CBDB" stroke-width="2.88" stroke-linecap="round" stroke-linejoin="round"/>
<path d="M23 182H319H23Z" fill="#8E99A4"/>
<path d="M23 182H319" stroke="#C6CBDB" stroke-width="2.88" stroke-linecap="round" stroke-linejoin="round"/>
<path d="M219.742 42.4491C221.443 37.2652 227.024 34.4412 232.208 36.1416L279.948 51.801C285.132 53.5014 287.956 59.0822 286.256 64.2661L280.258 82.5508C278.558 87.7348 272.977 90.5588 267.793 88.8584L220.052 73.199C214.869 71.4986 212.045 65.9178 213.745 60.7338L219.742 42.4491Z" fill="#E6ECF4"/>
<g style="mix-blend-mode:multiply" opacity="0.27">
<path d="M224.29 44.9825C224.58 44.0983 225.532 43.6167 226.416 43.9067L283.077 62.4918C283.961 62.7818 284.442 63.7336 284.152 64.6178L282.709 69.0175C282.419 69.9017 281.467 70.3833 280.583 70.0933L223.923 51.5082C223.039 51.2182 222.557 50.2664 222.847 49.3822L224.29 44.9825Z" fill="#DAE2EC"/>
</g>
<g style="mix-blend-mode:multiply" opacity="0.27">
<path d="M258.849 75.9734C259.317 74.5489 260.85 73.773 262.275 74.2402L274.22 78.1583C275.644 78.6255 276.42 80.159 275.953 81.5835L275.151 84.0266C274.684 85.4511 273.151 86.227 271.726 85.7598L259.781 81.8417C258.357 81.3745 257.581 79.841 258.048 78.4165L258.849 75.9734Z" fill="#DAE2EC"/>
</g>
<path d="M97.4527 38.8044C95.3759 32.6477 98.6834 25.9732 104.84 23.8965L162.139 4.56887C168.295 2.49213 174.97 5.79959 177.046 11.9563L184.548 34.1956C186.625 40.3522 183.317 47.0268 177.161 49.1035L119.862 68.4311C113.706 70.5079 107.031 67.2004 104.954 61.0437L97.4527 38.8044Z" fill="#F4F6F8"/>
<g style="mix-blend-mode:multiply" opacity="0.56">
<path d="M145.96 37.4563C146.534 30.5766 141.868 24.5714 135.539 24.0433C129.21 23.5151 123.614 28.664 123.039 35.5437C122.465 42.4233 127.131 48.4285 133.46 48.9567C139.789 49.4848 145.386 44.3359 145.96 37.4563Z" fill="#F4F6F8"/>
</g>
<g style="mix-blend-mode:multiply" opacity="0.56">
<path d="M157.96 34.4563C158.534 27.5766 153.868 21.5714 147.539 21.0433C141.21 20.5151 135.614 25.664 135.039 32.5437C134.465 39.4233 139.131 45.4285 145.46 45.9567C151.789 46.4848 157.386 41.3359 157.96 34.4563Z" fill="#F4F6F8"/>
</g>
<path d="M16 182H2H16Z" fill="#8E99A4"/>
<path d="M16 182H2" stroke="#C6CBDB" stroke-width="2.88" stroke-linecap="round" stroke-linejoin="round"/>
<path d="M329.002 133.534C332.998 139.453 334 154.31 334 154.31L330.284 156.754C324.779 160.372 315.279 155.84 309.063 146.658C302.848 137.477 302.277 127.057 307.781 123.444L311.498 121C311.498 121 325.119 127.759 329.002 133.534Z" fill="#EBF1F7"/>
<path d="M333.808 153.731C339.325 150.057 338.958 139.813 332.988 130.849C327.019 121.885 317.708 117.596 312.192 121.269C306.676 124.943 307.043 135.187 313.012 144.151C318.981 153.115 328.292 157.404 333.808 153.731Z" fill="#F4F6F8"/>
<path d="M15.3341 145.804C12.6702 149.478 12 158.711 12 158.711L14.4781 160.227C18.1501 162.473 24.4861 159.658 28.6312 153.939C32.7763 148.221 33.1368 141.762 29.4873 139.516L27.0092 138C27.0092 138 17.9305 142.228 15.3341 145.804Z" fill="#EBF1F7"/>
<path d="M24.8265 151.88C28.8059 145.904 29.4233 139.322 26.2055 137.18C22.9877 135.037 17.1531 138.144 13.1737 144.12C9.19424 150.096 8.57682 156.678 11.7947 158.82C15.0125 160.963 20.847 157.856 24.8265 151.88Z" fill="#F4F6F8"/>
<path d="M255 139.233V190.672C254.997 198.584 248.29 204.997 240.015 205H148.985C140.71 204.997 134.003 198.584 134 190.672V116C133.997 118.361 134.977 120.626 136.723 122.296C138.469 123.965 140.838 124.902 143.308 124.899H240.004C243.981 124.898 247.795 126.408 250.607 129.096C253.42 131.784 255 135.43 255 139.233Z" fill="#E8EAF1"/>
<path d="M237 118.034V126H143.364C138.192 126 134 121.971 134 117C134 112.029 138.192 108 143.364 108H226.566C229.334 108 231.989 109.057 233.946 110.939C235.903 112.821 237.001 115.373 237 118.034Z" fill="#E8EAF1"/>
<path d="M236.394 125.818V117.933C236.395 115.298 235.302 112.771 233.356 110.908C231.409 109.045 228.768 107.999 226.016 108H143.309C138.168 108 134 111.989 134 116.909C134 121.829 138.168 125.818 143.309 125.818H240.013C248.289 125.821 254.997 132.241 255 140.162V191.657C254.997 199.577 248.289 205.997 240.013 206H148.987C140.711 205.997 134.003 199.577 134 191.657V116.904" stroke="#C5D0D9" stroke-width="2.88" stroke-linecap="round" stroke-linejoin="round"/>
<g style="mix-blend-mode:screen" opacity="0.28">
<path d="M151.787 124.974V208H149.475C141.107 208 134.344 201.077 134.344 192.524V115.361C134.344 120.674 138.549 124.974 143.742 124.974H151.787Z" fill="#FCF5E3"/>
</g>
<path d="M237 117.034V125H143.364C138.192 125 134 120.971 134 116C134 111.029 138.192 107 143.364 107H226.566C229.334 107 231.989 108.057 233.946 109.939C235.903 111.821 237.001 114.373 237 117.034Z" fill="#D3D7E6"/>
<path d="M236.394 124.817V116.932C236.395 114.298 235.302 111.771 233.356 109.908C231.409 108.045 228.768 106.999 226.016 107H143.309C138.168 107 134 110.989 134 115.909C134 120.829 138.168 124.817 143.309 124.817H240.013C248.289 124.82 254.997 131.24 255 139.16V190.657C254.997 198.577 248.289 204.997 240.013 205H148.987C140.711 204.997 134.003 198.577 134 190.657V115.909" stroke="#C6CBDB" stroke-width="2.88" stroke-linecap="round" stroke-linejoin="round"/>
<g style="mix-blend-mode:multiply" opacity="0.41">
<path d="M223.652 157H257V178H223.652C218.321 178 214 173.879 214 168.795V166.221C213.996 163.777 215.011 161.431 216.821 159.702C218.632 157.972 221.089 157 223.652 157Z" fill="#E8EAF1"/>
</g>
<path d="M223.882 154H259V175H223.882C218.424 175 214 170.784 214 165.584V163.411C214.003 158.213 218.426 154 223.882 154Z" fill="#E8EAF1" stroke="#C6CBDB" stroke-width="2.88" stroke-linecap="round" stroke-linejoin="round"/>
<path d="M226 168C228.209 168 230 166.209 230 164C230 161.791 228.209 160 226 160C223.791 160 222 161.791 222 164C222 166.209 223.791 168 226 168Z" fill="#E8EAF1" stroke="#C6CBDB" stroke-width="2.88" stroke-linecap="round" stroke-linejoin="round"/>
<path d="M107.652 94H51.9903C45.1659 94 39 99.2573 39 105.746V129.911C39 136.4 45.1659 141.657 51.9903 141.657H91.5216L106.504 153V141.657H107.646C114.469 141.657 120 136.398 120 129.911V105.746C120 99.261 114.472 94.0029 107.652 94Z" fill="#FDD760" stroke="#FFC729" stroke-width="5.04"/>
<g style="mix-blend-mode:screen" opacity="0.28">
<path d="M52.0579 130.284V106.181C52.0579 99.7084 58.0698 94.4645 64.7236 94.4645H51.989C45.3351 94.4645 39.3232 99.7084 39.3232 106.181V130.284C39.3232 136.756 45.3351 142 51.989 142H64.7236C58.0751 142 52.0579 136.756 52.0579 130.284Z" fill="#FCD66D"/>
</g>
<path d="M70 128C75.9982 124 81.9982 124 88 128H70Z" fill="#FDD760"/>
<path d="M70 128C75.9982 124 81.9982 124 88 128" stroke="#FFC729" stroke-width="5.04" stroke-linecap="round"/>
<path d="M71 110V113V110Z" fill="#FDD760"/>
<path d="M71 110V113" stroke="#FFC729" stroke-width="5.04" stroke-linecap="round"/>
<path d="M87 110V113V110Z" fill="#FDD760"/>
<path d="M87 110V113" stroke="#FFC729" stroke-width="5.04" stroke-linecap="round"/>
<path fill-rule="evenodd" clip-rule="evenodd" d="M107.652 94H51.9903C45.1659 94 39 99.2573 39 105.746V129.911C39 136.4 45.1659 141.657 51.9903 141.657H91.5216L106.504 153V141.657H107.646C114.469 141.657 120 136.398 120 129.911V105.746C120 99.261 114.472 94.0029 107.652 94V94Z" stroke="#FFC729" stroke-width="5.04"/>
</svg>
