<svg width="21" height="22" viewBox="0 0 21 22" fill="none" xmlns="http://www.w3.org/2000/svg">
<path d="M1.5498 6.51834L4.09561 3.0291C4.77761 2.09435 5.86509 1.54163 7.02223 1.54163H16.5124C18.0129 1.54163 19.2294 2.7581 19.2294 4.25868V14.1105M1.5498 6.74072V6.51834V6.74072ZM1.5498 6.51834V18.134C1.5498 19.6347 2.76626 20.851 4.26686 20.851H7.72103L1.5498 6.51834Z" stroke="#404553" stroke-width="1.64211"/>
<path d="M19.2248 12.5612V19.0299C19.2248 20.0304 18.4138 20.8413 17.4134 20.8413H10.2026" stroke="#404553" stroke-width="1.64211"/>
<path d="M11.3403 17.5588V20.9265H7.26777L7.34847 17.5784L7.35957 17.1172L6.96994 16.8703C6.19142 16.3769 5.59264 15.8907 5.18254 15.3016C4.78502 14.7305 4.53019 14.0124 4.53027 12.9909C4.53037 11.172 5.24583 10.018 6.11243 9.3036C6.71459 8.80728 7.40417 8.51233 8.01187 8.37195V12.9908V13.806H8.82697H10.1466H10.9617V12.9908V8.43558C12.7687 8.98754 14.4324 10.7817 14.4324 12.9908C14.4324 14.139 14.1001 14.9319 13.6413 15.5071C13.1715 16.0961 12.5267 16.5087 11.8306 16.8112L11.3403 17.0242V17.5588Z" fill="#088DF9" stroke="#404553" stroke-width="1.4779"/>
<path fill-rule="evenodd" clip-rule="evenodd" d="M14.3613 3.01453H15.6608V3.75475C15.7768 3.7915 15.8885 3.8378 15.9951 3.89275L16.5117 3.37617L17.4305 4.29502L16.917 4.80864C16.9763 4.92191 17.0259 5.04111 17.0645 5.16516H17.8113V6.44565H17.0645C17.0259 6.56968 16.9764 6.68887 16.917 6.80211L17.4307 7.3158L16.5118 8.23466L15.9952 7.71804C15.8886 7.77303 15.7768 7.81935 15.6608 7.8561V8.59628H14.3613V7.85626C14.2484 7.82052 14.1395 7.77573 14.0355 7.72271L13.5235 8.23466L12.6047 7.3158L13.1093 6.81115C13.0478 6.69521 12.9967 6.57297 12.957 6.44565H12.2104V5.16516H12.9571C12.9967 5.03787 13.0478 4.91567 13.1093 4.79976L12.6046 4.29502L13.5234 3.37617L14.0354 3.88817C14.1394 3.83513 14.2484 3.79032 14.3613 3.7546V3.01453ZM15.0114 6.60136C15.451 6.60136 15.8074 6.24499 15.8074 5.80537C15.8074 5.36576 15.451 5.00939 15.0114 5.00939C14.5718 5.00939 14.2154 5.36576 14.2154 5.80537C14.2154 6.24499 14.5718 6.60136 15.0114 6.60136Z" fill="#404553"/>
</svg>
