<svg width="19" height="19" viewBox="0 0 19 19" fill="none" xmlns="http://www.w3.org/2000/svg">
<path d="M7.05085 6.56192C10.1631 6.56192 12.6862 5.40951 12.6862 3.98793C12.6862 2.56635 10.1631 1.41394 7.05085 1.41394C3.93855 1.41394 1.41553 2.56635 1.41553 3.98793C1.41553 5.40951 3.93855 6.56192 7.05085 6.56192Z" stroke="#404553" stroke-width="1.55226"/>
<path d="M1.41553 7.92932C1.41553 9.35092 3.93855 10.5033 7.0509 10.5033C7.4902 10.5033 7.9177 10.4803 8.3281 10.4369" stroke="#404553" stroke-width="1.55226"/>
<path d="M1.41553 11.8707C1.41553 13.2923 3.93855 14.4447 7.0508 14.4447C7.5106 14.4447 7.9576 14.4196 8.3854 14.3721" stroke="#404553" stroke-width="1.55226"/>
<path d="M12.6862 3.77185V7.6475M1.41553 3.77185V15.3979C1.41553 16.8195 3.93855 17.9719 7.0509 17.9719C8.4594 17.9719 9.7473 17.7358 10.7352 17.3456L1.41553 3.77185Z" stroke="#404553" stroke-width="1.55226"/>
<path d="M12.9445 17.9154C15.7217 17.9154 17.973 15.6073 17.973 12.7601C17.973 9.91295 15.7217 7.60486 12.9445 7.60486C10.1673 7.60486 7.91602 9.91295 7.91602 12.7601C7.91602 15.6073 10.1673 17.9154 12.9445 17.9154Z" fill="#088DF9" stroke="#404553" stroke-width="1.55226"/>
</svg>
