<svg width="20" height="21" viewBox="0 0 20 21" fill="none" xmlns="http://www.w3.org/2000/svg">
<path d="M3.72954 1.51013H15.7724C17.3522 1.51013 18.6327 2.79095 18.6323 4.37069L18.6296 16.418C18.6293 17.9972 17.3489 19.2772 15.7697 19.2772H3.74089C2.16245 19.2772 0.88247 17.9985 0.88098 16.42L0.86963 4.37274C0.86814 2.7922 2.149 1.51013 3.72954 1.51013Z" stroke="#404553" stroke-width="1.51018"/>
<path d="M4.55096 4.86932H7.56782C7.57982 4.86932 7.58952 4.87903 7.58952 4.891L7.58662 8.7463C7.58662 8.7582 7.57692 8.7679 7.56492 8.7679H4.56306C4.55113 8.7679 4.54144 8.7583 4.5414 8.7463L4.5293 4.89105C4.52926 4.87906 4.53897 4.86932 4.55096 4.86932Z" fill="#088DF9" stroke="#404553" stroke-width="1.16168"/>
<path d="M4.55096 11.6163H7.56782C7.57982 11.6163 7.58952 11.626 7.58952 11.6379L7.58662 15.4932C7.58662 15.5052 7.57692 15.5149 7.56492 15.5149H4.56306C4.55113 15.5149 4.54144 15.5052 4.5414 15.4933L4.5293 11.638C4.52926 11.626 4.53897 11.6163 4.55096 11.6163Z" fill="#088DF9" stroke="#404553" stroke-width="1.16168"/>
<mask id="mask0" mask-type="alpha" maskUnits="userSpaceOnUse" x="9" y="4" width="7" height="2">
<path fill-rule="evenodd" clip-rule="evenodd" d="M9.01032 4.77019C9.00592 4.50511 9.21952 4.28784 9.48462 4.28784H15.2793C15.5421 4.28784 15.7548 4.5014 15.7537 4.76415C15.7527 5.02541 15.5406 5.23665 15.2793 5.23665H9.48462C9.22572 5.23665 9.01462 5.02906 9.01032 4.77019Z" fill="white"/>
</mask>
<g mask="url(#mask0)">
<path d="M9.48475 6.6112H15.2795V1.96448H9.48475V6.6112ZM15.2795 2.91329H9.48475V7.56H15.2795V2.91329ZM9.48475 2.91329C10.4939 2.91329 11.3166 3.72235 11.3335 4.73128L6.68741 4.80909C6.71298 6.33577 7.95785 7.56 9.48475 7.56V2.91329ZM13.4306 4.7548C13.4347 3.73656 14.2613 2.91329 15.2795 2.91329V7.56C16.8203 7.56 18.071 6.31426 18.0772 4.77351L13.4306 4.7548ZM15.2795 6.6112C14.2555 6.6112 13.4264 5.77885 13.4306 4.7548L18.0772 4.77351C18.0835 3.22396 16.8291 1.96448 15.2795 1.96448V6.6112ZM9.48475 1.96448C7.92125 1.96448 6.66123 3.24582 6.68741 4.80909L11.3335 4.73128C11.3508 5.7644 10.5181 6.6112 9.48475 6.6112V1.96448Z" fill="#404553"/>
</g>
<mask id="mask1" mask-type="alpha" maskUnits="userSpaceOnUse" x="9" y="11" width="7" height="1">
<path fill-rule="evenodd" clip-rule="evenodd" d="M9.01032 11.5171C9.00592 11.2521 9.21952 11.0348 9.48462 11.0348H15.2793C15.5421 11.0348 15.7548 11.2484 15.7537 11.5111C15.7527 11.7724 15.5406 11.9836 15.2793 11.9836H9.48462C9.22572 11.9836 9.01462 11.776 9.01032 11.5171Z" fill="white"/>
</mask>
<g mask="url(#mask1)">
<path d="M9.48475 13.3581H15.2795V8.71143H9.48475V13.3581ZM15.2795 9.66023H9.48475V14.307H15.2795V9.66023ZM9.48475 9.66023C10.4939 9.66023 11.3166 10.4693 11.3335 11.4782L6.68741 11.556C6.71298 13.0827 7.95785 14.307 9.48475 14.307V9.66023ZM13.4306 11.5017C13.4347 10.4835 14.2613 9.66023 15.2795 9.66023V14.307C16.8203 14.307 18.071 13.0612 18.0772 11.5205L13.4306 11.5017ZM15.2795 13.3581C14.2555 13.3581 13.4264 12.5258 13.4306 11.5017L18.0772 11.5205C18.0835 9.97093 16.8291 8.71143 15.2795 8.71143V13.3581ZM9.48475 8.71143C7.92125 8.71143 6.66123 9.99283 6.68741 11.556L11.3335 11.4782C11.3508 12.5113 10.5181 13.3581 9.48475 13.3581V8.71143Z" fill="#404553"/>
</g>
</svg>
