<svg width="22" height="21" viewBox="0 0 22 21" fill="none" xmlns="http://www.w3.org/2000/svg">
<path d="M1.74756 3.00358C1.74639 1.76012 2.75409 0.751465 3.99756 0.751465H18.0048C19.2476 0.751465 20.255 1.75913 20.2548 3.00197L20.2516 17.002C20.2513 18.2444 19.244 19.2515 18.0016 19.2515H4.01075C2.76894 19.2515 1.76192 18.2454 1.76075 17.0036L1.74756 3.00358Z" stroke="#404553" stroke-width="1.5"/>
<path d="M1.75441 7.75832C1.75062 6.65108 2.64715 5.75146 3.7544 5.75146H18.2534C19.3586 5.75146 20.2543 6.6479 20.2534 7.75311C20.2525 8.857 19.3573 9.7515 18.2534 9.7515H3.7544C2.65251 9.7515 1.75819 8.8602 1.75441 7.75832Z" fill="#088DF9" stroke="#404553" stroke-width="1.5"/>
<mask id="mask0" mask-type="alpha" maskUnits="userSpaceOnUse" x="5" y="14" width="8" height="2">
<path fill-rule="evenodd" clip-rule="evenodd" d="M5.00445 14.7609C4.9992 14.343 5.3365 14.0015 5.7544 14.0015H11.2533C11.6684 14.0015 12.0045 14.3386 12.0033 14.7537C12.002 15.1671 11.6666 15.5015 11.2533 15.5015H5.75439C5.34386 15.5015 5.00961 15.1714 5.00445 14.7609Z" fill="white"/>
</mask>
<g mask="url(#mask0)">
<path d="M5.75441 15.5015H11.2533V12.5015H5.75441V15.5015ZM11.2533 14.0015H5.7544V17.0015H11.2533V14.0015ZM5.7544 14.0015C6.16494 14.0015 6.49919 14.3315 6.50435 14.742L3.50458 14.7797C3.52006 16.0113 4.52279 17.0015 5.7544 17.0015V14.0015ZM10.5033 14.7492C10.5045 14.3359 10.84 14.0015 11.2533 14.0015V17.0015C12.4933 17.0015 13.4995 15.9982 13.5033 14.7583L10.5033 14.7492ZM11.2533 15.5015C10.8382 15.5015 10.502 15.1643 10.5033 14.7492L13.5033 14.7583C13.507 13.513 12.4986 12.5015 11.2533 12.5015V15.5015ZM5.75441 12.5015C4.50071 12.5015 3.48883 13.5261 3.50458 14.7797L6.50435 14.742C6.5096 15.1599 6.1723 15.5015 5.75441 15.5015V12.5015Z" fill="#404553"/>
</g>
</svg>
