<svg width="21" height="21" viewBox="0 0 21 21" fill="none" xmlns="http://www.w3.org/2000/svg">
<path d="M2.67129 5.75084V3.72534C2.67129 2.62077 3.56672 1.72534 4.67129 1.72534H17.9997C19.1044 1.72534 19.9999 2.62104 19.9997 3.72578L19.9965 18.232C19.9962 19.3364 19.1009 20.2316 17.9965 20.2316H4.63672C3.53215 20.2316 2.63672 19.3362 2.63672 18.2316V9.3697" stroke="#404553" stroke-width="1.5"/>
<path d="M3.44803 7.00977H0.338379" stroke="#404553" stroke-width="1.5"/>
<path d="M3.41631 9.146H0.338379" stroke="#404553" stroke-width="1.5"/>
<path d="M3 5H20" stroke="#404553" stroke-width="1.5"/>
<path d="M14 11.75H2C1.30964 11.75 0.75 12.3096 0.75 13V19C0.75 19.6904 1.30964 20.25 2 20.25H14C14.6904 20.25 15.25 19.6904 15.25 19V13C15.25 12.3096 14.6904 11.75 14 11.75Z" fill="#088DF9" stroke="#404553" stroke-width="1.5"/>
<path d="M8 17.5C8.82843 17.5 9.5 16.8284 9.5 16C9.5 15.1716 8.82843 14.5 8 14.5C7.17157 14.5 6.5 15.1716 6.5 16C6.5 16.8284 7.17157 17.5 8 17.5Z" stroke="#404553"/>
<path d="M3 16H5" stroke="#404553"/>
<path d="M11 16H13" stroke="#404553"/>
<path d="M10.7373 9.58577V5.00665H16.2373V9.58577L13.8009 8.46425L13.4873 8.31989L13.1737 8.46425L10.7373 9.58577Z" fill="#088DF9" stroke="#404553" stroke-width="1.5"/>
</svg>
