<svg width="23" height="24" viewBox="0 0 23 24" fill="none" xmlns="http://www.w3.org/2000/svg">
<path d="M6.6001 16.7C6.6001 14.4 8.4001 12.6 10.7001 12.6C11.5001 12.6 11.0001 12.6 12.1001 12.6C13.2001 12.6 12.7001 12.6 13.5001 12.6C15.8001 12.6 17.6001 14.4 17.6001 16.7V17.4H12.1001H6.6001V16.7Z" fill="#088DF9" stroke="#404553" stroke-width="1.5" stroke-linecap="round" stroke-linejoin="round"/>
<path d="M11.9998 10.5C13.4998 10.5 14.6998 9.3 14.6998 7.8C14.6998 6.3 13.4998 5 11.9998 5C10.4998 5 9.2998 6.2 9.2998 7.7C9.2998 9.2 10.4998 10.5 11.9998 10.5Z" fill="#088DF9" stroke="#404553" stroke-width="1.5" stroke-linecap="round" stroke-linejoin="round"/>
<path d="M22.2001 12C22.2001 17.7 17.6001 22.3 11.9001 22.3C6.2001 22.3 1.6001 17.7 1.6001 12C1.6001 9.40001 2.5001 7.10001 4.1001 5.30001C6.0001 3.10001 8.8001 1.70001 11.9001 1.70001C17.7001 1.80001 22.2001 6.40001 22.2001 12Z" stroke="#404553" stroke-width="1.5" stroke-linecap="round" stroke-linejoin="round"/>
</svg>
