<svg width="22" height="21" viewBox="0 0 22 21" fill="none" xmlns="http://www.w3.org/2000/svg">
<path d="M1.74756 3.00358C1.74639 1.76012 2.75409 0.751465 3.99756 0.751465H18.0047C19.2476 0.751465 20.255 1.75913 20.2547 3.00197L20.2516 17.002C20.2513 18.2444 19.244 19.2515 18.0016 19.2515H4.01075C2.76894 19.2515 1.76192 18.2454 1.76075 17.0036L1.74756 3.00358Z" stroke="#404553" stroke-width="1.5"/>
<mask id="mask0" mask-type="alpha" maskUnits="userSpaceOnUse" x="7" y="3" width="10" height="11">
<path fill-rule="evenodd" clip-rule="evenodd" d="M7.98926 13.9268C7.9913 13.9268 7.99334 13.9268 7.99538 13.9268H11.005C13.7659 13.9268 16.004 11.6886 16.004 8.92768C16.0032 6.16424 13.764 3.92566 11.002 3.92566H8.00205" fill="white"/>
</mask>
<g mask="url(#mask0)">
<path fill-rule="evenodd" clip-rule="evenodd" d="M7.98926 13.9268C7.9913 13.9268 7.99334 13.9268 7.99538 13.9268H11.005C13.7659 13.9268 16.004 11.6886 16.004 8.92768C16.0032 6.16424 13.764 3.92566 11.002 3.92566H8.00205" fill="#088DF9"/>
<path d="M11.0049 13.9268V12.4268V13.9268ZM16.0039 8.92768L17.5039 8.92728V8.92768H16.0039ZM7.99097 12.4268C7.9924 12.4268 7.99383 12.4268 7.99525 12.4268V15.4268C7.9926 15.4268 7.98995 15.4268 7.9873 15.4268L7.99097 12.4268ZM7.99525 12.4268H11.0049V15.4268H7.99525V12.4268ZM11.0049 12.4268C12.9373 12.4268 14.5039 10.8602 14.5039 8.92768H17.5039C17.5039 12.517 14.5942 15.4268 11.0049 15.4268V12.4268ZM14.5039 8.92808C14.5034 6.99265 12.9353 5.42566 11.0019 5.42566V2.42566C14.5924 2.42566 17.5029 5.33583 17.5039 8.92728L14.5039 8.92808ZM11.0019 5.42566H8.00192V2.42566H11.0019V5.42566Z" fill="#404553"/>
<path d="M9.80984 10.3442L6.98145 13.1727L9.80984 16.0011" stroke="#404553" stroke-width="1.5"/>
</g>
</svg>
